999
"DXF R12 Output" (www.mydxf.blogspot.com)
 0 
SECTION
 2 
HEADER
 9 
$ACADVER
 1 
AC1009
 9 
$EXTMIN
 10 
 0 
 20 
 0 
 9 
$EXTMAX
 10 
 8.5 
 20 
 11 
 0 
ENDSEC
 0 
SECTION
 2 
ENTITIES
0
LINE
8
Camada 1
10
38.307600
20
0.361620
11
14.763400
21
0.023840
0
LINE
8
Camada 1
10
14.763400
20
0.023840
11
13.670883
21
1.275890
0
LINE
8
Camada 1
10
13.670883
20
1.275890
11
11.213401
21
4.635872
0
LINE
8
Camada 1
10
11.213401
20
4.635872
11
9.857205
21
6.920636
0
LINE
8
Camada 1
10
9.857205
20
6.920636
11
8.621056
21
9.509539
0
LINE
8
Camada 1
10
8.621056
20
9.509539
11
7.658717
21
12.328301
0
LINE
8
Camada 1
10
7.658717
20
12.328301
11
7.123950
21
15.302640
0
LINE
8
Camada 1
10
7.123950
20
15.302640
11
6.957920
21
18.100723
0
LINE
8
Camada 1
10
6.957920
20
18.100723
11
6.975208
21
20.468600
0
LINE
8
Camada 1
10
6.975208
20
20.468600
11
7.139697
21
22.448780
0
LINE
8
Camada 1
10
7.139697
20
22.448780
11
7.415273
21
24.083771
0
LINE
8
Camada 1
10
7.415273
20
24.083771
11
8.155219
21
26.488227
0
LINE
8
Camada 1
10
8.155219
20
26.488227
11
8.906120
21
28.022040
0
LINE
8
Camada 1
10
8.906120
20
28.022040
11
9.583037
21
29.828788
0
LINE
8
Camada 1
10
9.583037
20
29.828788
11
10.702513
21
31.475520
0
LINE
8
Camada 1
10
10.702513
20
31.475520
11
12.113207
21
32.957837
0
LINE
8
Camada 1
10
12.113207
20
32.957837
11
13.663780
21
34.271340
0
LINE
8
Camada 1
10
13.663780
20
34.271340
11
16.088244
21
36.098237
0
LINE
8
Camada 1
10
16.088244
20
36.098237
11
16.928056
21
36.965861
0
LINE
8
Camada 1
10
16.928056
20
36.965861
11
17.301960
21
37.896740
0
LINE
8
Camada 1
10
17.301960
20
37.896740
11
17.209751
21
38.790769
0
LINE
8
Camada 1
10
17.209751
20
38.790769
11
16.877303
21
39.615769
0
LINE
8
Camada 1
10
16.877303
20
39.615769
11
15.767361
21
41.265259
0
LINE
8
Camada 1
10
15.767361
20
41.265259
11
14.523474
21
43.258359
0
LINE
8
Camada 1
10
14.523474
20
43.258359
11
14.023594
21
44.512873
0
LINE
8
Camada 1
10
14.023594
20
44.512873
11
13.696980
21
46.008220
0
LINE
8
Camada 1
10
13.696980
20
46.008220
11
13.567079
21
47.604812
0
LINE
8
Camada 1
10
13.567079
20
47.604812
11
13.599504
21
49.121030
0
LINE
8
Camada 1
10
13.599504
20
49.121030
11
14.080023
21
51.866751
0
LINE
8
Camada 1
10
14.080023
20
51.866751
11
14.995912
21
54.154195
0
LINE
8
Camada 1
10
14.995912
20
54.154195
11
16.204550
21
55.892170
0
LINE
8
Camada 1
10
16.204550
20
55.892170
11
18.248830
21
57.818185
0
LINE
8
Camada 1
10
18.248830
20
57.818185
11
18.804608
21
58.528335
0
LINE
8
Camada 1
10
18.804608
20
58.528335
11
19.015380
21
59.471590
0
LINE
8
Camada 1
10
19.015380
20
59.471590
11
18.926295
21
60.087180
0
LINE
8
Camada 1
10
18.926295
20
60.087180
11
18.656634
21
60.763143
0
LINE
8
Camada 1
10
18.656634
20
60.763143
11
17.739620
21
62.232664
0
LINE
8
Camada 1
10
17.739620
20
62.232664
11
15.543070
21
65.197430
0
LINE
8
Camada 1
10
15.543070
20
65.197430
11
13.629455
21
67.985862
0
LINE
8
Camada 1
10
13.629455
20
67.985862
11
12.630799
21
69.001423
0
LINE
8
Camada 1
10
12.630799
20
69.001423
11
12.137575
21
69.290841
0
LINE
8
Camada 1
10
12.137575
20
69.290841
11
11.654730
21
69.387560
0
LINE
8
Camada 1
10
11.654730
20
69.387560
11
10.837859
21
69.298120
0
LINE
8
Camada 1
10
10.837859
20
69.298120
11
10.255514
21
69.112659
0
LINE
8
Camada 1
10
10.255514
20
69.112659
11
9.578150
21
68.677220
0
LINE
8
Camada 1
10
9.578150
20
68.677220
11
7.395297
21
67.341507
0
LINE
8
Camada 1
10
7.395297
20
67.341507
11
5.613926
21
66.494450
0
LINE
8
Camada 1
10
5.613926
20
66.494450
11
3.907470
21
66.014660
0
LINE
8
Camada 1
10
3.907470
20
66.014660
11
1.720783
21
65.961204
0
LINE
8
Camada 1
10
1.720783
20
65.961204
11
1.137956
21
66.133512
0
LINE
8
Camada 1
10
1.137956
20
66.133512
11
0.760030
21
66.418430
0
LINE
8
Camada 1
10
0.760030
20
66.418430
11
0.182161
21
67.180247
0
LINE
8
Camada 1
10
0.182161
20
67.180247
11
0.034032
21
67.544367
0
LINE
8
Camada 1
10
0.034032
20
67.544367
11
0.077729
21
67.822770
0
LINE
8
Camada 1
10
0.077729
20
67.822770
11
2.944899
21
72.868350
0
LINE
8
Camada 1
10
2.944899
20
72.868350
11
3.918875
21
74.583805
0
LINE
8
Camada 1
10
3.918875
20
74.583805
11
5.351785
21
76.946101
0
LINE
8
Camada 1
10
5.351785
20
76.946101
11
7.129757
21
79.261825
0
LINE
8
Camada 1
10
7.129757
20
79.261825
11
8.112556
21
80.185529
0
LINE
8
Camada 1
10
8.112556
20
80.185529
11
9.138919
21
80.837560
0
LINE
8
Camada 1
10
9.138919
20
80.837560
11
10.158350
21
81.231902
0
LINE
8
Camada 1
10
10.158350
20
81.231902
11
11.120241
21
81.461794
0
LINE
8
Camada 1
10
11.120241
20
81.461794
11
12.813774
21
81.556991
0
LINE
8
Camada 1
10
12.813774
20
81.556991
11
14.104272
21
81.380683
0
LINE
8
Camada 1
10
14.104272
20
81.380683
11
14.876489
21
81.190400
0
LINE
8
Camada 1
10
14.876489
20
81.190400
11
15.705569
21
80.757018
0
LINE
8
Camada 1
10
15.705569
20
80.757018
11
17.012334
21
79.798701
0
LINE
8
Camada 1
10
17.012334
20
79.798701
11
18.450062
21
78.493909
0
LINE
8
Camada 1
10
18.450062
20
78.493909
11
19.672029
21
77.021100
0
LINE
8
Camada 1
10
19.672029
20
77.021100
11
20.576044
21
75.325599
0
LINE
8
Camada 1
10
20.576044
20
75.325599
11
21.303033
21
73.350086
0
LINE
8
Camada 1
10
21.303033
20
73.350086
11
22.297639
21
69.257010
0
LINE
8
Camada 1
10
22.297639
20
69.257010
11
22.838407
21
65.405396
0
LINE
8
Camada 1
10
22.838407
20
65.405396
11
22.992788
21
62.428050
0
LINE
8
Camada 1
10
22.992788
20
62.428050
11
23.005478
21
61.192744
0
LINE
8
Camada 1
10
23.005478
20
61.192744
11
23.257673
21
59.829561
0
LINE
8
Camada 1
10
23.257673
20
59.829561
11
23.551203
21
59.218377
0
LINE
8
Camada 1
10
23.551203
20
59.218377
11
23.997751
21
58.717256
0
LINE
8
Camada 1
10
23.997751
20
58.717256
11
24.628363
21
58.373542
0
LINE
8
Camada 1
10
24.628363
20
58.373542
11
25.474088
21
58.234580
0
LINE
8
Camada 1
10
25.474088
20
58.234580
11
26.326221
21
58.313243
0
LINE
8
Camada 1
10
26.326221
20
58.313243
11
26.972876
21
58.565020
0
LINE
8
Camada 1
10
26.972876
20
58.565020
11
27.440331
21
58.951157
0
LINE
8
Camada 1
10
27.440331
20
58.951157
11
27.754862
21
59.432900
0
LINE
8
Camada 1
10
27.754862
20
59.432900
11
28.030258
21
60.528188
0
LINE
8
Camada 1
10
28.030258
20
60.528188
11
28.009278
21
61.540850
0
LINE
8
Camada 1
10
28.009278
20
61.540850
11
27.539930
21
64.560356
0
LINE
8
Camada 1
10
27.539930
20
64.560356
11
27.298154
21
66.876293
0
LINE
8
Camada 1
10
27.298154
20
66.876293
11
27.226098
21
69.590620
0
LINE
8
Camada 1
10
27.226098
20
69.590620
11
27.445321
21
72.345393
0
LINE
8
Camada 1
10
27.445321
20
72.345393
11
27.939962
21
74.897351
0
LINE
8
Camada 1
10
27.939962
20
74.897351
11
28.634723
21
77.314244
0
LINE
8
Camada 1
10
28.634723
20
77.314244
11
29.454308
21
79.663820
0
LINE
8
Camada 1
10
29.454308
20
79.663820
11
30.529429
21
81.965611
0
LINE
8
Camada 1
10
30.529429
20
81.965611
11
31.893609
21
84.092365
0
LINE
8
Camada 1
10
31.893609
20
84.092365
11
33.325786
21
85.891677
0
LINE
8
Camada 1
10
33.325786
20
85.891677
11
34.604898
21
87.211140
0
LINE
8
Camada 1
10
34.604898
20
87.211140
11
36.788063
21
89.161372
0
LINE
8
Camada 1
10
36.788063
20
89.161372
11
37.728790
21
89.793949
0
LINE
8
Camada 1
10
37.728790
20
89.793949
11
38.484598
21
89.965170
0
LINE
8
Camada 1
10
38.484598
20
89.965170
11
38.815728
21
89.768156
0
LINE
8
Camada 1
10
38.815728
20
89.768156
11
39.157573
21
89.320333
0
LINE
8
Camada 1
10
39.157573
20
89.320333
11
39.817735
21
87.825344
0
LINE
8
Camada 1
10
39.817735
20
87.825344
11
40.353741
21
85.786370
0
LINE
8
Camada 1
10
40.353741
20
85.786370
11
40.654248
21
83.509580
0
LINE
8
Camada 1
10
40.654248
20
83.509580
11
40.684340
21
81.124355
0
LINE
8
Camada 1
10
40.684340
20
81.124355
11
40.531924
21
78.676614
0
LINE
8
Camada 1
10
40.531924
20
78.676614
11
39.971197
21
74.317400
0
LINE
8
Camada 1
10
39.971197
20
74.317400
11
39.417552
21
72.097254
0
LINE
8
Camada 1
10
39.417552
20
72.097254
11
38.484957
21
69.419017
0
LINE
8
Camada 1
10
38.484957
20
69.419017
11
37.387645
21
66.796300
0
LINE
8
Camada 1
10
37.387645
20
66.796300
11
36.339847
21
64.742710
0
LINE
8
Camada 1
10
36.339847
20
64.742710
11
34.238662
21
61.380045
0
LINE
8
Camada 1
10
34.238662
20
61.380045
11
33.420292
21
59.944799
0
LINE
8
Camada 1
10
33.420292
20
59.944799
11
33.095107
21
59.003690
0
LINE
8
Camada 1
10
33.095107
20
59.003690
11
33.286889
21
57.870920
0
LINE
8
Camada 1
10
33.286889
20
57.870920
11
33.887256
21
56.875490
0
LINE
8
Camada 1
10
33.887256
20
56.875490
11
34.597466
21
56.104266
0
LINE
8
Camada 1
10
34.597466
20
56.104266
11
35.674671
21
54.781614
0
LINE
8
Camada 1
10
35.674671
20
54.781614
11
36.782501
21
52.971474
0
LINE
8
Camada 1
10
36.782501
20
52.971474
11
37.242784
21
51.903579
0
LINE
8
Camada 1
10
37.242784
20
51.903579
11
37.584586
21
50.737790
0
LINE
8
Camada 1
10
37.584586
20
50.737790
11
37.947262
21
48.545935
0
LINE
8
Camada 1
10
37.947262
20
48.545935
11
38.026477
21
46.791539
0
LINE
8
Camada 1
10
38.026477
20
46.791539
11
37.920301
21
45.433906
0
LINE
8
Camada 1
10
37.920301
20
45.433906
11
37.726806
21
44.432340
0
LINE
8
Camada 1
10
37.726806
20
44.432340
11
36.927701
21
42.355715
0
LINE
8
Camada 1
10
36.927701
20
42.355715
11
35.744656
21
40.227880
0
LINE
8
Camada 1
10
35.744656
20
40.227880
11
35.092156
21
39.110411
0
LINE
8
Camada 1
10
35.092156
20
39.110411
11
35.031923
21
38.090930
0
LINE
8
Camada 1
10
35.031923
20
38.090930
11
35.027349
21
36.749501
0
LINE
8
Camada 1
10
35.027349
20
36.749501
11
35.311428
21
36.070533
0
LINE
8
Camada 1
10
35.311428
20
36.070533
11
36.049213
21
35.219260
0
LINE
8
Camada 1
10
36.049213
20
35.219260
11
38.996352
21
32.690237
0
LINE
8
Camada 1
10
38.996352
20
32.690237
11
40.578124
21
31.239561
0
LINE
8
Camada 1
10
40.578124
20
31.239561
11
41.737233
21
29.879800
0
LINE
8
Camada 1
10
41.737233
20
29.879800
11
42.655071
21
28.327275
0
LINE
8
Camada 1
10
42.655071
20
28.327275
11
43.648414
21
26.297587
0
LINE
8
Camada 1
10
43.648414
20
26.297587
11
44.549262
21
23.950923
0
LINE
8
Camada 1
10
44.549262
20
23.950923
11
45.189613
21
21.447470
0
LINE
8
Camada 1
10
45.189613
20
21.447470
11
45.491581
21
18.981482
0
LINE
8
Camada 1
10
45.491581
20
18.981482
11
45.506292
21
16.594336
0
LINE
8
Camada 1
10
45.506292
20
16.594336
11
45.259269
21
14.216905
0
LINE
8
Camada 1
10
45.259269
20
14.216905
11
44.776034
21
11.780060
0
LINE
8
Camada 1
10
44.776034
20
11.780060
11
43.972485
21
9.213486
0
LINE
8
Camada 1
10
43.972485
20
9.213486
11
42.862923
21
6.663291
0
LINE
8
Camada 1
10
42.862923
20
6.663291
11
41.620476
21
4.384981
0
LINE
8
Camada 1
10
41.620476
20
4.384981
11
40.418274
21
2.634060
0
LINE
8
Camada 1
10
40.418274
20
2.634060
11
38.800763
21
0.796812
0
LINE
8
Camada 1
10
38.800763
20
0.796812
11
38.307614
21
0.361630
0
LINE
8
Camada 1
10
38.307614
20
0.361630
11
38.307600
21
0.361620
 0 
ENDSEC
 0 
EOF