999
"DXF R12 Output" (www.mydxf.blogspot.com)
 0 
SECTION
 2 
HEADER
 9 
$ACADVER
 1 
AC1009
 9 
$EXTMIN
 10 
 0 
 20 
 0 
 9 
$EXTMAX
 10 
 8.5 
 20 
 11 
 0 
ENDSEC
 0 
SECTION
 2 
ENTITIES
0
LINE
8
Camada 1
10
64.684900
20
-0.191510
11
25.444500
21
-0.225310
0
LINE
8
Camada 1
10
25.444500
20
-0.225310
11
23.623644
21
1.861438
0
LINE
8
Camada 1
10
23.623644
20
1.861438
11
21.731979
21
4.284170
0
LINE
8
Camada 1
10
21.731979
20
4.284170
11
19.527850
21
7.461402
0
LINE
8
Camada 1
10
19.527850
20
7.461402
11
17.267527
21
11.269334
0
LINE
8
Camada 1
10
17.267527
20
11.269334
11
15.207281
21
15.584160
0
LINE
8
Camada 1
10
15.207281
20
15.584160
11
14.332271
21
17.892971
0
LINE
8
Camada 1
10
14.332271
20
17.892971
11
13.603382
21
20.282080
0
LINE
8
Camada 1
10
13.603382
20
20.282080
11
13.052647
21
22.736011
0
LINE
8
Camada 1
10
13.052647
20
22.736011
11
12.712100
21
25.239290
0
LINE
8
Camada 1
10
12.712100
20
25.239290
11
12.435383
21
29.902757
0
LINE
8
Camada 1
10
12.435383
20
29.902757
11
12.464195
21
33.849217
0
LINE
8
Camada 1
10
12.464195
20
33.849217
11
12.738344
21
37.149516
0
LINE
8
Camada 1
10
12.738344
20
37.149516
11
13.197636
21
39.874503
0
LINE
8
Camada 1
10
13.197636
20
39.874503
11
13.781879
21
42.095025
0
LINE
8
Camada 1
10
13.781879
20
42.095025
11
14.430879
21
43.881932
0
LINE
8
Camada 1
10
14.430879
20
43.881932
11
15.682380
21
46.438290
0
LINE
8
Camada 1
10
15.682380
20
46.438290
11
16.138514
21
47.976788
0
LINE
8
Camada 1
10
16.138514
20
47.976788
11
16.810577
21
49.449531
0
LINE
8
Camada 1
10
16.810577
20
49.449531
11
17.667039
21
50.855602
0
LINE
8
Camada 1
10
17.667039
20
50.855602
11
18.676372
21
52.194084
0
LINE
8
Camada 1
10
18.676372
20
52.194084
11
21.027529
21
54.664615
0
LINE
8
Camada 1
10
21.027529
20
54.664615
11
23.611810
21
56.853790
0
LINE
8
Camada 1
10
23.611810
20
56.853790
11
27.652579
21
59.898626
0
LINE
8
Camada 1
10
27.652579
20
59.898626
11
29.052269
21
61.344668
0
LINE
8
Camada 1
10
29.052269
20
61.344668
11
29.477926
21
62.099893
0
LINE
8
Camada 1
10
29.477926
20
62.099893
11
29.675450
21
62.896130
0
LINE
8
Camada 1
10
29.675450
20
62.896130
11
29.521769
21
64.386179
0
LINE
8
Camada 1
10
29.521769
20
64.386179
11
28.967690
21
65.761179
0
LINE
8
Camada 1
10
28.967690
20
65.761179
11
28.128075
21
67.107204
0
LINE
8
Camada 1
10
28.128075
20
67.107204
11
27.117786
21
68.510325
0
LINE
8
Camada 1
10
27.117786
20
68.510325
11
26.051687
21
70.056616
0
LINE
8
Camada 1
10
26.051687
20
70.056616
11
25.044639
21
71.832148
0
LINE
8
Camada 1
10
25.044639
20
71.832148
11
24.211506
21
73.922996
0
LINE
8
Camada 1
10
24.211506
20
73.922996
11
23.667150
21
76.415230
0
LINE
8
Camada 1
10
23.667150
20
76.415230
11
23.450649
21
79.076217
0
LINE
8
Camada 1
10
23.450649
20
79.076217
11
23.504693
21
81.603251
0
LINE
8
Camada 1
10
23.504693
20
81.603251
11
23.799567
21
83.977332
0
LINE
8
Camada 1
10
23.799567
20
83.977332
11
24.305559
21
86.179460
0
LINE
8
Camada 1
10
24.305559
20
86.179460
11
24.992956
21
88.190634
0
LINE
8
Camada 1
10
24.992956
20
88.190634
11
25.832043
21
89.991854
0
LINE
8
Camada 1
10
25.832043
20
89.991854
11
26.793109
21
91.564119
0
LINE
8
Camada 1
10
26.793109
20
91.564119
11
27.846440
21
92.888430
0
LINE
8
Camada 1
10
27.846440
20
92.888430
11
29.794884
21
94.801292
0
LINE
8
Camada 1
10
29.794884
20
94.801292
11
31.253566
21
96.098463
0
LINE
8
Camada 1
10
31.253566
20
96.098463
11
32.179863
21
97.282042
0
LINE
8
Camada 1
10
32.179863
20
97.282042
11
32.430046
21
97.988141
0
LINE
8
Camada 1
10
32.430046
20
97.988141
11
32.531150
21
98.854130
0
LINE
8
Camada 1
10
32.531150
20
98.854130
11
32.382675
21
99.880117
0
LINE
8
Camada 1
10
32.382675
20
99.880117
11
31.933239
21
101.006725
0
LINE
8
Camada 1
10
31.933239
20
101.006725
11
30.404881
21
103.455930
0
LINE
8
Camada 1
10
30.404881
20
103.455930
11
28.492863
21
105.990005
0
LINE
8
Camada 1
10
28.492863
20
105.990005
11
26.743970
21
108.397210
0
LINE
8
Camada 1
10
26.743970
20
108.397210
11
25.193575
21
110.774186
0
LINE
8
Camada 1
10
25.193575
20
110.774186
11
23.554610
21
113.044593
0
LINE
8
Camada 1
10
23.554610
20
113.044593
11
22.721635
21
113.992572
0
LINE
8
Camada 1
10
22.721635
20
113.992572
11
21.890183
21
114.737195
0
LINE
8
Camada 1
10
21.890183
20
114.737195
11
21.068142
21
115.219560
0
LINE
8
Camada 1
10
21.068142
20
115.219560
11
20.263400
21
115.380760
0
LINE
8
Camada 1
10
20.263400
20
115.380760
11
18.901949
21
115.231678
0
LINE
8
Camada 1
10
18.901949
20
115.231678
11
17.931374
21
114.922575
0
LINE
8
Camada 1
10
17.931374
20
114.922575
11
16.802430
21
114.196850
0
LINE
8
Camada 1
10
16.802430
20
114.196850
11
15.589553
21
113.386122
0
LINE
8
Camada 1
10
15.589553
20
113.386122
11
13.164339
21
111.970666
0
LINE
8
Camada 1
10
13.164339
20
111.970666
11
10.195388
21
110.558902
0
LINE
8
Camada 1
10
10.195388
20
110.558902
11
8.715949
21
110.044536
0
LINE
8
Camada 1
10
8.715949
20
110.044536
11
7.351300
21
109.759250
0
LINE
8
Camada 1
10
7.351300
20
109.759250
11
5.189002
21
109.595757
0
LINE
8
Camada 1
10
5.189002
20
109.595757
11
3.706818
21
109.670145
0
LINE
8
Camada 1
10
3.706818
20
109.670145
11
2.735439
21
109.957323
0
LINE
8
Camada 1
10
2.735439
20
109.957323
11
2.105560
21
110.432200
0
LINE
8
Camada 1
10
2.105560
20
110.432200
11
1.142443
21
111.701905
0
LINE
8
Camada 1
10
1.142443
20
111.701905
11
0.895560
21
112.308768
0
LINE
8
Camada 1
10
0.895560
20
112.308768
11
0.968390
21
112.772770
0
LINE
8
Camada 1
10
0.968390
20
112.772770
11
5.747000
21
121.182070
0
LINE
8
Camada 1
10
5.747000
20
121.182070
11
7.370291
21
124.041157
0
LINE
8
Camada 1
10
7.370291
20
124.041157
11
9.758478
21
127.978309
0
LINE
8
Camada 1
10
9.758478
20
127.978309
11
11.180099
21
129.990007
0
LINE
8
Camada 1
10
11.180099
20
129.990007
11
12.721775
21
131.837841
0
LINE
8
Camada 1
10
12.721775
20
131.837841
11
14.359783
21
133.377348
0
LINE
8
Camada 1
10
14.359783
20
133.377348
11
16.070400
21
134.464070
0
LINE
8
Camada 1
10
16.070400
20
134.464070
11
17.769451
21
135.121311
0
LINE
8
Camada 1
10
17.769451
20
135.121311
11
19.372600
21
135.504466
0
LINE
8
Camada 1
10
19.372600
20
135.504466
11
20.855839
21
135.667189
0
LINE
8
Camada 1
10
20.855839
20
135.667189
11
22.195156
21
135.663131
0
LINE
8
Camada 1
10
22.195156
20
135.663131
11
24.345991
21
135.369286
0
LINE
8
Camada 1
10
24.345991
20
135.369286
11
25.633030
21
135.052150
0
LINE
8
Camada 1
10
25.633030
20
135.052150
11
27.014827
21
134.329845
0
LINE
8
Camada 1
10
27.014827
20
134.329845
11
29.192770
21
132.732646
0
LINE
8
Camada 1
10
29.192770
20
132.732646
11
31.588985
21
130.557987
0
LINE
8
Camada 1
10
31.588985
20
130.557987
11
32.688360
21
129.347058
0
LINE
8
Camada 1
10
32.688360
20
129.347058
11
33.625600
21
128.103300
0
LINE
8
Camada 1
10
33.625600
20
128.103300
11
35.132289
21
125.277466
0
LINE
8
Camada 1
10
35.132289
20
125.277466
11
36.343930
21
121.984951
0
LINE
8
Camada 1
10
36.343930
20
121.984951
11
37.290408
21
118.516586
0
LINE
8
Camada 1
10
37.290408
20
118.516586
11
38.001610
21
115.163200
0
LINE
8
Camada 1
10
38.001610
20
115.163200
11
38.529704
21
111.911995
0
LINE
8
Camada 1
10
38.529704
20
111.911995
11
38.902891
21
108.743842
0
LINE
8
Camada 1
10
38.902891
20
108.743842
11
39.160200
21
103.781600
0
LINE
8
Camada 1
10
39.160200
20
103.781600
11
39.181363
21
101.722749
0
LINE
8
Camada 1
10
39.181363
20
101.722749
11
39.315755
21
100.573951
0
LINE
8
Camada 1
10
39.315755
20
100.573951
11
39.601684
21
99.450779
0
LINE
8
Camada 1
10
39.601684
20
99.450779
11
40.090896
21
98.432140
0
LINE
8
Camada 1
10
40.090896
20
98.432140
11
40.835138
21
97.596939
0
LINE
8
Camada 1
10
40.835138
20
97.596939
11
41.886157
21
97.024084
0
LINE
8
Camada 1
10
41.886157
20
97.024084
11
43.295700
21
96.792480
0
LINE
8
Camada 1
10
43.295700
20
96.792480
11
44.715917
21
96.923584
0
LINE
8
Camada 1
10
44.715917
20
96.923584
11
45.793672
21
97.343213
0
LINE
8
Camada 1
10
45.793672
20
97.343213
11
46.572760
21
97.986774
0
LINE
8
Camada 1
10
46.572760
20
97.986774
11
47.096975
21
98.789679
0
LINE
8
Camada 1
10
47.096975
20
98.789679
11
47.410112
21
99.687336
0
LINE
8
Camada 1
10
47.410112
20
99.687336
11
47.555965
21
100.615155
0
LINE
8
Camada 1
10
47.555965
20
100.615155
11
47.521000
21
102.302920
0
LINE
8
Camada 1
10
47.521000
20
102.302920
11
46.738759
21
107.335439
0
LINE
8
Camada 1
10
46.738759
20
107.335439
11
46.335803
21
111.195338
0
LINE
8
Camada 1
10
46.335803
20
111.195338
11
46.215710
21
115.719220
0
LINE
8
Camada 1
10
46.215710
20
115.719220
11
46.581082
21
120.310500
0
LINE
8
Camada 1
10
46.581082
20
120.310500
11
47.405481
21
124.563769
0
LINE
8
Camada 1
10
47.405481
20
124.563769
11
48.563415
21
128.591938
0
LINE
8
Camada 1
10
48.563415
20
128.591938
11
49.929390
21
132.507920
0
LINE
8
Camada 1
10
49.929390
20
132.507920
11
50.742076
21
134.446675
0
LINE
8
Camada 1
10
50.742076
20
134.446675
11
51.721258
21
136.344248
0
LINE
8
Camada 1
10
51.721258
20
136.344248
11
53.994891
21
139.888845
0
LINE
8
Camada 1
10
53.994891
20
139.888845
11
56.381851
21
142.887704
0
LINE
8
Camada 1
10
56.381851
20
142.887704
11
58.513700
21
145.086820
0
LINE
8
Camada 1
10
58.513700
20
145.086820
11
62.152311
21
148.337206
0
LINE
8
Camada 1
10
62.152311
20
148.337206
11
63.720193
21
149.391499
0
LINE
8
Camada 1
10
63.720193
20
149.391499
11
64.395150
21
149.648502
0
LINE
8
Camada 1
10
64.395150
20
149.648502
11
64.979880
21
149.676870
0
LINE
8
Camada 1
10
64.979880
20
149.676870
11
65.531761
21
149.348515
0
LINE
8
Camada 1
10
65.531761
20
149.348515
11
66.101500
21
148.602144
0
LINE
8
Camada 1
10
66.101500
20
148.602144
11
67.201770
21
146.110495
0
LINE
8
Camada 1
10
67.201770
20
146.110495
11
68.095115
21
142.712209
0
LINE
8
Camada 1
10
68.095115
20
142.712209
11
68.595960
21
138.917570
0
LINE
8
Camada 1
10
68.595960
20
138.917570
11
68.646108
21
134.942200
0
LINE
8
Camada 1
10
68.646108
20
134.942200
11
68.392082
21
130.862627
0
LINE
8
Camada 1
10
68.392082
20
130.862627
11
67.955391
21
126.980451
0
LINE
8
Camada 1
10
67.955391
20
126.980451
11
67.457540
21
123.597270
0
LINE
8
Camada 1
10
67.457540
20
123.597270
11
66.534796
21
119.897026
0
LINE
8
Camada 1
10
66.534796
20
119.897026
11
64.980471
21
115.433300
0
LINE
8
Camada 1
10
64.980471
20
115.433300
11
63.151618
21
111.062109
0
LINE
8
Camada 1
10
63.151618
20
111.062109
11
61.405290
21
107.639470
0
LINE
8
Camada 1
10
61.405290
20
107.639470
11
57.903317
21
102.035025
0
LINE
8
Camada 1
10
57.903317
20
102.035025
11
56.539367
21
99.642947
0
LINE
8
Camada 1
10
56.539367
20
99.642947
11
56.139197
21
98.729956
0
LINE
8
Camada 1
10
56.139197
20
98.729956
11
55.997390
21
98.074430
0
LINE
8
Camada 1
10
55.997390
20
98.074430
11
56.079775
21
97.095098
0
LINE
8
Camada 1
10
56.079775
20
97.095098
11
56.317054
21
96.186492
0
LINE
8
Camada 1
10
56.317054
20
96.186492
11
56.724566
21
95.335108
0
LINE
8
Camada 1
10
56.724566
20
95.335108
11
57.317650
21
94.527440
0
LINE
8
Camada 1
10
57.317650
20
94.527440
11
58.501327
21
93.242071
0
LINE
8
Camada 1
10
58.501327
20
93.242071
11
60.296665
21
91.037651
0
LINE
8
Camada 1
10
60.296665
20
91.037651
11
61.248514
21
89.624100
0
LINE
8
Camada 1
10
61.248514
20
89.624100
11
62.143048
21
88.020751
0
LINE
8
Camada 1
10
62.143048
20
88.020751
11
62.910189
21
86.240924
0
LINE
8
Camada 1
10
62.910189
20
86.240924
11
63.479860
21
84.297940
0
LINE
8
Camada 1
10
63.479860
20
84.297940
11
64.084321
21
80.644847
0
LINE
8
Camada 1
10
64.084321
20
80.644847
11
64.216346
21
77.720851
0
LINE
8
Camada 1
10
64.216346
20
77.720851
11
64.039389
21
75.458125
0
LINE
8
Camada 1
10
64.039389
20
75.458125
11
63.716900
21
73.788840
0
LINE
8
Camada 1
10
63.716900
20
73.788840
11
63.192904
21
72.186742
0
LINE
8
Camada 1
10
63.192904
20
72.186742
11
62.385056
21
70.327790
0
LINE
8
Camada 1
10
62.385056
20
70.327790
11
60.413320
21
66.781390
0
LINE
8
Camada 1
10
60.413320
20
66.781390
11
59.325819
21
64.918954
0
LINE
8
Camada 1
10
59.325819
20
64.918954
11
59.223538
21
64.239651
0
LINE
8
Camada 1
10
59.223538
20
64.239651
11
59.225430
21
63.219830
0
LINE
8
Camada 1
10
59.225430
20
63.219830
11
59.172167
21
62.037047
0
LINE
8
Camada 1
10
59.172167
20
62.037047
11
59.217935
21
60.984099
0
LINE
8
Camada 1
10
59.217935
20
60.984099
11
59.691323
21
59.852481
0
LINE
8
Camada 1
10
59.691323
20
59.852481
11
60.920920
21
58.433690
0
LINE
8
Camada 1
10
60.920920
20
58.433690
11
65.832826
21
54.218662
0
LINE
8
Camada 1
10
65.832826
20
54.218662
11
68.469117
21
51.800870
0
LINE
8
Camada 1
10
68.469117
20
51.800870
11
69.561755
21
50.631996
0
LINE
8
Camada 1
10
69.561755
20
50.631996
11
70.400970
21
49.534600
0
LINE
8
Camada 1
10
70.400970
20
49.534600
11
71.930694
21
46.947057
0
LINE
8
Camada 1
10
71.930694
20
46.947057
11
73.586265
21
43.564242
0
LINE
8
Camada 1
10
73.586265
20
43.564242
11
75.087681
21
39.653132
0
LINE
8
Camada 1
10
75.087681
20
39.653132
11
75.693080
21
37.582895
0
LINE
8
Camada 1
10
75.693080
20
37.582895
11
76.154940
21
35.480700
0
LINE
8
Camada 1
10
76.154940
20
35.480700
11
76.658209
21
31.370720
0
LINE
8
Camada 1
10
76.658209
20
31.370720
11
76.682722
21
27.392154
0
LINE
8
Camada 1
10
76.682722
20
27.392154
11
76.271017
21
23.429786
0
LINE
8
Camada 1
10
76.271017
20
23.429786
11
75.465630
21
19.368400
0
LINE
8
Camada 1
10
75.465630
20
19.368400
11
74.126381
21
15.090763
0
LINE
8
Camada 1
10
74.126381
20
15.090763
11
72.277112
21
10.840431
0
LINE
8
Camada 1
10
72.277112
20
10.840431
11
70.206373
21
7.043259
0
LINE
8
Camada 1
10
70.206373
20
7.043259
11
68.202710
21
4.125100
0
LINE
8
Camada 1
10
68.202710
20
4.125100
11
64.684940
21
-0.191460
0
LINE
8
Camada 1
10
64.684940
20
-0.191460
11
64.684900
21
-0.191510
 0 
ENDSEC
 0 
EOF