999
"DXF R12 Output" (www.mydxf.blogspot.com)
 0 
SECTION
 2 
HEADER
 9 
$ACADVER
 1 
AC1009
 9 
$EXTMIN
 10 
 0 
 20 
 0 
 9 
$EXTMAX
 10 
 8.5 
 20 
 11 
 0 
ENDSEC
 0 
SECTION
 2 
ENTITIES
0
LINE
8
Camada 1
10
45.264800
20
-0.189970
11
11.868600
21
-0.208570
0
LINE
8
Camada 1
10
11.868600
20
-0.208570
11
10.477915
21
0.840749
0
LINE
8
Camada 1
10
10.477915
20
0.840749
11
9.025136
21
2.172946
0
LINE
8
Camada 1
10
9.025136
20
2.172946
11
7.321248
21
4.061765
0
LINE
8
Camada 1
10
7.321248
20
4.061765
11
5.556634
21
6.520905
0
LINE
8
Camada 1
10
5.556634
20
6.520905
11
3.921682
21
9.564063
0
LINE
8
Camada 1
10
3.921682
20
9.564063
11
3.212323
21
11.308930
0
LINE
8
Camada 1
10
3.212323
20
11.308930
11
2.606775
21
13.204939
0
LINE
8
Camada 1
10
2.606775
20
13.204939
11
2.128834
21
15.253801
0
LINE
8
Camada 1
10
2.128834
20
15.253801
11
1.802300
21
17.457230
0
LINE
8
Camada 1
10
1.802300
20
17.457230
11
1.627094
21
21.730955
0
LINE
8
Camada 1
10
1.627094
20
21.730955
11
1.995331
21
25.451572
0
LINE
8
Camada 1
10
1.995331
20
25.451572
11
2.790417
21
28.656009
0
LINE
8
Camada 1
10
2.790417
20
28.656009
11
3.895754
21
31.381193
0
LINE
8
Camada 1
10
3.895754
20
31.381193
11
5.194746
21
33.664049
0
LINE
8
Camada 1
10
5.194746
20
33.664049
11
6.570797
21
35.541507
0
LINE
8
Camada 1
10
6.570797
20
35.541507
11
9.087690
21
38.227930
0
LINE
8
Camada 1
10
9.087690
20
38.227930
11
11.353419
21
40.116525
0
LINE
8
Camada 1
10
11.353419
20
40.116525
11
13.584401
21
41.801196
0
LINE
8
Camada 1
10
13.584401
20
41.801196
11
14.540418
21
42.620901
0
LINE
8
Camada 1
10
14.540418
20
42.620901
11
15.312015
21
43.454234
0
LINE
8
Camada 1
10
15.312015
20
43.454234
11
15.840615
21
44.322732
0
LINE
8
Camada 1
10
15.840615
20
44.322732
11
16.067640
21
45.247930
0
LINE
8
Camada 1
10
16.067640
20
45.247930
11
15.885322
21
46.252443
0
LINE
8
Camada 1
10
15.885322
20
46.252443
11
15.311223
21
47.386169
0
LINE
8
Camada 1
10
15.311223
20
47.386169
11
13.505369
21
50.291121
0
LINE
8
Camada 1
10
13.505369
20
50.291121
11
12.532456
21
52.187276
0
LINE
8
Camada 1
10
12.532456
20
52.187276
11
11.685448
21
54.462503
0
LINE
8
Camada 1
10
11.685448
20
54.462503
11
11.093765
21
57.179266
0
LINE
8
Camada 1
10
11.093765
20
57.179266
11
10.886830
21
60.400030
0
LINE
8
Camada 1
10
10.886830
20
60.400030
11
10.975963
21
62.051509
0
LINE
8
Camada 1
10
10.975963
20
62.051509
11
11.201857
21
63.522424
0
LINE
8
Camada 1
10
11.201857
20
63.522424
11
11.986260
21
65.983098
0
LINE
8
Camada 1
10
11.986260
20
65.983098
11
13.084715
21
67.903111
0
LINE
8
Camada 1
10
13.084715
20
67.903111
11
14.341899
21
69.403526
0
LINE
8
Camada 1
10
14.341899
20
69.403526
11
16.711156
21
71.629807
0
LINE
8
Camada 1
10
16.711156
20
71.629807
11
17.512582
21
72.597795
0
LINE
8
Camada 1
10
17.512582
20
72.597795
11
17.851440
21
73.630430
0
LINE
8
Camada 1
10
17.851440
20
73.630430
11
17.593756
21
74.838526
0
LINE
8
Camada 1
10
17.593756
20
74.838526
11
16.797531
21
76.294738
0
LINE
8
Camada 1
10
16.797531
20
76.294738
11
14.120036
21
80.206751
0
LINE
8
Camada 1
10
14.120036
20
80.206751
11
12.504059
21
82.790173
0
LINE
8
Camada 1
10
12.504059
20
82.790173
11
10.880121
21
85.876954
0
LINE
8
Camada 1
10
10.880121
20
85.876954
11
9.380870
21
89.530902
0
LINE
8
Camada 1
10
9.380870
20
89.530902
11
8.138950
21
93.815830
0
LINE
8
Camada 1
10
8.138950
20
93.815830
11
7.202874
21
98.443481
0
LINE
8
Camada 1
10
7.202874
20
98.443481
11
6.522459
21
102.980403
0
LINE
8
Camada 1
10
6.522459
20
102.980403
11
6.082307
21
107.272618
0
LINE
8
Camada 1
10
6.082307
20
107.272618
11
5.867024
21
111.166143
0
LINE
8
Camada 1
10
5.867024
20
111.166143
11
5.861211
21
114.506997
0
LINE
8
Camada 1
10
5.861211
20
114.506997
11
6.049472
21
117.141200
0
LINE
8
Camada 1
10
6.049472
20
117.141200
11
6.416411
21
118.914772
0
LINE
8
Camada 1
10
6.416411
20
118.914772
11
6.662073
21
119.430701
0
LINE
8
Camada 1
10
6.662073
20
119.430701
11
6.946630
21
119.673730
0
LINE
8
Camada 1
10
6.946630
20
119.673730
11
7.370766
21
119.648121
0
LINE
8
Camada 1
10
7.370766
20
119.648121
11
8.016938
21
119.380410
0
LINE
8
Camada 1
10
8.016938
20
119.380410
11
9.858313
21
118.175297
0
LINE
8
Camada 1
10
9.858313
20
118.175297
11
12.236602
21
116.171621
0
LINE
8
Camada 1
10
12.236602
20
116.171621
11
14.917654
21
113.482615
0
LINE
8
Camada 1
10
14.917654
20
113.482615
11
17.667315
21
110.221511
0
LINE
8
Camada 1
10
17.667315
20
110.221511
11
20.251433
21
106.501541
0
LINE
8
Camada 1
10
20.251433
20
106.501541
11
21.408240
21
104.504866
0
LINE
8
Camada 1
10
21.408240
20
104.504866
11
22.435855
21
102.435937
0
LINE
8
Camada 1
10
22.435855
20
102.435937
11
23.305008
21
100.308907
0
LINE
8
Camada 1
10
23.305008
20
100.308907
11
23.986430
21
98.137930
0
LINE
8
Camada 1
10
23.986430
20
98.137930
11
24.478705
21
95.943889
0
LINE
8
Camada 1
10
24.478705
20
95.943889
11
24.817836
21
93.751028
0
LINE
8
Camada 1
10
24.817836
20
93.751028
11
25.144236
21
89.445561
0
LINE
8
Camada 1
10
25.144236
20
89.445561
11
25.142585
21
81.692680
0
LINE
8
Camada 1
10
25.142585
20
81.692680
11
25.244817
21
78.552137
0
LINE
8
Camada 1
10
25.244817
20
78.552137
11
25.415822
21
77.232968
0
LINE
8
Camada 1
10
25.415822
20
77.232968
11
25.702609
21
76.106774
0
LINE
8
Camada 1
10
25.702609
20
76.106774
11
26.132072
21
75.192733
0
LINE
8
Camada 1
10
26.132072
20
75.192733
11
26.731103
21
74.510026
0
LINE
8
Camada 1
10
26.731103
20
74.510026
11
27.526595
21
74.077832
0
LINE
8
Camada 1
10
27.526595
20
74.077832
11
28.545440
21
73.915330
0
LINE
8
Camada 1
10
28.545440
20
73.915330
11
29.572217
21
73.987796
0
LINE
8
Camada 1
10
29.572217
20
73.987796
11
30.387467
21
74.237367
0
LINE
8
Camada 1
10
30.387467
20
74.237367
11
31.012027
21
74.648563
0
LINE
8
Camada 1
10
31.012027
20
74.648563
11
31.466734
21
75.205903
0
LINE
8
Camada 1
10
31.466734
20
75.205903
11
31.772426
21
75.893904
0
LINE
8
Camada 1
10
31.772426
20
75.893904
11
31.949940
21
76.697085
0
LINE
8
Camada 1
10
31.949940
20
76.697085
11
32.003781
21
78.587064
0
LINE
8
Camada 1
10
32.003781
20
78.587064
11
31.490163
21
83.068008
0
LINE
8
Camada 1
10
31.490163
20
83.068008
11
31.256098
21
85.411272
0
LINE
8
Camada 1
10
31.256098
20
85.411272
11
31.259460
21
87.657930
0
LINE
8
Camada 1
10
31.259460
20
87.657930
11
31.730517
21
90.650504
0
LINE
8
Camada 1
10
31.730517
20
90.650504
11
32.825631
21
95.263265
0
LINE
8
Camada 1
10
32.825631
20
95.263265
11
34.531046
21
100.574809
0
LINE
8
Camada 1
10
34.531046
20
100.574809
11
35.608319
21
103.204685
0
LINE
8
Camada 1
10
35.608319
20
103.204685
11
36.833010
21
105.663730
0
LINE
8
Camada 1
10
36.833010
20
105.663730
11
38.604342
21
108.543448
0
LINE
8
Camada 1
10
38.604342
20
108.543448
11
40.485348
21
111.091440
0
LINE
8
Camada 1
10
40.485348
20
111.091440
11
42.389921
21
113.281638
0
LINE
8
Camada 1
10
42.389921
20
113.281638
11
44.231952
21
115.087973
0
LINE
8
Camada 1
10
44.231952
20
115.087973
11
45.925335
21
116.484377
0
LINE
8
Camada 1
10
45.925335
20
116.484377
11
47.383960
21
117.444783
0
LINE
8
Camada 1
10
47.383960
20
117.444783
11
48.521721
21
117.943124
0
LINE
8
Camada 1
10
48.521721
20
117.943124
11
49.252510
21
117.953330
0
LINE
8
Camada 1
10
49.252510
20
117.953330
11
49.674972
21
117.615238
0
LINE
8
Camada 1
10
49.674972
20
117.615238
11
50.058021
21
117.041315
0
LINE
8
Camada 1
10
50.058021
20
117.041315
11
50.691707
21
115.253603
0
LINE
8
Camada 1
10
50.691707
20
115.253603
11
51.125217
21
112.725446
0
LINE
8
Camada 1
10
51.125217
20
112.725446
11
51.330200
21
109.592098
0
LINE
8
Camada 1
10
51.330200
20
109.592098
11
51.278306
21
105.988809
0
LINE
8
Camada 1
10
51.278306
20
105.988809
11
50.941186
21
102.050833
0
LINE
8
Camada 1
10
50.941186
20
102.050833
11
50.290487
21
97.913423
0
LINE
8
Camada 1
10
50.290487
20
97.913423
11
49.297860
21
93.711830
0
LINE
8
Camada 1
10
49.297860
20
93.711830
11
47.967829
21
89.737582
0
LINE
8
Camada 1
10
47.967829
20
89.737582
11
46.410133
21
86.188407
0
LINE
8
Camada 1
10
46.410133
20
86.188407
11
44.754272
21
83.058859
0
LINE
8
Camada 1
10
44.754272
20
83.058859
11
43.129741
21
80.343493
0
LINE
8
Camada 1
10
43.129741
20
80.343493
11
40.492664
21
76.133522
0
LINE
8
Camada 1
10
40.492664
20
76.133522
11
39.739111
21
74.628027
0
LINE
8
Camada 1
10
39.739111
20
74.628027
11
39.534880
21
73.514930
0
LINE
8
Camada 1
10
39.534880
20
73.514930
11
39.907352
21
72.585708
0
LINE
8
Camada 1
10
39.907352
20
72.585708
11
40.697756
21
71.589757
0
LINE
8
Camada 1
10
40.697756
20
71.589757
11
42.933263
21
69.123393
0
LINE
8
Camada 1
10
42.933263
20
69.123393
11
44.078819
21
67.515845
0
LINE
8
Camada 1
10
44.078819
20
67.515845
11
45.043209
21
65.567297
0
LINE
8
Camada 1
10
45.043209
20
65.567297
11
45.676661
21
63.209181
0
LINE
8
Camada 1
10
45.676661
20
63.209181
11
45.822481
21
61.855108
0
LINE
8
Camada 1
10
45.822481
20
61.855108
11
45.829400
21
60.372930
0
LINE
8
Camada 1
10
45.829400
20
60.372930
11
45.484537
21
57.434157
0
LINE
8
Camada 1
10
45.484537
20
57.434157
11
44.806713
21
54.805238
0
LINE
8
Camada 1
10
44.806713
20
54.805238
11
43.918450
21
52.472774
0
LINE
8
Camada 1
10
43.918450
20
52.472774
11
42.942270
21
50.423363
0
LINE
8
Camada 1
10
42.942270
20
50.423363
11
41.216248
21
47.120095
0
LINE
8
Camada 1
10
41.216248
20
47.120095
11
40.711448
21
45.839438
0
LINE
8
Camada 1
10
40.711448
20
45.839438
11
40.608820
21
44.788230
0
LINE
8
Camada 1
10
40.608820
20
44.788230
11
40.849123
21
44.253018
0
LINE
8
Camada 1
10
40.849123
20
44.253018
11
41.399928
21
43.586206
0
LINE
8
Camada 1
10
41.399928
20
43.586206
11
43.248218
21
41.845222
0
LINE
8
Camada 1
10
43.248218
20
41.845222
11
45.784037
21
39.540145
0
LINE
8
Camada 1
10
45.784037
20
39.540145
11
48.637732
21
36.645848
0
LINE
8
Camada 1
10
48.637732
20
36.645848
11
50.068267
21
34.969887
0
LINE
8
Camada 1
10
50.068267
20
34.969887
11
51.439651
21
33.137197
0
LINE
8
Camada 1
10
51.439651
20
33.137197
11
52.705678
21
31.144637
0
LINE
8
Camada 1
10
52.705678
20
31.144637
11
53.820140
21
28.989065
0
LINE
8
Camada 1
10
53.820140
20
28.989065
11
54.736832
21
26.667339
0
LINE
8
Camada 1
10
54.736832
20
26.667339
11
55.409548
21
24.176319
0
LINE
8
Camada 1
10
55.409548
20
24.176319
11
55.792079
21
21.512863
0
LINE
8
Camada 1
10
55.792079
20
21.512863
11
55.838220
21
18.673830
0
LINE
8
Camada 1
10
55.838220
20
18.673830
11
55.598658
21
15.888656
0
LINE
8
Camada 1
10
55.598658
20
15.888656
11
55.173402
21
13.379968
0
LINE
8
Camada 1
10
55.173402
20
13.379968
11
54.590209
21
11.134410
0
LINE
8
Camada 1
10
54.590209
20
11.134410
11
53.876832
21
9.138625
0
LINE
8
Camada 1
10
53.876832
20
9.138625
11
53.061027
21
7.379257
0
LINE
8
Camada 1
10
53.061027
20
7.379257
11
52.170549
21
5.842950
0
LINE
8
Camada 1
10
52.170549
20
5.842950
11
50.276592
21
3.386093
0
LINE
8
Camada 1
10
50.276592
20
3.386093
11
48.417001
21
1.661202
0
LINE
8
Camada 1
10
48.417001
20
1.661202
11
46.813816
21
0.561428
0
LINE
8
Camada 1
10
46.813816
20
0.561428
11
45.264820
21
-0.190170
0
LINE
8
Camada 1
10
45.264820
20
-0.190170
11
45.264800
21
-0.189970
 0 
ENDSEC
 0 
EOF