999
"DXF R12 Output" (www.mydxf.blogspot.com)
 0 
SECTION
 2 
HEADER
 9 
$ACADVER
 1 
AC1009
 9 
$EXTMIN
 10 
 0 
 20 
 0 
 9 
$EXTMAX
 10 
 8.5 
 20 
 11 
 0 
ENDSEC
 0 
SECTION
 2 
ENTITIES
0
LINE
8
Camada 2
10
53.434300
20
295.402000
11
51.848942
21
295.185434
0
LINE
8
Camada 2
10
51.848942
20
295.185434
11
50.379685
21
294.751916
0
LINE
8
Camada 2
10
50.379685
20
294.751916
11
49.029148
21
294.117253
0
LINE
8
Camada 2
10
49.029148
20
294.117253
11
47.799954
21
293.297251
0
LINE
8
Camada 2
10
47.799954
20
293.297251
11
46.694723
21
292.307718
0
LINE
8
Camada 2
10
46.694723
20
292.307718
11
45.716076
21
291.164461
0
LINE
8
Camada 2
10
45.716076
20
291.164461
11
44.866635
21
289.883286
0
LINE
8
Camada 2
10
44.866635
20
289.883286
11
44.149020
21
288.480000
0
LINE
8
Camada 2
10
44.149020
20
288.480000
11
43.626334
21
288.123222
0
LINE
8
Camada 2
10
43.626334
20
288.123222
11
42.967352
21
288.124969
0
LINE
8
Camada 2
10
42.967352
20
288.124969
11
42.374821
21
288.368132
0
LINE
8
Camada 2
10
42.374821
20
288.368132
11
42.051490
21
288.735604
0
LINE
8
Camada 2
10
42.051490
20
288.735604
11
40.817324
21
289.361105
0
LINE
8
Camada 2
10
40.817324
20
289.361105
11
39.789036
21
289.645868
0
LINE
8
Camada 2
10
39.789036
20
289.645868
11
38.640590
21
289.714604
0
LINE
8
Camada 2
10
38.640590
20
289.714604
11
37.640670
21
289.631376
0
LINE
8
Camada 2
10
37.640670
20
289.631376
11
36.671174
21
289.377101
0
LINE
8
Camada 2
10
36.671174
20
289.377101
11
34.885470
21
288.466464
0
LINE
8
Camada 2
10
34.885470
20
288.466464
11
33.948960
21
289.168056
0
LINE
8
Camada 2
10
33.948960
20
289.168056
11
32.831938
21
289.509379
0
LINE
8
Camada 2
10
32.831938
20
289.509379
11
31.655744
21
289.497211
0
LINE
8
Camada 2
10
31.655744
20
289.497211
11
30.541720
21
289.138334
0
LINE
8
Camada 2
10
30.541720
20
289.138334
11
29.718374
21
289.387185
0
LINE
8
Camada 2
10
29.718374
20
289.387185
11
28.860356
21
289.412350
0
LINE
8
Camada 2
10
28.860356
20
289.412350
11
28.014895
21
289.238497
0
LINE
8
Camada 2
10
28.014895
20
289.238497
11
27.229220
21
288.890294
0
LINE
8
Camada 2
10
27.229220
20
288.890294
11
26.123760
21
289.450834
0
LINE
8
Camada 2
10
26.123760
20
289.450834
11
26.646315
21
290.567764
0
LINE
8
Camada 2
10
26.646315
20
290.567764
11
26.887469
21
291.783083
0
LINE
8
Camada 2
10
26.887469
20
291.783083
11
26.759943
21
292.989017
0
LINE
8
Camada 2
10
26.759943
20
292.989017
11
26.176460
21
294.077794
0
LINE
8
Camada 2
10
26.176460
20
294.077794
11
25.231953
21
294.914402
0
LINE
8
Camada 2
10
25.231953
20
294.914402
11
24.043460
21
295.311436
0
LINE
8
Camada 2
10
24.043460
20
295.311436
11
22.792072
21
295.243505
0
LINE
8
Camada 2
10
22.792072
20
295.243505
11
21.658880
21
294.685214
0
LINE
8
Camada 2
10
21.658880
20
294.685214
11
20.509566
21
293.609547
0
LINE
8
Camada 2
10
20.509566
20
293.609547
11
19.660845
21
292.291625
0
LINE
8
Camada 2
10
19.660845
20
292.291625
11
18.354190
21
289.411774
0
LINE
8
Camada 2
10
18.354190
20
289.411774
11
17.438888
21
289.613289
0
LINE
8
Camada 2
10
17.438888
20
289.613289
11
16.500680
21
289.589504
0
LINE
8
Camada 2
10
16.500680
20
289.589504
11
17.249615
21
291.468761
0
LINE
8
Camada 2
10
17.249615
20
291.468761
11
17.456767
21
292.444990
0
LINE
8
Camada 2
10
17.456767
20
292.444990
11
17.365910
21
293.437164
0
LINE
8
Camada 2
10
17.365910
20
293.437164
11
17.068275
21
294.057697
0
LINE
8
Camada 2
10
17.068275
20
294.057697
11
16.624556
21
294.575490
0
LINE
8
Camada 2
10
16.624556
20
294.575490
11
16.070307
21
294.976242
0
LINE
8
Camada 2
10
16.070307
20
294.976242
11
15.441084
21
295.245650
0
LINE
8
Camada 2
10
15.441084
20
295.245650
11
14.772440
21
295.369415
0
LINE
8
Camada 2
10
14.772440
20
295.369415
11
14.099930
21
295.333235
0
LINE
8
Camada 2
10
14.099930
20
295.333235
11
13.459108
21
295.122808
0
LINE
8
Camada 2
10
13.459108
20
295.122808
11
12.885530
21
294.723834
0
LINE
8
Camada 2
10
12.885530
20
294.723834
11
12.276454
21
294.069992
0
LINE
8
Camada 2
10
12.276454
20
294.069992
11
11.821154
21
293.254844
0
LINE
8
Camada 2
10
11.821154
20
293.254844
11
11.170600
21
291.735994
0
LINE
8
Camada 2
10
11.170600
20
291.735994
11
10.975205
21
292.902720
0
LINE
8
Camada 2
10
10.975205
20
292.902720
11
10.381306
21
293.907300
0
LINE
8
Camada 2
10
10.381306
20
293.907300
11
9.486187
21
294.667833
0
LINE
8
Camada 2
10
9.486187
20
294.667833
11
8.387130
21
295.102414
0
LINE
8
Camada 2
10
8.387130
20
295.102414
11
6.698948
21
295.203857
0
LINE
8
Camada 2
10
6.698948
20
295.203857
11
5.048831
21
294.766195
0
LINE
8
Camada 2
10
5.048831
20
294.766195
11
3.620664
21
293.846443
0
LINE
8
Camada 2
10
3.620664
20
293.846443
11
3.047275
21
293.223600
0
LINE
8
Camada 2
10
3.047275
20
293.223600
11
2.598330
21
292.501614
0
LINE
8
Camada 2
10
2.598330
20
292.501614
11
2.312370
21
291.381933
0
LINE
8
Camada 2
10
2.312370
20
291.381933
11
2.459885
21
290.239564
0
LINE
8
Camada 2
10
2.459885
20
290.239564
11
3.021992
21
289.254020
0
LINE
8
Camada 2
10
3.021992
20
289.254020
11
3.979810
21
288.604814
0
LINE
8
Camada 2
10
3.979810
20
288.604814
11
4.046301
21
288.360852
0
LINE
8
Camada 2
10
4.046301
20
288.360852
11
3.927600
21
288.042665
0
LINE
8
Camada 2
10
3.927600
20
288.042665
11
3.631536
21
287.386384
0
LINE
8
Camada 2
10
3.631536
20
287.386384
11
2.480856
21
284.647470
0
LINE
8
Camada 2
10
2.480856
20
284.647470
11
1.588416
21
281.825464
0
LINE
8
Camada 2
10
1.588416
20
281.825464
11
1.713299
21
281.000193
0
LINE
8
Camada 2
10
1.713299
20
281.000193
11
2.097242
21
280.292792
0
LINE
8
Camada 2
10
2.097242
20
280.292792
11
2.679863
21
279.726725
0
LINE
8
Camada 2
10
2.679863
20
279.726725
11
3.400776
21
279.325453
0
LINE
8
Camada 2
10
3.400776
20
279.325453
11
4.199597
21
279.112438
0
LINE
8
Camada 2
10
4.199597
20
279.112438
11
5.015942
21
279.111141
0
LINE
8
Camada 2
10
5.015942
20
279.111141
11
5.789427
21
279.345026
0
LINE
8
Camada 2
10
5.789427
20
279.345026
11
6.459666
21
279.837554
0
LINE
8
Camada 2
10
6.459666
20
279.837554
11
6.988593
21
280.623546
0
LINE
8
Camada 2
10
6.988593
20
280.623546
11
7.397468
21
281.478344
0
LINE
8
Camada 2
10
7.397468
20
281.478344
11
8.088576
21
283.249664
0
LINE
8
Camada 2
10
8.088576
20
283.249664
11
8.157253
21
281.919650
0
LINE
8
Camada 2
10
8.157253
20
281.919650
11
8.651310
21
280.678535
0
LINE
8
Camada 2
10
8.651310
20
280.678535
11
9.529655
21
279.703567
0
LINE
8
Camada 2
10
9.529655
20
279.703567
11
10.100094
21
279.371278
0
LINE
8
Camada 2
10
10.100094
20
279.371278
11
10.751196
21
279.171994
0
LINE
8
Camada 2
10
10.751196
20
279.171994
11
11.477311
21
279.074617
0
LINE
8
Camada 2
10
11.477311
20
279.074617
11
12.207777
21
279.125995
0
LINE
8
Camada 2
10
12.207777
20
279.125995
11
13.606156
21
279.505524
0
LINE
8
Camada 2
10
13.606156
20
279.505524
11
14.663997
21
279.146734
0
LINE
8
Camada 2
10
14.663997
20
279.146734
11
15.776057
21
279.081595
0
LINE
8
Camada 2
10
15.776057
20
279.081595
11
16.877874
21
279.282131
0
LINE
8
Camada 2
10
16.877874
20
279.282131
11
17.904986
21
279.720364
0
LINE
8
Camada 2
10
17.904986
20
279.720364
11
18.757303
21
279.299916
0
LINE
8
Camada 2
10
18.757303
20
279.299916
11
19.690647
21
279.145708
0
LINE
8
Camada 2
10
19.690647
20
279.145708
11
20.638386
21
279.218770
0
LINE
8
Camada 2
10
20.638386
20
279.218770
11
21.533886
21
279.480134
0
LINE
8
Camada 2
10
21.533886
20
279.480134
11
22.645691
21
279.117932
0
LINE
8
Camada 2
10
22.645691
20
279.117932
11
23.808666
21
279.094905
0
LINE
8
Camada 2
10
23.808666
20
279.094905
11
24.954856
21
279.355800
0
LINE
8
Camada 2
10
24.954856
20
279.355800
11
26.016306
21
279.845364
0
LINE
8
Camada 2
10
26.016306
20
279.845364
11
26.923385
21
279.266901
0
LINE
8
Camada 2
10
26.923385
20
279.266901
11
27.980594
21
279.082209
0
LINE
8
Camada 2
10
27.980594
20
279.082209
11
29.044916
21
279.263944
0
LINE
8
Camada 2
10
29.044916
20
279.263944
11
29.973336
21
279.784764
0
LINE
8
Camada 2
10
29.973336
20
279.784764
11
30.791401
21
279.318924
0
LINE
8
Camada 2
10
30.791401
20
279.318924
11
31.705001
21
279.103933
0
LINE
8
Camada 2
10
31.705001
20
279.103933
11
32.648766
21
279.125355
0
LINE
8
Camada 2
10
32.648766
20
279.125355
11
33.557326
21
279.368754
0
LINE
8
Camada 2
10
33.557326
20
279.368754
11
34.334723
21
279.107662
0
LINE
8
Camada 2
10
34.334723
20
279.107662
11
35.148114
21
279.018225
0
LINE
8
Camada 2
10
35.148114
20
279.018225
11
36.766306
21
279.267194
0
LINE
8
Camada 2
10
36.766306
20
279.267194
11
37.473716
21
279.072409
0
LINE
8
Camada 2
10
37.473716
20
279.072409
11
38.197253
21
279.075506
0
LINE
8
Camada 2
10
38.197253
20
279.075506
11
39.671003
21
279.490025
0
LINE
8
Camada 2
10
39.671003
20
279.490025
11
41.144151
21
280.140110
0
LINE
8
Camada 2
10
41.144151
20
280.140110
11
42.573286
21
280.655124
0
LINE
8
Camada 2
10
42.573286
20
280.655124
11
43.207372
21
280.718465
0
LINE
8
Camada 2
10
43.207372
20
280.718465
11
43.678277
21
280.599704
0
LINE
8
Camada 2
10
43.678277
20
280.599704
11
44.423555
21
280.028908
0
LINE
8
Camada 2
10
44.423555
20
280.028908
11
45.395128
21
279.368797
0
LINE
8
Camada 2
10
45.395128
20
279.368797
11
46.148903
21
279.138393
0
LINE
8
Camada 2
10
46.148903
20
279.138393
11
47.179006
21
279.045434
0
LINE
8
Camada 2
10
47.179006
20
279.045434
11
48.628442
21
279.168959
0
LINE
8
Camada 2
10
48.628442
20
279.168959
11
49.996766
21
279.661724
0
LINE
8
Camada 2
10
49.996766
20
279.661724
11
51.097873
21
279.067377
0
LINE
8
Camada 2
10
51.097873
20
279.067377
11
52.331301
21
278.882246
0
LINE
8
Camada 2
10
52.331301
20
278.882246
11
53.572266
21
279.078555
0
LINE
8
Camada 2
10
53.572266
20
279.078555
11
54.695986
21
279.628524
0
LINE
8
Camada 2
10
54.695986
20
279.628524
11
55.711372
21
279.216884
0
LINE
8
Camada 2
10
55.711372
20
279.216884
11
56.801412
21
279.151580
0
LINE
8
Camada 2
10
56.801412
20
279.151580
11
57.874872
21
279.396036
0
LINE
8
Camada 2
10
57.874872
20
279.396036
11
58.840516
21
279.913674
0
LINE
8
Camada 2
10
58.840516
20
279.913674
11
59.417712
21
279.492877
0
LINE
8
Camada 2
10
59.417712
20
279.492877
11
60.056679
21
279.220315
0
LINE
8
Camada 2
10
60.056679
20
279.220315
11
61.432487
21
279.084668
0
LINE
8
Camada 2
10
61.432487
20
279.084668
11
62.793073
21
279.436279
0
LINE
8
Camada 2
10
62.793073
20
279.436279
11
63.963566
21
280.204694
0
LINE
8
Camada 2
10
63.963566
20
280.204694
11
64.226464
21
280.452649
0
LINE
8
Camada 2
10
64.226464
20
280.452649
11
64.447829
21
280.385544
0
LINE
8
Camada 2
10
64.447829
20
280.385544
11
64.875676
21
279.900004
0
LINE
8
Camada 2
10
64.875676
20
279.900004
11
65.792758
21
279.350359
0
LINE
8
Camada 2
10
65.792758
20
279.350359
11
66.818154
21
279.052484
0
LINE
8
Camada 2
10
66.818154
20
279.052484
11
67.885493
21
279.017236
0
LINE
8
Camada 2
10
67.885493
20
279.017236
11
68.928406
21
279.255474
0
LINE
8
Camada 2
10
68.928406
20
279.255474
11
69.940752
21
278.985525
0
LINE
8
Camada 2
10
69.940752
20
278.985525
11
70.980119
21
279.045235
0
LINE
8
Camada 2
10
70.980119
20
279.045235
11
71.983864
21
279.370223
0
LINE
8
Camada 2
10
71.983864
20
279.370223
11
72.889346
21
279.896104
0
LINE
8
Camada 2
10
72.889346
20
279.896104
11
73.824581
21
279.215238
0
LINE
8
Camada 2
10
73.824581
20
279.215238
11
74.939317
21
278.908871
0
LINE
8
Camada 2
10
74.939317
20
278.908871
11
76.097915
21
278.978934
0
LINE
8
Camada 2
10
76.097915
20
278.978934
11
77.164736
21
279.427354
0
LINE
8
Camada 2
10
77.164736
20
279.427354
11
78.014198
21
279.154822
0
LINE
8
Camada 2
10
78.014198
20
279.154822
11
78.901736
21
279.075079
0
LINE
8
Camada 2
10
78.901736
20
279.075079
11
79.792356
21
279.166599
0
LINE
8
Camada 2
10
79.792356
20
279.166599
11
80.651066
21
279.407854
0
LINE
8
Camada 2
10
80.651066
20
279.407854
11
81.614352
21
279.062825
0
LINE
8
Camada 2
10
81.614352
20
279.062825
11
82.607154
21
278.915449
0
LINE
8
Camada 2
10
82.607154
20
278.915449
11
83.608124
21
278.949654
0
LINE
8
Camada 2
10
83.608124
20
278.949654
11
84.595911
21
279.149368
0
LINE
8
Camada 2
10
84.595911
20
279.149368
11
86.446540
21
279.981034
0
LINE
8
Camada 2
10
86.446540
20
279.981034
11
87.988246
21
281.281874
0
LINE
8
Camada 2
10
87.988246
20
281.281874
11
88.802120
21
282.146654
0
LINE
8
Camada 2
10
88.802120
20
282.146654
11
89.432097
21
283.178905
0
LINE
8
Camada 2
10
89.432097
20
283.178905
11
89.714031
21
284.311905
0
LINE
8
Camada 2
10
89.714031
20
284.311905
11
89.673186
21
284.895336
0
LINE
8
Camada 2
10
89.673186
20
284.895336
11
89.483776
21
285.478934
0
LINE
8
Camada 2
10
89.483776
20
285.478934
11
89.096526
21
286.077312
0
LINE
8
Camada 2
10
89.096526
20
286.077312
11
88.574171
21
286.560686
0
LINE
8
Camada 2
10
88.574171
20
286.560686
11
87.954204
21
286.915590
0
LINE
8
Camada 2
10
87.954204
20
286.915590
11
87.274116
21
287.128554
0
LINE
8
Camada 2
10
87.274116
20
287.128554
11
87.131728
21
287.822416
0
LINE
8
Camada 2
10
87.131728
20
287.822416
11
86.812530
21
288.450339
0
LINE
8
Camada 2
10
86.812530
20
288.450339
11
86.350769
21
288.987185
0
LINE
8
Camada 2
10
86.350769
20
288.987185
11
85.780695
21
289.407816
0
LINE
8
Camada 2
10
85.780695
20
289.407816
11
85.136556
21
289.687094
0
LINE
8
Camada 2
10
85.136556
20
289.687094
11
84.452601
21
289.799881
0
LINE
8
Camada 2
10
84.452601
20
289.799881
11
83.763078
21
289.721037
0
LINE
8
Camada 2
10
83.763078
20
289.721037
11
83.102236
21
289.425424
0
LINE
8
Camada 2
10
83.102236
20
289.425424
11
82.588325
21
289.124781
0
LINE
8
Camada 2
10
82.588325
20
289.124781
11
82.049146
21
289.303284
0
LINE
8
Camada 2
10
82.049146
20
289.303284
11
80.967122
21
289.599046
0
LINE
8
Camada 2
10
80.967122
20
289.599046
11
79.846282
21
289.575280
0
LINE
8
Camada 2
10
79.846282
20
289.575280
11
78.766417
21
289.259039
0
LINE
8
Camada 2
10
78.766417
20
289.259039
11
77.807316
21
288.677374
0
LINE
8
Camada 2
10
77.807316
20
288.677374
11
77.363321
21
289.154528
0
LINE
8
Camada 2
10
77.363321
20
289.154528
11
76.824913
21
289.505857
0
LINE
8
Camada 2
10
76.824913
20
289.505857
11
75.583457
21
289.824262
0
LINE
8
Camada 2
10
75.583457
20
289.824262
11
74.320141
21
289.619027
0
LINE
8
Camada 2
10
74.320141
20
289.619027
11
73.754407
21
289.315808
0
LINE
8
Camada 2
10
73.754407
20
289.315808
11
73.272156
21
288.876594
0
LINE
8
Camada 2
10
73.272156
20
288.876594
11
72.669758
21
289.285506
0
LINE
8
Camada 2
10
72.669758
20
289.285506
11
72.013065
21
289.553887
0
LINE
8
Camada 2
10
72.013065
20
289.553887
11
70.601637
21
289.721947
0
LINE
8
Camada 2
10
70.601637
20
289.721947
11
69.167561
21
289.486555
0
LINE
8
Camada 2
10
69.167561
20
289.486555
11
67.840526
21
288.953494
0
LINE
8
Camada 2
10
67.840526
20
288.953494
11
67.341156
21
288.697722
0
LINE
8
Camada 2
10
67.341156
20
288.697722
11
67.096575
21
288.721927
0
LINE
8
Camada 2
10
67.096575
20
288.721927
11
66.844426
21
288.900094
0
LINE
8
Camada 2
10
66.844426
20
288.900094
11
66.074616
21
289.154494
0
LINE
8
Camada 2
10
66.074616
20
289.154494
11
65.264099
21
289.197009
0
LINE
8
Camada 2
10
65.264099
20
289.197009
11
64.472259
21
289.026614
0
LINE
8
Camada 2
10
64.472259
20
289.026614
11
63.758486
21
288.642284
0
LINE
8
Camada 2
10
63.758486
20
288.642284
11
62.666686
21
289.261424
0
LINE
8
Camada 2
10
62.666686
20
289.261424
11
63.226523
21
290.403826
0
LINE
8
Camada 2
10
63.226523
20
290.403826
11
63.516756
21
291.653110
0
LINE
8
Camada 2
10
63.516756
20
291.653110
11
63.430294
21
292.901864
0
LINE
8
Camada 2
10
63.430294
20
292.901864
11
62.860046
21
294.042674
0
LINE
8
Camada 2
10
62.860046
20
294.042674
11
61.825972
21
295.022896
0
LINE
8
Camada 2
10
61.825972
20
295.022896
11
60.519936
21
295.587326
0
LINE
8
Camada 2
10
60.519936
20
295.587326
11
59.835610
21
295.675904
0
LINE
8
Camada 2
10
59.835610
20
295.675904
11
59.168105
21
295.615276
0
LINE
8
Camada 2
10
59.168105
20
295.615276
11
58.545694
21
295.390357
0
LINE
8
Camada 2
10
58.545694
20
295.390357
11
57.996646
21
294.986061
0
LINE
8
Camada 2
10
57.996646
20
294.986061
11
57.557340
21
294.629325
0
LINE
8
Camada 2
10
57.557340
20
294.629325
11
57.356205
21
294.644704
0
LINE
8
Camada 2
10
57.356205
20
294.644704
11
57.147156
21
294.886261
0
LINE
8
Camada 2
10
57.147156
20
294.886261
11
56.328805
21
295.362590
0
LINE
8
Camada 2
10
56.328805
20
295.362590
11
55.404557
21
295.511049
0
LINE
8
Camada 2
10
55.404557
20
295.511049
11
53.434266
21
295.402014
0
LINE
8
Camada 2
10
53.434266
20
295.402014
11
53.434300
21
295.402000
0
LINE
8
Layer 1
10
58.064700
20
293.732000
11
57.812500
21
293.648000
0
LINE
8
Layer 1
10
57.812500
20
293.648000
11
56.384700
21
292.645000
0
LINE
8
Layer 1
10
56.384700
20
292.645000
11
56.200925
21
292.350625
0
LINE
8
Layer 1
10
56.200925
20
292.350625
11
56.275600
21
292.012000
0
LINE
8
Layer 1
10
56.275600
20
292.012000
11
56.289100
21
291.992000
0
LINE
8
Layer 1
10
56.289100
20
291.992000
11
56.583062
21
291.807500
0
LINE
8
Layer 1
10
56.583062
20
291.807500
11
56.922100
21
291.881000
0
LINE
8
Layer 1
10
56.922100
20
291.881000
11
58.349400
21
292.885000
0
LINE
8
Layer 1
10
58.349400
20
292.885000
11
58.534425
21
293.178625
0
LINE
8
Layer 1
10
58.534425
20
293.178625
11
58.461000
21
293.518000
0
LINE
8
Layer 1
10
58.461000
20
293.518000
11
58.445500
21
293.539000
0
LINE
8
Layer 1
10
58.445500
20
293.539000
11
58.064700
21
293.732000
0
LINE
8
Layer 1
10
58.064700
20
293.732000
11
58.064700
21
293.732000
0
LINE
8
Layer 1
10
53.632900
20
293.016000
11
52.736300
21
292.914000
0
LINE
8
Layer 1
10
52.736300
20
292.914000
11
51.886800
21
292.717000
0
LINE
8
Layer 1
10
51.886800
20
292.717000
11
51.884700
21
292.717000
0
LINE
8
Layer 1
10
51.884700
20
292.717000
11
51.881100
21
292.717000
0
LINE
8
Layer 1
10
51.881100
20
292.717000
11
50.359650
21
292.078750
0
LINE
8
Layer 1
10
50.359650
20
292.078750
11
48.996000
21
291.154000
0
LINE
8
Layer 1
10
48.996000
20
291.154000
11
47.810425
21
290.022500
0
LINE
8
Layer 1
10
47.810425
20
290.022500
11
46.800800
21
288.744000
0
LINE
8
Layer 1
10
46.800800
20
288.744000
11
45.900600
21
287.217000
0
LINE
8
Layer 1
10
45.900600
20
287.217000
11
45.900600
21
287.215000
0
LINE
8
Layer 1
10
45.900600
20
287.215000
11
45.898500
21
287.213000
0
LINE
8
Layer 1
10
45.898500
20
287.213000
11
45.325900
21
285.514000
0
LINE
8
Layer 1
10
45.325900
20
285.514000
11
45.165700
21
284.240000
0
LINE
8
Layer 1
10
45.165700
20
284.240000
11
45.370900
21
282.947000
0
LINE
8
Layer 1
10
45.370900
20
282.947000
11
45.687700
21
282.272000
0
LINE
8
Layer 1
10
45.687700
20
282.272000
11
45.693300
21
282.264000
0
LINE
8
Layer 1
10
45.693300
20
282.264000
11
45.699000
21
282.256000
0
LINE
8
Layer 1
10
45.699000
20
282.256000
11
46.256100
21
281.742000
0
LINE
8
Layer 1
10
46.256100
20
281.742000
11
47.005900
21
281.434000
0
LINE
8
Layer 1
10
47.005900
20
281.434000
11
47.011600
21
281.434000
0
LINE
8
Layer 1
10
47.011600
20
281.434000
11
47.019400
21
281.431000
0
LINE
8
Layer 1
10
47.019400
20
281.431000
11
47.814700
21
281.453000
0
LINE
8
Layer 1
10
47.814700
20
281.453000
11
47.816700
21
281.453000
0
LINE
8
Layer 1
10
47.816700
20
281.453000
11
48.647112
21
281.689875
0
LINE
8
Layer 1
10
48.647112
20
281.689875
11
49.414000
21
282.109000
0
LINE
8
Layer 1
10
49.414000
20
282.109000
11
50.689400
21
283.170000
0
LINE
8
Layer 1
10
50.689400
20
283.170000
11
50.693500
21
283.174000
0
LINE
8
Layer 1
10
50.693500
20
283.174000
11
51.361200
21
283.889000
0
LINE
8
Layer 1
10
51.361200
20
283.889000
11
51.236100
21
283.478000
0
LINE
8
Layer 1
10
51.236100
20
283.478000
11
51.236100
21
283.475000
0
LINE
8
Layer 1
10
51.236100
20
283.475000
11
51.234600
21
283.471000
0
LINE
8
Layer 1
10
51.234600
20
283.471000
11
51.093500
21
282.783000
0
LINE
8
Layer 1
10
51.093500
20
282.783000
11
51.160200
21
282.053000
0
LINE
8
Layer 1
10
51.160200
20
282.053000
11
51.349213
21
281.672125
0
LINE
8
Layer 1
10
51.349213
20
281.672125
11
51.666100
21
281.403000
0
LINE
8
Layer 1
10
51.666100
20
281.403000
11
51.673800
21
281.398000
0
LINE
8
Layer 1
10
51.673800
20
281.398000
11
51.683700
21
281.395000
0
LINE
8
Layer 1
10
51.683700
20
281.395000
11
52.445400
21
281.280000
0
LINE
8
Layer 1
10
52.445400
20
281.280000
11
53.127000
21
281.500000
0
LINE
8
Layer 1
10
53.127000
20
281.500000
11
53.697500
21
281.865000
0
LINE
8
Layer 1
10
53.697500
20
281.865000
11
53.699600
21
281.867000
0
LINE
8
Layer 1
10
53.699600
20
281.867000
11
54.433900
21
282.502000
0
LINE
8
Layer 1
10
54.433900
20
282.502000
11
55.113400
21
283.221000
0
LINE
8
Layer 1
10
55.113400
20
283.221000
11
55.117000
21
283.223000
0
LINE
8
Layer 1
10
55.117000
20
283.223000
11
55.447300
21
283.612000
0
LINE
8
Layer 1
10
55.447300
20
283.612000
11
55.369200
21
282.840000
0
LINE
8
Layer 1
10
55.369200
20
282.840000
11
55.369200
21
282.838000
0
LINE
8
Layer 1
10
55.369200
20
282.838000
11
55.611600
21
282.000000
0
LINE
8
Layer 1
10
55.611600
20
282.000000
11
55.963837
21
281.652750
0
LINE
8
Layer 1
10
55.963837
20
281.652750
11
56.459100
21
281.529000
0
LINE
8
Layer 1
10
56.459100
20
281.529000
11
57.060600
21
281.653000
0
LINE
8
Layer 1
10
57.060600
20
281.653000
11
57.509700
21
281.939000
0
LINE
8
Layer 1
10
57.509700
20
281.939000
11
57.511700
21
281.939000
0
LINE
8
Layer 1
10
57.511700
20
281.939000
11
58.076000
21
282.424000
0
LINE
8
Layer 1
10
58.076000
20
282.424000
11
58.599500
21
282.967000
0
LINE
8
Layer 1
10
58.599500
20
282.967000
11
58.601600
21
282.969000
0
LINE
8
Layer 1
10
58.601600
20
282.969000
11
59.240300
21
283.645000
0
LINE
8
Layer 1
10
59.240300
20
283.645000
11
59.246500
21
283.655000
0
LINE
8
Layer 1
10
59.246500
20
283.655000
11
59.398400
21
283.846000
0
LINE
8
Layer 1
10
59.398400
20
283.846000
11
59.465100
21
283.920000
0
LINE
8
Layer 1
10
59.465100
20
283.920000
11
59.470800
21
283.924000
0
LINE
8
Layer 1
10
59.470800
20
283.924000
11
59.480600
21
283.930000
0
LINE
8
Layer 1
10
59.480600
20
283.930000
11
59.488400
21
283.936000
0
LINE
8
Layer 1
10
59.488400
20
283.936000
11
59.668200
21
284.113000
0
LINE
8
Layer 1
10
59.668200
20
284.113000
11
59.672300
21
284.119000
0
LINE
8
Layer 1
10
59.672300
20
284.119000
11
59.806700
21
284.293000
0
LINE
8
Layer 1
10
59.806700
20
284.293000
11
59.898700
21
284.401000
0
LINE
8
Layer 1
10
59.898700
20
284.401000
11
60.041300
21
284.582000
0
LINE
8
Layer 1
10
60.041300
20
284.582000
11
60.992700
21
285.627000
0
LINE
8
Layer 1
10
60.992700
20
285.627000
11
61.434000
21
285.998000
0
LINE
8
Layer 1
10
61.434000
20
285.998000
11
61.453600
21
286.012000
0
LINE
8
Layer 1
10
61.453600
20
286.012000
11
61.471200
21
286.030000
0
LINE
8
Layer 1
10
61.471200
20
286.030000
11
61.486700
21
286.043000
0
LINE
8
Layer 1
10
61.486700
20
286.043000
11
61.476900
21
285.973000
0
LINE
8
Layer 1
10
61.476900
20
285.973000
11
61.474800
21
285.963000
0
LINE
8
Layer 1
10
61.474800
20
285.963000
11
61.472700
21
285.955000
0
LINE
8
Layer 1
10
61.472700
20
285.955000
11
61.373000
21
285.657000
0
LINE
8
Layer 1
10
61.373000
20
285.657000
11
61.369400
21
285.651000
0
LINE
8
Layer 1
10
61.369400
20
285.651000
11
61.367300
21
285.643000
0
LINE
8
Layer 1
10
61.367300
20
285.643000
11
61.287200
21
285.424000
0
LINE
8
Layer 1
10
61.287200
20
285.424000
11
60.939400
21
284.635000
0
LINE
8
Layer 1
10
60.939400
20
284.635000
11
60.935800
21
284.631000
0
LINE
8
Layer 1
10
60.935800
20
284.631000
11
60.933700
21
284.627000
0
LINE
8
Layer 1
10
60.933700
20
284.627000
11
60.566300
21
283.813000
0
LINE
8
Layer 1
10
60.566300
20
283.813000
11
60.271800
21
283.088000
0
LINE
8
Layer 1
10
60.271800
20
283.088000
11
60.269700
21
283.082000
0
LINE
8
Layer 1
10
60.269700
20
283.082000
11
60.267600
21
283.076000
0
LINE
8
Layer 1
10
60.267600
20
283.076000
11
60.183400
21
282.213000
0
LINE
8
Layer 1
10
60.183400
20
282.213000
11
60.183400
21
282.207000
0
LINE
8
Layer 1
10
60.183400
20
282.207000
11
60.183400
21
282.201000
0
LINE
8
Layer 1
10
60.183400
20
282.201000
11
60.533300
21
281.613000
0
LINE
8
Layer 1
10
60.533300
20
281.613000
11
61.193200
21
281.453000
0
LINE
8
Layer 1
10
61.193200
20
281.453000
11
61.195200
21
281.453000
0
LINE
8
Layer 1
10
61.195200
20
281.453000
11
61.625200
21
281.568000
0
LINE
8
Layer 1
10
61.625200
20
281.568000
11
62.009700
21
281.750000
0
LINE
8
Layer 1
10
62.009700
20
281.750000
11
62.011700
21
281.752000
0
LINE
8
Layer 1
10
62.011700
20
281.752000
11
62.015900
21
281.752000
0
LINE
8
Layer 1
10
62.015900
20
281.752000
11
62.467000
21
282.061000
0
LINE
8
Layer 1
10
62.467000
20
282.061000
11
62.467000
21
282.062000
0
LINE
8
Layer 1
10
62.467000
20
282.062000
11
62.894400
21
282.410000
0
LINE
8
Layer 1
10
62.894400
20
282.410000
11
62.896400
21
282.414000
0
LINE
8
Layer 1
10
62.896400
20
282.414000
11
63.779600
21
283.295000
0
LINE
8
Layer 1
10
63.779600
20
283.295000
11
64.152700
21
283.728000
0
LINE
8
Layer 1
10
64.152700
20
283.728000
11
64.416200
21
283.154000
0
LINE
8
Layer 1
10
64.416200
20
283.154000
11
65.058600
21
282.834000
0
LINE
8
Layer 1
10
65.058600
20
282.834000
11
65.730400
21
282.904000
0
LINE
8
Layer 1
10
65.730400
20
282.904000
11
66.047100
21
283.069000
0
LINE
8
Layer 1
10
66.047100
20
283.069000
11
66.012000
21
282.883000
0
LINE
8
Layer 1
10
66.012000
20
282.883000
11
66.012000
21
282.877000
0
LINE
8
Layer 1
10
66.012000
20
282.877000
11
66.012000
21
282.869000
0
LINE
8
Layer 1
10
66.012000
20
282.869000
11
66.119500
21
282.197000
0
LINE
8
Layer 1
10
66.119500
20
282.197000
11
66.121000
21
282.190000
0
LINE
8
Layer 1
10
66.121000
20
282.190000
11
66.125200
21
282.184000
0
LINE
8
Layer 1
10
66.125200
20
282.184000
11
66.605800
21
281.606000
0
LINE
8
Layer 1
10
66.605800
20
281.606000
11
67.028562
21
281.425500
0
LINE
8
Layer 1
10
67.028562
20
281.425500
11
67.492500
21
281.395000
0
LINE
8
Layer 1
10
67.492500
20
281.395000
11
67.498200
21
281.395000
0
LINE
8
Layer 1
10
67.498200
20
281.395000
11
67.503900
21
281.395000
0
LINE
8
Layer 1
10
67.503900
20
281.395000
11
68.304900
21
281.627000
0
LINE
8
Layer 1
10
68.304900
20
281.627000
11
68.311100
21
281.631000
0
LINE
8
Layer 1
10
68.311100
20
281.631000
11
68.318800
21
281.635000
0
LINE
8
Layer 1
10
68.318800
20
281.635000
11
69.078500
21
282.190000
0
LINE
8
Layer 1
10
69.078500
20
282.190000
11
69.256200
21
282.383000
0
LINE
8
Layer 1
10
69.256200
20
282.383000
11
69.252100
21
282.232000
0
LINE
8
Layer 1
10
69.252100
20
282.232000
11
69.254200
21
282.227000
0
LINE
8
Layer 1
10
69.254200
20
282.227000
11
69.254200
21
282.219000
0
LINE
8
Layer 1
10
69.254200
20
282.219000
11
69.454438
21
281.774625
0
LINE
8
Layer 1
10
69.454438
20
281.774625
11
69.859800
21
281.475000
0
LINE
8
Layer 1
10
69.859800
20
281.475000
11
70.311700
21
281.358750
0
LINE
8
Layer 1
10
70.311700
20
281.358750
11
70.762100
21
281.430000
0
LINE
8
Layer 1
10
70.762100
20
281.430000
11
70.765700
21
281.430000
0
LINE
8
Layer 1
10
70.765700
20
281.430000
11
70.769800
21
281.432000
0
LINE
8
Layer 1
10
70.769800
20
281.432000
11
71.467000
21
281.856000
0
LINE
8
Layer 1
10
71.467000
20
281.856000
11
72.199700
21
282.551000
0
LINE
8
Layer 1
10
72.199700
20
282.551000
11
72.854000
21
283.279000
0
LINE
8
Layer 1
10
72.854000
20
283.279000
11
72.854000
21
283.281000
0
LINE
8
Layer 1
10
72.854000
20
283.281000
11
73.123200
21
283.588000
0
LINE
8
Layer 1
10
73.123200
20
283.588000
11
73.127300
21
283.594000
0
LINE
8
Layer 1
10
73.127300
20
283.594000
11
73.130900
21
283.600000
0
LINE
8
Layer 1
10
73.130900
20
283.600000
11
73.398600
21
283.903000
0
LINE
8
Layer 1
10
73.398600
20
283.903000
11
73.492700
21
283.996000
0
LINE
8
Layer 1
10
73.492700
20
283.996000
11
73.506100
21
284.016000
0
LINE
8
Layer 1
10
73.506100
20
284.016000
11
73.521600
21
284.045000
0
LINE
8
Layer 1
10
73.521600
20
284.045000
11
73.533500
21
284.055000
0
LINE
8
Layer 1
10
73.533500
20
284.055000
11
73.535600
21
284.057000
0
LINE
8
Layer 1
10
73.535600
20
284.057000
11
73.906600
21
284.448000
0
LINE
8
Layer 1
10
73.906600
20
284.448000
11
73.910700
21
284.453000
0
LINE
8
Layer 1
10
73.910700
20
284.453000
11
74.558800
21
285.196000
0
LINE
8
Layer 1
10
74.558800
20
285.196000
11
75.061100
21
285.786000
0
LINE
8
Layer 1
10
75.061100
20
285.786000
11
75.186100
21
285.647000
0
LINE
8
Layer 1
10
75.186100
20
285.647000
11
75.189700
21
285.645000
0
LINE
8
Layer 1
10
75.189700
20
285.645000
11
75.195900
21
285.645000
0
LINE
8
Layer 1
10
75.195900
20
285.645000
11
75.613500
21
285.555000
0
LINE
8
Layer 1
10
75.613500
20
285.555000
11
75.625400
21
285.555000
0
LINE
8
Layer 1
10
75.625400
20
285.555000
11
75.912700
21
285.555000
0
LINE
8
Layer 1
10
75.912700
20
285.555000
11
75.895100
21
285.475000
0
LINE
8
Layer 1
10
75.895100
20
285.475000
11
75.728700
21
285.145000
0
LINE
8
Layer 1
10
75.728700
20
285.145000
11
75.465200
21
284.711000
0
LINE
8
Layer 1
10
75.465200
20
284.711000
11
75.461500
21
284.704000
0
LINE
8
Layer 1
10
75.461500
20
284.704000
11
75.457400
21
284.697000
0
LINE
8
Layer 1
10
75.457400
20
284.697000
11
75.217100
21
284.289000
0
LINE
8
Layer 1
10
75.217100
20
284.289000
11
74.713300
21
283.477000
0
LINE
8
Layer 1
10
74.713300
20
283.477000
11
74.711200
21
283.473000
0
LINE
8
Layer 1
10
74.711200
20
283.473000
11
74.709100
21
283.469000
0
LINE
8
Layer 1
10
74.709100
20
283.469000
11
74.375300
21
282.508000
0
LINE
8
Layer 1
10
74.375300
20
282.508000
11
74.375300
21
282.502000
0
LINE
8
Layer 1
10
74.375300
20
282.502000
11
74.373200
21
282.496000
0
LINE
8
Layer 1
10
74.373200
20
282.496000
11
74.373200
21
282.096000
0
LINE
8
Layer 1
10
74.373200
20
282.096000
11
74.375300
21
282.082000
0
LINE
8
Layer 1
10
74.375300
20
282.082000
11
74.377400
21
282.069000
0
LINE
8
Layer 1
10
74.377400
20
282.069000
11
74.513800
21
281.684000
0
LINE
8
Layer 1
10
74.513800
20
281.684000
11
74.522100
21
281.666000
0
LINE
8
Layer 1
10
74.522100
20
281.666000
11
74.533400
21
281.651000
0
LINE
8
Layer 1
10
74.533400
20
281.651000
11
74.844000
21
281.369000
0
LINE
8
Layer 1
10
74.844000
20
281.369000
11
74.850200
21
281.365000
0
LINE
8
Layer 1
10
74.850200
20
281.365000
11
74.855900
21
281.362000
0
LINE
8
Layer 1
10
74.855900
20
281.362000
11
75.354100
21
281.280000
0
LINE
8
Layer 1
10
75.354100
20
281.280000
11
75.359700
21
281.280000
0
LINE
8
Layer 1
10
75.359700
20
281.280000
11
75.367500
21
281.280000
0
LINE
8
Layer 1
10
75.367500
20
281.280000
11
75.957600
21
281.518000
0
LINE
8
Layer 1
10
75.957600
20
281.518000
11
76.410800
21
281.852000
0
LINE
8
Layer 1
10
76.410800
20
281.852000
11
77.047500
21
282.449000
0
LINE
8
Layer 1
10
77.047500
20
282.449000
11
77.406600
21
282.856000
0
LINE
8
Layer 1
10
77.406600
20
282.856000
11
77.521900
21
282.266000
0
LINE
8
Layer 1
10
77.521900
20
282.266000
11
77.961100
21
281.711000
0
LINE
8
Layer 1
10
77.961100
20
281.711000
11
77.971000
21
281.705000
0
LINE
8
Layer 1
10
77.971000
20
281.705000
11
77.980800
21
281.699000
0
LINE
8
Layer 1
10
77.980800
20
281.699000
11
78.637100
21
281.473000
0
LINE
8
Layer 1
10
78.637100
20
281.473000
11
78.637100
21
281.471000
0
LINE
8
Layer 1
10
78.637100
20
281.471000
11
78.639100
21
281.471000
0
LINE
8
Layer 1
10
78.639100
20
281.471000
11
79.336825
21
281.499375
0
LINE
8
Layer 1
10
79.336825
20
281.499375
11
79.998700
21
281.752000
0
LINE
8
Layer 1
10
79.998700
20
281.752000
11
80.736700
21
282.230000
0
LINE
8
Layer 1
10
80.736700
20
282.230000
11
80.760400
21
282.209000
0
LINE
8
Layer 1
10
80.760400
20
282.209000
11
80.770300
21
282.201000
0
LINE
8
Layer 1
10
80.770300
20
282.201000
11
80.781600
21
282.192000
0
LINE
8
Layer 1
10
80.781600
20
282.192000
11
81.453900
21
281.678000
0
LINE
8
Layer 1
10
81.453900
20
281.678000
11
81.459600
21
281.674000
0
LINE
8
Layer 1
10
81.459600
20
281.674000
11
81.467400
21
281.670000
0
LINE
8
Layer 1
10
81.467400
20
281.670000
11
82.291600
21
281.361000
0
LINE
8
Layer 1
10
82.291600
20
281.361000
11
82.293700
21
281.361000
0
LINE
8
Layer 1
10
82.293700
20
281.361000
11
83.180437
21
281.283250
0
LINE
8
Layer 1
10
83.180437
20
281.283250
11
84.047600
21
281.465000
0
LINE
8
Layer 1
10
84.047600
20
281.465000
11
84.047600
21
281.467000
0
LINE
8
Layer 1
10
84.047600
20
281.467000
11
84.049600
21
281.467000
0
LINE
8
Layer 1
10
84.049600
20
281.467000
11
85.551400
21
282.307000
0
LINE
8
Layer 1
10
85.551400
20
282.307000
11
85.553400
21
282.309000
0
LINE
8
Layer 1
10
85.553400
20
282.309000
11
86.184400
21
282.842000
0
LINE
8
Layer 1
10
86.184400
20
282.842000
11
86.186500
21
282.844000
0
LINE
8
Layer 1
10
86.186500
20
282.844000
11
86.190100
21
282.848000
0
LINE
8
Layer 1
10
86.190100
20
282.848000
11
86.756500
21
283.454000
0
LINE
8
Layer 1
10
86.756500
20
283.454000
11
86.989000
21
283.742000
0
LINE
8
Layer 1
10
86.989000
20
283.742000
11
87.003000
21
283.760000
0
LINE
8
Layer 1
10
87.003000
20
283.760000
11
87.229300
21
284.043000
0
LINE
8
Layer 1
10
87.229300
20
284.043000
11
87.233400
21
284.049000
0
LINE
8
Layer 1
10
87.233400
20
284.049000
11
87.237100
21
284.055000
0
LINE
8
Layer 1
10
87.237100
20
284.055000
11
87.317200
21
284.401000
0
LINE
8
Layer 1
10
87.317200
20
284.401000
11
87.116100
21
284.682000
0
LINE
8
Layer 1
10
87.116100
20
284.682000
11
86.778200
21
284.787000
0
LINE
8
Layer 1
10
86.778200
20
284.787000
11
86.467600
21
284.596000
0
LINE
8
Layer 1
10
86.467600
20
284.596000
11
86.463500
21
284.592000
0
LINE
8
Layer 1
10
86.463500
20
284.592000
11
86.459800
21
284.586000
0
LINE
8
Layer 1
10
86.459800
20
284.586000
11
85.422700
21
283.420000
0
LINE
8
Layer 1
10
85.422700
20
283.420000
11
84.678600
21
282.825000
0
LINE
8
Layer 1
10
84.678600
20
282.825000
11
84.389700
21
282.678000
0
LINE
8
Layer 1
10
84.389700
20
282.678000
11
84.477500
21
282.932000
0
LINE
8
Layer 1
10
84.477500
20
282.932000
11
84.477500
21
282.934000
0
LINE
8
Layer 1
10
84.477500
20
282.934000
11
84.538000
21
283.811000
0
LINE
8
Layer 1
10
84.538000
20
283.811000
11
84.535900
21
283.799000
0
LINE
8
Layer 1
10
84.535900
20
283.799000
11
84.516300
21
284.789000
0
LINE
8
Layer 1
10
84.516300
20
284.789000
11
84.498700
21
285.717000
0
LINE
8
Layer 1
10
84.498700
20
285.717000
11
84.535900
21
286.106000
0
LINE
8
Layer 1
10
84.535900
20
286.106000
11
84.611900
21
286.393000
0
LINE
8
Layer 1
10
84.611900
20
286.393000
11
84.614000
21
286.397000
0
LINE
8
Layer 1
10
84.614000
20
286.397000
11
84.616000
21
286.401000
0
LINE
8
Layer 1
10
84.616000
20
286.401000
11
84.647500
21
286.448000
0
LINE
8
Layer 1
10
84.647500
20
286.448000
11
84.663000
21
286.459000
0
LINE
8
Layer 1
10
84.663000
20
286.459000
11
84.674900
21
286.471000
0
LINE
8
Layer 1
10
84.674900
20
286.471000
11
84.836700
21
286.717000
0
LINE
8
Layer 1
10
84.836700
20
286.717000
11
84.873900
21
287.034000
0
LINE
8
Layer 1
10
84.873900
20
287.034000
11
84.686300
21
287.289000
0
LINE
8
Layer 1
10
84.686300
20
287.289000
11
84.354500
21
287.385000
0
LINE
8
Layer 1
10
84.354500
20
287.385000
11
84.061500
21
287.215000
0
LINE
8
Layer 1
10
84.061500
20
287.215000
11
84.059500
21
287.215000
0
LINE
8
Layer 1
10
84.059500
20
287.215000
11
83.829000
21
286.946000
0
LINE
8
Layer 1
10
83.829000
20
286.946000
11
82.961900
21
285.924000
0
LINE
8
Layer 1
10
82.961900
20
285.924000
11
82.106100
21
284.934000
0
LINE
8
Layer 1
10
82.106100
20
284.934000
11
81.981000
21
284.811000
0
LINE
8
Layer 1
10
81.981000
20
284.811000
11
82.008400
21
284.834000
0
LINE
8
Layer 1
10
82.008400
20
284.834000
11
81.817200
21
284.619000
0
LINE
8
Layer 1
10
81.817200
20
284.619000
11
81.784200
21
284.563000
0
LINE
8
Layer 1
10
81.784200
20
284.563000
11
81.484900
21
284.200000
0
LINE
8
Layer 1
10
81.484900
20
284.200000
11
81.166600
21
283.844000
0
LINE
8
Layer 1
10
81.166600
20
283.844000
11
81.166600
21
283.842000
0
LINE
8
Layer 1
10
81.166600
20
283.842000
11
80.862200
21
283.537000
0
LINE
8
Layer 1
10
80.862200
20
283.537000
11
80.858100
21
283.535000
0
LINE
8
Layer 1
10
80.858100
20
283.535000
11
80.856000
21
283.533000
0
LINE
8
Layer 1
10
80.856000
20
283.533000
11
80.274200
21
283.026000
0
LINE
8
Layer 1
10
80.274200
20
283.026000
11
79.680400
21
282.631000
0
LINE
8
Layer 1
10
79.680400
20
282.631000
11
79.213800
21
282.440000
0
LINE
8
Layer 1
10
79.213800
20
282.440000
11
79.211700
21
282.440000
0
LINE
8
Layer 1
10
79.211700
20
282.440000
11
78.780200
21
282.408000
0
LINE
8
Layer 1
10
78.780200
20
282.408000
11
78.762600
21
282.410000
0
LINE
8
Layer 1
10
78.762600
20
282.410000
11
78.745100
21
282.410000
0
LINE
8
Layer 1
10
78.745100
20
282.410000
11
78.444300
21
282.537000
0
LINE
8
Layer 1
10
78.444300
20
282.537000
11
78.355900
21
282.713000
0
LINE
8
Layer 1
10
78.355900
20
282.713000
11
78.307400
21
282.994000
0
LINE
8
Layer 1
10
78.307400
20
282.994000
11
78.436000
21
283.799000
0
LINE
8
Layer 1
10
78.436000
20
283.799000
11
78.440200
21
283.803000
0
LINE
8
Layer 1
10
78.440200
20
283.803000
11
78.660800
21
283.858000
0
LINE
8
Layer 1
10
78.660800
20
283.858000
11
78.670600
21
283.860000
0
LINE
8
Layer 1
10
78.670600
20
283.860000
11
78.861900
21
283.908000
0
LINE
8
Layer 1
10
78.861900
20
283.908000
11
78.881500
21
283.912000
0
LINE
8
Layer 1
10
78.881500
20
283.912000
11
78.901100
21
283.918000
0
LINE
8
Layer 1
10
78.901100
20
283.918000
11
79.127500
21
283.995000
0
LINE
8
Layer 1
10
79.127500
20
283.995000
11
79.852500
21
284.248000
0
LINE
8
Layer 1
10
79.852500
20
284.248000
11
79.858200
21
284.250000
0
LINE
8
Layer 1
10
79.858200
20
284.250000
11
79.863900
21
284.252000
0
LINE
8
Layer 1
10
79.863900
20
284.252000
11
80.569200
21
284.635000
0
LINE
8
Layer 1
10
80.569200
20
284.635000
11
80.572900
21
284.639000
0
LINE
8
Layer 1
10
80.572900
20
284.639000
11
80.574900
21
284.641000
0
LINE
8
Layer 1
10
80.574900
20
284.641000
11
80.975400
21
284.959000
0
LINE
8
Layer 1
10
80.975400
20
284.959000
11
80.981600
21
284.965000
0
LINE
8
Layer 1
10
80.981600
20
284.965000
11
81.368200
21
285.397000
0
LINE
8
Layer 1
10
81.368200
20
285.397000
11
81.629600
21
285.897000
0
LINE
8
Layer 1
10
81.629600
20
285.897000
11
81.631700
21
286.543000
0
LINE
8
Layer 1
10
81.631700
20
286.543000
11
81.629600
21
286.549000
0
LINE
8
Layer 1
10
81.629600
20
286.549000
11
81.629600
21
286.555000
0
LINE
8
Layer 1
10
81.629600
20
286.555000
11
81.390087
21
286.931625
0
LINE
8
Layer 1
10
81.390087
20
286.931625
11
81.003800
21
287.153000
0
LINE
8
Layer 1
10
81.003800
20
287.153000
11
80.236400
21
287.221000
0
LINE
8
Layer 1
10
80.236400
20
287.221000
11
80.234400
21
287.219000
0
LINE
8
Layer 1
10
80.234400
20
287.219000
11
80.232300
21
287.219000
0
LINE
8
Layer 1
10
80.232300
20
287.219000
11
79.568300
21
286.953000
0
LINE
8
Layer 1
10
79.568300
20
286.953000
11
79.039100
21
286.547000
0
LINE
8
Layer 1
10
79.039100
20
286.547000
11
78.049000
21
285.314000
0
LINE
8
Layer 1
10
78.049000
20
285.314000
11
77.701200
21
284.586000
0
LINE
8
Layer 1
10
77.701200
20
284.586000
11
76.468700
21
283.209000
0
LINE
8
Layer 1
10
76.468700
20
283.209000
11
75.978300
21
282.701000
0
LINE
8
Layer 1
10
75.978300
20
282.701000
11
75.468800
21
282.299000
0
LINE
8
Layer 1
10
75.468800
20
282.299000
11
75.466700
21
282.297000
0
LINE
8
Layer 1
10
75.466700
20
282.297000
11
75.296700
21
282.211000
0
LINE
8
Layer 1
10
75.296700
20
282.211000
11
75.294600
21
282.211000
0
LINE
8
Layer 1
10
75.294600
20
282.211000
11
75.306500
21
282.410000
0
LINE
8
Layer 1
10
75.306500
20
282.410000
11
75.308600
21
282.412000
0
LINE
8
Layer 1
10
75.308600
20
282.412000
11
75.585600
21
283.109000
0
LINE
8
Layer 1
10
75.585600
20
283.109000
11
76.001600
21
283.811000
0
LINE
8
Layer 1
10
76.001600
20
283.811000
11
76.003600
21
283.814000
0
LINE
8
Layer 1
10
76.003600
20
283.814000
11
76.271300
21
284.230000
0
LINE
8
Layer 1
10
76.271300
20
284.230000
11
76.523500
21
284.678000
0
LINE
8
Layer 1
10
76.523500
20
284.678000
11
76.861500
21
285.525000
0
LINE
8
Layer 1
10
76.861500
20
285.525000
11
76.806700
21
286.039000
0
LINE
8
Layer 1
10
76.806700
20
286.039000
11
76.378800
21
286.418000
0
LINE
8
Layer 1
10
76.378800
20
286.418000
11
75.900300
21
286.494000
0
LINE
8
Layer 1
10
75.900300
20
286.494000
11
75.898200
21
286.494000
0
LINE
8
Layer 1
10
75.898200
20
286.494000
11
75.753500
21
286.494000
0
LINE
8
Layer 1
10
75.753500
20
286.494000
11
75.755600
21
286.498000
0
LINE
8
Layer 1
10
75.755600
20
286.498000
11
75.834100
21
286.654000
0
LINE
8
Layer 1
10
75.834100
20
286.654000
11
75.941100
21
286.924000
0
LINE
8
Layer 1
10
75.941100
20
286.924000
11
75.943200
21
286.933000
0
LINE
8
Layer 1
10
75.943200
20
286.933000
11
75.943200
21
286.943000
0
LINE
8
Layer 1
10
75.943200
20
286.943000
11
75.882700
21
287.238000
0
LINE
8
Layer 1
10
75.882700
20
287.238000
11
75.657900
21
287.410000
0
LINE
8
Layer 1
10
75.657900
20
287.410000
11
75.367000
21
287.453000
0
LINE
8
Layer 1
10
75.367000
20
287.453000
11
75.109100
21
287.273000
0
LINE
8
Layer 1
10
75.109100
20
287.273000
11
74.834200
21
286.963000
0
LINE
8
Layer 1
10
74.834200
20
286.963000
11
74.216700
21
286.213000
0
LINE
8
Layer 1
10
74.216700
20
286.213000
11
74.218700
21
286.213000
0
LINE
8
Layer 1
10
74.218700
20
286.213000
11
73.672000
21
285.592000
0
LINE
8
Layer 1
10
73.672000
20
285.592000
11
73.669900
21
285.588000
0
LINE
8
Layer 1
10
73.669900
20
285.588000
11
73.665800
21
285.586000
0
LINE
8
Layer 1
10
73.665800
20
285.586000
11
73.115400
21
284.979000
0
LINE
8
Layer 1
10
73.115400
20
284.979000
11
72.968700
21
284.830000
0
LINE
8
Layer 1
10
72.968700
20
284.830000
11
72.796600
21
284.637000
0
LINE
8
Layer 1
10
72.796600
20
284.637000
11
72.111400
21
283.838000
0
LINE
8
Layer 1
10
72.111400
20
283.838000
11
71.396700
21
283.066000
0
LINE
8
Layer 1
10
71.396700
20
283.066000
11
71.390500
21
283.060000
0
LINE
8
Layer 1
10
71.390500
20
283.060000
11
71.384800
21
283.055000
0
LINE
8
Layer 1
10
71.384800
20
283.055000
11
71.120700
21
282.789000
0
LINE
8
Layer 1
10
71.120700
20
282.789000
11
70.814300
21
282.521000
0
LINE
8
Layer 1
10
70.814300
20
282.521000
11
70.618900
21
282.386000
0
LINE
8
Layer 1
10
70.618900
20
282.386000
11
70.380700
21
282.306000
0
LINE
8
Layer 1
10
70.380700
20
282.306000
11
70.376600
21
282.306000
0
LINE
8
Layer 1
10
70.376600
20
282.306000
11
70.373000
21
282.305000
0
LINE
8
Layer 1
10
70.373000
20
282.305000
11
70.259800
21
282.305000
0
LINE
8
Layer 1
10
70.259800
20
282.305000
11
70.205000
21
282.350000
0
LINE
8
Layer 1
10
70.205000
20
282.350000
11
70.203000
21
282.353000
0
LINE
8
Layer 1
10
70.203000
20
282.353000
11
70.198800
21
282.360000
0
LINE
8
Layer 1
10
70.198800
20
282.360000
11
70.136800
21
282.594000
0
LINE
8
Layer 1
10
70.136800
20
282.594000
11
70.187400
21
282.932000
0
LINE
8
Layer 1
10
70.187400
20
282.932000
11
70.187400
21
282.937000
0
LINE
8
Layer 1
10
70.187400
20
282.937000
11
70.189500
21
282.943000
0
LINE
8
Layer 1
10
70.189500
20
282.943000
11
70.275300
21
283.348000
0
LINE
8
Layer 1
10
70.275300
20
283.348000
11
70.277400
21
283.355000
0
LINE
8
Layer 1
10
70.277400
20
283.355000
11
70.279400
21
283.362000
0
LINE
8
Layer 1
10
70.279400
20
283.362000
11
70.427700
21
283.781000
0
LINE
8
Layer 1
10
70.427700
20
283.781000
11
70.429800
21
283.791000
0
LINE
8
Layer 1
10
70.429800
20
283.791000
11
70.431900
21
283.799000
0
LINE
8
Layer 1
10
70.431900
20
283.799000
11
70.502200
21
283.969000
0
LINE
8
Layer 1
10
70.502200
20
283.969000
11
70.507800
21
283.977000
0
LINE
8
Layer 1
10
70.507800
20
283.977000
11
70.512000
21
283.986000
0
LINE
8
Layer 1
10
70.512000
20
283.986000
11
70.627200
21
284.215000
0
LINE
8
Layer 1
10
70.627200
20
284.215000
11
70.746100
21
284.418000
0
LINE
8
Layer 1
10
70.746100
20
284.418000
11
70.762100
21
284.445000
0
LINE
8
Layer 1
10
70.762100
20
284.445000
11
70.890800
21
284.668000
0
LINE
8
Layer 1
10
70.890800
20
284.668000
11
70.894900
21
284.676000
0
LINE
8
Layer 1
10
70.894900
20
284.676000
11
71.281400
21
285.428000
0
LINE
8
Layer 1
10
71.281400
20
285.428000
11
71.275200
21
285.420000
0
LINE
8
Layer 1
10
71.275200
20
285.420000
11
71.646800
21
286.182000
0
LINE
8
Layer 1
10
71.646800
20
286.182000
11
71.652500
21
286.191000
0
LINE
8
Layer 1
10
71.652500
20
286.191000
11
71.656600
21
286.205000
0
LINE
8
Layer 1
10
71.656600
20
286.205000
11
71.710900
21
286.309000
0
LINE
8
Layer 1
10
71.710900
20
286.309000
11
71.715000
21
286.316000
0
LINE
8
Layer 1
10
71.715000
20
286.316000
11
71.718600
21
286.324000
0
LINE
8
Layer 1
10
71.718600
20
286.324000
11
71.810600
21
286.578000
0
LINE
8
Layer 1
10
71.810600
20
286.578000
11
71.833900
21
286.893000
0
LINE
8
Layer 1
10
71.833900
20
286.893000
11
71.541400
21
287.207000
0
LINE
8
Layer 1
10
71.541400
20
287.207000
11
71.339300
21
287.255000
0
LINE
8
Layer 1
10
71.339300
20
287.255000
11
71.162100
21
287.295000
0
LINE
8
Layer 1
10
71.162100
20
287.295000
11
71.152200
21
287.299000
0
LINE
8
Layer 1
10
71.152200
20
287.299000
11
71.140900
21
287.299000
0
LINE
8
Layer 1
10
71.140900
20
287.299000
11
70.060800
21
287.236000
0
LINE
8
Layer 1
10
70.060800
20
287.236000
11
69.086200
21
286.912000
0
LINE
8
Layer 1
10
69.086200
20
286.912000
11
68.359700
21
286.469000
0
LINE
8
Layer 1
10
68.359700
20
286.469000
11
68.353500
21
286.465000
0
LINE
8
Layer 1
10
68.353500
20
286.465000
11
68.351400
21
286.463000
0
LINE
8
Layer 1
10
68.351400
20
286.463000
11
67.724500
21
285.951000
0
LINE
8
Layer 1
10
67.724500
20
285.951000
11
67.025400
21
285.213000
0
LINE
8
Layer 1
10
67.025400
20
285.213000
11
66.685300
21
284.730000
0
LINE
8
Layer 1
10
66.685300
20
284.730000
11
66.656400
21
284.730000
0
LINE
8
Layer 1
10
66.656400
20
284.730000
11
66.582000
21
284.658000
0
LINE
8
Layer 1
10
66.582000
20
284.658000
11
66.248200
21
284.342000
0
LINE
8
Layer 1
10
66.248200
20
284.342000
11
65.882800
21
284.051000
0
LINE
8
Layer 1
10
65.882800
20
284.051000
11
65.882800
21
284.049000
0
LINE
8
Layer 1
10
65.882800
20
284.049000
11
65.880700
21
284.049000
0
LINE
8
Layer 1
10
65.880700
20
284.049000
11
65.593900
21
283.861000
0
LINE
8
Layer 1
10
65.593900
20
283.861000
11
65.591900
21
283.861000
0
LINE
8
Layer 1
10
65.591900
20
283.861000
11
65.337600
21
283.769000
0
LINE
8
Layer 1
10
65.337600
20
283.769000
11
65.335500
21
283.769000
0
LINE
8
Layer 1
10
65.335500
20
283.769000
11
65.109200
21
283.797000
0
LINE
8
Layer 1
10
65.109200
20
283.797000
11
65.033200
21
283.945000
0
LINE
8
Layer 1
10
65.033200
20
283.945000
11
65.095800
21
284.397000
0
LINE
8
Layer 1
10
65.095800
20
284.397000
11
65.097300
21
284.399000
0
LINE
8
Layer 1
10
65.097300
20
284.399000
11
65.097300
21
284.402000
0
LINE
8
Layer 1
10
65.097300
20
284.402000
11
65.298900
21
284.912000
0
LINE
8
Layer 1
10
65.298900
20
284.912000
11
65.300900
21
284.918000
0
LINE
8
Layer 1
10
65.300900
20
284.918000
11
65.302500
21
284.924000
0
LINE
8
Layer 1
10
65.302500
20
284.924000
11
65.689500
21
285.695000
0
LINE
8
Layer 1
10
65.689500
20
285.695000
11
65.691600
21
285.699000
0
LINE
8
Layer 1
10
65.691600
20
285.699000
11
65.925700
21
286.129000
0
LINE
8
Layer 1
10
65.925700
20
286.129000
11
65.927800
21
286.133000
0
LINE
8
Layer 1
10
65.927800
20
286.133000
11
65.965000
21
286.432000
0
LINE
8
Layer 1
10
65.965000
20
286.432000
11
65.724700
21
286.777000
0
LINE
8
Layer 1
10
65.724700
20
286.777000
11
65.381000
21
286.815000
0
LINE
8
Layer 1
10
65.381000
20
286.815000
11
65.107700
21
286.584000
0
LINE
8
Layer 1
10
65.107700
20
286.584000
11
65.101500
21
286.576000
0
LINE
8
Layer 1
10
65.101500
20
286.576000
11
65.097800
21
286.569000
0
LINE
8
Layer 1
10
65.097800
20
286.569000
11
64.937600
21
286.266000
0
LINE
8
Layer 1
10
64.937600
20
286.266000
11
64.634800
21
285.828000
0
LINE
8
Layer 1
10
64.634800
20
285.828000
11
64.630700
21
285.824000
0
LINE
8
Layer 1
10
64.630700
20
285.824000
11
64.279300
21
285.324000
0
LINE
8
Layer 1
10
64.279300
20
285.324000
11
63.885000
21
284.853000
0
LINE
8
Layer 1
10
63.885000
20
284.853000
11
63.882900
21
284.851000
0
LINE
8
Layer 1
10
63.882900
20
284.851000
11
63.880900
21
284.850000
0
LINE
8
Layer 1
10
63.880900
20
284.850000
11
63.011700
21
283.867000
0
LINE
8
Layer 1
10
63.011700
20
283.867000
11
63.009600
21
283.865000
0
LINE
8
Layer 1
10
63.009600
20
283.865000
11
63.007500
21
283.863000
0
LINE
8
Layer 1
10
63.007500
20
283.863000
11
62.087700
21
282.961000
0
LINE
8
Layer 1
10
62.087700
20
282.961000
11
61.722300
21
282.670000
0
LINE
8
Layer 1
10
61.722300
20
282.670000
11
61.718700
21
282.666000
0
LINE
8
Layer 1
10
61.718700
20
282.666000
11
61.712500
21
282.662000
0
LINE
8
Layer 1
10
61.712500
20
282.662000
11
61.363200
21
282.445000
0
LINE
8
Layer 1
10
61.363200
20
282.445000
11
61.351300
21
282.439000
0
LINE
8
Layer 1
10
61.351300
20
282.439000
11
61.337900
21
282.431000
0
LINE
8
Layer 1
10
61.337900
20
282.431000
11
61.107400
21
282.342000
0
LINE
8
Layer 1
10
61.107400
20
282.342000
11
61.103200
21
282.340000
0
LINE
8
Layer 1
10
61.103200
20
282.340000
11
61.095500
21
282.348000
0
LINE
8
Layer 1
10
61.095500
20
282.348000
11
61.087700
21
282.357000
0
LINE
8
Layer 1
10
61.087700
20
282.357000
11
61.085700
21
282.363000
0
LINE
8
Layer 1
10
61.085700
20
282.363000
11
61.117200
21
282.533000
0
LINE
8
Layer 1
10
61.117200
20
282.533000
11
61.117200
21
282.535000
0
LINE
8
Layer 1
10
61.117200
20
282.535000
11
61.117200
21
282.537000
0
LINE
8
Layer 1
10
61.117200
20
282.537000
11
61.312500
21
283.133000
0
LINE
8
Layer 1
10
61.312500
20
283.133000
11
61.314100
21
283.137000
0
LINE
8
Layer 1
10
61.314100
20
283.137000
11
61.316200
21
283.141000
0
LINE
8
Layer 1
10
61.316200
20
283.141000
11
61.636500
21
283.898000
0
LINE
8
Layer 1
10
61.636500
20
283.898000
11
61.982300
21
284.666000
0
LINE
8
Layer 1
10
61.982300
20
284.666000
11
62.158000
21
285.094000
0
LINE
8
Layer 1
10
62.158000
20
285.094000
11
62.162100
21
285.106000
0
LINE
8
Layer 1
10
62.162100
20
285.106000
11
62.314500
21
285.543000
0
LINE
8
Layer 1
10
62.314500
20
285.543000
11
62.316600
21
285.549000
0
LINE
8
Layer 1
10
62.316600
20
285.549000
11
62.420000
21
285.902000
0
LINE
8
Layer 1
10
62.420000
20
285.902000
11
62.443200
21
286.330000
0
LINE
8
Layer 1
10
62.443200
20
286.330000
11
62.443200
21
286.332000
0
LINE
8
Layer 1
10
62.443200
20
286.332000
11
62.443200
21
286.336000
0
LINE
8
Layer 1
10
62.443200
20
286.336000
11
62.307575
21
286.691125
0
LINE
8
Layer 1
10
62.307575
20
286.691125
11
62.027200
21
286.945000
0
LINE
8
Layer 1
10
62.027200
20
286.945000
11
61.672638
21
287.048000
0
LINE
8
Layer 1
10
61.672638
20
287.048000
11
61.306300
21
286.998000
0
LINE
8
Layer 1
10
61.306300
20
286.998000
11
61.300700
21
286.996000
0
LINE
8
Layer 1
10
61.300700
20
286.996000
11
61.297000
21
286.994000
0
LINE
8
Layer 1
10
61.297000
20
286.994000
11
60.683600
21
286.602000
0
LINE
8
Layer 1
10
60.683600
20
286.602000
11
60.216500
21
286.153000
0
LINE
8
Layer 1
10
60.216500
20
286.153000
11
60.212900
21
286.151000
0
LINE
8
Layer 1
10
60.212900
20
286.151000
11
60.210800
21
286.146000
0
LINE
8
Layer 1
10
60.210800
20
286.146000
11
59.667700
21
285.547000
0
LINE
8
Layer 1
10
59.667700
20
285.547000
11
59.667700
21
285.545000
0
LINE
8
Layer 1
10
59.667700
20
285.545000
11
59.156100
21
284.976000
0
LINE
8
Layer 1
10
59.156100
20
284.976000
11
59.148300
21
284.969000
0
LINE
8
Layer 1
10
59.148300
20
284.969000
11
58.968500
21
284.740000
0
LINE
8
Layer 1
10
58.968500
20
284.740000
11
58.933400
21
284.715000
0
LINE
8
Layer 1
10
58.933400
20
284.715000
11
58.740100
21
284.521000
0
LINE
8
Layer 1
10
58.740100
20
284.521000
11
58.730300
21
284.508000
0
LINE
8
Layer 1
10
58.730300
20
284.508000
11
58.720400
21
284.494000
0
LINE
8
Layer 1
10
58.720400
20
284.494000
11
58.644500
21
284.388000
0
LINE
8
Layer 1
10
58.644500
20
284.388000
11
58.640300
21
284.385000
0
LINE
8
Layer 1
10
58.640300
20
284.385000
11
58.036800
21
283.724000
0
LINE
8
Layer 1
10
58.036800
20
283.724000
11
58.033100
21
283.721000
0
LINE
8
Layer 1
10
58.033100
20
283.721000
11
57.660000
21
283.310000
0
LINE
8
Layer 1
10
57.660000
20
283.310000
11
57.056500
21
282.760000
0
LINE
8
Layer 1
10
57.056500
20
282.760000
11
57.054400
21
282.758000
0
LINE
8
Layer 1
10
57.054400
20
282.758000
11
57.050800
21
282.756000
0
LINE
8
Layer 1
10
57.050800
20
282.756000
11
56.507700
21
282.441000
0
LINE
8
Layer 1
10
56.507700
20
282.441000
11
56.437400
21
282.441000
0
LINE
8
Layer 1
10
56.437400
20
282.441000
11
56.367100
21
282.543000
0
LINE
8
Layer 1
10
56.367100
20
282.543000
11
56.365000
21
282.547000
0
LINE
8
Layer 1
10
56.365000
20
282.547000
11
56.363000
21
282.553000
0
LINE
8
Layer 1
10
56.363000
20
282.553000
11
56.288600
21
282.869000
0
LINE
8
Layer 1
10
56.288600
20
282.869000
11
56.323700
21
283.265000
0
LINE
8
Layer 1
10
56.323700
20
283.265000
11
56.323700
21
283.270000
0
LINE
8
Layer 1
10
56.323700
20
283.270000
11
56.323700
21
283.272000
0
LINE
8
Layer 1
10
56.323700
20
283.272000
11
56.490100
21
283.988000
0
LINE
8
Layer 1
10
56.490100
20
283.988000
11
56.492200
21
283.990000
0
LINE
8
Layer 1
10
56.492200
20
283.990000
11
56.773300
21
284.853000
0
LINE
8
Layer 1
10
56.773300
20
284.853000
11
56.946900
21
285.319000
0
LINE
8
Layer 1
10
56.946900
20
285.319000
11
57.017200
21
285.527000
0
LINE
8
Layer 1
10
57.017200
20
285.527000
11
57.099400
21
285.647000
0
LINE
8
Layer 1
10
57.099400
20
285.647000
11
57.109200
21
285.657000
0
LINE
8
Layer 1
10
57.109200
20
285.657000
11
57.119000
21
285.668000
0
LINE
8
Layer 1
10
57.119000
20
285.668000
11
58.099300
21
286.938000
0
LINE
8
Layer 1
10
58.099300
20
286.938000
11
59.060500
21
288.225000
0
LINE
8
Layer 1
10
59.060500
20
288.225000
11
59.806700
21
289.260000
0
LINE
8
Layer 1
10
59.806700
20
289.260000
11
59.810300
21
289.266000
0
LINE
8
Layer 1
10
59.810300
20
289.266000
11
60.527100
21
290.350000
0
LINE
8
Layer 1
10
60.527100
20
290.350000
11
60.531200
21
290.358000
0
LINE
8
Layer 1
10
60.531200
20
290.358000
11
60.781300
21
290.799000
0
LINE
8
Layer 1
10
60.781300
20
290.799000
11
60.789100
21
290.812000
0
LINE
8
Layer 1
10
60.789100
20
290.812000
11
61.027300
21
291.310000
0
LINE
8
Layer 1
10
61.027300
20
291.310000
11
61.140500
21
292.086000
0
LINE
8
Layer 1
10
61.140500
20
292.086000
11
61.000425
21
292.540875
0
LINE
8
Layer 1
10
61.000425
20
292.540875
11
60.656200
21
292.851000
0
LINE
8
Layer 1
10
60.656200
20
292.851000
11
60.199525
21
292.949250
0
LINE
8
Layer 1
10
60.199525
20
292.949250
11
59.744200
21
292.806000
0
LINE
8
Layer 1
10
59.744200
20
292.806000
11
59.742100
21
292.805000
0
LINE
8
Layer 1
10
59.742100
20
292.805000
11
59.740000
21
292.803000
0
LINE
8
Layer 1
10
59.740000
20
292.803000
11
59.161800
21
292.287000
0
LINE
8
Layer 1
10
59.161800
20
292.287000
11
59.160200
21
292.285000
0
LINE
8
Layer 1
10
59.160200
20
292.285000
11
58.722500
21
291.689000
0
LINE
8
Layer 1
10
58.722500
20
291.689000
11
58.722500
21
291.688000
0
LINE
8
Layer 1
10
58.722500
20
291.688000
11
58.720400
21
291.686000
0
LINE
8
Layer 1
10
58.720400
20
291.686000
11
58.386600
21
291.074000
0
LINE
8
Layer 1
10
58.386600
20
291.074000
11
58.040900
21
290.385000
0
LINE
8
Layer 1
10
58.040900
20
290.385000
11
57.710700
21
289.684000
0
LINE
8
Layer 1
10
57.710700
20
289.684000
11
57.710700
21
289.687000
0
LINE
8
Layer 1
10
57.710700
20
289.687000
11
57.265800
21
288.660000
0
LINE
8
Layer 1
10
57.265800
20
288.660000
11
57.263700
21
288.656000
0
LINE
8
Layer 1
10
57.263700
20
288.656000
11
57.263700
21
288.652000
0
LINE
8
Layer 1
10
57.263700
20
288.652000
11
56.863200
21
287.625000
0
LINE
8
Layer 1
10
56.863200
20
287.625000
11
56.574300
21
286.949000
0
LINE
8
Layer 1
10
56.574300
20
286.949000
11
56.572300
21
286.945000
0
LINE
8
Layer 1
10
56.572300
20
286.945000
11
56.570200
21
286.941000
0
LINE
8
Layer 1
10
56.570200
20
286.941000
11
56.327800
21
286.289000
0
LINE
8
Layer 1
10
56.327800
20
286.289000
11
56.263700
21
286.153000
0
LINE
8
Layer 1
10
56.263700
20
286.153000
11
56.251900
21
286.119000
0
LINE
8
Layer 1
10
56.251900
20
286.119000
11
56.244100
21
286.111000
0
LINE
8
Layer 1
10
56.244100
20
286.111000
11
56.224500
21
286.056000
0
LINE
8
Layer 1
10
56.224500
20
286.056000
11
56.197100
21
286.000000
0
LINE
8
Layer 1
10
56.197100
20
286.000000
11
56.150100
21
285.941000
0
LINE
8
Layer 1
10
56.150100
20
285.941000
11
55.960900
21
285.730000
0
LINE
8
Layer 1
10
55.960900
20
285.730000
11
55.949000
21
285.717000
0
LINE
8
Layer 1
10
55.949000
20
285.717000
11
55.941300
21
285.703000
0
LINE
8
Layer 1
10
55.941300
20
285.703000
11
55.824000
21
285.559000
0
LINE
8
Layer 1
10
55.824000
20
285.559000
11
55.814200
21
285.547000
0
LINE
8
Layer 1
10
55.814200
20
285.547000
11
55.343900
21
284.941000
0
LINE
8
Layer 1
10
55.343900
20
284.941000
11
55.142400
21
284.703000
0
LINE
8
Layer 1
10
55.142400
20
284.703000
11
55.154300
21
284.715000
0
LINE
8
Layer 1
10
55.154300
20
284.715000
11
55.060200
21
284.597000
0
LINE
8
Layer 1
10
55.060200
20
284.597000
11
54.222500
21
283.631000
0
LINE
8
Layer 1
10
54.222500
20
283.631000
11
53.312500
21
282.738000
0
LINE
8
Layer 1
10
53.312500
20
282.738000
11
52.855200
21
282.408000
0
LINE
8
Layer 1
10
52.855200
20
282.408000
11
52.851600
21
282.406000
0
LINE
8
Layer 1
10
52.851600
20
282.406000
11
52.849500
21
282.404000
0
LINE
8
Layer 1
10
52.849500
20
282.404000
11
52.421600
21
282.213000
0
LINE
8
Layer 1
10
52.421600
20
282.213000
11
52.411800
21
282.211000
0
LINE
8
Layer 1
10
52.411800
20
282.211000
11
52.404000
21
282.209000
0
LINE
8
Layer 1
10
52.404000
20
282.209000
11
52.208700
21
282.183000
0
LINE
8
Layer 1
10
52.208700
20
282.183000
11
52.095500
21
282.238000
0
LINE
8
Layer 1
10
52.095500
20
282.238000
11
52.029400
21
282.396000
0
LINE
8
Layer 1
10
52.029400
20
282.396000
11
52.029400
21
282.398000
0
LINE
8
Layer 1
10
52.029400
20
282.398000
11
52.027300
21
282.400000
0
LINE
8
Layer 1
10
52.027300
20
282.400000
11
52.029400
21
282.900000
0
LINE
8
Layer 1
10
52.029400
20
282.900000
11
52.193200
21
283.480000
0
LINE
8
Layer 1
10
52.193200
20
283.480000
11
52.193200
21
283.485000
0
LINE
8
Layer 1
10
52.193200
20
283.485000
11
52.195300
21
283.488000
0
LINE
8
Layer 1
10
52.195300
20
283.488000
11
52.474300
21
284.328000
0
LINE
8
Layer 1
10
52.474300
20
284.328000
11
52.478500
21
284.336000
0
LINE
8
Layer 1
10
52.478500
20
284.336000
11
52.478500
21
284.338000
0
LINE
8
Layer 1
10
52.478500
20
284.338000
11
52.818500
21
285.170000
0
LINE
8
Layer 1
10
52.818500
20
285.170000
11
52.820000
21
285.172000
0
LINE
8
Layer 1
10
52.820000
20
285.172000
11
53.200900
21
286.068000
0
LINE
8
Layer 1
10
53.200900
20
286.068000
11
53.200900
21
286.070000
0
LINE
8
Layer 1
10
53.200900
20
286.070000
11
53.203000
21
286.073000
0
LINE
8
Layer 1
10
53.203000
20
286.073000
11
53.601400
21
286.985000
0
LINE
8
Layer 1
10
53.601400
20
286.985000
11
53.603400
21
286.990000
0
LINE
8
Layer 1
10
53.603400
20
286.990000
11
53.605500
21
286.996000
0
LINE
8
Layer 1
10
53.605500
20
286.996000
11
54.275200
21
288.602000
0
LINE
8
Layer 1
10
54.275200
20
288.602000
11
54.966700
21
290.213000
0
LINE
8
Layer 1
10
54.966700
20
290.213000
11
55.630700
21
291.802000
0
LINE
8
Layer 1
10
55.630700
20
291.802000
11
55.790900
21
292.189000
0
LINE
8
Layer 1
10
55.790900
20
292.189000
11
55.790900
21
292.207000
0
LINE
8
Layer 1
10
55.790900
20
292.207000
11
55.788800
21
292.225000
0
LINE
8
Layer 1
10
55.788800
20
292.225000
11
55.480300
21
292.625000
0
LINE
8
Layer 1
10
55.480300
20
292.625000
11
55.212700
21
292.778000
0
LINE
8
Layer 1
10
55.212700
20
292.778000
11
55.209000
21
292.779000
0
LINE
8
Layer 1
10
55.209000
20
292.779000
11
55.207000
21
292.781000
0
LINE
8
Layer 1
10
55.207000
20
292.781000
11
54.410100
21
292.974000
0
LINE
8
Layer 1
10
54.410100
20
292.974000
11
53.642700
21
293.016000
0
LINE
8
Layer 1
10
53.642700
20
293.016000
11
53.638600
21
293.016000
0
LINE
8
Layer 1
10
53.638600
20
293.016000
11
53.632900
21
293.016000
0
LINE
8
Layer 1
10
53.632900
20
293.016000
11
53.632900
21
293.016000
0
LINE
8
Layer 1
10
14.656500
20
292.986000
11
14.521600
21
292.965000
0
LINE
8
Layer 1
10
14.521600
20
292.965000
11
14.205300
21
292.686000
0
LINE
8
Layer 1
10
14.205300
20
292.686000
11
14.201200
21
292.678000
0
LINE
8
Layer 1
10
14.201200
20
292.678000
11
13.679800
21
291.463000
0
LINE
8
Layer 1
10
13.679800
20
291.463000
11
13.296900
21
290.543000
0
LINE
8
Layer 1
10
13.296900
20
290.543000
11
12.511900
21
288.703000
0
LINE
8
Layer 1
10
12.511900
20
288.703000
11
12.299000
21
288.221000
0
LINE
8
Layer 1
10
12.299000
20
288.221000
11
12.296900
21
288.217000
0
LINE
8
Layer 1
10
12.296900
20
288.217000
11
12.067062
21
287.822375
0
LINE
8
Layer 1
10
12.067062
20
287.822375
11
11.738300
21
287.559000
0
LINE
8
Layer 1
10
11.738300
20
287.559000
11
11.738300
21
287.557000
0
LINE
8
Layer 1
10
11.738300
20
287.557000
11
11.736200
21
287.557000
0
LINE
8
Layer 1
10
11.736200
20
287.557000
11
10.693400
21
287.262000
0
LINE
8
Layer 1
10
10.693400
20
287.262000
11
9.550840
21
287.262000
0
LINE
8
Layer 1
10
9.550840
20
287.262000
11
9.546700
21
287.262000
0
LINE
8
Layer 1
10
9.546700
20
287.262000
11
8.771560
21
287.281000
0
LINE
8
Layer 1
10
8.771560
20
287.281000
11
8.009850
21
287.242000
0
LINE
8
Layer 1
10
8.009850
20
287.242000
11
7.279140
21
287.141000
0
LINE
8
Layer 1
10
7.279140
20
287.141000
11
7.101380
21
287.080000
0
LINE
8
Layer 1
10
7.101380
20
287.080000
11
7.601600
21
288.297000
0
LINE
8
Layer 1
10
7.601600
20
288.297000
11
7.603670
21
288.301000
0
LINE
8
Layer 1
10
7.603670
20
288.301000
11
8.308540
21
290.055000
0
LINE
8
Layer 1
10
8.308540
20
290.055000
11
8.312670
21
290.067000
0
LINE
8
Layer 1
10
8.312670
20
290.067000
11
8.718850
21
291.109000
0
LINE
8
Layer 1
10
8.718850
20
291.109000
11
8.784990
21
291.859000
0
LINE
8
Layer 1
10
8.784990
20
291.859000
11
8.649101
21
292.252500
0
LINE
8
Layer 1
10
8.649101
20
292.252500
11
8.363310
21
292.565000
0
LINE
8
Layer 1
10
8.363310
20
292.565000
11
8.361250
21
292.565000
0
LINE
8
Layer 1
10
8.361250
20
292.565000
11
8.359180
21
292.566000
0
LINE
8
Layer 1
10
8.359180
20
292.566000
11
7.466730
21
292.842000
0
LINE
8
Layer 1
10
7.466730
20
292.842000
11
6.624920
21
292.738000
0
LINE
8
Layer 1
10
6.624920
20
292.738000
11
5.845932
21
292.480125
0
LINE
8
Layer 1
10
5.845932
20
292.480125
11
5.158340
21
292.037000
0
LINE
8
Layer 1
10
5.158340
20
292.037000
11
5.150590
21
292.029000
0
LINE
8
Layer 1
10
5.150590
20
292.029000
11
5.142840
21
292.021000
0
LINE
8
Layer 1
10
5.142840
20
292.021000
11
4.724780
21
291.330000
0
LINE
8
Layer 1
10
4.724780
20
291.330000
11
4.773350
21
290.928000
0
LINE
8
Layer 1
10
4.773350
20
290.928000
11
5.046720
21
290.738000
0
LINE
8
Layer 1
10
5.046720
20
290.738000
11
5.322160
21
290.738000
0
LINE
8
Layer 1
10
5.322160
20
290.738000
11
5.349540
21
290.746000
0
LINE
8
Layer 1
10
5.349540
20
290.746000
11
5.372800
21
290.758000
0
LINE
8
Layer 1
10
5.372800
20
290.758000
11
5.603280
21
291.094000
0
LINE
8
Layer 1
10
5.603280
20
291.094000
11
5.599660
21
291.070000
0
LINE
8
Layer 1
10
5.599660
20
291.070000
11
5.873030
21
291.402000
0
LINE
8
Layer 1
10
5.873030
20
291.402000
11
5.886460
21
291.410000
0
LINE
8
Layer 1
10
5.886460
20
291.410000
11
5.900410
21
291.422000
0
LINE
8
Layer 1
10
5.900410
20
291.422000
11
6.554640
21
291.756000
0
LINE
8
Layer 1
10
6.554640
20
291.756000
11
6.564460
21
291.760000
0
LINE
8
Layer 1
10
6.564460
20
291.760000
11
6.574280
21
291.764000
0
LINE
8
Layer 1
10
6.574280
20
291.764000
11
6.970630
21
291.867000
0
LINE
8
Layer 1
10
6.970630
20
291.867000
11
6.978390
21
291.867000
0
LINE
8
Layer 1
10
6.978390
20
291.867000
11
6.986140
21
291.869000
0
LINE
8
Layer 1
10
6.986140
20
291.869000
11
7.388700
21
291.902000
0
LINE
8
Layer 1
10
7.388700
20
291.902000
11
7.398510
21
291.901000
0
LINE
8
Layer 1
10
7.398510
20
291.901000
11
7.410400
21
291.901000
0
LINE
8
Layer 1
10
7.410400
20
291.901000
11
7.681700
21
291.869000
0
LINE
8
Layer 1
10
7.681700
20
291.869000
11
7.845520
21
291.783000
0
LINE
8
Layer 1
10
7.845520
20
291.783000
11
7.890470
21
291.693000
0
LINE
8
Layer 1
10
7.890470
20
291.693000
11
7.879110
21
291.530000
0
LINE
8
Layer 1
10
7.879110
20
291.530000
11
7.792810
21
291.291000
0
LINE
8
Layer 1
10
7.792810
20
291.291000
11
7.689450
21
291.022000
0
LINE
8
Layer 1
10
7.689450
20
291.022000
11
6.697270
21
288.524000
0
LINE
8
Layer 1
10
6.697270
20
288.524000
11
6.701400
21
288.529000
0
LINE
8
Layer 1
10
6.701400
20
288.529000
11
5.720580
21
286.186000
0
LINE
8
Layer 1
10
5.720580
20
286.186000
11
4.761470
21
283.865000
0
LINE
8
Layer 1
10
4.761470
20
283.865000
11
4.052980
21
282.172000
0
LINE
8
Layer 1
10
4.052980
20
282.172000
11
4.052980
21
282.154000
0
LINE
8
Layer 1
10
4.052980
20
282.154000
11
4.041100
21
282.119000
0
LINE
8
Layer 1
10
4.041100
20
282.119000
11
4.036960
21
282.109000
0
LINE
8
Layer 1
10
4.036960
20
282.109000
11
4.033350
21
282.100000
0
LINE
8
Layer 1
10
4.033350
20
282.100000
11
4.041100
21
281.722000
0
LINE
8
Layer 1
10
4.041100
20
281.722000
11
4.267440
21
281.496000
0
LINE
8
Layer 1
10
4.267440
20
281.496000
11
4.292760
21
281.484000
0
LINE
8
Layer 1
10
4.292760
20
281.484000
11
4.318600
21
281.476000
0
LINE
8
Layer 1
10
4.318600
20
281.476000
11
4.593520
21
281.476000
0
LINE
8
Layer 1
10
4.593520
20
281.476000
11
4.609540
21
281.481000
0
LINE
8
Layer 1
10
4.609540
20
281.481000
11
4.625040
21
281.488000
0
LINE
8
Layer 1
10
4.625040
20
281.488000
11
4.898410
21
281.760000
0
LINE
8
Layer 1
10
4.898410
20
281.760000
11
5.070490
21
282.160000
0
LINE
8
Layer 1
10
5.070490
20
282.160000
11
5.820320
21
283.984000
0
LINE
8
Layer 1
10
5.820320
20
283.984000
11
6.048730
21
284.560000
0
LINE
8
Layer 1
10
6.048730
20
284.560000
11
6.214610
21
284.963000
0
LINE
8
Layer 1
10
6.214610
20
284.963000
11
6.218740
21
284.973000
0
LINE
8
Layer 1
10
6.218740
20
284.973000
11
6.222880
21
284.981000
0
LINE
8
Layer 1
10
6.222880
20
284.981000
11
6.390820
21
285.338000
0
LINE
8
Layer 1
10
6.390820
20
285.338000
11
6.392370
21
285.342000
0
LINE
8
Layer 1
10
6.392370
20
285.342000
11
6.394440
21
285.346000
0
LINE
8
Layer 1
10
6.394440
20
285.346000
11
6.548950
21
285.672000
0
LINE
8
Layer 1
10
6.548950
20
285.672000
11
6.919990
21
286.028000
0
LINE
8
Layer 1
10
6.919990
20
286.028000
11
7.431590
21
286.232000
0
LINE
8
Layer 1
10
7.431590
20
286.232000
11
8.037240
21
286.322000
0
LINE
8
Layer 1
10
8.037240
20
286.322000
11
8.675960
21
286.340000
0
LINE
8
Layer 1
10
8.675960
20
286.340000
11
9.507950
21
286.322000
0
LINE
8
Layer 1
10
9.507950
20
286.322000
11
9.513630
21
286.320000
0
LINE
8
Layer 1
10
9.513630
20
286.320000
11
9.519320
21
286.320000
0
LINE
8
Layer 1
10
9.519320
20
286.320000
11
10.392600
21
286.340000
0
LINE
8
Layer 1
10
10.392600
20
286.340000
11
11.259800
21
286.420000
0
LINE
8
Layer 1
10
11.259800
20
286.420000
11
11.595700
21
286.531000
0
LINE
8
Layer 1
10
11.595700
20
286.531000
11
11.415800
21
286.092000
0
LINE
8
Layer 1
10
11.415800
20
286.092000
11
11.413800
21
286.088000
0
LINE
8
Layer 1
10
11.413800
20
286.088000
11
11.413800
21
286.084000
0
LINE
8
Layer 1
10
11.413800
20
286.084000
11
11.066500
21
285.141000
0
LINE
8
Layer 1
10
11.066500
20
285.141000
11
10.777100
21
284.307000
0
LINE
8
Layer 1
10
10.777100
20
284.307000
11
10.556500
21
283.451000
0
LINE
8
Layer 1
10
10.556500
20
283.451000
11
10.458800
21
282.844000
0
LINE
8
Layer 1
10
10.458800
20
282.844000
11
10.458800
21
282.836000
0
LINE
8
Layer 1
10
10.458800
20
282.836000
11
10.458800
21
282.828000
0
LINE
8
Layer 1
10
10.458800
20
282.828000
11
10.546600
21
282.139000
0
LINE
8
Layer 1
10
10.546600
20
282.139000
11
10.548700
21
282.133000
0
LINE
8
Layer 1
10
10.548700
20
282.133000
11
10.550800
21
282.129000
0
LINE
8
Layer 1
10
10.550800
20
282.129000
11
10.957000
21
281.623000
0
LINE
8
Layer 1
10
10.957000
20
281.623000
11
10.964700
21
281.619000
0
LINE
8
Layer 1
10
10.964700
20
281.619000
11
10.970900
21
281.615000
0
LINE
8
Layer 1
10
10.970900
20
281.615000
11
11.552800
21
281.474000
0
LINE
8
Layer 1
10
11.552800
20
281.474000
11
12.224600
21
281.566000
0
LINE
8
Layer 1
10
12.224600
20
281.566000
11
12.795100
21
281.852000
0
LINE
8
Layer 1
10
12.795100
20
281.852000
11
12.797200
21
281.852000
0
LINE
8
Layer 1
10
12.797200
20
281.852000
11
13.383200
21
282.297000
0
LINE
8
Layer 1
10
13.383200
20
282.297000
11
13.388800
21
282.303000
0
LINE
8
Layer 1
10
13.388800
20
282.303000
11
13.933500
21
282.809000
0
LINE
8
Layer 1
10
13.933500
20
282.809000
11
13.988300
21
282.865000
0
LINE
8
Layer 1
10
13.988300
20
282.865000
11
14.105600
21
282.265000
0
LINE
8
Layer 1
10
14.105600
20
282.265000
11
14.546900
21
281.711000
0
LINE
8
Layer 1
10
14.546900
20
281.711000
11
14.554700
21
281.705000
0
LINE
8
Layer 1
10
14.554700
20
281.705000
11
14.564500
21
281.699000
0
LINE
8
Layer 1
10
14.564500
20
281.699000
11
15.220800
21
281.473000
0
LINE
8
Layer 1
10
15.220800
20
281.473000
11
15.222800
21
281.471000
0
LINE
8
Layer 1
10
15.222800
20
281.471000
11
15.919338
21
281.499125
0
LINE
8
Layer 1
10
15.919338
20
281.499125
11
16.580400
21
281.750000
0
LINE
8
Layer 1
10
16.580400
20
281.750000
11
16.584000
21
281.752000
0
LINE
8
Layer 1
10
16.584000
20
281.752000
11
17.675900
21
282.486000
0
LINE
8
Layer 1
10
17.675900
20
282.486000
11
17.680100
21
282.490000
0
LINE
8
Layer 1
10
17.680100
20
282.490000
11
17.683700
21
282.494000
0
LINE
8
Layer 1
10
17.683700
20
282.494000
11
18.113600
21
282.904000
0
LINE
8
Layer 1
10
18.113600
20
282.904000
11
18.541000
21
283.332000
0
LINE
8
Layer 1
10
18.541000
20
283.332000
11
18.805100
21
283.629000
0
LINE
8
Layer 1
10
18.805100
20
283.629000
11
18.722900
21
282.840000
0
LINE
8
Layer 1
10
18.722900
20
282.840000
11
18.722900
21
282.838000
0
LINE
8
Layer 1
10
18.722900
20
282.838000
11
18.965300
21
282.000000
0
LINE
8
Layer 1
10
18.965300
20
282.000000
11
19.317450
21
281.652750
0
LINE
8
Layer 1
10
19.317450
20
281.652750
11
19.812700
21
281.529000
0
LINE
8
Layer 1
10
19.812700
20
281.529000
11
20.416300
21
281.652000
0
LINE
8
Layer 1
10
20.416300
20
281.652000
11
20.865400
21
281.939000
0
LINE
8
Layer 1
10
20.865400
20
281.939000
11
21.431800
21
282.424000
0
LINE
8
Layer 1
10
21.431800
20
282.424000
11
21.869500
21
282.879000
0
LINE
8
Layer 1
10
21.869500
20
282.879000
11
21.988300
21
282.265000
0
LINE
8
Layer 1
10
21.988300
20
282.265000
11
21.986300
21
282.265000
0
LINE
8
Layer 1
10
21.986300
20
282.265000
11
22.428100
21
281.711000
0
LINE
8
Layer 1
10
22.428100
20
281.711000
11
22.437900
21
281.705000
0
LINE
8
Layer 1
10
22.437900
20
281.705000
11
22.447700
21
281.699000
0
LINE
8
Layer 1
10
22.447700
20
281.699000
11
23.103500
21
281.472000
0
LINE
8
Layer 1
10
23.103500
20
281.472000
11
23.103500
21
281.470000
0
LINE
8
Layer 1
10
23.103500
20
281.470000
11
23.802238
21
281.499250
0
LINE
8
Layer 1
10
23.802238
20
281.499250
11
24.465200
21
281.752000
0
LINE
8
Layer 1
10
24.465200
20
281.752000
11
25.557100
21
282.486000
0
LINE
8
Layer 1
10
25.557100
20
282.486000
11
25.560700
21
282.490000
0
LINE
8
Layer 1
10
25.560700
20
282.490000
11
25.566900
21
282.494000
0
LINE
8
Layer 1
10
25.566900
20
282.494000
11
25.996300
21
282.904000
0
LINE
8
Layer 1
10
25.996300
20
282.904000
11
26.422200
21
283.332000
0
LINE
8
Layer 1
10
26.422200
20
283.332000
11
26.892900
21
283.859000
0
LINE
8
Layer 1
10
26.892900
20
283.859000
11
26.896500
21
283.863000
0
LINE
8
Layer 1
10
26.896500
20
283.863000
11
26.992700
21
283.998000
0
LINE
8
Layer 1
10
26.992700
20
283.998000
11
27.111500
21
284.119000
0
LINE
8
Layer 1
10
27.111500
20
284.119000
11
27.392600
21
284.494000
0
LINE
8
Layer 1
10
27.392600
20
284.494000
11
27.937800
21
285.135000
0
LINE
8
Layer 1
10
27.937800
20
285.135000
11
27.943500
21
285.140000
0
LINE
8
Layer 1
10
27.943500
20
285.140000
11
28.549200
21
285.728000
0
LINE
8
Layer 1
10
28.549200
20
285.728000
11
28.552800
21
285.732000
0
LINE
8
Layer 1
10
28.552800
20
285.732000
11
29.004400
21
286.078000
0
LINE
8
Layer 1
10
29.004400
20
286.078000
11
29.127400
21
286.115000
0
LINE
8
Layer 1
10
29.127400
20
286.115000
11
29.140900
21
286.117000
0
LINE
8
Layer 1
10
29.140900
20
286.117000
11
29.140900
21
286.045000
0
LINE
8
Layer 1
10
29.140900
20
286.045000
11
29.135200
21
286.021000
0
LINE
8
Layer 1
10
29.135200
20
286.021000
11
29.135200
21
285.996000
0
LINE
8
Layer 1
10
29.135200
20
285.996000
11
29.086100
21
285.576000
0
LINE
8
Layer 1
10
29.086100
20
285.576000
11
29.084000
21
285.574000
0
LINE
8
Layer 1
10
29.084000
20
285.574000
11
28.902600
21
284.970000
0
LINE
8
Layer 1
10
28.902600
20
284.970000
11
28.674200
21
284.400000
0
LINE
8
Layer 1
10
28.674200
20
284.400000
11
28.223100
21
283.424000
0
LINE
8
Layer 1
10
28.223100
20
283.424000
11
28.221000
21
283.422000
0
LINE
8
Layer 1
10
28.221000
20
283.422000
11
28.221000
21
283.419000
0
LINE
8
Layer 1
10
28.221000
20
283.419000
11
27.742500
21
282.445000
0
LINE
8
Layer 1
10
27.742500
20
282.445000
11
27.740400
21
282.439000
0
LINE
8
Layer 1
10
27.740400
20
282.439000
11
27.583800
21
282.089000
0
LINE
8
Layer 1
10
27.583800
20
282.089000
11
27.590000
21
282.099000
0
LINE
8
Layer 1
10
27.590000
20
282.099000
11
27.552800
21
281.740000
0
LINE
8
Layer 1
10
27.552800
20
281.740000
11
27.816400
21
281.488000
0
LINE
8
Layer 1
10
27.816400
20
281.488000
11
28.193600
21
281.488000
0
LINE
8
Layer 1
10
28.193600
20
281.488000
11
28.457200
21
281.720000
0
LINE
8
Layer 1
10
28.457200
20
281.720000
11
28.644800
21
282.039000
0
LINE
8
Layer 1
10
28.644800
20
282.039000
11
28.830300
21
282.353000
0
LINE
8
Layer 1
10
28.830300
20
282.353000
11
28.833900
21
282.357000
0
LINE
8
Layer 1
10
28.833900
20
282.357000
11
28.836000
21
282.363000
0
LINE
8
Layer 1
10
28.836000
20
282.363000
11
29.461300
21
283.384000
0
LINE
8
Layer 1
10
29.461300
20
283.384000
11
29.461300
21
283.386000
0
LINE
8
Layer 1
10
29.461300
20
283.386000
11
29.463300
21
283.388000
0
LINE
8
Layer 1
10
29.463300
20
283.388000
11
30.142900
21
284.390000
0
LINE
8
Layer 1
10
30.142900
20
284.390000
11
30.912300
21
285.328000
0
LINE
8
Layer 1
10
30.912300
20
285.328000
11
30.914400
21
285.330000
0
LINE
8
Layer 1
10
30.914400
20
285.330000
11
30.916500
21
285.332000
0
LINE
8
Layer 1
10
30.916500
20
285.332000
11
31.820800
21
286.043000
0
LINE
8
Layer 1
10
31.820800
20
286.043000
11
31.828500
21
286.045000
0
LINE
8
Layer 1
10
31.828500
20
286.045000
11
31.834200
21
286.051000
0
LINE
8
Layer 1
10
31.834200
20
286.051000
11
31.996500
21
286.123000
0
LINE
8
Layer 1
10
31.996500
20
286.123000
11
32.012000
21
286.129000
0
LINE
8
Layer 1
10
32.012000
20
286.129000
11
32.027500
21
286.137000
0
LINE
8
Layer 1
10
32.027500
20
286.137000
11
32.187700
21
286.189000
0
LINE
8
Layer 1
10
32.187700
20
286.189000
11
32.215100
21
286.195000
0
LINE
8
Layer 1
10
32.215100
20
286.195000
11
32.240400
21
286.205000
0
LINE
8
Layer 1
10
32.240400
20
286.205000
11
32.377400
21
286.224000
0
LINE
8
Layer 1
10
32.377400
20
286.224000
11
32.392900
21
286.224000
0
LINE
8
Layer 1
10
32.392900
20
286.224000
11
32.408400
21
286.226000
0
LINE
8
Layer 1
10
32.408400
20
286.226000
11
32.437800
21
286.224000
0
LINE
8
Layer 1
10
32.437800
20
286.224000
11
32.434200
21
286.209000
0
LINE
8
Layer 1
10
32.434200
20
286.209000
11
32.434200
21
286.188000
0
LINE
8
Layer 1
10
32.434200
20
286.188000
11
32.420200
21
286.025000
0
LINE
8
Layer 1
10
32.420200
20
286.025000
11
32.418200
21
286.023000
0
LINE
8
Layer 1
10
32.418200
20
286.023000
11
32.418200
21
286.021000
0
LINE
8
Layer 1
10
32.418200
20
286.021000
11
32.220800
21
285.379000
0
LINE
8
Layer 1
10
32.220800
20
285.379000
11
32.219200
21
285.375000
0
LINE
8
Layer 1
10
32.219200
20
285.375000
11
32.219200
21
285.371000
0
LINE
8
Layer 1
10
32.219200
20
285.371000
11
31.881300
21
284.547000
0
LINE
8
Layer 1
10
31.881300
20
284.547000
11
31.879200
21
284.543000
0
LINE
8
Layer 1
10
31.879200
20
284.543000
11
31.879200
21
284.541000
0
LINE
8
Layer 1
10
31.879200
20
284.541000
11
31.531400
21
283.713000
0
LINE
8
Layer 1
10
31.531400
20
283.713000
11
31.355700
21
283.281000
0
LINE
8
Layer 1
10
31.355700
20
283.281000
11
31.230700
21
282.838000
0
LINE
8
Layer 1
10
31.230700
20
282.838000
11
31.170200
21
282.498000
0
LINE
8
Layer 1
10
31.170200
20
282.498000
11
31.195500
21
282.100000
0
LINE
8
Layer 1
10
31.195500
20
282.100000
11
31.195500
21
282.098000
0
LINE
8
Layer 1
10
31.195500
20
282.098000
11
31.423112
21
281.699375
0
LINE
8
Layer 1
10
31.423112
20
281.699375
11
31.816700
21
281.492000
0
LINE
8
Layer 1
10
31.816700
20
281.492000
11
31.822300
21
281.492000
0
LINE
8
Layer 1
10
31.822300
20
281.492000
11
31.830100
21
281.490000
0
LINE
8
Layer 1
10
31.830100
20
281.490000
11
32.566500
21
281.559000
0
LINE
8
Layer 1
10
32.566500
20
281.559000
11
32.570600
21
281.559000
0
LINE
8
Layer 1
10
32.570600
20
281.559000
11
32.574200
21
281.561000
0
LINE
8
Layer 1
10
32.574200
20
281.561000
11
33.345800
21
282.010000
0
LINE
8
Layer 1
10
33.345800
20
282.010000
11
33.910600
21
282.519000
0
LINE
8
Layer 1
10
33.910600
20
282.519000
11
33.961200
21
282.197000
0
LINE
8
Layer 1
10
33.961200
20
282.197000
11
33.963300
21
282.190000
0
LINE
8
Layer 1
10
33.963300
20
282.190000
11
33.966900
21
282.183000
0
LINE
8
Layer 1
10
33.966900
20
282.183000
11
34.447500
21
281.606000
0
LINE
8
Layer 1
10
34.447500
20
281.606000
11
34.870275
21
281.425000
0
LINE
8
Layer 1
10
34.870275
20
281.425000
11
35.334300
21
281.394000
0
LINE
8
Layer 1
10
35.334300
20
281.394000
11
35.340000
21
281.394000
0
LINE
8
Layer 1
10
35.340000
20
281.394000
11
35.346200
21
281.394000
0
LINE
8
Layer 1
10
35.346200
20
281.394000
11
36.146600
21
281.627000
0
LINE
8
Layer 1
10
36.146600
20
281.627000
11
36.152800
21
281.631000
0
LINE
8
Layer 1
10
36.152800
20
281.631000
11
36.160600
21
281.635000
0
LINE
8
Layer 1
10
36.160600
20
281.635000
11
36.920200
21
282.190000
0
LINE
8
Layer 1
10
36.920200
20
282.190000
11
37.098000
21
282.383000
0
LINE
8
Layer 1
10
37.098000
20
282.383000
11
37.094400
21
282.232000
0
LINE
8
Layer 1
10
37.094400
20
282.232000
11
37.095900
21
282.226000
0
LINE
8
Layer 1
10
37.095900
20
282.226000
11
37.095900
21
282.218000
0
LINE
8
Layer 1
10
37.095900
20
282.218000
11
37.296150
21
281.774375
0
LINE
8
Layer 1
10
37.296150
20
281.774375
11
37.701600
21
281.474000
0
LINE
8
Layer 1
10
37.701600
20
281.474000
11
38.153450
21
281.358125
0
LINE
8
Layer 1
10
38.153450
20
281.358125
11
38.603800
21
281.429000
0
LINE
8
Layer 1
10
38.603800
20
281.429000
11
38.608000
21
281.429000
0
LINE
8
Layer 1
10
38.608000
20
281.429000
11
38.610000
21
281.431000
0
LINE
8
Layer 1
10
38.610000
20
281.431000
11
39.309200
21
281.855000
0
LINE
8
Layer 1
10
39.309200
20
281.855000
11
40.041500
21
282.551000
0
LINE
8
Layer 1
10
40.041500
20
282.551000
11
40.695700
21
283.279000
0
LINE
8
Layer 1
10
40.695700
20
283.279000
11
40.969100
21
283.594000
0
LINE
8
Layer 1
10
40.969100
20
283.594000
11
40.973200
21
283.599000
0
LINE
8
Layer 1
10
40.973200
20
283.599000
11
41.240900
21
283.902000
0
LINE
8
Layer 1
10
41.240900
20
283.902000
11
41.334400
21
283.996000
0
LINE
8
Layer 1
10
41.334400
20
283.996000
11
41.347900
21
284.016000
0
LINE
8
Layer 1
10
41.347900
20
284.016000
11
41.441900
21
284.228000
0
LINE
8
Layer 1
10
41.441900
20
284.228000
11
41.412500
21
284.535000
0
LINE
8
Layer 1
10
41.412500
20
284.535000
11
41.199600
21
284.738000
0
LINE
8
Layer 1
10
41.199600
20
284.738000
11
40.916400
21
284.795000
0
LINE
8
Layer 1
10
40.916400
20
284.795000
11
40.657000
21
284.658000
0
LINE
8
Layer 1
10
40.657000
20
284.658000
11
40.650700
21
284.650000
0
LINE
8
Layer 1
10
40.650700
20
284.650000
11
39.953600
21
283.838000
0
LINE
8
Layer 1
10
39.953600
20
283.838000
11
39.238400
21
283.066000
0
LINE
8
Layer 1
10
39.238400
20
283.066000
11
39.232700
21
283.060000
0
LINE
8
Layer 1
10
39.232700
20
283.060000
11
39.227100
21
283.055000
0
LINE
8
Layer 1
10
39.227100
20
283.055000
11
38.963000
21
282.789000
0
LINE
8
Layer 1
10
38.963000
20
282.789000
11
38.656600
21
282.521000
0
LINE
8
Layer 1
10
38.656600
20
282.521000
11
38.461200
21
282.386000
0
LINE
8
Layer 1
10
38.461200
20
282.386000
11
38.223000
21
282.306000
0
LINE
8
Layer 1
10
38.223000
20
282.306000
11
38.218900
21
282.306000
0
LINE
8
Layer 1
10
38.218900
20
282.306000
11
38.215200
21
282.304000
0
LINE
8
Layer 1
10
38.215200
20
282.304000
11
38.102100
21
282.304000
0
LINE
8
Layer 1
10
38.102100
20
282.304000
11
38.047300
21
282.349000
0
LINE
8
Layer 1
10
38.047300
20
282.349000
11
38.045200
21
282.353000
0
LINE
8
Layer 1
10
38.045200
20
282.353000
11
38.041100
21
282.359000
0
LINE
8
Layer 1
10
38.041100
20
282.359000
11
37.978600
21
282.594000
0
LINE
8
Layer 1
10
37.978600
20
282.594000
11
38.027700
21
282.932000
0
LINE
8
Layer 1
10
38.027700
20
282.932000
11
38.029700
21
282.937000
0
LINE
8
Layer 1
10
38.029700
20
282.937000
11
38.031800
21
282.943000
0
LINE
8
Layer 1
10
38.031800
20
282.943000
11
38.117600
21
283.348000
0
LINE
8
Layer 1
10
38.117600
20
283.348000
11
38.119600
21
283.355000
0
LINE
8
Layer 1
10
38.119600
20
283.355000
11
38.121700
21
283.361000
0
LINE
8
Layer 1
10
38.121700
20
283.361000
11
38.270000
21
283.781000
0
LINE
8
Layer 1
10
38.270000
20
283.781000
11
38.272100
21
283.791000
0
LINE
8
Layer 1
10
38.272100
20
283.791000
11
38.274100
21
283.799000
0
LINE
8
Layer 1
10
38.274100
20
283.799000
11
38.344400
21
283.969000
0
LINE
8
Layer 1
10
38.344400
20
283.969000
11
38.350100
21
283.977000
0
LINE
8
Layer 1
10
38.350100
20
283.977000
11
38.354200
21
283.986000
0
LINE
8
Layer 1
10
38.354200
20
283.986000
11
38.469500
21
284.215000
0
LINE
8
Layer 1
10
38.469500
20
284.215000
11
38.588300
21
284.418000
0
LINE
8
Layer 1
10
38.588300
20
284.418000
11
38.604400
21
284.445000
0
LINE
8
Layer 1
10
38.604400
20
284.445000
11
38.733000
21
284.668000
0
LINE
8
Layer 1
10
38.733000
20
284.668000
11
38.737200
21
284.676000
0
LINE
8
Layer 1
10
38.737200
20
284.676000
11
39.123700
21
285.428000
0
LINE
8
Layer 1
10
39.123700
20
285.428000
11
39.117500
21
285.420000
0
LINE
8
Layer 1
10
39.117500
20
285.420000
11
39.489100
21
286.182000
0
LINE
8
Layer 1
10
39.489100
20
286.182000
11
39.494700
21
286.191000
0
LINE
8
Layer 1
10
39.494700
20
286.191000
11
39.498900
21
286.205000
0
LINE
8
Layer 1
10
39.498900
20
286.205000
11
39.553100
21
286.309000
0
LINE
8
Layer 1
10
39.553100
20
286.309000
11
39.557300
21
286.316000
0
LINE
8
Layer 1
10
39.557300
20
286.316000
11
39.560900
21
286.324000
0
LINE
8
Layer 1
10
39.560900
20
286.324000
11
39.650800
21
286.569000
0
LINE
8
Layer 1
10
39.650800
20
286.569000
11
39.650800
21
286.572000
0
LINE
8
Layer 1
10
39.650800
20
286.572000
11
39.676100
21
286.893000
0
LINE
8
Layer 1
10
39.676100
20
286.893000
11
39.383600
21
287.207000
0
LINE
8
Layer 1
10
39.383600
20
287.207000
11
39.181100
21
287.255000
0
LINE
8
Layer 1
10
39.181100
20
287.255000
11
39.004300
21
287.295000
0
LINE
8
Layer 1
10
39.004300
20
287.295000
11
38.993000
21
287.299000
0
LINE
8
Layer 1
10
38.993000
20
287.299000
11
38.983200
21
287.299000
0
LINE
8
Layer 1
10
38.983200
20
287.299000
11
37.903100
21
287.236000
0
LINE
8
Layer 1
10
37.903100
20
287.236000
11
36.928500
21
286.912000
0
LINE
8
Layer 1
10
36.928500
20
286.912000
11
36.201900
21
286.469000
0
LINE
8
Layer 1
10
36.201900
20
286.469000
11
36.195700
21
286.465000
0
LINE
8
Layer 1
10
36.195700
20
286.465000
11
36.193700
21
286.463000
0
LINE
8
Layer 1
10
36.193700
20
286.463000
11
35.566800
21
285.951000
0
LINE
8
Layer 1
10
35.566800
20
285.951000
11
34.865600
21
285.213000
0
LINE
8
Layer 1
10
34.865600
20
285.213000
11
34.871800
21
285.217000
0
LINE
8
Layer 1
10
34.871800
20
285.217000
11
34.504400
21
284.697000
0
LINE
8
Layer 1
10
34.504400
20
284.697000
11
34.483200
21
284.678000
0
LINE
8
Layer 1
10
34.483200
20
284.678000
11
34.471300
21
284.666000
0
LINE
8
Layer 1
10
34.471300
20
284.666000
11
34.463500
21
284.654000
0
LINE
8
Layer 1
10
34.463500
20
284.654000
11
33.996400
21
284.033000
0
LINE
8
Layer 1
10
33.996400
20
284.033000
11
33.529700
21
283.455000
0
LINE
8
Layer 1
10
33.529700
20
283.455000
11
33.043500
21
282.951000
0
LINE
8
Layer 1
10
33.043500
20
282.951000
11
32.531900
21
282.564000
0
LINE
8
Layer 1
10
32.531900
20
282.564000
11
32.529800
21
282.563000
0
LINE
8
Layer 1
10
32.529800
20
282.563000
11
32.525700
21
282.561000
0
LINE
8
Layer 1
10
32.525700
20
282.561000
11
32.373700
21
282.486000
0
LINE
8
Layer 1
10
32.373700
20
282.486000
11
32.156700
21
282.408000
0
LINE
8
Layer 1
10
32.156700
20
282.408000
11
32.090500
21
282.408000
0
LINE
8
Layer 1
10
32.090500
20
282.408000
11
32.100400
21
282.551000
0
LINE
8
Layer 1
10
32.100400
20
282.551000
11
32.100400
21
282.553000
0
LINE
8
Layer 1
10
32.100400
20
282.553000
11
32.196000
21
282.840000
0
LINE
8
Layer 1
10
32.196000
20
282.840000
11
32.196000
21
282.842000
0
LINE
8
Layer 1
10
32.196000
20
282.842000
11
32.319000
21
283.189000
0
LINE
8
Layer 1
10
32.319000
20
283.189000
11
32.321000
21
283.195000
0
LINE
8
Layer 1
10
32.321000
20
283.195000
11
32.321000
21
283.199000
0
LINE
8
Layer 1
10
32.321000
20
283.199000
11
32.473500
21
283.576000
0
LINE
8
Layer 1
10
32.473500
20
283.576000
11
32.475000
21
283.582000
0
LINE
8
Layer 1
10
32.475000
20
283.582000
11
32.854300
21
284.435000
0
LINE
8
Layer 1
10
32.854300
20
284.435000
11
32.854300
21
284.437000
0
LINE
8
Layer 1
10
32.854300
20
284.437000
11
32.855900
21
284.440000
0
LINE
8
Layer 1
10
32.855900
20
284.440000
11
33.209900
21
285.361000
0
LINE
8
Layer 1
10
33.209900
20
285.361000
11
33.211400
21
285.366000
0
LINE
8
Layer 1
10
33.211400
20
285.366000
11
33.211400
21
285.371000
0
LINE
8
Layer 1
10
33.211400
20
285.371000
11
33.293600
21
285.692000
0
LINE
8
Layer 1
10
33.293600
20
285.692000
11
33.287900
21
285.674000
0
LINE
8
Layer 1
10
33.287900
20
285.674000
11
33.354000
21
286.094000
0
LINE
8
Layer 1
10
33.354000
20
286.094000
11
33.301300
21
286.541000
0
LINE
8
Layer 1
10
33.301300
20
286.541000
11
33.039800
21
286.934000
0
LINE
8
Layer 1
10
33.039800
20
286.934000
11
33.035700
21
286.935000
0
LINE
8
Layer 1
10
33.035700
20
286.935000
11
33.032100
21
286.940000
0
LINE
8
Layer 1
10
33.032100
20
286.940000
11
32.614187
21
287.138625
0
LINE
8
Layer 1
10
32.614187
20
287.138625
11
32.138600
21
287.143000
0
LINE
8
Layer 1
10
32.138600
20
287.143000
11
32.136500
21
287.143000
0
LINE
8
Layer 1
10
32.136500
20
287.143000
11
31.412000
21
286.887000
0
LINE
8
Layer 1
10
31.412000
20
286.887000
11
30.658100
21
286.356000
0
LINE
8
Layer 1
10
30.658100
20
286.356000
11
30.052400
21
285.750000
0
LINE
8
Layer 1
10
30.052400
20
285.750000
11
30.076200
21
285.957000
0
LINE
8
Layer 1
10
30.076200
20
285.957000
11
30.031200
21
286.375000
0
LINE
8
Layer 1
10
30.031200
20
286.375000
11
30.029200
21
286.387000
0
LINE
8
Layer 1
10
30.029200
20
286.387000
11
30.027100
21
286.397000
0
LINE
8
Layer 1
10
30.027100
20
286.397000
11
29.844313
21
286.739125
0
LINE
8
Layer 1
10
29.844313
20
286.739125
11
29.547000
21
286.971000
0
LINE
8
Layer 1
10
29.547000
20
286.971000
11
28.840100
21
286.998000
0
LINE
8
Layer 1
10
28.840100
20
286.998000
11
28.299000
21
286.717000
0
LINE
8
Layer 1
10
28.299000
20
286.717000
11
27.855700
21
286.354000
0
LINE
8
Layer 1
10
27.855700
20
286.354000
11
27.406100
21
285.904000
0
LINE
8
Layer 1
10
27.406100
20
285.904000
11
27.398300
21
285.896000
0
LINE
8
Layer 1
10
27.398300
20
285.896000
11
26.976600
21
285.455000
0
LINE
8
Layer 1
10
26.976600
20
285.455000
11
26.970400
21
285.449000
0
LINE
8
Layer 1
10
26.970400
20
285.449000
11
26.373100
21
284.693000
0
LINE
8
Layer 1
10
26.373100
20
284.693000
11
26.365300
21
284.678000
0
LINE
8
Layer 1
10
26.365300
20
284.678000
11
26.297100
21
284.619000
0
LINE
8
Layer 1
10
26.297100
20
284.619000
11
26.295000
21
284.617000
0
LINE
8
Layer 1
10
26.295000
20
284.617000
11
26.293000
21
284.615000
0
LINE
8
Layer 1
10
26.293000
20
284.615000
11
25.950900
21
284.199000
0
LINE
8
Layer 1
10
25.950900
20
284.199000
11
25.632500
21
283.844000
0
LINE
8
Layer 1
10
25.632500
20
283.844000
11
25.632500
21
283.842000
0
LINE
8
Layer 1
10
25.632500
20
283.842000
11
25.630500
21
283.842000
0
LINE
8
Layer 1
10
25.630500
20
283.842000
11
25.326100
21
283.537000
0
LINE
8
Layer 1
10
25.326100
20
283.537000
11
25.324000
21
283.535000
0
LINE
8
Layer 1
10
25.324000
20
283.535000
11
25.322000
21
283.533000
0
LINE
8
Layer 1
10
25.322000
20
283.533000
11
24.740100
21
283.025000
0
LINE
8
Layer 1
10
24.740100
20
283.025000
11
24.149900
21
282.632000
0
LINE
8
Layer 1
10
24.149900
20
282.632000
11
23.679700
21
282.439000
0
LINE
8
Layer 1
10
23.679700
20
282.439000
11
23.677600
21
282.439000
0
LINE
8
Layer 1
10
23.677600
20
282.439000
11
23.245600
21
282.408000
0
LINE
8
Layer 1
10
23.245600
20
282.408000
11
23.228000
21
282.410000
0
LINE
8
Layer 1
10
23.228000
20
282.410000
11
23.210500
21
282.410000
0
LINE
8
Layer 1
10
23.210500
20
282.410000
11
22.911800
21
282.535000
0
LINE
8
Layer 1
10
22.911800
20
282.535000
11
22.821900
21
282.712000
0
LINE
8
Layer 1
10
22.821900
20
282.712000
11
22.771200
21
282.996000
0
LINE
8
Layer 1
10
22.771200
20
282.996000
11
22.899900
21
283.797000
0
LINE
8
Layer 1
10
22.899900
20
283.797000
11
22.906100
21
283.802000
0
LINE
8
Layer 1
10
22.906100
20
283.802000
11
23.126800
21
283.857000
0
LINE
8
Layer 1
10
23.126800
20
283.857000
11
23.136600
21
283.859000
0
LINE
8
Layer 1
10
23.136600
20
283.859000
11
23.327800
21
283.908000
0
LINE
8
Layer 1
10
23.327800
20
283.908000
11
23.347400
21
283.912000
0
LINE
8
Layer 1
10
23.347400
20
283.912000
11
23.367000
21
283.918000
0
LINE
8
Layer 1
10
23.367000
20
283.918000
11
23.591300
21
283.994000
0
LINE
8
Layer 1
10
23.591300
20
283.994000
11
24.317900
21
284.248000
0
LINE
8
Layer 1
10
24.317900
20
284.248000
11
24.322000
21
284.250000
0
LINE
8
Layer 1
10
24.322000
20
284.250000
11
24.327700
21
284.252000
0
LINE
8
Layer 1
10
24.327700
20
284.252000
11
25.033100
21
284.635000
0
LINE
8
Layer 1
10
25.033100
20
284.635000
11
25.036700
21
284.638000
0
LINE
8
Layer 1
10
25.036700
20
284.638000
11
25.040800
21
284.641000
0
LINE
8
Layer 1
10
25.040800
20
284.641000
11
25.439300
21
284.959000
0
LINE
8
Layer 1
10
25.439300
20
284.959000
11
25.827900
21
285.389000
0
LINE
8
Layer 1
10
25.827900
20
285.389000
11
25.829900
21
285.391000
0
LINE
8
Layer 1
10
25.829900
20
285.391000
11
26.093500
21
285.897000
0
LINE
8
Layer 1
10
26.093500
20
285.897000
11
26.097600
21
286.543000
0
LINE
8
Layer 1
10
26.097600
20
286.543000
11
26.095600
21
286.549000
0
LINE
8
Layer 1
10
26.095600
20
286.549000
11
26.093500
21
286.555000
0
LINE
8
Layer 1
10
26.093500
20
286.555000
11
25.855050
21
286.932625
0
LINE
8
Layer 1
10
25.855050
20
286.932625
11
25.468700
21
287.155000
0
LINE
8
Layer 1
10
25.468700
20
287.155000
11
24.700800
21
287.221000
0
LINE
8
Layer 1
10
24.700800
20
287.221000
11
24.698800
21
287.219000
0
LINE
8
Layer 1
10
24.698800
20
287.219000
11
24.034700
21
286.953000
0
LINE
8
Layer 1
10
24.034700
20
286.953000
11
23.503500
21
286.547000
0
LINE
8
Layer 1
10
23.503500
20
286.547000
11
22.513400
21
285.314000
0
LINE
8
Layer 1
10
22.513400
20
285.314000
11
22.177500
21
284.612000
0
LINE
8
Layer 1
10
22.177500
20
284.612000
11
22.095300
21
284.522000
0
LINE
8
Layer 1
10
22.095300
20
284.522000
11
22.083900
21
284.508000
0
LINE
8
Layer 1
10
22.083900
20
284.508000
11
22.075700
21
284.494000
0
LINE
8
Layer 1
10
22.075700
20
284.494000
11
21.997600
21
284.389000
0
LINE
8
Layer 1
10
21.997600
20
284.389000
11
21.994000
21
284.385000
0
LINE
8
Layer 1
10
21.994000
20
284.385000
11
21.392500
21
283.725000
0
LINE
8
Layer 1
10
21.392500
20
283.725000
11
21.388400
21
283.721000
0
LINE
8
Layer 1
10
21.388400
20
283.721000
11
21.015300
21
283.311000
0
LINE
8
Layer 1
10
21.015300
20
283.311000
11
20.410100
21
282.760000
0
LINE
8
Layer 1
10
20.410100
20
282.760000
11
20.408100
21
282.758000
0
LINE
8
Layer 1
10
20.408100
20
282.758000
11
20.403900
21
282.756000
0
LINE
8
Layer 1
10
20.403900
20
282.756000
11
19.862900
21
282.442000
0
LINE
8
Layer 1
10
19.862900
20
282.442000
11
19.790500
21
282.442000
0
LINE
8
Layer 1
10
19.790500
20
282.442000
11
19.720200
21
282.543000
0
LINE
8
Layer 1
10
19.720200
20
282.543000
11
19.720200
21
282.547000
0
LINE
8
Layer 1
10
19.720200
20
282.547000
11
19.718200
21
282.553000
0
LINE
8
Layer 1
10
19.718200
20
282.553000
11
19.644300
21
282.869000
0
LINE
8
Layer 1
10
19.644300
20
282.869000
11
19.679400
21
283.266000
0
LINE
8
Layer 1
10
19.679400
20
283.266000
11
19.679400
21
283.270000
0
LINE
8
Layer 1
10
19.679400
20
283.270000
11
19.679400
21
283.272000
0
LINE
8
Layer 1
10
19.679400
20
283.272000
11
19.845300
21
283.988000
0
LINE
8
Layer 1
10
19.845300
20
283.988000
11
19.845300
21
283.990000
0
LINE
8
Layer 1
10
19.845300
20
283.990000
11
20.126400
21
284.854000
0
LINE
8
Layer 1
10
20.126400
20
284.854000
11
20.128500
21
284.858000
0
LINE
8
Layer 1
10
20.128500
20
284.858000
11
20.300600
21
285.319000
0
LINE
8
Layer 1
10
20.300600
20
285.319000
11
20.370900
21
285.527000
0
LINE
8
Layer 1
10
20.370900
20
285.527000
11
20.453000
21
285.647000
0
LINE
8
Layer 1
10
20.453000
20
285.647000
11
20.464400
21
285.657000
0
LINE
8
Layer 1
10
20.464400
20
285.657000
11
20.472100
21
285.668000
0
LINE
8
Layer 1
10
20.472100
20
285.668000
11
21.453000
21
286.938000
0
LINE
8
Layer 1
10
21.453000
20
286.938000
11
22.415700
21
288.225000
0
LINE
8
Layer 1
10
22.415700
20
288.225000
11
22.413600
21
288.225000
0
LINE
8
Layer 1
10
22.413600
20
288.225000
11
23.161900
21
289.260000
0
LINE
8
Layer 1
10
23.161900
20
289.260000
11
23.165500
21
289.266000
0
LINE
8
Layer 1
10
23.165500
20
289.266000
11
23.880700
21
290.350000
0
LINE
8
Layer 1
10
23.880700
20
290.350000
11
23.886400
21
290.358000
0
LINE
8
Layer 1
10
23.886400
20
290.358000
11
24.136500
21
290.799000
0
LINE
8
Layer 1
10
24.136500
20
290.799000
11
24.144800
21
290.812000
0
LINE
8
Layer 1
10
24.144800
20
290.812000
11
24.383000
21
291.310000
0
LINE
8
Layer 1
10
24.383000
20
291.310000
11
24.496200
21
292.086000
0
LINE
8
Layer 1
10
24.496200
20
292.086000
11
24.356100
21
292.541250
0
LINE
8
Layer 1
10
24.356100
20
292.541250
11
24.012000
21
292.851000
0
LINE
8
Layer 1
10
24.012000
20
292.851000
11
23.555100
21
292.949625
0
LINE
8
Layer 1
10
23.555100
20
292.949625
11
23.099400
21
292.806000
0
LINE
8
Layer 1
10
23.099400
20
292.806000
11
23.095700
21
292.805000
0
LINE
8
Layer 1
10
23.095700
20
292.805000
11
23.093700
21
292.803000
0
LINE
8
Layer 1
10
23.093700
20
292.803000
11
22.515400
21
292.287000
0
LINE
8
Layer 1
10
22.515400
20
292.287000
11
22.513400
21
292.285000
0
LINE
8
Layer 1
10
22.513400
20
292.285000
11
22.078200
21
291.689000
0
LINE
8
Layer 1
10
22.078200
20
291.689000
11
22.076200
21
291.688000
0
LINE
8
Layer 1
10
22.076200
20
291.688000
11
22.076200
21
291.686000
0
LINE
8
Layer 1
10
22.076200
20
291.686000
11
21.740300
21
291.074000
0
LINE
8
Layer 1
10
21.740300
20
291.074000
11
21.394600
21
290.385000
0
LINE
8
Layer 1
10
21.394600
20
290.385000
11
21.064300
21
289.684000
0
LINE
8
Layer 1
10
21.064300
20
289.684000
11
20.621000
21
288.660000
0
LINE
8
Layer 1
10
20.621000
20
288.660000
11
20.618900
21
288.656000
0
LINE
8
Layer 1
10
20.618900
20
288.656000
11
20.616800
21
288.652000
0
LINE
8
Layer 1
10
20.616800
20
288.652000
11
20.218900
21
287.625000
0
LINE
8
Layer 1
10
20.218900
20
287.625000
11
19.928000
21
286.949000
0
LINE
8
Layer 1
10
19.928000
20
286.949000
11
19.928000
21
286.945000
0
LINE
8
Layer 1
10
19.928000
20
286.945000
11
19.925900
21
286.941000
0
LINE
8
Layer 1
10
19.925900
20
286.941000
11
19.683000
21
286.289000
0
LINE
8
Layer 1
10
19.683000
20
286.289000
11
19.616900
21
286.153000
0
LINE
8
Layer 1
10
19.616900
20
286.153000
11
19.607600
21
286.123000
0
LINE
8
Layer 1
10
19.607600
20
286.123000
11
19.597800
21
286.111000
0
LINE
8
Layer 1
10
19.597800
20
286.111000
11
19.580200
21
286.056000
0
LINE
8
Layer 1
10
19.580200
20
286.056000
11
19.550700
21
286.000000
0
LINE
8
Layer 1
10
19.550700
20
286.000000
11
19.505800
21
285.941000
0
LINE
8
Layer 1
10
19.505800
20
285.941000
11
19.314600
21
285.730000
0
LINE
8
Layer 1
10
19.314600
20
285.730000
11
19.302700
21
285.717000
0
LINE
8
Layer 1
10
19.302700
20
285.717000
11
19.294900
21
285.703000
0
LINE
8
Layer 1
10
19.294900
20
285.703000
11
19.179700
21
285.559000
0
LINE
8
Layer 1
10
19.179700
20
285.559000
11
19.167800
21
285.547000
0
LINE
8
Layer 1
10
19.167800
20
285.547000
11
18.699100
21
284.941000
0
LINE
8
Layer 1
10
18.699100
20
284.941000
11
18.496000
21
284.703000
0
LINE
8
Layer 1
10
18.496000
20
284.703000
11
18.493400
21
284.700000
0
LINE
8
Layer 1
10
18.493400
20
284.700000
11
18.410200
21
284.615000
0
LINE
8
Layer 1
10
18.410200
20
284.615000
11
18.070200
21
284.199000
0
LINE
8
Layer 1
10
18.070200
20
284.199000
11
17.751900
21
283.844000
0
LINE
8
Layer 1
10
17.751900
20
283.844000
11
17.751900
21
283.842000
0
LINE
8
Layer 1
10
17.751900
20
283.842000
11
17.749800
21
283.842000
0
LINE
8
Layer 1
10
17.749800
20
283.842000
11
17.445400
21
283.537000
0
LINE
8
Layer 1
10
17.445400
20
283.537000
11
17.443400
21
283.535000
0
LINE
8
Layer 1
10
17.443400
20
283.535000
11
17.441300
21
283.533000
0
LINE
8
Layer 1
10
17.441300
20
283.533000
11
16.859400
21
283.025000
0
LINE
8
Layer 1
10
16.859400
20
283.025000
11
16.269300
21
282.632000
0
LINE
8
Layer 1
10
16.269300
20
282.632000
11
15.797000
21
282.439000
0
LINE
8
Layer 1
10
15.797000
20
282.439000
11
15.794900
21
282.439000
0
LINE
8
Layer 1
10
15.794900
20
282.439000
11
15.365000
21
282.408000
0
LINE
8
Layer 1
10
15.365000
20
282.408000
11
15.347400
21
282.410000
0
LINE
8
Layer 1
10
15.347400
20
282.410000
11
15.329800
21
282.410000
0
LINE
8
Layer 1
10
15.329800
20
282.410000
11
15.027000
21
282.537000
0
LINE
8
Layer 1
10
15.027000
20
282.537000
11
14.939100
21
282.713000
0
LINE
8
Layer 1
10
14.939100
20
282.713000
11
14.890600
21
282.994000
0
LINE
8
Layer 1
10
14.890600
20
282.994000
11
15.019200
21
283.797000
0
LINE
8
Layer 1
10
15.019200
20
283.797000
11
15.025400
21
283.803000
0
LINE
8
Layer 1
10
15.025400
20
283.803000
11
15.246100
21
283.857000
0
LINE
8
Layer 1
10
15.246100
20
283.857000
11
15.253800
21
283.859000
0
LINE
8
Layer 1
10
15.253800
20
283.859000
11
15.447100
21
283.908000
0
LINE
8
Layer 1
10
15.447100
20
283.908000
11
15.466800
21
283.912000
0
LINE
8
Layer 1
10
15.466800
20
283.912000
11
15.484300
21
283.918000
0
LINE
8
Layer 1
10
15.484300
20
283.918000
11
15.710700
21
283.994000
0
LINE
8
Layer 1
10
15.710700
20
283.994000
11
16.435200
21
284.248000
0
LINE
8
Layer 1
10
16.435200
20
284.248000
11
16.441400
21
284.250000
0
LINE
8
Layer 1
10
16.441400
20
284.250000
11
16.447100
21
284.252000
0
LINE
8
Layer 1
10
16.447100
20
284.252000
11
17.152400
21
284.635000
0
LINE
8
Layer 1
10
17.152400
20
284.635000
11
17.156100
21
284.639000
0
LINE
8
Layer 1
10
17.156100
20
284.639000
11
17.160200
21
284.641000
0
LINE
8
Layer 1
10
17.160200
20
284.641000
11
17.558600
21
284.959000
0
LINE
8
Layer 1
10
17.558600
20
284.959000
11
17.947200
21
285.389000
0
LINE
8
Layer 1
10
17.947200
20
285.389000
11
17.949300
21
285.391000
0
LINE
8
Layer 1
10
17.949300
20
285.391000
11
18.212800
21
285.897000
0
LINE
8
Layer 1
10
18.212800
20
285.897000
11
18.217000
21
286.543000
0
LINE
8
Layer 1
10
18.217000
20
286.543000
11
18.214900
21
286.549000
0
LINE
8
Layer 1
10
18.214900
20
286.549000
11
18.212800
21
286.555000
0
LINE
8
Layer 1
10
18.212800
20
286.555000
11
17.973887
21
286.931625
0
LINE
8
Layer 1
10
17.973887
20
286.931625
11
17.587600
21
287.153000
0
LINE
8
Layer 1
10
17.587600
20
287.153000
11
16.820200
21
287.221000
0
LINE
8
Layer 1
10
16.820200
20
287.221000
11
16.818100
21
287.219000
0
LINE
8
Layer 1
10
16.818100
20
287.219000
11
16.152000
21
286.954000
0
LINE
8
Layer 1
10
16.152000
20
286.954000
11
15.622800
21
286.547000
0
LINE
8
Layer 1
10
15.622800
20
286.547000
11
14.632700
21
285.315000
0
LINE
8
Layer 1
10
14.632700
20
285.315000
11
14.275100
21
284.557000
0
LINE
8
Layer 1
10
14.275100
20
284.557000
11
13.535100
21
283.729000
0
LINE
8
Layer 1
10
13.535100
20
283.729000
11
13.533000
21
283.729000
0
LINE
8
Layer 1
10
13.533000
20
283.729000
11
12.695300
21
282.928000
0
LINE
8
Layer 1
10
12.695300
20
282.928000
11
12.208600
21
282.586000
0
LINE
8
Layer 1
10
12.208600
20
282.586000
11
12.204900
21
282.584000
0
LINE
8
Layer 1
10
12.204900
20
282.584000
11
12.202900
21
282.582000
0
LINE
8
Layer 1
10
12.202900
20
282.582000
11
11.718700
21
282.387000
0
LINE
8
Layer 1
10
11.718700
20
282.387000
11
11.480400
21
282.408000
0
LINE
8
Layer 1
10
11.480400
20
282.408000
11
11.392600
21
282.532000
0
LINE
8
Layer 1
10
11.392600
20
282.532000
11
11.376600
21
282.949000
0
LINE
8
Layer 1
10
11.376600
20
282.949000
11
11.486100
21
283.440000
0
LINE
8
Layer 1
10
11.486100
20
283.440000
11
11.486100
21
283.442000
0
LINE
8
Layer 1
10
11.486100
20
283.442000
11
11.488200
21
283.447000
0
LINE
8
Layer 1
10
11.488200
20
283.447000
11
11.693300
21
284.133000
0
LINE
8
Layer 1
10
11.693300
20
284.133000
11
11.689200
21
284.127000
0
LINE
8
Layer 1
10
11.689200
20
284.127000
11
11.959000
21
284.856000
0
LINE
8
Layer 1
10
11.959000
20
284.856000
11
12.378600
21
285.985000
0
LINE
8
Layer 1
10
12.378600
20
285.985000
11
12.833800
21
287.082000
0
LINE
8
Layer 1
10
12.833800
20
287.082000
11
12.835900
21
287.084000
0
LINE
8
Layer 1
10
12.835900
20
287.084000
11
14.140700
21
290.176000
0
LINE
8
Layer 1
10
14.140700
20
290.176000
11
14.484400
21
290.998000
0
LINE
8
Layer 1
10
14.484400
20
290.998000
11
14.886900
21
291.899000
0
LINE
8
Layer 1
10
14.886900
20
291.899000
11
15.035300
21
292.250000
0
LINE
8
Layer 1
10
15.035300
20
292.250000
11
15.037300
21
292.254000
0
LINE
8
Layer 1
10
15.037300
20
292.254000
11
15.088000
21
292.453000
0
LINE
8
Layer 1
10
15.088000
20
292.453000
11
15.012000
21
292.801000
0
LINE
8
Layer 1
10
15.012000
20
292.801000
11
15.007900
21
292.805000
0
LINE
8
Layer 1
10
15.007900
20
292.805000
11
15.003700
21
292.811000
0
LINE
8
Layer 1
10
15.003700
20
292.811000
11
14.656500
21
292.986000
0
LINE
8
Layer 1
10
14.656500
20
292.986000
11
14.656500
21
292.986000
0
LINE
8
Layer 1
10
53.738300
20
292.074000
11
54.531000
21
292.002000
0
LINE
8
Layer 1
10
54.531000
20
292.002000
11
54.556900
21
291.998000
0
LINE
8
Layer 1
10
54.556900
20
291.998000
11
54.582200
21
291.998000
0
LINE
8
Layer 1
10
54.582200
20
291.998000
11
54.580100
21
291.990000
0
LINE
8
Layer 1
10
54.580100
20
291.990000
11
54.590000
21
291.988000
0
LINE
8
Layer 1
10
54.590000
20
291.988000
11
54.597700
21
291.986000
0
LINE
8
Layer 1
10
54.597700
20
291.986000
11
54.689700
21
291.963000
0
LINE
8
Layer 1
10
54.689700
20
291.963000
11
53.585900
21
289.334000
0
LINE
8
Layer 1
10
53.585900
20
289.334000
11
52.933700
21
287.817000
0
LINE
8
Layer 1
10
52.933700
20
287.817000
11
52.931700
21
287.815000
0
LINE
8
Layer 1
10
52.931700
20
287.815000
11
52.568400
21
287.108000
0
LINE
8
Layer 1
10
52.568400
20
287.108000
11
52.111000
21
286.402000
0
LINE
8
Layer 1
10
52.111000
20
286.402000
11
52.109500
21
286.400000
0
LINE
8
Layer 1
10
52.109500
20
286.400000
11
50.244000
21
284.026000
0
LINE
8
Layer 1
10
50.244000
20
284.026000
11
49.249700
21
283.125000
0
LINE
8
Layer 1
10
49.249700
20
283.125000
11
48.130900
21
282.492000
0
LINE
8
Layer 1
10
48.130900
20
282.492000
11
47.271500
21
282.353000
0
LINE
8
Layer 1
10
47.271500
20
282.353000
11
46.812100
21
282.488000
0
LINE
8
Layer 1
10
46.812100
20
282.488000
11
46.466900
21
282.803000
0
LINE
8
Layer 1
10
46.466900
20
282.803000
11
46.249900
21
283.272000
0
LINE
8
Layer 1
10
46.249900
20
283.272000
11
46.247800
21
283.275000
0
LINE
8
Layer 1
10
46.247800
20
283.275000
11
46.124800
21
283.822000
0
LINE
8
Layer 1
10
46.124800
20
283.822000
11
46.124800
21
283.824000
0
LINE
8
Layer 1
10
46.124800
20
283.824000
11
46.199200
21
285.123000
0
LINE
8
Layer 1
10
46.199200
20
285.123000
11
46.585800
21
286.397000
0
LINE
8
Layer 1
10
46.585800
20
286.397000
11
46.587900
21
286.399000
0
LINE
8
Layer 1
10
46.587900
20
286.399000
11
46.587900
21
286.401000
0
LINE
8
Layer 1
10
46.587900
20
286.401000
11
47.447200
21
288.063000
0
LINE
8
Layer 1
10
47.447200
20
288.063000
11
47.449300
21
288.066000
0
LINE
8
Layer 1
10
47.449300
20
288.066000
11
48.609400
21
289.526000
0
LINE
8
Layer 1
10
48.609400
20
289.526000
11
49.767500
21
290.570000
0
LINE
8
Layer 1
10
49.767500
20
290.570000
11
49.769600
21
290.572000
0
LINE
8
Layer 1
10
49.769600
20
290.572000
11
49.771600
21
290.574000
0
LINE
8
Layer 1
10
49.771600
20
290.574000
11
51.084200
21
291.388000
0
LINE
8
Layer 1
10
51.084200
20
291.388000
11
51.087800
21
291.391000
0
LINE
8
Layer 1
10
51.087800
20
291.391000
11
51.092000
21
291.391000
0
LINE
8
Layer 1
10
51.092000
20
291.391000
11
52.078837
21
291.797000
0
LINE
8
Layer 1
10
52.078837
20
291.797000
11
53.080000
21
292.017000
0
LINE
8
Layer 1
10
53.080000
20
292.017000
11
53.084100
21
292.019000
0
LINE
8
Layer 1
10
53.084100
20
292.019000
11
53.089800
21
292.019000
0
LINE
8
Layer 1
10
53.089800
20
292.019000
11
53.738300
21
292.074000
0
LINE
8
Layer 1
10
53.738300
20
292.074000
11
53.738300
21
292.074000
0
LINE
8
Layer 1
10
60.210800
20
291.992000
11
60.226800
21
291.861000
0
LINE
8
Layer 1
10
60.226800
20
291.861000
11
60.111600
21
291.516000
0
LINE
8
Layer 1
10
60.111600
20
291.516000
11
59.568500
21
290.561000
0
LINE
8
Layer 1
10
59.568500
20
290.561000
11
58.943200
21
289.649000
0
LINE
8
Layer 1
10
58.943200
20
289.649000
11
58.375200
21
288.869000
0
LINE
8
Layer 1
10
58.375200
20
288.869000
11
58.566500
21
289.303000
0
LINE
8
Layer 1
10
58.566500
20
289.303000
11
58.568500
21
289.305000
0
LINE
8
Layer 1
10
58.568500
20
289.305000
11
58.568500
21
289.306000
0
LINE
8
Layer 1
10
58.568500
20
289.306000
11
58.966900
21
290.140000
0
LINE
8
Layer 1
10
58.966900
20
290.140000
11
58.969000
21
290.145000
0
LINE
8
Layer 1
10
58.969000
20
290.145000
11
58.970600
21
290.147000
0
LINE
8
Layer 1
10
58.970600
20
290.147000
11
59.232600
21
290.691000
0
LINE
8
Layer 1
10
59.232600
20
290.691000
11
59.236200
21
290.697000
0
LINE
8
Layer 1
10
59.236200
20
290.697000
11
59.548800
21
291.230000
0
LINE
8
Layer 1
10
59.548800
20
291.230000
11
59.550900
21
291.232000
0
LINE
8
Layer 1
10
59.550900
20
291.232000
11
59.550900
21
291.234000
0
LINE
8
Layer 1
10
59.550900
20
291.234000
11
59.883200
21
291.711000
0
LINE
8
Layer 1
10
59.883200
20
291.711000
11
59.884700
21
291.715000
0
LINE
8
Layer 1
10
59.884700
20
291.715000
11
59.886800
21
291.719000
0
LINE
8
Layer 1
10
59.886800
20
291.719000
11
60.210800
21
291.992000
0
LINE
8
Layer 1
10
60.210800
20
291.992000
11
60.210800
21
291.992000
0
LINE
8
Layer 1
10
23.564500
20
291.990000
11
23.580000
21
291.861000
0
LINE
8
Layer 1
10
23.580000
20
291.861000
11
23.466800
21
291.516000
0
LINE
8
Layer 1
10
23.466800
20
291.516000
11
22.923700
21
290.561000
0
LINE
8
Layer 1
10
22.923700
20
290.561000
11
22.296800
21
289.649000
0
LINE
8
Layer 1
10
22.296800
20
289.649000
11
21.728400
21
288.867000
0
LINE
8
Layer 1
10
21.728400
20
288.867000
11
21.921700
21
289.303000
0
LINE
8
Layer 1
10
21.921700
20
289.303000
11
21.921700
21
289.305000
0
LINE
8
Layer 1
10
21.921700
20
289.305000
11
21.923700
21
289.306000
0
LINE
8
Layer 1
10
21.923700
20
289.306000
11
22.322200
21
290.140000
0
LINE
8
Layer 1
10
22.322200
20
290.140000
11
22.324200
21
290.145000
0
LINE
8
Layer 1
10
22.324200
20
290.145000
11
22.324200
21
290.147000
0
LINE
8
Layer 1
10
22.324200
20
290.147000
11
22.587800
21
290.691000
0
LINE
8
Layer 1
10
22.587800
20
290.691000
11
22.589800
21
290.697000
0
LINE
8
Layer 1
10
22.589800
20
290.697000
11
22.902500
21
291.230000
0
LINE
8
Layer 1
10
22.902500
20
291.230000
11
22.904500
21
291.232000
0
LINE
8
Layer 1
10
22.904500
20
291.232000
11
22.906600
21
291.234000
0
LINE
8
Layer 1
10
22.906600
20
291.234000
11
23.236300
21
291.711000
0
LINE
8
Layer 1
10
23.236300
20
291.711000
11
23.238400
21
291.715000
0
LINE
8
Layer 1
10
23.238400
20
291.715000
11
23.242500
21
291.719000
0
LINE
8
Layer 1
10
23.242500
20
291.719000
11
23.564500
21
291.990000
0
LINE
8
Layer 1
10
23.564500
20
291.990000
11
23.564500
21
291.990000
0
LINE
8
Layer 1
10
38.472100
20
286.371000
11
38.371300
21
286.193000
0
LINE
8
Layer 1
10
38.371300
20
286.193000
11
38.369200
21
286.191000
0
LINE
8
Layer 1
10
38.369200
20
286.191000
11
38.086000
21
285.680000
0
LINE
8
Layer 1
10
38.086000
20
285.680000
11
38.084000
21
285.678000
0
LINE
8
Layer 1
10
38.084000
20
285.678000
11
38.084000
21
285.676000
0
LINE
8
Layer 1
10
38.084000
20
285.676000
11
37.900500
21
285.310000
0
LINE
8
Layer 1
10
37.900500
20
285.310000
11
37.750200
21
284.953000
0
LINE
8
Layer 1
10
37.750200
20
284.953000
11
37.573900
21
284.580000
0
LINE
8
Layer 1
10
37.573900
20
284.580000
11
37.570300
21
284.574000
0
LINE
8
Layer 1
10
37.570300
20
284.574000
11
37.493800
21
284.418000
0
LINE
8
Layer 1
10
37.493800
20
284.418000
11
37.482500
21
284.400000
0
LINE
8
Layer 1
10
37.482500
20
284.400000
11
37.476300
21
284.383000
0
LINE
8
Layer 1
10
37.476300
20
284.383000
11
37.396200
21
284.253000
0
LINE
8
Layer 1
10
37.396200
20
284.253000
11
37.388400
21
284.244000
0
LINE
8
Layer 1
10
37.388400
20
284.244000
11
37.382700
21
284.232000
0
LINE
8
Layer 1
10
37.382700
20
284.232000
11
36.933700
21
283.597000
0
LINE
8
Layer 1
10
36.933700
20
283.597000
11
36.931600
21
283.594000
0
LINE
8
Layer 1
10
36.931600
20
283.594000
11
36.927500
21
283.589000
0
LINE
8
Layer 1
10
36.927500
20
283.589000
11
36.456700
21
283.027000
0
LINE
8
Layer 1
10
36.456700
20
283.027000
11
35.990100
21
282.632000
0
LINE
8
Layer 1
10
35.990100
20
282.632000
11
35.985900
21
282.631000
0
LINE
8
Layer 1
10
35.985900
20
282.631000
11
35.982300
21
282.627000
0
LINE
8
Layer 1
10
35.982300
20
282.627000
11
35.499600
21
282.384000
0
LINE
8
Layer 1
10
35.499600
20
282.384000
11
35.496000
21
282.384000
0
LINE
8
Layer 1
10
35.496000
20
282.384000
11
35.189100
21
282.332000
0
LINE
8
Layer 1
10
35.189100
20
282.332000
11
35.187500
21
282.332000
0
LINE
8
Layer 1
10
35.187500
20
282.332000
11
34.982400
21
282.355000
0
LINE
8
Layer 1
10
34.982400
20
282.355000
11
34.894500
21
282.427000
0
LINE
8
Layer 1
10
34.894500
20
282.427000
11
34.824200
21
282.605000
0
LINE
8
Layer 1
10
34.824200
20
282.605000
11
34.824200
21
282.607000
0
LINE
8
Layer 1
10
34.824200
20
282.607000
11
34.825800
21
283.119000
0
LINE
8
Layer 1
10
34.825800
20
283.119000
11
35.003500
21
283.674000
0
LINE
8
Layer 1
10
35.003500
20
283.674000
11
35.453100
21
284.445000
0
LINE
8
Layer 1
10
35.453100
20
284.445000
11
36.058300
21
285.123000
0
LINE
8
Layer 1
10
36.058300
20
285.123000
11
36.060300
21
285.127000
0
LINE
8
Layer 1
10
36.060300
20
285.127000
11
36.062400
21
285.129000
0
LINE
8
Layer 1
10
36.062400
20
285.129000
11
36.632900
21
285.645000
0
LINE
8
Layer 1
10
36.632900
20
285.645000
11
36.638600
21
285.648000
0
LINE
8
Layer 1
10
36.638600
20
285.648000
11
37.302600
21
286.061000
0
LINE
8
Layer 1
10
37.302600
20
286.061000
11
38.068500
21
286.326000
0
LINE
8
Layer 1
10
38.068500
20
286.326000
11
38.472100
21
286.371000
0
LINE
8
Layer 1
10
38.472100
20
286.371000
11
38.472100
21
286.371000
0
LINE
8
Layer 1
10
70.630300
20
286.371000
11
70.531100
21
286.197000
0
LINE
8
Layer 1
10
70.531100
20
286.197000
11
70.529000
21
286.193000
0
LINE
8
Layer 1
10
70.529000
20
286.193000
11
70.527500
21
286.191000
0
LINE
8
Layer 1
10
70.527500
20
286.191000
11
70.244300
21
285.680000
0
LINE
8
Layer 1
10
70.244300
20
285.680000
11
70.242200
21
285.678000
0
LINE
8
Layer 1
10
70.242200
20
285.678000
11
70.242200
21
285.676000
0
LINE
8
Layer 1
10
70.242200
20
285.676000
11
70.058300
21
285.310000
0
LINE
8
Layer 1
10
70.058300
20
285.310000
11
69.907900
21
284.953000
0
LINE
8
Layer 1
10
69.907900
20
284.953000
11
69.732200
21
284.580000
0
LINE
8
Layer 1
10
69.732200
20
284.580000
11
69.730100
21
284.574000
0
LINE
8
Layer 1
10
69.730100
20
284.574000
11
69.652100
21
284.418000
0
LINE
8
Layer 1
10
69.652100
20
284.418000
11
69.640200
21
284.400000
0
LINE
8
Layer 1
10
69.640200
20
284.400000
11
69.634500
21
284.383000
0
LINE
8
Layer 1
10
69.634500
20
284.383000
11
69.554400
21
284.253000
0
LINE
8
Layer 1
10
69.554400
20
284.253000
11
69.546700
21
284.244000
0
LINE
8
Layer 1
10
69.546700
20
284.244000
11
69.541000
21
284.232000
0
LINE
8
Layer 1
10
69.541000
20
284.232000
11
69.091400
21
283.597000
0
LINE
8
Layer 1
10
69.091400
20
283.597000
11
69.089300
21
283.594000
0
LINE
8
Layer 1
10
69.089300
20
283.594000
11
69.085700
21
283.589000
0
LINE
8
Layer 1
10
69.085700
20
283.589000
11
68.614900
21
283.027000
0
LINE
8
Layer 1
10
68.614900
20
283.027000
11
68.148300
21
282.632000
0
LINE
8
Layer 1
10
68.148300
20
282.632000
11
68.144200
21
282.631000
0
LINE
8
Layer 1
10
68.144200
20
282.631000
11
68.140500
21
282.627000
0
LINE
8
Layer 1
10
68.140500
20
282.627000
11
67.657900
21
282.384000
0
LINE
8
Layer 1
10
67.657900
20
282.384000
11
67.653800
21
282.384000
0
LINE
8
Layer 1
10
67.653800
20
282.384000
11
67.347300
21
282.332000
0
LINE
8
Layer 1
10
67.347300
20
282.332000
11
67.345200
21
282.332000
0
LINE
8
Layer 1
10
67.345200
20
282.332000
11
67.142200
21
282.355000
0
LINE
8
Layer 1
10
67.142200
20
282.355000
11
67.052200
21
282.427000
0
LINE
8
Layer 1
10
67.052200
20
282.427000
11
66.982000
21
282.605000
0
LINE
8
Layer 1
10
66.982000
20
282.605000
11
66.982000
21
282.607000
0
LINE
8
Layer 1
10
66.982000
20
282.607000
11
66.984000
21
283.119000
0
LINE
8
Layer 1
10
66.984000
20
283.119000
11
67.161800
21
283.674000
0
LINE
8
Layer 1
10
67.161800
20
283.674000
11
67.610900
21
284.445000
0
LINE
8
Layer 1
10
67.610900
20
284.445000
11
68.216500
21
285.123000
0
LINE
8
Layer 1
10
68.216500
20
285.123000
11
68.218600
21
285.127000
0
LINE
8
Layer 1
10
68.218600
20
285.127000
11
68.220600
21
285.129000
0
LINE
8
Layer 1
10
68.220600
20
285.129000
11
68.790600
21
285.645000
0
LINE
8
Layer 1
10
68.790600
20
285.645000
11
68.796800
21
285.648000
0
LINE
8
Layer 1
10
68.796800
20
285.648000
11
69.460900
21
286.061000
0
LINE
8
Layer 1
10
69.460900
20
286.061000
11
70.226200
21
286.326000
0
LINE
8
Layer 1
10
70.226200
20
286.326000
11
70.630300
21
286.371000
0
LINE
8
Layer 1
10
70.630300
20
286.371000
11
70.630300
21
286.371000
0
LINE
8
Layer 1
10
17.146200
20
286.314000
11
17.308500
21
286.281000
0
LINE
8
Layer 1
10
17.308500
20
286.281000
11
17.310600
21
286.279000
0
LINE
8
Layer 1
10
17.310600
20
286.279000
11
17.314700
21
286.279000
0
LINE
8
Layer 1
10
17.314700
20
286.279000
11
17.324500
21
286.277000
0
LINE
8
Layer 1
10
17.324500
20
286.277000
11
17.324500
21
286.211000
0
LINE
8
Layer 1
10
17.324500
20
286.211000
11
17.070300
21
285.789000
0
LINE
8
Layer 1
10
17.070300
20
285.789000
11
17.068200
21
285.787000
0
LINE
8
Layer 1
10
17.068200
20
285.787000
11
17.066100
21
285.785000
0
LINE
8
Layer 1
10
17.066100
20
285.785000
11
16.117400
21
285.154000
0
LINE
8
Layer 1
10
16.117400
20
285.154000
11
16.115300
21
285.152000
0
LINE
8
Layer 1
10
16.115300
20
285.152000
11
15.619200
21
284.984000
0
LINE
8
Layer 1
10
15.619200
20
284.984000
11
16.087900
21
285.711000
0
LINE
8
Layer 1
10
16.087900
20
285.711000
11
16.090000
21
285.713000
0
LINE
8
Layer 1
10
16.090000
20
285.713000
11
16.529200
21
286.099000
0
LINE
8
Layer 1
10
16.529200
20
286.099000
11
16.531300
21
286.099000
0
LINE
8
Layer 1
10
16.531300
20
286.099000
11
16.531300
21
286.101000
0
LINE
8
Layer 1
10
16.531300
20
286.101000
11
17.027400
21
286.305000
0
LINE
8
Layer 1
10
17.027400
20
286.305000
11
17.035100
21
286.305000
0
LINE
8
Layer 1
10
17.035100
20
286.305000
11
17.042900
21
286.307000
0
LINE
8
Layer 1
10
17.042900
20
286.307000
11
17.146200
21
286.314000
0
LINE
8
Layer 1
10
17.146200
20
286.314000
11
17.146200
21
286.314000
0
LINE
8
Layer 1
10
25.029000
20
286.314000
11
25.029500
21
286.314000
0
LINE
8
Layer 1
10
25.029500
20
286.314000
11
25.189700
21
286.281000
0
LINE
8
Layer 1
10
25.189700
20
286.281000
11
25.193300
21
286.279000
0
LINE
8
Layer 1
10
25.193300
20
286.279000
11
25.195400
21
286.279000
0
LINE
8
Layer 1
10
25.195400
20
286.279000
11
25.207200
21
286.277000
0
LINE
8
Layer 1
10
25.207200
20
286.277000
11
25.207200
21
286.213000
0
LINE
8
Layer 1
10
25.207200
20
286.213000
11
24.951400
21
285.789000
0
LINE
8
Layer 1
10
24.951400
20
285.789000
11
24.949400
21
285.787000
0
LINE
8
Layer 1
10
24.949400
20
285.787000
11
24.947300
21
285.785000
0
LINE
8
Layer 1
10
24.947300
20
285.785000
11
23.998000
21
285.154000
0
LINE
8
Layer 1
10
23.998000
20
285.154000
11
23.998000
21
285.152000
0
LINE
8
Layer 1
10
23.998000
20
285.152000
11
23.996000
21
285.152000
0
LINE
8
Layer 1
10
23.996000
20
285.152000
11
23.499900
21
284.984000
0
LINE
8
Layer 1
10
23.499900
20
284.984000
11
23.970600
21
285.711000
0
LINE
8
Layer 1
10
23.970600
20
285.711000
11
24.409900
21
286.099000
0
LINE
8
Layer 1
10
24.409900
20
286.099000
11
24.411900
21
286.099000
0
LINE
8
Layer 1
10
24.411900
20
286.099000
11
24.411900
21
286.101000
0
LINE
8
Layer 1
10
24.411900
20
286.101000
11
24.908000
21
286.305000
0
LINE
8
Layer 1
10
24.908000
20
286.305000
11
24.915800
21
286.305000
0
LINE
8
Layer 1
10
24.915800
20
286.305000
11
24.923500
21
286.307000
0
LINE
8
Layer 1
10
24.923500
20
286.307000
11
25.029000
21
286.314000
0
LINE
8
Layer 1
10
25.029000
20
286.314000
11
25.029000
21
286.314000
0
LINE
8
Layer 1
10
80.562500
20
286.314000
11
80.722700
21
286.281000
0
LINE
8
Layer 1
10
80.722700
20
286.281000
11
80.726300
21
286.279000
0
LINE
8
Layer 1
10
80.726300
20
286.279000
11
80.730500
21
286.279000
0
LINE
8
Layer 1
10
80.730500
20
286.279000
11
80.740300
21
286.277000
0
LINE
8
Layer 1
10
80.740300
20
286.277000
11
80.740300
21
286.211000
0
LINE
8
Layer 1
10
80.740300
20
286.211000
11
80.486600
21
285.789000
0
LINE
8
Layer 1
10
80.486600
20
285.789000
11
80.484500
21
285.787000
0
LINE
8
Layer 1
10
80.484500
20
285.787000
11
80.482400
21
285.785000
0
LINE
8
Layer 1
10
80.482400
20
285.785000
11
79.533100
21
285.154000
0
LINE
8
Layer 1
10
79.533100
20
285.154000
11
79.531100
21
285.152000
0
LINE
8
Layer 1
10
79.531100
20
285.152000
11
79.529000
21
285.152000
0
LINE
8
Layer 1
10
79.529000
20
285.152000
11
79.032900
21
284.984000
0
LINE
8
Layer 1
10
79.032900
20
284.984000
11
79.503700
21
285.711000
0
LINE
8
Layer 1
10
79.503700
20
285.711000
11
79.505700
21
285.713000
0
LINE
8
Layer 1
10
79.505700
20
285.713000
11
79.945000
21
286.099000
0
LINE
8
Layer 1
10
79.945000
20
286.099000
11
79.947100
21
286.101000
0
LINE
8
Layer 1
10
79.947100
20
286.101000
11
80.441100
21
286.305000
0
LINE
8
Layer 1
10
80.441100
20
286.305000
11
80.449400
21
286.305000
0
LINE
8
Layer 1
10
80.449400
20
286.305000
11
80.457100
21
286.307000
0
LINE
8
Layer 1
10
80.457100
20
286.307000
11
80.562500
21
286.314000
0
LINE
8
Layer 1
10
80.562500
20
286.314000
11
80.562500
21
286.314000
0
LINE
8
Layer 1
10
83.577800
20
285.215000
11
83.578400
21
285.215000
0
LINE
8
Layer 1
10
83.578400
20
285.215000
11
83.578400
21
284.903000
0
LINE
8
Layer 1
10
83.578400
20
284.903000
11
83.615100
21
284.002000
0
LINE
8
Layer 1
10
83.615100
20
284.002000
11
83.578400
21
283.338000
0
LINE
8
Layer 1
10
83.578400
20
283.338000
11
83.578400
21
283.332000
0
LINE
8
Layer 1
10
83.578400
20
283.332000
11
83.576300
21
283.324000
0
LINE
8
Layer 1
10
83.576300
20
283.324000
11
83.459000
21
282.729000
0
LINE
8
Layer 1
10
83.459000
20
282.729000
11
83.238300
21
282.365000
0
LINE
8
Layer 1
10
83.238300
20
282.365000
11
83.236300
21
282.365000
0
LINE
8
Layer 1
10
83.236300
20
282.365000
11
82.953100
21
282.215000
0
LINE
8
Layer 1
10
82.953100
20
282.215000
11
82.828000
21
282.201000
0
LINE
8
Layer 1
10
82.828000
20
282.201000
11
82.685400
21
282.232000
0
LINE
8
Layer 1
10
82.685400
20
282.232000
11
82.474600
21
282.271000
0
LINE
8
Layer 1
10
82.474600
20
282.271000
11
82.466800
21
282.273000
0
LINE
8
Layer 1
10
82.466800
20
282.273000
11
82.327800
21
282.316000
0
LINE
8
Layer 1
10
82.327800
20
282.316000
11
82.318500
21
282.320000
0
LINE
8
Layer 1
10
82.318500
20
282.320000
11
82.310200
21
282.322000
0
LINE
8
Layer 1
10
82.310200
20
282.322000
11
81.672000
21
282.650000
0
LINE
8
Layer 1
10
81.672000
20
282.650000
11
81.667900
21
282.654000
0
LINE
8
Layer 1
10
81.667900
20
282.654000
11
81.663700
21
282.656000
0
LINE
8
Layer 1
10
81.663700
20
282.656000
11
81.452900
21
282.830000
0
LINE
8
Layer 1
10
81.452900
20
282.830000
11
81.529400
21
282.904000
0
LINE
8
Layer 1
10
81.529400
20
282.904000
11
81.956800
21
283.332000
0
LINE
8
Layer 1
10
81.956800
20
283.332000
11
82.425500
21
283.859000
0
LINE
8
Layer 1
10
82.425500
20
283.859000
11
82.429600
21
283.863000
0
LINE
8
Layer 1
10
82.429600
20
283.863000
11
82.591900
21
284.107000
0
LINE
8
Layer 1
10
82.591900
20
284.107000
11
82.837800
21
284.367000
0
LINE
8
Layer 1
10
82.837800
20
284.367000
11
83.577800
21
285.215000
0
LINE
8
Layer 1
10
83.577800
20
285.215000
11
83.577800
21
285.215000
0
LINE
8
Layer 2
10
4.210770
20
294.520000
11
4.079228
21
293.857623
0
LINE
8
Layer 2
10
4.079228
20
293.857623
11
3.704170
21
293.296039
0
LINE
8
Layer 2
10
3.704170
20
293.296039
11
3.142719
21
292.920779
0
LINE
8
Layer 2
10
3.142719
20
292.920779
11
2.480390
21
292.789000
0
LINE
8
Layer 2
10
2.480390
20
292.789000
11
1.818057
21
292.920776
0
LINE
8
Layer 2
10
1.818057
20
292.920776
11
1.256604
21
293.296035
0
LINE
8
Layer 2
10
1.256604
20
293.296035
11
0.881543
21
293.857621
0
LINE
8
Layer 2
10
0.881543
20
293.857621
11
0.750000
21
294.520000
0
LINE
8
Layer 2
10
0.750000
20
294.520000
11
0.886095
21
295.193421
0
LINE
8
Layer 2
10
0.886095
20
295.193421
11
1.256957
21
295.743318
0
LINE
8
Layer 2
10
1.256957
20
295.743318
11
1.806939
21
296.114057
0
LINE
8
Layer 2
10
1.806939
20
296.114057
11
2.480390
21
296.250000
0
LINE
8
Layer 2
10
2.480390
20
296.250000
11
3.153838
21
296.114054
0
LINE
8
Layer 2
10
3.153838
20
296.114054
11
3.703816
21
295.743315
0
LINE
8
Layer 2
10
3.703816
20
295.743315
11
4.074676
21
295.193418
0
LINE
8
Layer 2
10
4.074676
20
295.193418
11
4.210770
21
294.520000
0
LINE
8
Layer 2
10
4.210770
20
294.520000
11
4.210770
21
294.520000
0
LINE
8
Layer 2
10
3.430580
20
294.529000
11
3.353842
21
294.149089
0
LINE
8
Layer 2
10
3.353842
20
294.149089
11
3.144646
21
293.838856
0
LINE
8
Layer 2
10
3.144646
20
293.838856
11
2.834390
21
293.629695
0
LINE
8
Layer 2
10
2.834390
20
293.629695
11
2.454470
21
293.553000
0
LINE
8
Layer 2
10
2.454470
20
293.553000
11
2.074553
21
293.629698
0
LINE
8
Layer 2
10
2.074553
20
293.629698
11
1.764300
21
293.838859
0
LINE
8
Layer 2
10
1.764300
20
293.838859
11
1.555107
21
294.149091
0
LINE
8
Layer 2
10
1.555107
20
294.149091
11
1.478370
21
294.529000
0
LINE
8
Layer 2
10
1.478370
20
294.529000
11
1.555107
21
294.908909
0
LINE
8
Layer 2
10
1.555107
20
294.908909
11
1.764300
21
295.219141
0
LINE
8
Layer 2
10
1.764300
20
295.219141
11
2.074553
21
295.428302
0
LINE
8
Layer 2
10
2.074553
20
295.428302
11
2.454470
21
295.505000
0
LINE
8
Layer 2
10
2.454470
20
295.505000
11
2.834390
21
295.428305
0
LINE
8
Layer 2
10
2.834390
20
295.428305
11
3.144646
21
295.219144
0
LINE
8
Layer 2
10
3.144646
20
295.219144
11
3.353842
21
294.908911
0
LINE
8
Layer 2
10
3.353842
20
294.908911
11
3.430580
21
294.529000
0
LINE
8
Layer 2
10
3.430580
20
294.529000
11
3.430580
21
294.529000
 0 
ENDSEC
 0 
EOF