999
"DXF R12 Output" (www.mydxf.blogspot.com)
 0 
SECTION
 2 
HEADER
 9 
$ACADVER
 1 
AC1009
 9 
$EXTMIN
 10 
 0 
 20 
 0 
 9 
$EXTMAX
 10 
 8.5 
 20 
 11 
 0 
ENDSEC
 0 
SECTION
 2 
ENTITIES
0
LINE
8
Camada 2
10
22.364400
20
295.952000
11
21.201369
21
295.612367
0
LINE
8
Camada 2
10
21.201369
20
295.612367
11
20.276961
21
294.857674
0
LINE
8
Camada 2
10
20.276961
20
294.857674
11
19.556773
21
293.856659
0
LINE
8
Camada 2
10
19.556773
20
293.856659
11
19.006400
21
292.778060
0
LINE
8
Camada 2
10
19.006400
20
292.778060
11
18.198071
21
291.008581
0
LINE
8
Camada 2
10
18.198071
20
291.008581
11
17.475730
21
289.223480
0
LINE
8
Camada 2
10
17.475730
20
289.223480
11
16.968754
21
289.778274
0
LINE
8
Camada 2
10
16.968754
20
289.778274
11
16.309710
21
290.153168
0
LINE
8
Camada 2
10
16.309710
20
290.153168
11
15.389702
21
291.081648
0
LINE
8
Camada 2
10
15.389702
20
291.081648
11
14.294090
21
291.828948
0
LINE
8
Camada 2
10
14.294090
20
291.828948
11
13.450574
21
291.926517
0
LINE
8
Camada 2
10
13.450574
20
291.926517
11
12.661280
21
291.606292
0
LINE
8
Camada 2
10
12.661280
20
291.606292
11
12.758023
21
292.311891
0
LINE
8
Camada 2
10
12.758023
20
292.311891
11
12.691039
21
293.002056
0
LINE
8
Camada 2
10
12.691039
20
293.002056
11
12.139291
21
294.264248
0
LINE
8
Camada 2
10
12.139291
20
294.264248
11
11.152840
21
295.249190
0
LINE
8
Camada 2
10
11.152840
20
295.249190
11
9.878490
21
295.813202
0
LINE
8
Camada 2
10
9.878490
20
295.813202
11
9.004575
21
295.932443
0
LINE
8
Camada 2
10
9.004575
20
295.932443
11
8.140229
21
295.869316
0
LINE
8
Camada 2
10
8.140229
20
295.869316
11
7.304855
21
295.642056
0
LINE
8
Camada 2
10
7.304855
20
295.642056
11
6.517855
21
295.268899
0
LINE
8
Camada 2
10
6.517855
20
295.268899
11
5.166591
21
294.157832
0
LINE
8
Camada 2
10
5.166591
20
294.157832
11
4.241660
21
292.681992
0
LINE
8
Camada 2
10
4.241660
20
292.681992
11
3.899080
21
291.673159
0
LINE
8
Camada 2
10
3.899080
20
291.673159
11
3.712204
21
290.638066
0
LINE
8
Camada 2
10
3.712204
20
290.638066
11
3.742070
21
288.532612
0
LINE
8
Camada 2
10
3.742070
20
288.532612
11
4.204271
21
286.452650
0
LINE
8
Camada 2
10
4.204271
20
286.452650
11
4.971823
21
284.485202
0
LINE
8
Camada 2
10
4.971823
20
284.485202
11
3.622625
21
283.594743
0
LINE
8
Camada 2
10
3.622625
20
283.594743
11
2.401160
21
282.500083
0
LINE
8
Camada 2
10
2.401160
20
282.500083
11
1.480653
21
281.184602
0
LINE
8
Camada 2
10
1.480653
20
281.184602
11
1.187389
21
280.438861
0
LINE
8
Camada 2
10
1.187389
20
280.438861
11
1.034323
21
279.631682
0
LINE
8
Camada 2
10
1.034323
20
279.631682
11
1.219684
21
278.463527
0
LINE
8
Camada 2
10
1.219684
20
278.463527
11
1.847615
21
277.461929
0
LINE
8
Camada 2
10
1.847615
20
277.461929
11
2.805034
21
276.796674
0
LINE
8
Camada 2
10
2.805034
20
276.796674
11
3.371961
21
276.643231
0
LINE
8
Camada 2
10
3.371961
20
276.643231
11
3.978853
21
276.637542
0
LINE
8
Camada 2
10
3.978853
20
276.637542
11
4.759725
21
276.752505
0
LINE
8
Camada 2
10
4.759725
20
276.752505
11
5.475328
21
277.018452
0
LINE
8
Camada 2
10
5.475328
20
277.018452
11
6.713327
21
277.910289
0
LINE
8
Camada 2
10
6.713327
20
277.910289
11
7.698048
21
279.127046
0
LINE
8
Camada 2
10
7.698048
20
279.127046
11
8.434693
21
280.482712
0
LINE
8
Camada 2
10
8.434693
20
280.482712
11
8.934639
21
281.675769
0
LINE
8
Camada 2
10
8.934639
20
281.675769
11
9.206036
21
282.253161
0
LINE
8
Camada 2
10
9.206036
20
282.253161
11
9.594863
21
282.750822
0
LINE
8
Camada 2
10
9.594863
20
282.750822
11
10.314925
21
282.049172
0
LINE
8
Camada 2
10
10.314925
20
282.049172
11
11.266073
21
281.742045
0
LINE
8
Camada 2
10
11.266073
20
281.742045
11
12.277611
21
281.816748
0
LINE
8
Camada 2
10
12.277611
20
281.816748
11
13.178843
21
282.260588
0
LINE
8
Camada 2
10
13.178843
20
282.260588
11
14.043617
21
281.777289
0
LINE
8
Camada 2
10
14.043617
20
281.777289
11
15.016164
21
281.755837
0
LINE
8
Camada 2
10
15.016164
20
281.755837
11
15.970931
21
282.085881
0
LINE
8
Camada 2
10
15.970931
20
282.085881
11
16.782363
21
282.657072
0
LINE
8
Camada 2
10
16.782363
20
282.657072
11
17.557210
21
282.073743
0
LINE
8
Camada 2
10
17.557210
20
282.073743
11
18.491426
21
281.847921
0
LINE
8
Camada 2
10
18.491426
20
281.847921
11
19.450505
21
281.972476
0
LINE
8
Camada 2
10
19.450505
20
281.972476
11
20.299943
21
282.440275
0
LINE
8
Camada 2
10
20.299943
20
282.440275
11
20.971299
21
281.906284
0
LINE
8
Camada 2
10
20.971299
20
281.906284
11
21.800981
21
281.711582
0
LINE
8
Camada 2
10
21.800981
20
281.711582
11
22.658951
21
281.829468
0
LINE
8
Camada 2
10
22.658951
20
281.829468
11
23.415173
21
282.233244
0
LINE
8
Camada 2
10
23.415173
20
282.233244
11
24.160193
21
281.853251
0
LINE
8
Camada 2
10
24.160193
20
281.853251
11
24.983099
21
281.722440
0
LINE
8
Camada 2
10
24.983099
20
281.722440
11
25.819404
21
281.814317
0
LINE
8
Camada 2
10
25.819404
20
281.814317
11
26.604623
21
282.102385
0
LINE
8
Camada 2
10
26.604623
20
282.102385
11
27.644141
21
281.707355
0
LINE
8
Camada 2
10
27.644141
20
281.707355
11
28.735583
21
281.804902
0
LINE
8
Camada 2
10
28.735583
20
281.804902
11
29.752865
21
282.286163
0
LINE
8
Camada 2
10
29.752865
20
282.286163
11
30.569903
21
283.042274
0
LINE
8
Camada 2
10
30.569903
20
283.042274
11
31.713714
21
284.249294
0
LINE
8
Camada 2
10
31.713714
20
284.249294
11
32.221586
21
284.899560
0
LINE
8
Camada 2
10
32.221586
20
284.899560
11
32.563613
21
285.643404
0
LINE
8
Camada 2
10
32.563613
20
285.643404
11
32.534036
21
286.451154
0
LINE
8
Camada 2
10
32.534036
20
286.451154
11
32.154664
21
287.164440
0
LINE
8
Camada 2
10
32.154664
20
287.164440
11
31.518829
21
287.650411
0
LINE
8
Camada 2
10
31.518829
20
287.650411
11
30.719863
21
287.776214
0
LINE
8
Camada 2
10
30.719863
20
287.776214
11
30.829693
21
288.567063
0
LINE
8
Camada 2
10
30.829693
20
288.567063
11
30.589237
21
289.305395
0
LINE
8
Camada 2
10
30.589237
20
289.305395
11
30.068879
21
289.887047
0
LINE
8
Camada 2
10
30.068879
20
289.887047
11
29.339003
21
290.207854
0
LINE
8
Camada 2
10
29.339003
20
290.207854
11
28.181504
21
290.307577
0
LINE
8
Camada 2
10
28.181504
20
290.307577
11
27.035859
21
290.100997
0
LINE
8
Camada 2
10
27.035859
20
290.100997
11
25.951942
21
289.651458
0
LINE
8
Camada 2
10
25.951942
20
289.651458
11
24.979623
21
289.022304
0
LINE
8
Camada 2
10
24.979623
20
289.022304
11
24.737350
21
289.445315
0
LINE
8
Camada 2
10
24.737350
20
289.445315
11
25.149545
21
289.602382
0
LINE
8
Camada 2
10
25.149545
20
289.602382
11
25.642052
21
289.878096
0
LINE
8
Camada 2
10
25.642052
20
289.878096
11
26.018856
21
290.279022
0
LINE
8
Camada 2
10
26.018856
20
290.279022
11
26.403803
21
291.308008
0
LINE
8
Camada 2
10
26.403803
20
291.308008
11
26.261270
21
292.392347
0
LINE
8
Camada 2
10
26.261270
20
292.392347
11
25.978727
21
292.862462
0
LINE
8
Camada 2
10
25.978727
20
292.862462
11
25.548146
21
293.235042
0
LINE
8
Camada 2
10
25.548146
20
293.235042
11
25.298424
21
293.397880
0
LINE
8
Camada 2
10
25.298424
20
293.397880
11
24.971437
21
293.448129
0
LINE
8
Camada 2
10
24.971437
20
293.448129
11
24.690576
21
293.510036
0
LINE
8
Camada 2
10
24.690576
20
293.510036
11
24.579232
21
293.707851
0
LINE
8
Camada 2
10
24.579232
20
293.707851
11
24.388585
21
294.554772
0
LINE
8
Camada 2
10
24.388585
20
294.554772
11
23.912879
21
295.279051
0
LINE
8
Camada 2
10
23.912879
20
295.279051
11
23.216640
21
295.778765
0
LINE
8
Camada 2
10
23.216640
20
295.778765
11
22.364392
21
295.951991
0
LINE
8
Camada 2
10
22.364392
20
295.951991
11
22.364400
21
295.952000
0
LINE
8
Camada 2
10
9.047980
20
292.302000
11
9.110767
21
292.051122
0
LINE
8
Camada 2
10
9.110767
20
292.051122
11
9.024577
21
291.749598
0
LINE
8
Camada 2
10
9.024577
20
291.749598
11
8.818528
21
291.134270
0
LINE
8
Camada 2
10
8.818528
20
291.134270
11
7.575328
21
287.753170
0
LINE
8
Camada 2
10
7.575328
20
287.753170
11
7.347727
21
288.830878
0
LINE
8
Camada 2
10
7.347727
20
288.830878
11
7.286737
21
289.950660
0
LINE
8
Camada 2
10
7.286737
20
289.950660
11
7.483323
21
291.027362
0
LINE
8
Camada 2
10
7.483323
20
291.027362
11
8.028453
21
291.975830
0
LINE
8
Camada 2
10
8.028453
20
291.975830
11
8.505065
21
292.246018
0
LINE
8
Camada 2
10
8.505065
20
292.246018
11
9.047983
21
292.302002
0
LINE
8
Camada 2
10
9.047983
20
292.302002
11
9.047980
21
292.302000
0
LINE
8
Camada 2
10
22.987480
20
290.122310
11
22.987480
21
290.122310
0
LINE
8
Camada 2
10
22.987480
20
290.122310
11
22.987480
21
290.122310
0
LINE
8
Layer 1
10
22.345800
20
294.658000
11
21.806700
21
294.500000
0
LINE
8
Layer 1
10
21.806700
20
294.500000
11
21.800800
21
294.494140
0
LINE
8
Layer 1
10
21.800800
20
294.494140
11
21.214863
21
293.970702
0
LINE
8
Layer 1
10
21.214863
20
293.970702
11
21.210963
21
293.966792
0
LINE
8
Layer 1
10
21.210963
20
293.966792
11
20.771510
21
293.369136
0
LINE
8
Layer 1
10
20.771510
20
293.369136
11
20.769510
21
293.365226
0
LINE
8
Layer 1
10
20.769510
20
293.365226
11
20.431620
21
292.748038
0
LINE
8
Layer 1
10
20.431620
20
292.748038
11
20.085917
21
292.060538
0
LINE
8
Layer 1
10
20.085917
20
292.060538
11
20.085917
21
292.058588
0
LINE
8
Layer 1
10
20.085917
20
292.058588
11
19.753885
21
291.355463
0
LINE
8
Layer 1
10
19.753885
20
291.355463
11
19.310526
21
290.332023
0
LINE
8
Layer 1
10
19.310526
20
290.332023
11
19.306626
21
290.322253
0
LINE
8
Layer 1
10
19.306626
20
290.322253
11
18.908300
21
289.297000
0
LINE
8
Layer 1
10
18.908300
20
289.297000
11
18.619200
21
288.621000
0
LINE
8
Layer 1
10
18.619200
20
288.621000
11
18.615300
21
288.611230
0
LINE
8
Layer 1
10
18.615300
20
288.611230
11
18.369206
21
287.951074
0
LINE
8
Layer 1
10
18.369206
20
287.951074
11
18.306706
21
287.822168
0
LINE
8
Layer 1
10
18.306706
20
287.822168
11
18.298906
21
287.779199
0
LINE
8
Layer 1
10
18.298906
20
287.779199
11
18.267656
21
287.726465
0
LINE
8
Layer 1
10
18.267656
20
287.726465
11
18.246176
21
287.681543
0
LINE
8
Layer 1
10
18.246176
20
287.681543
11
18.205156
21
287.630762
0
LINE
8
Layer 1
10
18.205156
20
287.630762
11
18.009844
21
287.413965
0
LINE
8
Layer 1
10
18.009844
20
287.413965
11
17.988364
21
287.380762
0
LINE
8
Layer 1
10
17.988364
20
287.380762
11
17.878989
21
287.245996
0
LINE
8
Layer 1
10
17.878989
20
287.245996
11
17.855549
21
287.216699
0
LINE
8
Layer 1
10
17.855549
20
287.216699
11
17.394611
21
286.622949
0
LINE
8
Layer 1
10
17.394611
20
286.622949
11
17.205158
21
286.396387
0
LINE
8
Layer 1
10
17.205158
20
286.396387
11
17.195358
21
286.386617
0
LINE
8
Layer 1
10
17.195358
20
286.386617
11
17.193358
21
286.386617
0
LINE
8
Layer 1
10
17.193358
20
286.386617
11
17.111328
21
286.326070
0
LINE
8
Layer 1
10
17.111328
20
286.326070
11
17.089848
21
286.298726
0
LINE
8
Layer 1
10
17.089848
20
286.298726
11
16.503910
21
285.603414
0
LINE
8
Layer 1
10
16.503910
20
285.603414
11
15.884770
21
284.964742
0
LINE
8
Layer 1
10
15.884770
20
284.964742
11
15.894570
21
284.970642
0
LINE
8
Layer 1
10
15.894570
20
284.970642
11
15.357461
21
284.472595
0
LINE
8
Layer 1
10
15.357461
20
284.472595
11
15.357500
21
284.475000
0
LINE
8
Layer 1
10
15.357500
20
284.475000
11
14.845781
21
284.115625
0
LINE
8
Layer 1
10
14.845781
20
284.115625
11
14.843781
21
284.113625
0
LINE
8
Layer 1
10
14.843781
20
284.113625
11
14.771521
21
284.080425
0
LINE
8
Layer 1
10
14.771521
20
284.080425
11
14.876989
21
284.566753
0
LINE
8
Layer 1
10
14.876989
20
284.566753
11
15.103552
21
285.168316
0
LINE
8
Layer 1
10
15.103552
20
285.168316
11
15.103500
21
285.170000
0
LINE
8
Layer 1
10
15.103500
20
285.170000
11
15.501937
21
286.156328
0
LINE
8
Layer 1
10
15.501937
20
286.156328
11
15.501937
21
286.160238
0
LINE
8
Layer 1
10
15.501937
20
286.160238
11
15.919906
21
287.185628
0
LINE
8
Layer 1
10
15.919906
20
287.185628
11
15.923806
21
287.195398
0
LINE
8
Layer 1
10
15.923806
20
287.195398
11
16.095681
21
287.615320
0
LINE
8
Layer 1
10
16.095681
20
287.615320
11
16.101581
21
287.627039
0
LINE
8
Layer 1
10
16.101581
20
287.627039
11
16.101581
21
287.628989
0
LINE
8
Layer 1
10
16.101581
20
287.628989
11
16.283221
21
288.048911
0
LINE
8
Layer 1
10
16.283221
20
288.048911
11
16.294941
21
288.076255
0
LINE
8
Layer 1
10
16.294941
20
288.076255
11
16.334001
21
288.189536
0
LINE
8
Layer 1
10
16.334001
20
288.189536
11
16.318371
21
288.152427
0
LINE
8
Layer 1
10
16.318371
20
288.152427
11
16.351571
21
288.498130
0
LINE
8
Layer 1
10
16.351571
20
288.498130
11
16.187508
21
288.775474
0
LINE
8
Layer 1
10
16.187508
20
288.775474
11
15.863289
21
288.884849
0
LINE
8
Layer 1
10
15.863289
20
288.884849
11
15.573653
21
288.785312
0
LINE
8
Layer 1
10
15.573653
20
288.785312
11
15.375008
21
288.560630
0
LINE
8
Layer 1
10
15.375008
20
288.560630
11
14.773446
21
287.582114
0
LINE
8
Layer 1
10
14.773446
20
287.582114
11
14.771446
21
287.580164
0
LINE
8
Layer 1
10
14.771446
20
287.580164
11
14.140586
21
286.603602
0
LINE
8
Layer 1
10
14.140586
20
286.603602
11
14.146486
21
286.615321
0
LINE
8
Layer 1
10
14.146486
20
286.615321
11
13.367189
21
285.568441
0
LINE
8
Layer 1
10
13.367189
20
285.568441
11
12.519532
21
284.646566
0
LINE
8
Layer 1
10
12.519532
20
284.646566
11
12.509732
21
284.638766
0
LINE
8
Layer 1
10
12.509732
20
284.638766
11
12.160122
21
284.341891
0
LINE
8
Layer 1
10
12.160122
20
284.341891
11
12.150322
21
284.334091
0
LINE
8
Layer 1
10
12.150322
20
284.334091
11
11.810478
21
284.123154
0
LINE
8
Layer 1
10
11.810478
20
284.123154
11
11.800678
21
284.119254
0
LINE
8
Layer 1
10
11.800678
20
284.119254
11
11.542866
21
284.043084
0
LINE
8
Layer 1
10
11.542866
20
284.043084
11
11.562396
21
284.310662
0
LINE
8
Layer 1
10
11.562396
20
284.310662
11
11.566296
21
284.328242
0
LINE
8
Layer 1
10
11.566296
20
284.328242
11
11.634656
21
284.642695
0
LINE
8
Layer 1
10
11.634656
20
284.642695
11
11.636656
21
284.650495
0
LINE
8
Layer 1
10
11.636656
20
284.650495
11
11.746031
21
284.959088
0
LINE
8
Layer 1
10
11.746031
20
284.959088
11
11.748031
21
284.964988
0
LINE
8
Layer 1
10
11.748031
20
284.964988
11
12.033187
21
285.720847
0
LINE
8
Layer 1
10
12.033187
20
285.720847
11
12.371078
21
286.474753
0
LINE
8
Layer 1
10
12.371078
20
286.474753
11
12.705062
21
287.277487
0
LINE
8
Layer 1
10
12.705062
20
287.277487
11
12.699162
21
287.267717
0
LINE
8
Layer 1
10
12.699162
20
287.267717
11
13.019474
21
288.039201
0
LINE
8
Layer 1
10
13.019474
20
288.039201
11
13.099554
21
288.250139
0
LINE
8
Layer 1
10
13.099554
20
288.250139
11
12.962836
21
288.685686
0
LINE
8
Layer 1
10
12.962836
20
288.685686
11
12.935496
21
288.709123
0
LINE
8
Layer 1
10
12.935496
20
288.709123
11
12.593699
21
288.838029
0
LINE
8
Layer 1
10
12.593699
20
288.838029
11
12.240184
21
288.685685
0
LINE
8
Layer 1
10
12.240184
20
288.685685
11
12.113230
21
288.474747
0
LINE
8
Layer 1
10
12.113230
20
288.474747
11
12.093700
21
288.451310
0
LINE
8
Layer 1
10
12.093700
20
288.451310
11
11.525341
21
287.675919
0
LINE
8
Layer 1
10
11.525341
20
287.675919
11
11.523341
21
287.673969
0
LINE
8
Layer 1
10
11.523341
20
287.673969
11
10.933700
21
286.914000
0
LINE
8
Layer 1
10
10.933700
20
286.914000
11
10.572372
21
286.460875
0
LINE
8
Layer 1
10
10.572372
20
286.460875
11
10.421981
21
286.267516
0
LINE
8
Layer 1
10
10.421981
20
286.267516
11
10.367294
21
286.212829
0
LINE
8
Layer 1
10
10.367294
20
286.212829
11
10.359484
21
286.205019
0
LINE
8
Layer 1
10
10.359484
20
286.205019
11
9.408300
21
285.326000
0
LINE
8
Layer 1
10
9.408300
20
285.326000
11
8.974700
21
285.082000
0
LINE
8
Layer 1
10
8.974700
20
285.082000
11
10.154400
21
287.984000
0
LINE
8
Layer 1
10
10.154400
20
287.984000
11
10.156350
21
287.985950
0
LINE
8
Layer 1
10
10.156350
20
287.985950
11
10.752000
21
289.603000
0
LINE
8
Layer 1
10
10.752000
20
289.603000
11
10.752000
21
289.604950
0
LINE
8
Layer 1
10
10.752000
20
289.604950
11
11.293100
21
291.265000
0
LINE
8
Layer 1
10
11.293100
20
291.265000
11
11.459100
21
292.242000
0
LINE
8
Layer 1
10
11.459100
20
292.242000
11
11.238400
21
293.277000
0
LINE
8
Layer 1
10
11.238400
20
293.277000
11
10.722700
21
293.951000
0
LINE
8
Layer 1
10
10.722700
20
293.951000
11
10.062600
21
294.398000
0
LINE
8
Layer 1
10
10.062600
20
294.398000
11
10.050881
21
294.403860
0
LINE
8
Layer 1
10
10.050881
20
294.403860
11
9.373548
21
294.595233
0
LINE
8
Layer 1
10
9.373548
20
294.595233
11
8.666110
21
294.617000
0
LINE
8
Layer 1
10
8.666110
20
294.617000
11
7.355560
21
294.264000
0
LINE
8
Layer 1
10
7.355560
20
294.264000
11
6.667695
21
293.841125
0
LINE
8
Layer 1
10
6.667695
20
293.841125
11
6.101660
21
293.281000
0
LINE
8
Layer 1
10
6.101660
20
293.281000
11
5.328220
21
291.916000
0
LINE
8
Layer 1
10
5.328220
20
291.916000
11
5.328220
21
291.914050
0
LINE
8
Layer 1
10
5.328220
20
291.914050
11
4.984470
21
290.462880
0
LINE
8
Layer 1
10
4.984470
20
290.462880
11
4.984470
21
290.455070
0
LINE
8
Layer 1
10
4.984470
20
290.455070
11
4.984470
21
288.990230
0
LINE
8
Layer 1
10
4.984470
20
288.990230
11
4.984470
21
288.980460
0
LINE
8
Layer 1
10
4.984470
20
288.980460
11
5.242282
21
287.542960
0
LINE
8
Layer 1
10
5.242282
20
287.542960
11
5.242282
21
287.541010
0
LINE
8
Layer 1
10
5.242282
20
287.541010
11
5.652440
21
286.174000
0
LINE
8
Layer 1
10
5.652440
20
286.174000
11
5.654390
21
286.168140
0
LINE
8
Layer 1
10
5.654390
20
286.168140
11
6.023531
21
285.252124
0
LINE
8
Layer 1
10
6.023531
20
285.252124
11
6.025481
21
285.248224
0
LINE
8
Layer 1
10
6.025481
20
285.248224
11
6.453215
21
284.369318
0
LINE
8
Layer 1
10
6.453215
20
284.369318
11
6.459075
21
284.361518
0
LINE
8
Layer 1
10
6.459075
20
284.361518
11
6.652440
21
284.015000
0
LINE
8
Layer 1
10
6.652440
20
284.015000
11
6.652440
21
284.013000
0
LINE
8
Layer 1
10
6.652440
20
284.013000
11
6.712987
21
283.975890
0
LINE
8
Layer 1
10
6.712987
20
283.975890
11
6.654390
21
283.951000
0
LINE
8
Layer 1
10
6.654390
20
283.951000
11
6.642671
21
283.945100
0
LINE
8
Layer 1
10
6.642671
20
283.945100
11
5.158291
21
283.105256
0
LINE
8
Layer 1
10
5.158291
20
283.105256
11
5.152431
21
283.101356
0
LINE
8
Layer 1
10
5.152431
20
283.101356
11
4.345790
21
282.511512
0
LINE
8
Layer 1
10
4.345790
20
282.511512
11
3.586024
21
281.866980
0
LINE
8
Layer 1
10
3.586024
20
281.866980
11
3.572352
21
281.857180
0
LINE
8
Layer 1
10
3.572352
20
281.857180
11
2.974696
21
281.175539
0
LINE
8
Layer 1
10
2.974696
20
281.175539
11
2.513758
21
280.361086
0
LINE
8
Layer 1
10
2.513758
20
280.361086
11
2.337977
21
279.573977
0
LINE
8
Layer 1
10
2.337977
20
279.573977
11
2.500086
21
278.724367
0
LINE
8
Layer 1
10
2.500086
20
278.724367
11
2.775215
21
278.330680
0
LINE
8
Layer 1
10
2.775215
20
278.330680
11
3.164149
21
278.062258
0
LINE
8
Layer 1
10
3.164149
20
278.062258
11
4.041102
21
277.923586
0
LINE
8
Layer 1
10
4.041102
20
277.923586
11
4.753863
21
278.092581
0
LINE
8
Layer 1
10
4.753863
20
278.092581
11
5.382902
21
278.464602
0
LINE
8
Layer 1
10
5.382902
20
278.464602
11
6.357511
21
279.460695
0
LINE
8
Layer 1
10
6.357511
20
279.460695
11
6.359461
21
279.464595
0
LINE
8
Layer 1
10
6.359461
20
279.464595
11
7.152440
21
280.828000
0
LINE
8
Layer 1
10
7.152440
20
280.828000
11
7.154390
21
280.833900
0
LINE
8
Layer 1
10
7.154390
20
280.833900
11
7.793062
21
282.224520
0
LINE
8
Layer 1
10
7.793062
20
282.224520
11
7.793060
21
282.227000
0
LINE
8
Layer 1
10
7.793060
20
282.227000
11
8.384857
21
283.611770
0
LINE
8
Layer 1
10
8.384857
20
283.611770
11
8.527435
21
283.684040
0
LINE
8
Layer 1
10
8.527435
20
283.684040
11
8.921966
21
283.852009
0
LINE
8
Layer 1
10
8.921966
20
283.852009
11
8.949310
21
283.865679
0
LINE
8
Layer 1
10
8.949310
20
283.865679
11
9.281341
21
284.051226
0
LINE
8
Layer 1
10
9.281341
20
284.051226
11
9.293060
21
284.057126
0
LINE
8
Layer 1
10
9.293060
20
284.057126
11
9.666107
21
284.273922
0
LINE
8
Layer 1
10
9.666107
20
284.273922
11
10.714937
21
285.086422
0
LINE
8
Layer 1
10
10.714937
20
285.086422
11
10.711027
21
285.076622
0
LINE
8
Layer 1
10
10.711027
20
285.076622
11
10.548918
21
284.488731
0
LINE
8
Layer 1
10
10.548918
20
284.488731
11
10.529387
21
283.832481
0
LINE
8
Layer 1
10
10.529387
20
283.832481
11
10.531337
21
283.818811
0
LINE
8
Layer 1
10
10.531337
20
283.818811
11
10.674053
21
283.449741
0
LINE
8
Layer 1
10
10.674053
20
283.449741
11
10.943446
21
283.170374
0
LINE
8
Layer 1
10
10.943446
20
283.170374
11
10.959071
21
283.160574
0
LINE
8
Layer 1
10
10.959071
20
283.160574
11
11.664150
21
283.025809
0
LINE
8
Layer 1
10
11.664150
20
283.025809
11
12.388759
21
283.277762
0
LINE
8
Layer 1
10
12.388759
20
283.277762
11
12.394659
21
283.279762
0
LINE
8
Layer 1
10
12.394659
20
283.279762
11
12.996222
21
283.701637
0
LINE
8
Layer 1
10
12.996222
20
283.701637
11
13.006022
21
283.709437
0
LINE
8
Layer 1
10
13.006022
20
283.709437
11
13.826335
21
284.543422
0
LINE
8
Layer 1
10
13.826335
20
284.543422
11
13.730635
21
284.049281
0
LINE
8
Layer 1
10
13.730635
20
284.049281
11
13.728635
21
284.031701
0
LINE
8
Layer 1
10
13.728635
20
284.031701
11
13.857541
21
283.412560
0
LINE
8
Layer 1
10
13.857541
20
283.412560
11
14.213010
21
283.066857
0
LINE
8
Layer 1
10
14.213010
20
283.066857
11
14.255980
21
283.051227
0
LINE
8
Layer 1
10
14.255980
20
283.051227
11
14.634887
21
283.004357
0
LINE
8
Layer 1
10
14.634887
20
283.004357
11
14.671997
21
283.008257
0
LINE
8
Layer 1
10
14.671997
20
283.008257
11
15.045044
21
283.100057
0
LINE
8
Layer 1
10
15.045044
20
283.100057
11
15.341919
21
283.227011
0
LINE
8
Layer 1
10
15.341919
20
283.227011
11
15.349719
21
283.230911
0
LINE
8
Layer 1
10
15.349719
20
283.230911
11
15.937610
21
283.631301
0
LINE
8
Layer 1
10
15.937610
20
283.631301
11
16.435657
21
284.086379
0
LINE
8
Layer 1
10
16.435657
20
284.086379
11
16.959095
21
284.633255
0
LINE
8
Layer 1
10
16.959095
20
284.633255
11
16.953195
21
284.623455
0
LINE
8
Layer 1
10
16.953195
20
284.623455
11
17.476633
21
285.170330
0
LINE
8
Layer 1
10
17.476633
20
285.170330
11
17.470733
21
285.160530
0
LINE
8
Layer 1
10
17.470733
20
285.160530
11
17.478533
21
285.170330
0
LINE
8
Layer 1
10
17.478533
20
285.170330
11
17.408223
21
284.494549
0
LINE
8
Layer 1
10
17.408223
20
284.494549
11
17.410223
21
284.490649
0
LINE
8
Layer 1
10
17.410223
20
284.490649
11
17.656317
21
283.635181
0
LINE
8
Layer 1
10
17.656317
20
283.635181
11
18.022210
21
283.273849
0
LINE
8
Layer 1
10
18.022210
20
283.273849
11
18.533270
21
283.141040
0
LINE
8
Layer 1
10
18.533270
20
283.141040
11
19.168036
21
283.271899
0
LINE
8
Layer 1
10
19.168036
20
283.271899
11
19.623114
21
283.559009
0
LINE
8
Layer 1
10
19.623114
20
283.559009
11
19.623114
21
283.561009
0
LINE
8
Layer 1
10
19.623114
20
283.561009
11
20.195380
21
284.049290
0
LINE
8
Layer 1
10
20.195380
20
284.049290
11
20.718817
21
284.594212
0
LINE
8
Layer 1
10
20.718817
20
284.594212
11
20.718800
21
284.596000
0
LINE
8
Layer 1
10
20.718800
20
284.596000
11
21.320363
21
285.230766
0
LINE
8
Layer 1
10
21.320363
20
285.230766
11
21.300833
21
285.178026
0
LINE
8
Layer 1
10
21.300833
20
285.178026
11
21.298833
21
285.176026
0
LINE
8
Layer 1
10
21.298833
20
285.176026
11
21.119146
21
284.558839
0
LINE
8
Layer 1
10
21.119146
20
284.558839
11
21.072276
21
283.820558
0
LINE
8
Layer 1
10
21.072276
20
283.820558
11
21.074276
21
283.818558
0
LINE
8
Layer 1
10
21.074276
20
283.818558
11
21.168026
21
283.443558
0
LINE
8
Layer 1
10
21.168026
20
283.443558
11
21.173926
21
283.431838
0
LINE
8
Layer 1
10
21.173926
20
283.431838
11
21.523536
21
283.072463
0
LINE
8
Layer 1
10
21.523536
20
283.072463
11
22.154395
21
283.039263
0
LINE
8
Layer 1
10
22.154395
20
283.039263
11
22.156395
21
283.039263
0
LINE
8
Layer 1
10
22.156395
20
283.039263
11
22.601708
21
283.232622
0
LINE
8
Layer 1
10
22.601708
20
283.232622
11
22.613428
21
283.240422
0
LINE
8
Layer 1
10
22.613428
20
283.240422
11
23.105616
21
283.588079
0
LINE
8
Layer 1
10
23.105616
20
283.588079
11
23.117336
21
283.599799
0
LINE
8
Layer 1
10
23.117336
20
283.599799
11
23.550929
21
284.009956
0
LINE
8
Layer 1
10
23.550929
20
284.009956
11
23.681789
21
284.150581
0
LINE
8
Layer 1
10
23.681789
20
284.150581
11
23.732569
21
283.838081
0
LINE
8
Layer 1
10
23.732569
20
283.838081
11
23.738469
21
283.822451
0
LINE
8
Layer 1
10
23.738469
20
283.822451
11
24.238469
21
283.222841
0
LINE
8
Layer 1
10
24.238469
20
283.222841
11
24.674949
21
283.037488
0
LINE
8
Layer 1
10
24.674949
20
283.037488
11
25.152532
21
283.006044
0
LINE
8
Layer 1
10
25.152532
20
283.006044
11
25.166202
21
283.008044
0
LINE
8
Layer 1
10
25.166202
20
283.008044
11
25.978702
21
283.244372
0
LINE
8
Layer 1
10
25.978702
20
283.244372
11
25.996282
21
283.252172
0
LINE
8
Layer 1
10
25.996282
20
283.252172
11
26.763860
21
283.812719
0
LINE
8
Layer 1
10
26.763860
20
283.812719
11
26.865423
21
283.924047
0
LINE
8
Layer 1
10
26.865423
20
283.924047
11
26.865423
21
283.884987
0
LINE
8
Layer 1
10
26.865423
20
283.884987
11
26.867423
21
283.869357
0
LINE
8
Layer 1
10
26.867423
20
283.869357
11
27.077504
21
283.402903
0
LINE
8
Layer 1
10
27.077504
20
283.402903
11
27.500235
21
283.088107
0
LINE
8
Layer 1
10
27.500235
20
283.088107
11
27.968693
21
282.970313
0
LINE
8
Layer 1
10
27.968693
20
282.970313
11
28.435782
21
283.045137
0
LINE
8
Layer 1
10
28.435782
20
283.045137
11
28.441682
21
283.047137
0
LINE
8
Layer 1
10
28.441682
20
283.047137
11
29.150667
21
283.478778
0
LINE
8
Layer 1
10
29.150667
20
283.478778
11
29.888948
21
284.176043
0
LINE
8
Layer 1
10
29.888948
20
284.176043
11
30.541292
21
284.906512
0
LINE
8
Layer 1
10
30.541292
20
284.906512
11
30.543292
21
284.908512
0
LINE
8
Layer 1
10
30.543292
20
284.908512
11
30.810870
21
285.215153
0
LINE
8
Layer 1
10
30.810870
20
285.215153
11
30.822590
21
285.228823
0
LINE
8
Layer 1
10
30.822590
20
285.228823
11
31.086262
21
285.525698
0
LINE
8
Layer 1
10
31.086262
20
285.525698
11
31.162432
21
285.601868
0
LINE
8
Layer 1
10
31.162432
20
285.601868
11
31.197592
21
285.646788
0
LINE
8
Layer 1
10
31.197592
20
285.646788
11
31.297202
21
285.873351
0
LINE
8
Layer 1
10
31.297202
20
285.873351
11
31.265952
21
286.211242
0
LINE
8
Layer 1
10
31.265952
20
286.211242
11
31.033530
21
286.433898
0
LINE
8
Layer 1
10
31.033530
20
286.433898
11
30.721030
21
286.494445
0
LINE
8
Layer 1
10
30.721030
20
286.494445
11
30.439780
21
286.346007
0
LINE
8
Layer 1
10
30.439780
20
286.346007
11
30.425900
21
286.328000
0
LINE
8
Layer 1
10
30.425900
20
286.328000
11
29.734494
21
285.521359
0
LINE
8
Layer 1
10
29.734494
20
285.521359
11
29.019650
21
284.753781
0
LINE
8
Layer 1
10
29.019650
20
284.753781
11
29.007930
21
284.738151
0
LINE
8
Layer 1
10
29.007930
20
284.738151
11
28.748164
21
284.478386
0
LINE
8
Layer 1
10
28.748164
20
284.478386
11
28.447383
21
284.214714
0
LINE
8
Layer 1
10
28.447383
20
284.214714
11
28.248164
21
284.077995
0
LINE
8
Layer 1
10
28.248164
20
284.077995
11
28.025508
21
284.005725
0
LINE
8
Layer 1
10
28.025508
20
284.005725
11
28.017708
21
284.003725
0
LINE
8
Layer 1
10
28.017708
20
284.003725
11
27.925908
21
284.003725
0
LINE
8
Layer 1
10
27.925908
20
284.003725
11
27.900518
21
284.023255
0
LINE
8
Layer 1
10
27.900518
20
284.023255
11
27.894618
21
284.034975
0
LINE
8
Layer 1
10
27.894618
20
284.034975
11
27.837978
21
284.251772
0
LINE
8
Layer 1
10
27.837978
20
284.251772
11
27.884848
21
284.575991
0
LINE
8
Layer 1
10
27.884848
20
284.575991
11
27.888748
21
284.591621
0
LINE
8
Layer 1
10
27.888748
20
284.591621
11
27.972728
21
284.988105
0
LINE
8
Layer 1
10
27.972728
20
284.988105
11
27.974728
21
284.992005
0
LINE
8
Layer 1
10
27.974728
20
284.992005
11
28.125119
21
285.423646
0
LINE
8
Layer 1
10
28.125119
20
285.423646
11
28.131019
21
285.443176
0
LINE
8
Layer 1
10
28.131019
20
285.443176
11
28.195469
21
285.601380
0
LINE
8
Layer 1
10
28.195469
20
285.601380
11
28.207189
21
285.620910
0
LINE
8
Layer 1
10
28.207189
20
285.620910
11
28.322424
21
285.851379
0
LINE
8
Layer 1
10
28.322424
20
285.851379
11
28.437658
21
286.048644
0
LINE
8
Layer 1
10
28.437658
20
286.048644
11
28.457188
21
286.081847
0
LINE
8
Layer 1
10
28.457188
20
286.081847
11
28.586095
21
286.300597
0
LINE
8
Layer 1
10
28.586095
20
286.300597
11
28.591995
21
286.312316
0
LINE
8
Layer 1
10
28.591995
20
286.312316
11
28.970901
21
287.054504
0
LINE
8
Layer 1
10
28.970901
20
287.054504
11
28.972901
21
287.060364
0
LINE
8
Layer 1
10
28.972901
20
287.060364
11
29.341900
21
287.818000
0
LINE
8
Layer 1
10
29.341900
20
287.818000
11
29.353620
21
287.845344
0
LINE
8
Layer 1
10
29.353620
20
287.845344
11
29.404400
21
287.941047
0
LINE
8
Layer 1
10
29.404400
20
287.941047
11
29.416120
21
287.960578
0
LINE
8
Layer 1
10
29.416120
20
287.960578
11
29.507920
21
288.218390
0
LINE
8
Layer 1
10
29.507920
20
288.218390
11
29.533310
21
288.558234
0
LINE
8
Layer 1
10
29.533310
20
288.558234
11
29.209092
21
288.903937
0
LINE
8
Layer 1
10
29.209092
20
288.903937
11
28.941513
21
288.962531
0
LINE
8
Layer 1
10
28.941513
20
288.962531
11
29.013800
21
288.953000
0
LINE
8
Layer 1
10
29.013800
20
288.953000
11
28.826300
21
288.994016
0
LINE
8
Layer 1
10
28.826300
20
288.994016
11
28.800910
21
288.997926
0
LINE
8
Layer 1
10
28.800910
20
288.997926
11
27.707160
21
288.935426
0
LINE
8
Layer 1
10
27.707160
20
288.935426
11
26.722785
21
288.607301
0
LINE
8
Layer 1
10
26.722785
20
288.607301
11
25.990364
21
288.160035
0
LINE
8
Layer 1
10
25.990364
20
288.160035
11
25.351692
21
287.640504
0
LINE
8
Layer 1
10
25.351692
20
287.640504
11
24.650520
21
286.900270
0
LINE
8
Layer 1
10
24.650520
20
286.900270
11
24.261848
21
286.335817
0
LINE
8
Layer 1
10
24.261848
20
286.335817
11
24.214978
21
286.292848
0
LINE
8
Layer 1
10
24.214978
20
286.292848
11
24.203258
21
286.277223
0
LINE
8
Layer 1
10
24.203258
20
286.277223
11
23.996200
21
286.039000
0
LINE
8
Layer 1
10
23.996200
20
286.039000
11
23.976700
21
286.015000
0
LINE
8
Layer 1
10
23.976700
20
286.015000
11
23.257950
21
285.182969
0
LINE
8
Layer 1
10
23.257950
20
285.182969
11
22.845840
21
284.770859
0
LINE
8
Layer 1
10
22.845840
20
284.770859
11
22.838040
21
284.761059
0
LINE
8
Layer 1
10
22.838040
20
284.761059
11
22.431790
21
284.358715
0
LINE
8
Layer 1
10
22.431790
20
284.358715
11
22.093899
21
284.120434
0
LINE
8
Layer 1
10
22.093899
20
284.120434
11
22.113429
21
284.339184
0
LINE
8
Layer 1
10
22.113429
20
284.339184
11
22.113429
21
284.343084
0
LINE
8
Layer 1
10
22.113429
20
284.343084
11
22.277492
21
284.866521
0
LINE
8
Layer 1
10
22.277492
20
284.866521
11
22.279492
21
284.872421
0
LINE
8
Layer 1
10
22.279492
20
284.872421
11
22.478711
21
285.407577
0
LINE
8
Layer 1
10
22.478711
20
285.407577
11
22.480711
21
285.411477
0
LINE
8
Layer 1
10
22.480711
20
285.411477
11
23.029400
21
286.658000
0
LINE
8
Layer 1
10
23.029400
20
286.658000
11
23.031400
21
286.663860
0
LINE
8
Layer 1
10
23.031400
20
286.663860
11
23.658353
21
287.876750
0
LINE
8
Layer 1
10
23.658353
20
287.876750
11
23.642723
21
287.851359
0
LINE
8
Layer 1
10
23.642723
20
287.851359
11
23.701313
21
287.966593
0
LINE
8
Layer 1
10
23.701313
20
287.966593
11
23.718893
21
288.001749
0
LINE
8
Layer 1
10
23.718893
20
288.001749
11
23.787253
21
288.140421
0
LINE
8
Layer 1
10
23.787253
20
288.140421
11
23.732563
21
288.570109
0
LINE
8
Layer 1
10
23.732563
20
288.570109
11
23.470844
21
288.806437
0
LINE
8
Layer 1
10
23.470844
20
288.806437
11
23.402484
21
288.824015
0
LINE
8
Layer 1
10
23.402484
20
288.824015
11
23.114715
21
288.773306
0
LINE
8
Layer 1
10
23.114715
20
288.773306
11
22.892718
21
288.591593
0
LINE
8
Layer 1
10
22.892718
20
288.591593
11
22.890718
21
288.589643
0
LINE
8
Layer 1
10
22.890718
20
288.589643
11
22.486421
21
288.111127
0
LINE
8
Layer 1
10
22.486421
20
288.111127
11
21.181731
21
286.616987
0
LINE
8
Layer 1
10
21.181731
20
286.616987
11
21.177831
21
286.611127
0
LINE
8
Layer 1
10
21.177831
20
286.611127
11
21.031346
21
286.435346
0
LINE
8
Layer 1
10
21.031346
20
286.435346
11
20.998146
21
286.411909
0
LINE
8
Layer 1
10
20.998146
20
286.411909
11
20.996146
21
286.409959
0
LINE
8
Layer 1
10
20.996146
20
286.409959
11
20.990246
21
286.406049
0
LINE
8
Layer 1
10
20.990246
20
286.406049
11
20.791027
21
286.204877
0
LINE
8
Layer 1
10
20.791027
20
286.204877
11
20.769547
21
286.171674
0
LINE
8
Layer 1
10
20.769547
20
286.171674
11
20.697277
21
286.075971
0
LINE
8
Layer 1
10
20.697277
20
286.075971
11
20.689477
21
286.066201
0
LINE
8
Layer 1
10
20.689477
20
286.066201
11
20.093774
21
285.413858
0
LINE
8
Layer 1
10
20.093774
20
285.413858
11
20.083974
21
285.402138
0
LINE
8
Layer 1
10
20.083974
20
285.402138
11
19.712880
21
284.995888
0
LINE
8
Layer 1
10
19.712880
20
284.995888
11
19.115224
21
284.450966
0
LINE
8
Layer 1
10
19.115224
20
284.450966
11
19.107424
21
284.445066
0
LINE
8
Layer 1
10
19.107424
20
284.445066
11
18.578127
21
284.138425
0
LINE
8
Layer 1
10
18.578127
20
284.138425
11
18.542967
21
284.134525
0
LINE
8
Layer 1
10
18.542967
20
284.134525
11
18.492187
21
284.214605
0
LINE
8
Layer 1
10
18.492187
20
284.214605
11
18.488287
21
284.224405
0
LINE
8
Layer 1
10
18.488287
20
284.224405
11
18.419927
21
284.525187
0
LINE
8
Layer 1
10
18.419927
20
284.525187
11
18.453127
21
284.913859
0
LINE
8
Layer 1
10
18.453127
20
284.913859
11
18.455127
21
284.921659
0
LINE
8
Layer 1
10
18.455127
20
284.921659
11
18.617237
21
285.630643
0
LINE
8
Layer 1
10
18.617237
20
285.630643
11
18.619237
21
285.634543
0
LINE
8
Layer 1
10
18.619237
20
285.634543
11
18.900487
21
286.491965
0
LINE
8
Layer 1
10
18.900487
20
286.491965
11
18.902487
21
286.495875
0
LINE
8
Layer 1
10
18.902487
20
286.495875
11
19.072400
21
286.953000
0
LINE
8
Layer 1
10
19.072400
20
286.953000
11
19.076300
21
286.964719
0
LINE
8
Layer 1
10
19.076300
20
286.964719
11
19.142710
21
287.163938
0
LINE
8
Layer 1
10
19.142710
20
287.163938
11
19.216930
21
287.269407
0
LINE
8
Layer 1
10
19.216930
20
287.269407
11
19.238410
21
287.296751
0
LINE
8
Layer 1
10
19.238410
20
287.296751
11
20.220832
21
288.566281
0
LINE
8
Layer 1
10
20.220832
20
288.566281
11
21.181770
21
289.853391
0
LINE
8
Layer 1
10
21.181770
20
289.853391
11
21.181700
21
289.855000
0
LINE
8
Layer 1
10
21.181700
20
289.855000
11
21.927794
21
290.888200
0
LINE
8
Layer 1
10
21.927794
20
290.888200
11
21.931694
21
290.894060
0
LINE
8
Layer 1
10
21.931694
20
290.894060
11
22.650444
21
291.980000
0
LINE
8
Layer 1
10
22.650444
20
291.980000
11
22.654344
21
291.985860
0
LINE
8
Layer 1
10
22.654344
20
291.985860
11
22.904344
21
292.431172
0
LINE
8
Layer 1
10
22.904344
20
292.431172
11
22.904400
21
292.433000
0
LINE
8
Layer 1
10
22.904400
20
292.433000
11
23.154400
21
292.948625
0
LINE
8
Layer 1
10
23.154400
20
292.948625
11
23.269600
21
293.744000
0
LINE
8
Layer 1
10
23.269600
20
293.744000
11
23.121475
21
294.220500
0
LINE
8
Layer 1
10
23.121475
20
294.220500
11
22.759900
21
294.547000
0
LINE
8
Layer 1
10
22.759900
20
294.547000
11
22.345800
21
294.658000
0
LINE
8
Layer 1
10
22.345800
20
294.658000
11
22.345800
21
294.658000
0
LINE
8
Layer 1
10
8.908300
20
293.613000
11
9.468847
21
293.525109
0
LINE
8
Layer 1
10
9.468847
20
293.525109
11
9.478617
21
293.523159
0
LINE
8
Layer 1
10
9.478617
20
293.523159
11
9.983911
21
293.279145
0
LINE
8
Layer 1
10
9.983911
20
293.279145
11
10.324300
21
292.853000
0
LINE
8
Layer 1
10
10.324300
20
292.853000
11
10.429800
21
292.203000
0
LINE
8
Layer 1
10
10.429800
20
292.203000
11
10.289200
21
291.474000
0
LINE
8
Layer 1
10
10.289200
20
291.474000
11
10.287250
21
291.470090
0
LINE
8
Layer 1
10
10.287250
20
291.470090
11
9.777440
21
289.900000
0
LINE
8
Layer 1
10
9.777440
20
289.900000
11
9.181730
21
288.312000
0
LINE
8
Layer 1
10
9.181730
20
288.312000
11
9.181730
21
288.310050
0
LINE
8
Layer 1
10
9.181730
20
288.310050
11
8.476660
21
286.517000
0
LINE
8
Layer 1
10
8.476660
20
286.517000
11
7.728610
21
284.715000
0
LINE
8
Layer 1
10
7.728610
20
284.715000
11
7.728610
21
284.713000
0
LINE
8
Layer 1
10
7.728610
20
284.713000
11
7.578219
21
284.341906
0
LINE
8
Layer 1
10
7.578219
20
284.341906
11
7.564547
21
284.339906
0
LINE
8
Layer 1
10
7.564547
20
284.339906
11
7.523531
21
284.560609
0
LINE
8
Layer 1
10
7.523531
20
284.560609
11
6.722750
21
286.199000
0
LINE
8
Layer 1
10
6.722750
20
286.199000
11
6.720800
21
286.203000
0
LINE
8
Layer 1
10
6.720800
20
286.203000
11
6.720800
21
286.204950
0
LINE
8
Layer 1
10
6.720800
20
286.204950
11
6.197360
21
287.965000
0
LINE
8
Layer 1
10
6.197360
20
287.965000
11
6.197360
21
287.967000
0
LINE
8
Layer 1
10
6.197360
20
287.967000
11
5.992280
21
289.322000
0
LINE
8
Layer 1
10
5.992280
20
289.322000
11
5.992280
21
289.323950
0
LINE
8
Layer 1
10
5.992280
20
289.323950
11
6.066499
21
290.671610
0
LINE
8
Layer 1
10
6.066499
20
290.671610
11
6.066499
21
290.679420
0
LINE
8
Layer 1
10
6.066499
20
290.679420
11
6.447360
21
291.996000
0
LINE
8
Layer 1
10
6.447360
20
291.996000
11
6.802921
21
292.569375
0
LINE
8
Layer 1
10
6.802921
20
292.569375
11
7.279390
21
293.037000
0
LINE
8
Layer 1
10
7.279390
20
293.037000
11
7.285250
21
293.040910
0
LINE
8
Layer 1
10
7.285250
20
293.040910
11
8.318450
21
293.539000
0
LINE
8
Layer 1
10
8.318450
20
293.539000
11
8.324310
21
293.540950
0
LINE
8
Layer 1
10
8.324310
20
293.540950
11
8.908294
21
293.613216
0
LINE
8
Layer 1
10
8.908294
20
293.613216
11
8.908300
21
293.613000
0
LINE
8
Layer 1
10
22.265700
20
293.566125
11
22.267700
21
293.527063
0
LINE
8
Layer 1
10
22.267700
20
293.527063
11
22.156372
21
293.189172
0
LINE
8
Layer 1
10
22.156372
20
293.189172
11
21.617310
21
292.238000
0
LINE
8
Layer 1
10
21.617310
20
292.238000
11
20.992310
21
291.329797
0
LINE
8
Layer 1
10
20.992310
20
291.329797
11
20.666138
21
290.882531
0
LINE
8
Layer 1
10
20.666138
20
290.882531
11
20.691528
21
290.937218
0
LINE
8
Layer 1
10
20.691528
20
290.937218
11
20.693528
21
290.943078
0
LINE
8
Layer 1
10
20.693528
20
290.943078
11
21.093800
21
291.777000
0
LINE
8
Layer 1
10
21.093800
20
291.777000
11
21.097700
21
291.782860
0
LINE
8
Layer 1
10
21.097700
20
291.782860
11
21.357466
21
292.325829
0
LINE
8
Layer 1
10
21.357466
20
292.325829
11
21.357500
21
292.328000
0
LINE
8
Layer 1
10
21.357500
20
292.328000
11
21.361400
21
292.333860
0
LINE
8
Layer 1
10
21.361400
20
292.333860
11
21.671947
21
292.861204
0
LINE
8
Layer 1
10
21.671947
20
292.861204
11
21.673947
21
292.865114
0
LINE
8
Layer 1
10
21.673947
20
292.865114
11
22.002072
21
293.339723
0
LINE
8
Layer 1
10
22.002072
20
293.339723
11
22.009872
21
293.347533
0
LINE
8
Layer 1
10
22.009872
20
293.347533
11
22.265731
21
293.566283
0
LINE
8
Layer 1
10
22.265731
20
293.566283
11
22.265700
21
293.566125
0
LINE
8
Layer 1
10
24.529400
20
292.223000
11
24.246197
21
292.152688
0
LINE
8
Layer 1
10
24.246197
20
292.152688
11
24.230567
21
292.144878
0
LINE
8
Layer 1
10
24.230567
20
292.144878
11
23.908301
21
291.795269
0
LINE
8
Layer 1
10
23.908301
20
291.795269
11
23.816501
21
291.318707
0
LINE
8
Layer 1
10
23.816501
20
291.318707
11
24.150486
21
290.840191
0
LINE
8
Layer 1
10
24.150486
20
290.840191
11
24.707126
21
290.848001
0
LINE
8
Layer 1
10
24.707126
20
290.848001
11
25.054783
21
291.168314
0
LINE
8
Layer 1
10
25.054783
20
291.168314
11
25.062583
21
291.183939
0
LINE
8
Layer 1
10
25.062583
20
291.183939
11
25.146600
21
291.658000
0
LINE
8
Layer 1
10
25.146600
20
291.658000
11
24.839900
21
292.139000
0
LINE
8
Layer 1
10
24.839900
20
292.139000
11
24.814510
21
292.152672
0
LINE
8
Layer 1
10
24.814510
20
292.152672
11
24.529400
21
292.223000
0
LINE
8
Layer 1
10
24.529400
20
292.223000
11
24.529400
21
292.223000
0
LINE
8
Layer 1
10
13.623100
20
290.635000
11
13.427788
21
290.586172
0
LINE
8
Layer 1
10
13.427788
20
290.586172
11
13.371148
21
290.556875
0
LINE
8
Layer 1
10
13.371148
20
290.556875
11
13.179742
21
290.324453
0
LINE
8
Layer 1
10
13.179742
20
290.324453
11
13.164112
21
290.017812
0
LINE
8
Layer 1
10
13.164112
20
290.017812
11
13.359424
21
289.709218
0
LINE
8
Layer 1
10
13.359424
20
289.709218
11
13.402394
21
289.679921
0
LINE
8
Layer 1
10
13.402394
20
289.679921
11
13.623097
21
289.496327
0
LINE
8
Layer 1
10
13.623097
20
289.496327
11
13.646537
21
289.478749
0
LINE
8
Layer 1
10
13.646537
20
289.478749
11
13.886771
21
289.312733
0
LINE
8
Layer 1
10
13.886771
20
289.312733
11
13.888771
21
289.310783
0
LINE
8
Layer 1
10
13.888771
20
289.310783
11
14.101662
21
289.111564
0
LINE
8
Layer 1
10
14.101662
20
289.111564
11
14.138772
21
289.082267
0
LINE
8
Layer 1
10
14.138772
20
289.082267
11
14.406350
21
288.888908
0
LINE
8
Layer 1
10
14.406350
20
288.888908
11
14.416150
21
288.881098
0
LINE
8
Layer 1
10
14.416150
20
288.881098
11
14.531384
21
288.804926
0
LINE
8
Layer 1
10
14.531384
20
288.804926
11
14.484514
21
288.842035
0
LINE
8
Layer 1
10
14.484514
20
288.842035
11
14.984514
21
288.730707
0
LINE
8
Layer 1
10
14.984514
20
288.730707
11
15.246233
21
288.910394
0
LINE
8
Layer 1
10
15.246233
20
288.910394
11
15.334123
21
289.205316
0
LINE
8
Layer 1
10
15.334123
20
289.205316
11
15.136857
21
289.613519
0
LINE
8
Layer 1
10
15.136857
20
289.613519
11
15.173967
21
289.580316
0
LINE
8
Layer 1
10
15.173967
20
289.580316
11
15.136857
21
289.619379
0
LINE
8
Layer 1
10
15.136857
20
289.619379
11
15.132957
21
289.625239
0
LINE
8
Layer 1
10
15.132957
20
289.625239
11
15.037257
21
289.681880
0
LINE
8
Layer 1
10
15.037257
20
289.681880
11
15.031357
21
289.685790
0
LINE
8
Layer 1
10
15.031357
20
289.685790
11
14.894638
21
289.795165
0
LINE
8
Layer 1
10
14.894638
20
289.795165
11
14.914168
21
289.781493
0
LINE
8
Layer 1
10
14.914168
20
289.781493
11
14.339949
21
290.240477
0
LINE
8
Layer 1
10
14.339949
20
290.240477
11
14.337949
21
290.240477
0
LINE
8
Layer 1
10
14.337949
20
290.240477
11
13.972700
21
290.527000
0
LINE
8
Layer 1
10
13.972700
20
290.527000
11
13.955120
21
290.540672
0
LINE
8
Layer 1
10
13.955120
20
290.540672
11
13.623089
21
290.634422
0
LINE
8
Layer 1
10
13.623089
20
290.634422
11
13.623100
21
290.635000
0
LINE
8
Layer 1
10
28.205100
20
287.972890
11
28.148460
21
287.875234
0
LINE
8
Layer 1
10
28.148460
20
287.875234
11
28.144560
21
287.867424
0
LINE
8
Layer 1
10
28.144560
20
287.867424
11
27.859404
21
287.357658
0
LINE
8
Layer 1
10
27.859404
20
287.357658
11
27.857404
21
287.353748
0
LINE
8
Layer 1
10
27.857404
20
287.353748
11
27.673810
21
286.984607
0
LINE
8
Layer 1
10
27.673810
20
286.984607
11
27.517560
21
286.609607
0
LINE
8
Layer 1
10
27.517560
20
286.609607
11
27.351545
21
286.263904
0
LINE
8
Layer 1
10
27.351545
20
286.263904
11
27.343745
21
286.246326
0
LINE
8
Layer 1
10
27.343745
20
286.246326
11
27.269525
21
286.097888
0
LINE
8
Layer 1
10
27.269525
20
286.097888
11
27.248045
21
286.054919
0
LINE
8
Layer 1
10
27.248045
20
286.054919
11
27.175775
21
285.935778
0
LINE
8
Layer 1
10
27.175775
20
285.935778
11
27.160145
21
285.912338
0
LINE
8
Layer 1
10
27.160145
20
285.912338
11
26.712880
21
285.281479
0
LINE
8
Layer 1
10
26.712880
20
285.281479
11
26.706980
21
285.271679
0
LINE
8
Layer 1
10
26.706980
20
285.271679
11
26.238230
21
284.715039
0
LINE
8
Layer 1
10
26.238230
20
284.715039
11
25.777293
21
284.324414
0
LINE
8
Layer 1
10
25.777293
20
284.324414
11
25.769493
21
284.316614
0
LINE
8
Layer 1
10
25.769493
20
284.316614
11
25.290978
21
284.080286
0
LINE
8
Layer 1
10
25.290978
20
284.080286
11
24.999962
21
284.033416
0
LINE
8
Layer 1
10
24.999962
20
284.033416
11
24.996062
21
284.033416
0
LINE
8
Layer 1
10
24.996062
20
284.033416
11
24.812468
21
284.052946
0
LINE
8
Layer 1
10
24.812468
20
284.052946
11
24.746058
21
284.107636
0
LINE
8
Layer 1
10
24.746058
20
284.107636
11
24.681608
21
284.271698
0
LINE
8
Layer 1
10
24.681608
20
284.271698
11
24.681700
21
284.273000
0
LINE
8
Layer 1
10
24.681700
20
284.273000
11
24.683700
21
284.763235
0
LINE
8
Layer 1
10
24.683700
20
284.763235
11
24.683700
21
284.766000
0
LINE
8
Layer 1
10
24.683700
20
284.766000
11
24.857528
21
285.308969
0
LINE
8
Layer 1
10
24.857528
20
285.308969
11
24.857500
21
285.311000
0
LINE
8
Layer 1
10
24.857500
20
285.311000
11
25.302813
21
286.076625
0
LINE
8
Layer 1
10
25.302813
20
286.076625
11
25.900469
21
286.746547
0
LINE
8
Layer 1
10
25.900469
20
286.746547
11
25.908269
21
286.752407
0
LINE
8
Layer 1
10
25.908269
20
286.752407
11
26.474675
21
287.264126
0
LINE
8
Layer 1
10
26.474675
20
287.264126
11
27.134832
21
287.676235
0
LINE
8
Layer 1
10
27.134832
20
287.676235
11
27.890691
21
287.939907
0
LINE
8
Layer 1
10
27.890691
20
287.939907
11
28.205144
21
287.973110
0
LINE
8
Layer 1
10
28.205144
20
287.973110
11
28.205100
21
287.972890
0
LINE
8
Layer 1
10
6.998140
20
282.955000
11
6.656343
21
282.150313
0
LINE
8
Layer 1
10
6.656343
20
282.150313
11
6.654393
21
282.148313
0
LINE
8
Layer 1
10
6.654393
20
282.148313
11
5.925877
21
280.683473
0
LINE
8
Layer 1
10
5.925877
20
280.683473
11
5.920017
21
280.675673
0
LINE
8
Layer 1
10
5.920017
20
280.675673
11
5.318455
21
279.785048
0
LINE
8
Layer 1
10
5.318455
20
279.785048
11
4.545017
21
279.148329
0
LINE
8
Layer 1
10
4.545017
20
279.148329
11
4.527439
21
279.138529
0
LINE
8
Layer 1
10
4.527439
20
279.138529
11
4.240330
21
279.017435
0
LINE
8
Layer 1
10
4.240330
20
279.017435
11
4.209080
21
279.007635
0
LINE
8
Layer 1
10
4.209080
20
279.007635
11
3.916110
21
278.953000
0
LINE
8
Layer 1
10
3.916110
20
278.953000
11
3.886813
21
278.951000
0
LINE
8
Layer 1
10
3.886813
20
278.951000
11
3.617282
21
278.976390
0
LINE
8
Layer 1
10
3.617282
20
278.976390
11
3.597751
21
278.982290
0
LINE
8
Layer 1
10
3.597751
20
278.982290
11
3.457126
21
279.085805
0
LINE
8
Layer 1
10
3.457126
20
279.085805
11
3.455176
21
279.087805
0
LINE
8
Layer 1
10
3.455176
20
279.087805
11
3.345801
21
279.503820
0
LINE
8
Layer 1
10
3.345801
20
279.503820
11
3.511817
21
280.066320
0
LINE
8
Layer 1
10
3.511817
20
280.066320
11
3.511817
21
280.070220
0
LINE
8
Layer 1
10
3.511817
20
280.070220
11
3.947364
21
280.765532
0
LINE
8
Layer 1
10
3.947364
20
280.765532
11
3.951274
21
280.771432
0
LINE
8
Layer 1
10
3.951274
20
280.771432
11
4.552836
21
281.372995
0
LINE
8
Layer 1
10
4.552836
20
281.372995
11
4.558696
21
281.376895
0
LINE
8
Layer 1
10
4.558696
20
281.376895
11
5.273530
21
281.945000
0
LINE
8
Layer 1
10
5.273530
20
281.945000
11
6.045020
21
282.453000
0
LINE
8
Layer 1
10
6.045020
20
282.453000
11
6.836030
21
282.877000
0
LINE
8
Layer 1
10
6.836030
20
282.877000
11
6.845800
21
282.880900
0
LINE
8
Layer 1
10
6.845800
20
282.880900
11
6.998140
21
282.955000
0
LINE
8
Layer 1
10
6.998140
20
282.955000
11
6.998140
21
282.955000
0
LINE
8
Layer 2
10
5.572490
20
293.810000
11
5.395254
21
292.932994
0
LINE
8
Layer 2
10
5.395254
20
292.932994
11
4.912275
21
292.216855
0
LINE
8
Layer 2
10
4.912275
20
292.216855
11
4.196026
21
291.734038
0
LINE
8
Layer 2
10
4.196026
20
291.734038
11
3.318980
21
291.557000
0
LINE
8
Layer 2
10
3.318980
20
291.557000
11
2.441937
21
291.734041
0
LINE
8
Layer 2
10
2.441937
20
291.734041
11
1.725692
21
292.216858
0
LINE
8
Layer 2
10
1.725692
20
292.216858
11
1.242715
21
292.932997
0
LINE
8
Layer 2
10
1.242715
20
292.932997
11
1.065480
21
293.810000
0
LINE
8
Layer 2
10
1.065480
20
293.810000
11
1.236874
21
294.672531
0
LINE
8
Layer 2
10
1.236874
20
294.672531
11
1.725338
21
295.403788
0
LINE
8
Layer 2
10
1.725338
20
295.403788
11
2.456487
21
295.892415
0
LINE
8
Layer 2
10
2.456487
20
295.892415
11
3.318980
21
296.064000
0
LINE
8
Layer 2
10
3.318980
20
296.064000
11
4.181476
21
295.892418
0
LINE
8
Layer 2
10
4.181476
20
295.892418
11
4.912628
21
295.403792
0
LINE
8
Layer 2
10
4.912628
20
295.403792
11
5.401095
21
294.672533
0
LINE
8
Layer 2
10
5.401095
20
294.672533
11
5.572490
21
293.810000
0
LINE
8
Layer 2
10
5.572490
20
293.810000
11
5.572490
21
293.810000
0
LINE
8
Layer 2
10
4.556430
20
293.822000
11
4.456479
21
293.327256
0
LINE
8
Layer 2
10
4.456479
20
293.327256
11
4.184040
21
292.923256
0
LINE
8
Layer 2
10
4.184040
20
292.923256
11
3.779998
21
292.650877
0
LINE
8
Layer 2
10
3.779998
20
292.650877
11
3.285240
21
292.551000
0
LINE
8
Layer 2
10
3.285240
20
292.551000
11
2.790478
21
292.650874
0
LINE
8
Layer 2
10
2.790478
20
292.650874
11
2.386434
21
292.923252
0
LINE
8
Layer 2
10
2.386434
20
292.923252
11
2.113992
21
293.327254
0
LINE
8
Layer 2
10
2.113992
20
293.327254
11
2.014040
21
293.822000
0
LINE
8
Layer 2
10
2.014040
20
293.822000
11
2.110572
21
294.308714
0
LINE
8
Layer 2
10
2.110572
20
294.308714
11
2.386080
21
294.721394
0
LINE
8
Layer 2
10
2.386080
20
294.721394
11
2.798586
21
294.997162
0
LINE
8
Layer 2
10
2.798586
20
294.997162
11
3.285240
21
295.094000
0
LINE
8
Layer 2
10
3.285240
20
295.094000
11
3.771891
21
294.997159
0
LINE
8
Layer 2
10
3.771891
20
294.997159
11
4.184394
21
294.721391
0
LINE
8
Layer 2
10
4.184394
20
294.721391
11
4.459899
21
294.308712
0
LINE
8
Layer 2
10
4.459899
20
294.308712
11
4.556430
21
293.822000
0
LINE
8
Layer 2
10
4.556430
20
293.822000
11
4.556430
21
293.822000
 0 
ENDSEC
 0 
EOF