999
"DXF R12 Output" (www.mydxf.blogspot.com)
 0 
SECTION
 2 
HEADER
 9 
$ACADVER
 1 
AC1009
 9 
$EXTMIN
 10 
 0 
 20 
 0 
 9 
$EXTMAX
 10 
 8.5 
 20 
 11 
 0 
ENDSEC
 0 
SECTION
 2 
ENTITIES
0
LINE
8
Camada 2
10
43.288700
20
296.991000
11
41.591543
21
296.663477
0
LINE
8
Camada 2
10
41.591543
20
296.663477
11
39.956347
21
295.985938
0
LINE
8
Camada 2
10
39.956347
20
295.985938
11
38.424590
21
295.066055
0
LINE
8
Camada 2
10
38.424590
20
295.066055
11
37.037750
21
294.011500
0
LINE
8
Camada 2
10
37.037750
20
294.011500
11
34.864728
21
291.929062
0
LINE
8
Camada 2
10
34.864728
20
291.929062
11
33.769100
21
290.600000
0
LINE
8
Camada 2
10
33.769100
20
290.600000
11
33.302642
21
290.225047
0
LINE
8
Camada 2
10
33.302642
20
290.225047
11
32.848813
21
290.288375
0
LINE
8
Camada 2
10
32.848813
20
290.288375
11
32.486952
21
290.574266
0
LINE
8
Camada 2
10
32.486952
20
290.574266
11
32.296400
21
290.867000
0
LINE
8
Camada 2
10
32.296400
20
290.867000
11
31.997788
21
291.367018
0
LINE
8
Camada 2
10
31.997788
20
291.367018
11
31.553252
21
291.661453
0
LINE
8
Camada 2
10
31.553252
20
291.661453
11
30.356587
21
291.793375
0
LINE
8
Camada 2
10
30.356587
20
291.793375
11
27.644200
21
291.348000
0
LINE
8
Camada 2
10
27.644200
20
291.348000
11
27.407884
21
292.282656
0
LINE
8
Camada 2
10
27.407884
20
292.282656
11
26.993725
21
293.155250
0
LINE
8
Camada 2
10
26.993725
20
293.155250
11
26.386253
21
293.887969
0
LINE
8
Camada 2
10
26.386253
20
293.887969
11
25.570000
21
294.403000
0
LINE
8
Camada 2
10
25.570000
20
294.403000
11
25.286514
21
295.167760
0
LINE
8
Camada 2
10
25.286514
20
295.167760
11
24.811827
21
295.818766
0
LINE
8
Camada 2
10
24.811827
20
295.818766
11
24.189841
21
296.336857
0
LINE
8
Camada 2
10
24.189841
20
296.336857
11
23.464462
21
296.702875
0
LINE
8
Camada 2
10
23.464462
20
296.702875
11
22.679595
21
296.897658
0
LINE
8
Camada 2
10
22.679595
20
296.897658
11
21.879142
21
296.902047
0
LINE
8
Camada 2
10
21.879142
20
296.902047
11
21.107009
21
296.696881
0
LINE
8
Camada 2
10
21.107009
20
296.696881
11
20.407100
21
296.263000
0
LINE
8
Camada 2
10
20.407100
20
296.263000
11
19.265489
21
295.191031
0
LINE
8
Camada 2
10
19.265489
20
295.191031
11
18.416538
21
293.881500
0
LINE
8
Camada 2
10
18.416538
20
293.881500
11
17.089500
21
291.026000
0
LINE
8
Camada 2
10
17.089500
20
291.026000
11
15.562725
21
292.222500
0
LINE
8
Camada 2
10
15.562725
20
292.222500
11
14.730178
21
292.704781
0
LINE
8
Camada 2
10
14.730178
20
292.704781
11
13.806300
21
292.999000
0
LINE
8
Camada 2
10
13.806300
20
292.999000
11
13.314982
21
294.355656
0
LINE
8
Camada 2
10
13.314982
20
294.355656
11
12.413152
21
295.487500
0
LINE
8
Camada 2
10
12.413152
20
295.487500
11
11.240127
21
296.327594
0
LINE
8
Camada 2
10
11.240127
20
296.327594
11
9.935220
21
296.809000
0
LINE
8
Camada 2
10
9.935220
20
296.809000
11
8.909377
21
296.941477
0
LINE
8
Camada 2
10
8.909377
20
296.941477
11
7.900409
21
296.854813
0
LINE
8
Camada 2
10
7.900409
20
296.854813
11
6.928604
21
296.573242
0
LINE
8
Camada 2
10
6.928604
20
296.573242
11
6.014250
21
296.121000
0
LINE
8
Camada 2
10
6.014250
20
296.121000
11
5.177633
21
295.522320
0
LINE
8
Camada 2
10
5.177633
20
295.522320
11
4.439041
21
294.801437
0
LINE
8
Camada 2
10
4.439041
20
294.801437
11
3.818761
21
293.982586
0
LINE
8
Camada 2
10
3.818761
20
293.982586
11
3.337080
21
293.090000
0
LINE
8
Camada 2
10
3.337080
20
293.090000
11
2.952997
21
292.135924
0
LINE
8
Camada 2
10
2.952997
20
292.135924
11
2.720472
21
291.154427
0
LINE
8
Camada 2
10
2.720472
20
291.154427
11
2.636811
21
289.143635
0
LINE
8
Camada 2
10
2.636811
20
289.143635
11
2.939539
21
287.126558
0
LINE
8
Camada 2
10
2.939539
20
287.126558
11
3.482096
21
285.172130
0
LINE
8
Camada 2
10
3.482096
20
285.172130
11
3.516127
21
284.809822
0
LINE
8
Camada 2
10
3.516127
20
284.809822
11
3.261143
21
284.548450
0
LINE
8
Camada 2
10
3.261143
20
284.548450
11
2.585942
21
284.066560
0
LINE
8
Camada 2
10
2.585942
20
284.066560
11
1.375397
21
282.848215
0
LINE
8
Camada 2
10
1.375397
20
282.848215
11
0.468466
21
281.368647
0
LINE
8
Camada 2
10
0.468466
20
281.368647
11
0.032300
21
279.726341
0
LINE
8
Camada 2
10
0.032300
20
279.726341
11
0.042990
21
278.874937
0
LINE
8
Camada 2
10
0.042990
20
278.874937
11
0.234052
21
278.019780
0
LINE
8
Camada 2
10
0.234052
20
278.019780
11
0.605548
21
277.285316
0
LINE
8
Camada 2
10
0.605548
20
277.285316
11
1.128772
21
276.656984
0
LINE
8
Camada 2
10
1.128772
20
276.656984
11
1.772090
21
276.148889
0
LINE
8
Camada 2
10
1.772090
20
276.148889
11
2.503868
21
275.775136
0
LINE
8
Camada 2
10
2.503868
20
275.775136
11
3.292471
21
275.549831
0
LINE
8
Camada 2
10
3.292471
20
275.549831
11
4.106266
21
275.487080
0
LINE
8
Camada 2
10
4.106266
20
275.487080
11
4.913617
21
275.600988
0
LINE
8
Camada 2
10
4.913617
20
275.600988
11
5.682892
21
275.905660
0
LINE
8
Camada 2
10
5.682892
20
275.905660
11
7.112800
21
276.782898
0
LINE
8
Camada 2
10
7.112800
20
276.782898
11
8.252697
21
277.999437
0
LINE
8
Camada 2
10
8.252697
20
277.999437
11
9.155151
21
279.428575
0
LINE
8
Camada 2
10
9.155151
20
279.428575
11
9.872732
21
280.943610
0
LINE
8
Camada 2
10
9.872732
20
280.943610
11
10.766719
21
280.674705
0
LINE
8
Camada 2
10
10.766719
20
280.674705
11
11.684953
21
280.643008
0
LINE
8
Camada 2
10
11.684953
20
280.643008
11
13.527032
21
280.771735
0
LINE
8
Camada 2
10
13.527032
20
280.771735
11
14.346412
21
280.614920
0
LINE
8
Camada 2
10
14.346412
20
280.614920
11
15.174038
21
280.659621
0
LINE
8
Camada 2
10
15.174038
20
280.659621
11
16.745782
21
281.205329
0
LINE
8
Camada 2
10
16.745782
20
281.205329
11
17.578548
21
280.885709
0
LINE
8
Camada 2
10
17.578548
20
280.885709
11
18.455360
21
280.751275
0
LINE
8
Camada 2
10
18.455360
20
280.751275
11
19.342127
21
280.798946
0
LINE
8
Camada 2
10
19.342127
20
280.798946
11
20.204762
21
281.025641
0
LINE
8
Camada 2
10
20.204762
20
281.025641
11
20.993594
21
280.724004
0
LINE
8
Camada 2
10
20.993594
20
280.724004
11
21.825223
21
280.605610
0
LINE
8
Camada 2
10
21.825223
20
280.605610
11
22.662540
21
280.671841
0
LINE
8
Camada 2
10
22.662540
20
280.671841
11
23.468432
21
280.924079
0
LINE
8
Camada 2
10
23.468432
20
280.924079
11
24.473852
21
280.645200
0
LINE
8
Camada 2
10
24.473852
20
280.645200
11
25.514127
21
280.661830
0
LINE
8
Camada 2
10
25.514127
20
280.661830
11
26.560942
21
280.729120
0
LINE
8
Camada 2
10
26.560942
20
280.729120
11
27.585982
21
280.602223
0
LINE
8
Camada 2
10
27.585982
20
280.602223
11
28.943892
21
280.550275
0
LINE
8
Camada 2
10
28.943892
20
280.550275
11
30.188848
21
280.722704
0
LINE
8
Camada 2
10
30.188848
20
280.722704
11
31.269976
21
281.207903
0
LINE
8
Camada 2
10
31.269976
20
281.207903
11
32.136402
21
282.094263
0
LINE
8
Camada 2
10
32.136402
20
282.094263
11
32.624308
21
282.292652
0
LINE
8
Camada 2
10
32.624308
20
282.292652
11
33.066519
21
282.116793
0
LINE
8
Camada 2
10
33.066519
20
282.116793
11
33.681322
21
281.266138
0
LINE
8
Camada 2
10
33.681322
20
281.266138
11
34.225557
21
280.733635
0
LINE
8
Camada 2
10
34.225557
20
280.733635
11
34.860531
21
280.394441
0
LINE
8
Camada 2
10
34.860531
20
280.394441
11
35.565492
21
280.223958
0
LINE
8
Camada 2
10
35.565492
20
280.223958
11
36.319686
21
280.197588
0
LINE
8
Camada 2
10
36.319686
20
280.197588
11
37.892764
21
280.478793
0
LINE
8
Camada 2
10
37.892764
20
280.478793
11
39.413742
21
281.041268
0
LINE
8
Camada 2
10
39.413742
20
281.041268
11
40.154190
21
280.955731
0
LINE
8
Camada 2
10
40.154190
20
280.955731
11
40.863743
21
280.714100
0
LINE
8
Camada 2
10
40.863743
20
280.714100
11
41.576463
21
280.497290
0
LINE
8
Camada 2
10
41.576463
20
280.497290
11
42.326412
21
280.486216
0
LINE
8
Camada 2
10
42.326412
20
280.486216
11
43.493021
21
280.702047
0
LINE
8
Camada 2
10
43.493021
20
280.702047
11
44.603192
21
281.131111
0
LINE
8
Camada 2
10
44.603192
20
281.131111
11
45.615109
21
280.794448
0
LINE
8
Camada 2
10
45.615109
20
280.794448
11
46.670122
21
280.767743
0
LINE
8
Camada 2
10
46.670122
20
280.767743
11
47.715108
21
280.991081
0
LINE
8
Camada 2
10
47.715108
20
280.991081
11
48.696942
21
281.404549
0
LINE
8
Camada 2
10
48.696942
20
281.404549
11
49.324646
21
281.022749
0
LINE
8
Camada 2
10
49.324646
20
281.022749
11
50.001702
21
280.785304
0
LINE
8
Camada 2
10
50.001702
20
280.785304
11
51.425811
21
280.709704
0
LINE
8
Camada 2
10
51.425811
20
280.709704
11
52.813152
21
281.110207
0
LINE
8
Camada 2
10
52.813152
20
281.110207
11
54.007612
21
281.919269
0
LINE
8
Camada 2
10
54.007612
20
281.919269
11
54.276807
21
281.869031
0
LINE
8
Camada 2
10
54.276807
20
281.869031
11
54.539964
21
281.653260
0
LINE
8
Camada 2
10
54.539964
20
281.653260
11
55.103192
21
281.211189
0
LINE
8
Camada 2
10
55.103192
20
281.211189
11
55.963560
21
280.813011
0
LINE
8
Camada 2
10
55.963560
20
280.813011
11
56.889521
21
280.618182
0
LINE
8
Camada 2
10
56.889521
20
280.618182
11
57.837357
21
280.624153
0
LINE
8
Camada 2
10
57.837357
20
280.624153
11
58.763352
21
280.828377
0
LINE
8
Camada 2
10
58.763352
20
280.828377
11
59.766758
21
280.585971
0
LINE
8
Camada 2
10
59.766758
20
280.585971
11
60.787414
21
280.646748
0
LINE
8
Camada 2
10
60.787414
20
280.646748
11
61.779927
21
280.944336
0
LINE
8
Camada 2
10
61.779927
20
280.944336
11
62.698902
21
281.412361
0
LINE
8
Camada 2
10
62.698902
20
281.412361
11
63.673416
21
280.795203
0
LINE
8
Camada 2
10
63.673416
20
280.795203
11
64.784219
21
280.512647
0
LINE
8
Camada 2
10
64.784219
20
280.512647
11
65.929024
21
280.573503
0
LINE
8
Camada 2
10
65.929024
20
280.573503
11
67.005542
21
280.986580
0
LINE
8
Camada 2
10
67.005542
20
280.986580
11
67.860244
21
280.749646
0
LINE
8
Camada 2
10
67.860244
20
280.749646
11
68.740222
21
280.679582
0
LINE
8
Camada 2
10
68.740222
20
280.679582
11
70.480152
21
280.982680
0
LINE
8
Camada 2
10
70.480152
20
280.982680
11
71.515159
21
280.642997
0
LINE
8
Camada 2
10
71.515159
20
280.642997
11
72.574574
21
280.517612
0
LINE
8
Camada 2
10
72.574574
20
280.517612
11
73.636154
21
280.588077
0
LINE
8
Camada 2
10
73.636154
20
280.588077
11
74.677652
21
280.835945
0
LINE
8
Camada 2
10
74.677652
20
280.835945
11
75.676824
21
281.242768
0
LINE
8
Camada 2
10
75.676824
20
281.242768
11
76.611424
21
281.790098
0
LINE
8
Camada 2
10
76.611424
20
281.790098
11
77.459209
21
282.459488
0
LINE
8
Camada 2
10
77.459209
20
282.459488
11
78.197932
21
283.232490
0
LINE
8
Camada 2
10
78.197932
20
283.232490
11
78.989372
21
284.229032
0
LINE
8
Camada 2
10
78.989372
20
284.229032
11
79.448983
21
285.438724
0
LINE
8
Camada 2
10
79.448983
20
285.438724
11
79.436043
21
286.685583
0
LINE
8
Camada 2
10
79.436043
20
286.685583
11
79.208391
21
287.267957
0
LINE
8
Camada 2
10
79.208391
20
287.267957
11
78.809830
21
287.793630
0
LINE
8
Camada 2
10
78.809830
20
287.793630
11
77.966627
21
288.398347
0
LINE
8
Camada 2
10
77.966627
20
288.398347
11
77.104700
21
288.910330
0
LINE
8
Camada 2
10
77.104700
20
288.910330
11
76.888687
21
289.643891
0
LINE
8
Camada 2
10
76.888687
20
289.643891
11
76.473253
21
290.275050
0
LINE
8
Camada 2
10
76.473253
20
290.275050
11
75.904960
21
290.781633
0
LINE
8
Camada 2
10
75.904960
20
290.781633
11
75.230370
21
291.141469
0
LINE
8
Camada 2
10
75.230370
20
291.141469
11
74.496047
21
291.332383
0
LINE
8
Camada 2
10
74.496047
20
291.332383
11
73.748552
21
291.332203
0
LINE
8
Camada 2
10
73.748552
20
291.332203
11
73.034449
21
291.118757
0
LINE
8
Camada 2
10
73.034449
20
291.118757
11
72.400300
21
290.669870
0
LINE
8
Camada 2
10
72.400300
20
290.669870
11
71.331225
21
291.087813
0
LINE
8
Camada 2
10
71.331225
20
291.087813
11
70.186251
21
291.198826
0
LINE
8
Camada 2
10
70.186251
20
291.198826
11
69.045217
21
291.012724
0
LINE
8
Camada 2
10
69.045217
20
291.012724
11
67.987960
21
290.539323
0
LINE
8
Camada 2
10
67.987960
20
290.539323
11
67.649030
21
290.429650
0
LINE
8
Camada 2
10
67.649030
20
290.429650
11
67.339796
21
290.613184
0
LINE
8
Camada 2
10
67.339796
20
290.613184
11
67.029449
21
290.894554
0
LINE
8
Camada 2
10
67.029449
20
290.894554
11
66.687180
21
291.078386
0
LINE
8
Camada 2
10
66.687180
20
291.078386
11
65.768883
21
291.365648
0
LINE
8
Camada 2
10
65.768883
20
291.365648
11
64.812067
21
291.365728
0
LINE
8
Camada 2
10
64.812067
20
291.365728
11
63.892418
21
291.094694
0
LINE
8
Camada 2
10
63.892418
20
291.094694
11
63.085620
21
290.568620
0
LINE
8
Camada 2
10
63.085620
20
290.568620
11
62.382020
21
290.947744
0
LINE
8
Camada 2
10
62.382020
20
290.947744
11
61.638677
21
291.183998
0
LINE
8
Camada 2
10
61.638677
20
291.183998
11
60.088940
21
291.275230
0
LINE
8
Camada 2
10
60.088940
20
291.275230
11
58.548773
21
290.936985
0
LINE
8
Camada 2
10
58.548773
20
290.936985
11
57.130540
21
290.263933
0
LINE
8
Camada 2
10
57.130540
20
290.263933
11
56.181640
21
290.682136
0
LINE
8
Camada 2
10
56.181640
20
290.682136
11
55.162762
21
290.758177
0
LINE
8
Camada 2
10
55.162762
20
290.758177
11
54.131192
21
290.591003
0
LINE
8
Camada 2
10
54.131192
20
290.591003
11
53.144210
21
290.279563
0
LINE
8
Camada 2
10
53.144210
20
290.279563
11
52.810891
21
290.727593
0
LINE
8
Camada 2
10
52.810891
20
290.727593
11
52.791216
21
291.245419
0
LINE
8
Camada 2
10
52.791216
20
291.245419
11
53.176960
21
292.286153
0
LINE
8
Camada 2
10
53.176960
20
292.286153
11
53.351876
21
293.004286
0
LINE
8
Camada 2
10
53.351876
20
293.004286
11
53.367839
21
293.744721
0
LINE
8
Camada 2
10
53.367839
20
293.744721
11
52.963245
21
295.164519
0
LINE
8
Camada 2
10
52.963245
20
295.164519
11
52.562853
21
295.779895
0
LINE
8
Camada 2
10
52.562853
20
295.779895
11
52.043843
21
296.289596
0
LINE
8
Camada 2
10
52.043843
20
296.289596
11
51.416298
21
296.661629
0
LINE
8
Camada 2
10
51.416298
20
296.661629
11
50.690300
21
296.864000
0
LINE
8
Camada 2
10
50.690300
20
296.864000
11
49.785592
21
297.002609
0
LINE
8
Camada 2
10
49.785592
20
297.002609
11
48.928162
21
297.001625
0
LINE
8
Camada 2
10
48.928162
20
297.001625
11
48.141627
21
296.789328
0
LINE
8
Camada 2
10
48.141627
20
296.789328
11
47.449600
21
296.294000
0
LINE
8
Camada 2
10
47.449600
20
296.294000
11
46.542580
21
296.843766
0
LINE
8
Camada 2
10
46.542580
20
296.843766
11
45.507712
21
297.055375
0
LINE
8
Camada 2
10
45.507712
20
297.055375
11
43.288700
21
296.991000
0
LINE
8
Camada 2
10
43.288700
20
296.991000
11
43.288700
21
296.991000
0
LINE
8
Layer 2
10
4.210770
20
294.520000
11
4.079228
21
293.857623
0
LINE
8
Layer 2
10
4.079228
20
293.857623
11
3.704170
21
293.296039
0
LINE
8
Layer 2
10
3.704170
20
293.296039
11
3.142719
21
292.920779
0
LINE
8
Layer 2
10
3.142719
20
292.920779
11
2.480390
21
292.789000
0
LINE
8
Layer 2
10
2.480390
20
292.789000
11
1.818057
21
292.920776
0
LINE
8
Layer 2
10
1.818057
20
292.920776
11
1.256604
21
293.296035
0
LINE
8
Layer 2
10
1.256604
20
293.296035
11
0.881543
21
293.857621
0
LINE
8
Layer 2
10
0.881543
20
293.857621
11
0.750000
21
294.520000
0
LINE
8
Layer 2
10
0.750000
20
294.520000
11
0.886095
21
295.193421
0
LINE
8
Layer 2
10
0.886095
20
295.193421
11
1.256957
21
295.743318
0
LINE
8
Layer 2
10
1.256957
20
295.743318
11
1.806939
21
296.114057
0
LINE
8
Layer 2
10
1.806939
20
296.114057
11
2.480390
21
296.250000
0
LINE
8
Layer 2
10
2.480390
20
296.250000
11
3.153838
21
296.114054
0
LINE
8
Layer 2
10
3.153838
20
296.114054
11
3.703816
21
295.743315
0
LINE
8
Layer 2
10
3.703816
20
295.743315
11
4.074676
21
295.193418
0
LINE
8
Layer 2
10
4.074676
20
295.193418
11
4.210770
21
294.520000
0
LINE
8
Layer 2
10
4.210770
20
294.520000
11
4.210770
21
294.520000
0
LINE
8
Layer 2
10
3.430580
20
294.529000
11
3.353842
21
294.149089
0
LINE
8
Layer 2
10
3.353842
20
294.149089
11
3.144646
21
293.838856
0
LINE
8
Layer 2
10
3.144646
20
293.838856
11
2.834390
21
293.629695
0
LINE
8
Layer 2
10
2.834390
20
293.629695
11
2.454470
21
293.553000
0
LINE
8
Layer 2
10
2.454470
20
293.553000
11
2.074553
21
293.629698
0
LINE
8
Layer 2
10
2.074553
20
293.629698
11
1.764300
21
293.838859
0
LINE
8
Layer 2
10
1.764300
20
293.838859
11
1.555107
21
294.149091
0
LINE
8
Layer 2
10
1.555107
20
294.149091
11
1.478370
21
294.529000
0
LINE
8
Layer 2
10
1.478370
20
294.529000
11
1.555107
21
294.908909
0
LINE
8
Layer 2
10
1.555107
20
294.908909
11
1.764300
21
295.219141
0
LINE
8
Layer 2
10
1.764300
20
295.219141
11
2.074553
21
295.428302
0
LINE
8
Layer 2
10
2.074553
20
295.428302
11
2.454470
21
295.505000
0
LINE
8
Layer 2
10
2.454470
20
295.505000
11
2.834390
21
295.428305
0
LINE
8
Layer 2
10
2.834390
20
295.428305
11
3.144646
21
295.219144
0
LINE
8
Layer 2
10
3.144646
20
295.219144
11
3.353842
21
294.908911
0
LINE
8
Layer 2
10
3.353842
20
294.908911
11
3.430580
21
294.529000
0
LINE
8
Layer 2
10
3.430580
20
294.529000
11
3.430580
21
294.529000
0
LINE
8
Layer 1
10
47.947500
20
294.888000
11
47.675600
21
294.792000
0
LINE
8
Layer 1
10
47.675600
20
294.792000
11
46.301100
21
293.726000
0
LINE
8
Layer 1
10
46.301100
20
293.726000
11
46.130850
21
293.424000
0
LINE
8
Layer 1
10
46.130850
20
293.424000
11
46.221000
21
293.089000
0
LINE
8
Layer 1
10
46.221000
20
293.089000
11
46.523925
21
292.917500
0
LINE
8
Layer 1
10
46.523925
20
292.917500
11
46.859700
21
293.007000
0
LINE
8
Layer 1
10
46.859700
20
293.007000
11
48.234300
21
294.075000
0
LINE
8
Layer 1
10
48.234300
20
294.075000
11
48.404475
21
294.377375
0
LINE
8
Layer 1
10
48.404475
20
294.377375
11
48.314400
21
294.712000
0
LINE
8
Layer 1
10
48.314400
20
294.712000
11
47.947500
21
294.888000
0
LINE
8
Layer 1
10
47.947500
20
294.888000
11
47.947500
21
294.888000
0
LINE
8
Layer 1
10
43.773600
20
294.149000
11
42.877000
21
294.050000
0
LINE
8
Layer 1
10
42.877000
20
294.050000
11
42.029500
21
293.853000
0
LINE
8
Layer 1
10
42.029500
20
293.853000
11
42.025300
21
293.853000
0
LINE
8
Layer 1
10
42.025300
20
293.853000
11
42.023300
21
293.851000
0
LINE
8
Layer 1
10
42.023300
20
293.851000
11
40.501125
21
293.213750
0
LINE
8
Layer 1
10
40.501125
20
293.213750
11
39.136600
21
292.290000
0
LINE
8
Layer 1
10
39.136600
20
292.290000
11
37.952112
21
291.158500
0
LINE
8
Layer 1
10
37.952112
20
291.158500
11
36.943500
21
289.880000
0
LINE
8
Layer 1
10
36.943500
20
289.880000
11
36.042800
21
288.353000
0
LINE
8
Layer 1
10
36.042800
20
288.353000
11
36.041200
21
288.351000
0
LINE
8
Layer 1
10
36.041200
20
288.351000
11
36.041200
21
288.349000
0
LINE
8
Layer 1
10
36.041200
20
288.349000
11
35.466600
21
286.647000
0
LINE
8
Layer 1
10
35.466600
20
286.647000
11
35.308400
21
285.374000
0
LINE
8
Layer 1
10
35.308400
20
285.374000
11
35.511500
21
284.083000
0
LINE
8
Layer 1
10
35.511500
20
284.083000
11
35.828300
21
283.407000
0
LINE
8
Layer 1
10
35.828300
20
283.407000
11
35.834000
21
283.397000
0
LINE
8
Layer 1
10
35.834000
20
283.397000
11
35.839700
21
283.392000
0
LINE
8
Layer 1
10
35.839700
20
283.392000
11
36.396700
21
282.876000
0
LINE
8
Layer 1
10
36.396700
20
282.876000
11
37.146600
21
282.570000
0
LINE
8
Layer 1
10
37.146600
20
282.570000
11
37.154300
21
282.570000
0
LINE
8
Layer 1
10
37.154300
20
282.570000
11
37.162100
21
282.568000
0
LINE
8
Layer 1
10
37.162100
20
282.568000
11
37.955300
21
282.589000
0
LINE
8
Layer 1
10
37.955300
20
282.589000
11
37.957400
21
282.589000
0
LINE
8
Layer 1
10
37.957400
20
282.589000
11
38.787663
21
282.824500
0
LINE
8
Layer 1
10
38.787663
20
282.824500
11
39.554700
21
283.243000
0
LINE
8
Layer 1
10
39.554700
20
283.243000
11
40.832100
21
284.304000
0
LINE
8
Layer 1
10
40.832100
20
284.304000
11
40.836300
21
284.307000
0
LINE
8
Layer 1
10
40.836300
20
284.307000
11
41.501900
21
285.021000
0
LINE
8
Layer 1
10
41.501900
20
285.021000
11
41.376800
21
284.612000
0
LINE
8
Layer 1
10
41.376800
20
284.612000
11
41.376800
21
284.608000
0
LINE
8
Layer 1
10
41.376800
20
284.608000
11
41.375300
21
284.605000
0
LINE
8
Layer 1
10
41.375300
20
284.605000
11
41.234200
21
283.919000
0
LINE
8
Layer 1
10
41.234200
20
283.919000
11
41.302900
21
283.187000
0
LINE
8
Layer 1
10
41.302900
20
283.187000
11
41.491438
21
282.807000
0
LINE
8
Layer 1
10
41.491438
20
282.807000
11
41.806800
21
282.538000
0
LINE
8
Layer 1
10
41.806800
20
282.538000
11
41.814500
21
282.534000
0
LINE
8
Layer 1
10
41.814500
20
282.534000
11
41.824300
21
282.530000
0
LINE
8
Layer 1
10
41.824300
20
282.530000
11
42.586000
21
282.415000
0
LINE
8
Layer 1
10
42.586000
20
282.415000
11
43.275400
21
282.638000
0
LINE
8
Layer 1
10
43.275400
20
282.638000
11
43.838200
21
282.999000
0
LINE
8
Layer 1
10
43.838200
20
282.999000
11
43.841800
21
283.001000
0
LINE
8
Layer 1
10
43.841800
20
283.001000
11
44.574000
21
283.636000
0
LINE
8
Layer 1
10
44.574000
20
283.636000
11
45.256200
21
284.357000
0
LINE
8
Layer 1
10
45.256200
20
284.357000
11
45.257700
21
284.359000
0
LINE
8
Layer 1
10
45.257700
20
284.359000
11
45.590000
21
284.749000
0
LINE
8
Layer 1
10
45.590000
20
284.749000
11
45.509900
21
283.976000
0
LINE
8
Layer 1
10
45.509900
20
283.976000
11
45.509900
21
283.974000
0
LINE
8
Layer 1
10
45.509900
20
283.974000
11
45.752200
21
283.136000
0
LINE
8
Layer 1
10
45.752200
20
283.136000
11
46.104475
21
282.788750
0
LINE
8
Layer 1
10
46.104475
20
282.788750
11
46.599700
21
282.665000
0
LINE
8
Layer 1
10
46.599700
20
282.665000
11
47.203300
21
282.788000
0
LINE
8
Layer 1
10
47.203300
20
282.788000
11
47.652400
21
283.075000
0
LINE
8
Layer 1
10
47.652400
20
283.075000
11
48.218800
21
283.560000
0
LINE
8
Layer 1
10
48.218800
20
283.560000
11
48.740200
21
284.102000
0
LINE
8
Layer 1
10
48.740200
20
284.102000
11
49.381000
21
284.780000
0
LINE
8
Layer 1
10
49.381000
20
284.780000
11
49.386600
21
284.788000
0
LINE
8
Layer 1
10
49.386600
20
284.788000
11
49.541200
21
284.981000
0
LINE
8
Layer 1
10
49.541200
20
284.981000
11
49.605800
21
285.056000
0
LINE
8
Layer 1
10
49.605800
20
285.056000
11
49.611400
21
285.059000
0
LINE
8
Layer 1
10
49.611400
20
285.059000
11
49.621300
21
285.064000
0
LINE
8
Layer 1
10
49.621300
20
285.064000
11
49.629000
21
285.071000
0
LINE
8
Layer 1
10
49.629000
20
285.071000
11
49.808800
21
285.249000
0
LINE
8
Layer 1
10
49.808800
20
285.249000
11
49.949400
21
285.427000
0
LINE
8
Layer 1
10
49.949400
20
285.427000
11
50.039300
21
285.536000
0
LINE
8
Layer 1
10
50.039300
20
285.536000
11
50.185100
21
285.719000
0
LINE
8
Layer 1
10
50.185100
20
285.719000
11
51.132800
21
286.763000
0
LINE
8
Layer 1
10
51.132800
20
286.763000
11
51.136900
21
286.765000
0
LINE
8
Layer 1
10
51.136900
20
286.765000
11
51.140500
21
286.770000
0
LINE
8
Layer 1
10
51.140500
20
286.770000
11
51.574600
21
287.134000
0
LINE
8
Layer 1
10
51.574600
20
287.134000
11
51.595800
21
287.148000
0
LINE
8
Layer 1
10
51.595800
20
287.148000
11
51.613400
21
287.165000
0
LINE
8
Layer 1
10
51.613400
20
287.165000
11
51.628900
21
287.179000
0
LINE
8
Layer 1
10
51.628900
20
287.179000
11
51.619100
21
287.106000
0
LINE
8
Layer 1
10
51.619100
20
287.106000
11
51.615500
21
287.099000
0
LINE
8
Layer 1
10
51.615500
20
287.099000
11
51.613400
21
287.089000
0
LINE
8
Layer 1
10
51.613400
20
287.089000
11
51.513700
21
286.792000
0
LINE
8
Layer 1
10
51.513700
20
286.792000
11
51.511600
21
286.784000
0
LINE
8
Layer 1
10
51.511600
20
286.784000
11
51.508000
21
286.778000
0
LINE
8
Layer 1
10
51.508000
20
286.778000
11
51.427900
21
286.557000
0
LINE
8
Layer 1
10
51.427900
20
286.557000
11
51.080100
21
285.770000
0
LINE
8
Layer 1
10
51.080100
20
285.770000
11
51.078000
21
285.767000
0
LINE
8
Layer 1
10
51.078000
20
285.767000
11
51.076000
21
285.763000
0
LINE
8
Layer 1
10
51.076000
20
285.763000
11
50.707000
21
284.948000
0
LINE
8
Layer 1
10
50.707000
20
284.948000
11
50.414000
21
284.222000
0
LINE
8
Layer 1
10
50.414000
20
284.222000
11
50.411900
21
284.216000
0
LINE
8
Layer 1
10
50.411900
20
284.216000
11
50.409800
21
284.212000
0
LINE
8
Layer 1
10
50.409800
20
284.212000
11
50.324100
21
283.348000
0
LINE
8
Layer 1
10
50.324100
20
283.348000
11
50.324100
21
283.343000
0
LINE
8
Layer 1
10
50.324100
20
283.343000
11
50.324100
21
283.337000
0
LINE
8
Layer 1
10
50.324100
20
283.337000
11
50.675500
21
282.749000
0
LINE
8
Layer 1
10
50.675500
20
282.749000
11
51.333800
21
282.589000
0
LINE
8
Layer 1
10
51.333800
20
282.589000
11
51.335900
21
282.589000
0
LINE
8
Layer 1
10
51.335900
20
282.589000
11
51.763800
21
282.702000
0
LINE
8
Layer 1
10
51.763800
20
282.702000
11
51.767400
21
282.702000
0
LINE
8
Layer 1
10
51.767400
20
282.702000
11
52.152400
21
282.886000
0
LINE
8
Layer 1
10
52.152400
20
282.886000
11
52.154400
21
282.886000
0
LINE
8
Layer 1
10
52.154400
20
282.886000
11
52.156500
21
282.887000
0
LINE
8
Layer 1
10
52.156500
20
282.887000
11
52.607600
21
283.196000
0
LINE
8
Layer 1
10
52.607600
20
283.196000
11
52.609200
21
283.198000
0
LINE
8
Layer 1
10
52.609200
20
283.198000
11
53.035000
21
283.546000
0
LINE
8
Layer 1
10
53.035000
20
283.546000
11
53.039100
21
283.548000
0
LINE
8
Layer 1
10
53.039100
20
283.548000
11
53.921800
21
284.431000
0
LINE
8
Layer 1
10
53.921800
20
284.431000
11
53.925900
21
284.435000
0
LINE
8
Layer 1
10
53.925900
20
284.435000
11
54.292800
21
284.865000
0
LINE
8
Layer 1
10
54.292800
20
284.865000
11
54.556900
21
284.288000
0
LINE
8
Layer 1
10
54.556900
20
284.288000
11
55.199200
21
283.968000
0
LINE
8
Layer 1
10
55.199200
20
283.968000
11
55.863300
21
284.036000
0
LINE
8
Layer 1
10
55.863300
20
284.036000
11
55.865300
21
284.038000
0
LINE
8
Layer 1
10
55.865300
20
284.038000
11
56.187800
21
284.203000
0
LINE
8
Layer 1
10
56.187800
20
284.203000
11
56.152600
21
284.019000
0
LINE
8
Layer 1
10
56.152600
20
284.019000
11
56.152600
21
284.011000
0
LINE
8
Layer 1
10
56.152600
20
284.011000
11
56.152600
21
284.005000
0
LINE
8
Layer 1
10
56.152600
20
284.005000
11
56.261700
21
283.331000
0
LINE
8
Layer 1
10
56.261700
20
283.331000
11
56.263700
21
283.325000
0
LINE
8
Layer 1
10
56.263700
20
283.325000
11
56.265800
21
283.317000
0
LINE
8
Layer 1
10
56.265800
20
283.317000
11
56.746400
21
282.741000
0
LINE
8
Layer 1
10
56.746400
20
282.741000
11
57.169812
21
282.559500
0
LINE
8
Layer 1
10
57.169812
20
282.559500
11
57.634700
21
282.528000
0
LINE
8
Layer 1
10
57.634700
20
282.528000
11
57.640900
21
282.530000
0
LINE
8
Layer 1
10
57.640900
20
282.530000
11
57.646600
21
282.530000
0
LINE
8
Layer 1
10
57.646600
20
282.530000
11
58.445500
21
282.763000
0
LINE
8
Layer 1
10
58.445500
20
282.763000
11
58.453300
21
282.767000
0
LINE
8
Layer 1
10
58.453300
20
282.767000
11
58.459500
21
282.771000
0
LINE
8
Layer 1
10
58.459500
20
282.771000
11
59.221200
21
283.325000
0
LINE
8
Layer 1
10
59.221200
20
283.325000
11
59.399000
21
283.520000
0
LINE
8
Layer 1
10
59.399000
20
283.520000
11
59.394800
21
283.369000
0
LINE
8
Layer 1
10
59.394800
20
283.369000
11
59.394800
21
283.361000
0
LINE
8
Layer 1
10
59.394800
20
283.361000
11
59.396900
21
283.355000
0
LINE
8
Layer 1
10
59.396900
20
283.355000
11
59.596250
21
282.910125
0
LINE
8
Layer 1
10
59.596250
20
282.910125
11
60.000500
21
282.610000
0
LINE
8
Layer 1
10
60.000500
20
282.610000
11
60.453175
21
282.492750
0
LINE
8
Layer 1
10
60.453175
20
282.492750
11
60.904800
21
282.563000
0
LINE
8
Layer 1
10
60.904800
20
282.563000
11
60.906900
21
282.565000
0
LINE
8
Layer 1
10
60.906900
20
282.565000
11
60.910500
21
282.568000
0
LINE
8
Layer 1
10
60.910500
20
282.568000
11
61.601900
21
282.986000
0
LINE
8
Layer 1
10
61.601900
20
282.986000
11
61.606100
21
282.990000
0
LINE
8
Layer 1
10
61.606100
20
282.990000
11
62.342400
21
283.685000
0
LINE
8
Layer 1
10
62.342400
20
283.685000
11
62.994600
21
284.416000
0
LINE
8
Layer 1
10
62.994600
20
284.416000
11
63.268000
21
284.728000
0
LINE
8
Layer 1
10
63.268000
20
284.728000
11
63.273700
21
284.734000
0
LINE
8
Layer 1
10
63.273700
20
284.734000
11
63.539300
21
285.037000
0
LINE
8
Layer 1
10
63.539300
20
285.037000
11
63.635400
21
285.130000
0
LINE
8
Layer 1
10
63.635400
20
285.130000
11
63.648800
21
285.152000
0
LINE
8
Layer 1
10
63.648800
20
285.152000
11
63.666400
21
285.183000
0
LINE
8
Layer 1
10
63.666400
20
285.183000
11
63.674100
21
285.191000
0
LINE
8
Layer 1
10
63.674100
20
285.191000
11
63.676200
21
285.193000
0
LINE
8
Layer 1
10
63.676200
20
285.193000
11
64.047300
21
285.583000
0
LINE
8
Layer 1
10
64.047300
20
285.583000
11
64.053500
21
285.589000
0
LINE
8
Layer 1
10
64.053500
20
285.589000
11
64.699900
21
286.332000
0
LINE
8
Layer 1
10
64.699900
20
286.332000
11
65.201700
21
286.921000
0
LINE
8
Layer 1
10
65.201700
20
286.921000
11
65.328800
21
286.783000
0
LINE
8
Layer 1
10
65.328800
20
286.783000
11
65.332400
21
286.781000
0
LINE
8
Layer 1
10
65.332400
20
286.781000
11
65.336600
21
286.779000
0
LINE
8
Layer 1
10
65.336600
20
286.779000
11
65.754600
21
286.691000
0
LINE
8
Layer 1
10
65.754600
20
286.691000
11
65.768100
21
286.689000
0
LINE
8
Layer 1
10
65.768100
20
286.689000
11
66.053300
21
286.689000
0
LINE
8
Layer 1
10
66.053300
20
286.689000
11
66.035800
21
286.611000
0
LINE
8
Layer 1
10
66.035800
20
286.611000
11
65.863700
21
286.265000
0
LINE
8
Layer 1
10
65.863700
20
286.265000
11
65.607900
21
285.847000
0
LINE
8
Layer 1
10
65.607900
20
285.847000
11
65.602200
21
285.839000
0
LINE
8
Layer 1
10
65.602200
20
285.839000
11
65.598100
21
285.831000
0
LINE
8
Layer 1
10
65.598100
20
285.831000
11
65.357800
21
285.425000
0
LINE
8
Layer 1
10
65.357800
20
285.425000
11
64.856000
21
284.613000
0
LINE
8
Layer 1
10
64.856000
20
284.613000
11
64.851900
21
284.609000
0
LINE
8
Layer 1
10
64.851900
20
284.609000
11
64.849800
21
284.605000
0
LINE
8
Layer 1
10
64.849800
20
284.605000
11
64.516000
21
283.644000
0
LINE
8
Layer 1
10
64.516000
20
283.644000
11
64.516000
21
283.638000
0
LINE
8
Layer 1
10
64.516000
20
283.638000
11
64.513900
21
283.630000
0
LINE
8
Layer 1
10
64.513900
20
283.630000
11
64.513900
21
283.230000
0
LINE
8
Layer 1
10
64.513900
20
283.230000
11
64.516000
21
283.216000
0
LINE
8
Layer 1
10
64.516000
20
283.216000
11
64.520100
21
283.203000
0
LINE
8
Layer 1
10
64.520100
20
283.203000
11
64.654500
21
282.820000
0
LINE
8
Layer 1
10
64.654500
20
282.820000
11
64.664300
21
282.802000
0
LINE
8
Layer 1
10
64.664300
20
282.802000
11
64.674100
21
282.787000
0
LINE
8
Layer 1
10
64.674100
20
282.787000
11
64.984700
21
282.503000
0
LINE
8
Layer 1
10
64.984700
20
282.503000
11
64.990900
21
282.499000
0
LINE
8
Layer 1
10
64.990900
20
282.499000
11
64.996500
21
282.497000
0
LINE
8
Layer 1
10
64.996500
20
282.497000
11
65.494700
21
282.416000
0
LINE
8
Layer 1
10
65.494700
20
282.416000
11
65.502500
21
282.416000
0
LINE
8
Layer 1
10
65.502500
20
282.416000
11
65.508100
21
282.416000
0
LINE
8
Layer 1
10
65.508100
20
282.416000
11
66.096200
21
282.652000
0
LINE
8
Layer 1
10
66.096200
20
282.652000
11
66.551500
21
282.988000
0
LINE
8
Layer 1
10
66.551500
20
282.988000
11
67.190200
21
283.585000
0
LINE
8
Layer 1
10
67.190200
20
283.585000
11
67.547300
21
283.992000
0
LINE
8
Layer 1
10
67.547300
20
283.992000
11
67.662500
21
283.400000
0
LINE
8
Layer 1
10
67.662500
20
283.400000
11
68.103900
21
282.847000
0
LINE
8
Layer 1
10
68.103900
20
282.847000
11
68.113700
21
282.839000
0
LINE
8
Layer 1
10
68.113700
20
282.839000
11
68.123500
21
282.833000
0
LINE
8
Layer 1
10
68.123500
20
282.833000
11
68.778200
21
282.607000
0
LINE
8
Layer 1
10
68.778200
20
282.607000
11
68.779800
21
282.607000
0
LINE
8
Layer 1
10
68.779800
20
282.607000
11
69.476287
21
282.634500
0
LINE
8
Layer 1
10
69.476287
20
282.634500
11
70.137300
21
282.884000
0
LINE
8
Layer 1
10
70.137300
20
282.884000
11
70.141500
21
282.886000
0
LINE
8
Layer 1
10
70.141500
20
282.886000
11
70.877800
21
283.364000
0
LINE
8
Layer 1
10
70.877800
20
283.364000
11
70.901100
21
283.343000
0
LINE
8
Layer 1
10
70.901100
20
283.343000
11
70.913000
21
283.335000
0
LINE
8
Layer 1
10
70.913000
20
283.335000
11
70.922800
21
283.326000
0
LINE
8
Layer 1
10
70.922800
20
283.326000
11
71.594600
21
282.814000
0
LINE
8
Layer 1
10
71.594600
20
282.814000
11
71.600300
21
282.810000
0
LINE
8
Layer 1
10
71.600300
20
282.810000
11
71.608000
21
282.806000
0
LINE
8
Layer 1
10
71.608000
20
282.806000
11
72.434300
21
282.497000
0
LINE
8
Layer 1
10
72.434300
20
282.497000
11
72.434300
21
282.495000
0
LINE
8
Layer 1
10
72.434300
20
282.495000
11
73.321150
21
282.418250
0
LINE
8
Layer 1
10
73.321150
20
282.418250
11
74.188200
21
282.601000
0
LINE
8
Layer 1
10
74.188200
20
282.601000
11
74.190300
21
282.601000
0
LINE
8
Layer 1
10
74.190300
20
282.601000
11
74.192400
21
282.603000
0
LINE
8
Layer 1
10
74.192400
20
282.603000
11
75.692000
21
283.443000
0
LINE
8
Layer 1
10
75.692000
20
283.443000
11
75.696200
21
283.445000
0
LINE
8
Layer 1
10
75.696200
20
283.445000
11
76.325100
21
283.976000
0
LINE
8
Layer 1
10
76.325100
20
283.976000
11
76.329200
21
283.980000
0
LINE
8
Layer 1
10
76.329200
20
283.980000
11
76.330700
21
283.982000
0
LINE
8
Layer 1
10
76.330700
20
283.982000
11
76.899200
21
284.589000
0
LINE
8
Layer 1
10
76.899200
20
284.589000
11
77.129700
21
284.879000
0
LINE
8
Layer 1
10
77.129700
20
284.879000
11
77.143600
21
284.896000
0
LINE
8
Layer 1
10
77.143600
20
284.896000
11
77.370000
21
285.179000
0
LINE
8
Layer 1
10
77.370000
20
285.179000
11
77.376200
21
285.185000
0
LINE
8
Layer 1
10
77.376200
20
285.185000
11
77.377700
21
285.191000
0
LINE
8
Layer 1
10
77.377700
20
285.191000
11
77.459900
21
285.537000
0
LINE
8
Layer 1
10
77.459900
20
285.537000
11
77.258800
21
285.816000
0
LINE
8
Layer 1
10
77.258800
20
285.816000
11
76.918800
21
285.921000
0
LINE
8
Layer 1
10
76.918800
20
285.921000
11
76.608200
21
285.732000
0
LINE
8
Layer 1
10
76.608200
20
285.732000
11
76.604600
21
285.726000
0
LINE
8
Layer 1
10
76.604600
20
285.726000
11
76.600500
21
285.720000
0
LINE
8
Layer 1
10
76.600500
20
285.720000
11
75.565400
21
284.556000
0
LINE
8
Layer 1
10
75.565400
20
284.556000
11
74.821300
21
283.960000
0
LINE
8
Layer 1
10
74.821300
20
283.960000
11
74.532400
21
283.812000
0
LINE
8
Layer 1
10
74.532400
20
283.812000
11
74.618200
21
284.068000
0
LINE
8
Layer 1
10
74.618200
20
284.068000
11
74.618200
21
284.070000
0
LINE
8
Layer 1
10
74.618200
20
284.070000
11
74.678600
21
284.935000
0
LINE
8
Layer 1
10
74.678600
20
284.935000
11
74.678600
21
284.943000
0
LINE
8
Layer 1
10
74.678600
20
284.943000
11
74.659000
21
285.923000
0
LINE
8
Layer 1
10
74.659000
20
285.923000
11
74.639900
21
286.839000
0
LINE
8
Layer 1
10
74.639900
20
286.839000
11
74.639900
21
286.841000
0
LINE
8
Layer 1
10
74.639900
20
286.841000
11
74.676600
21
287.242000
0
LINE
8
Layer 1
10
74.676600
20
287.242000
11
74.753100
21
287.529000
0
LINE
8
Layer 1
10
74.753100
20
287.529000
11
74.755100
21
287.533000
0
LINE
8
Layer 1
10
74.755100
20
287.533000
11
74.757200
21
287.537000
0
LINE
8
Layer 1
10
74.757200
20
287.537000
11
74.790300
21
287.583000
0
LINE
8
Layer 1
10
74.790300
20
287.583000
11
74.803700
21
287.595000
0
LINE
8
Layer 1
10
74.803700
20
287.595000
11
74.817700
21
287.607000
0
LINE
8
Layer 1
10
74.817700
20
287.607000
11
74.977900
21
287.849000
0
LINE
8
Layer 1
10
74.977900
20
287.849000
11
75.014500
21
288.167000
0
LINE
8
Layer 1
10
75.014500
20
288.167000
11
74.827500
21
288.425000
0
LINE
8
Layer 1
10
74.827500
20
288.425000
11
74.497300
21
288.521000
0
LINE
8
Layer 1
10
74.497300
20
288.521000
11
74.202200
21
288.351000
0
LINE
8
Layer 1
10
74.202200
20
288.351000
11
74.200100
21
288.349000
0
LINE
8
Layer 1
10
74.200100
20
288.349000
11
73.969600
21
288.079000
0
LINE
8
Layer 1
10
73.969600
20
288.079000
11
73.101500
21
287.060000
0
LINE
8
Layer 1
10
73.101500
20
287.060000
11
72.246200
21
286.070000
0
LINE
8
Layer 1
10
72.246200
20
286.070000
11
72.123200
21
285.946000
0
LINE
8
Layer 1
10
72.123200
20
285.946000
11
71.953200
21
285.747000
0
LINE
8
Layer 1
10
71.953200
20
285.747000
11
71.951200
21
285.745000
0
LINE
8
Layer 1
10
71.951200
20
285.745000
11
71.921700
21
285.694000
0
LINE
8
Layer 1
10
71.921700
20
285.694000
11
71.627200
21
285.333000
0
LINE
8
Layer 1
10
71.627200
20
285.333000
11
71.308800
21
284.978000
0
LINE
8
Layer 1
10
71.308800
20
284.978000
11
71.306800
21
284.978000
0
LINE
8
Layer 1
10
71.306800
20
284.978000
11
71.001900
21
284.671000
0
LINE
8
Layer 1
10
71.001900
20
284.671000
11
70.999800
21
284.669000
0
LINE
8
Layer 1
10
70.999800
20
284.669000
11
70.997700
21
284.667000
0
LINE
8
Layer 1
10
70.997700
20
284.667000
11
70.415900
21
284.161000
0
LINE
8
Layer 1
10
70.415900
20
284.161000
11
69.826200
21
283.769000
0
LINE
8
Layer 1
10
69.826200
20
283.769000
11
69.345600
21
283.573000
0
LINE
8
Layer 1
10
69.345600
20
283.573000
11
68.921900
21
283.544000
0
LINE
8
Layer 1
10
68.921900
20
283.544000
11
68.904300
21
283.546000
0
LINE
8
Layer 1
10
68.904300
20
283.546000
11
68.884700
21
283.546000
0
LINE
8
Layer 1
10
68.884700
20
283.546000
11
68.586000
21
283.671000
0
LINE
8
Layer 1
10
68.586000
20
283.671000
11
68.498100
21
283.849000
0
LINE
8
Layer 1
10
68.498100
20
283.849000
11
68.447500
21
284.132000
0
LINE
8
Layer 1
10
68.447500
20
284.132000
11
68.576200
21
284.933000
0
LINE
8
Layer 1
10
68.576200
20
284.933000
11
68.576200
21
284.935000
0
LINE
8
Layer 1
10
68.576200
20
284.935000
11
68.578200
21
284.937000
0
LINE
8
Layer 1
10
68.578200
20
284.937000
11
68.803000
21
284.991000
0
LINE
8
Layer 1
10
68.803000
20
284.991000
11
68.812900
21
284.995000
0
LINE
8
Layer 1
10
68.812900
20
284.995000
11
69.004100
21
285.044000
0
LINE
8
Layer 1
10
69.004100
20
285.044000
11
69.023700
21
285.048000
0
LINE
8
Layer 1
10
69.023700
20
285.048000
11
69.267600
21
285.128000
0
LINE
8
Layer 1
10
69.267600
20
285.128000
11
69.271700
21
285.130000
0
LINE
8
Layer 1
10
69.271700
20
285.130000
11
69.992100
21
285.384000
0
LINE
8
Layer 1
10
69.992100
20
285.384000
11
69.998300
21
285.386000
0
LINE
8
Layer 1
10
69.998300
20
285.386000
11
70.004000
21
285.388000
0
LINE
8
Layer 1
10
70.004000
20
285.388000
11
70.709400
21
285.771000
0
LINE
8
Layer 1
10
70.709400
20
285.771000
11
70.713000
21
285.773000
0
LINE
8
Layer 1
10
70.713000
20
285.773000
11
70.717100
21
285.775000
0
LINE
8
Layer 1
10
70.717100
20
285.775000
11
71.115600
21
286.093000
0
LINE
8
Layer 1
10
71.115600
20
286.093000
11
71.504200
21
286.525000
0
LINE
8
Layer 1
10
71.504200
20
286.525000
11
71.506200
21
286.527000
0
LINE
8
Layer 1
10
71.506200
20
286.527000
11
71.769800
21
287.033000
0
LINE
8
Layer 1
10
71.769800
20
287.033000
11
71.771800
21
287.679000
0
LINE
8
Layer 1
10
71.771800
20
287.679000
11
71.771800
21
287.685000
0
LINE
8
Layer 1
10
71.771800
20
287.685000
11
71.769800
21
287.691000
0
LINE
8
Layer 1
10
71.769800
20
287.691000
11
71.530912
21
288.067500
0
LINE
8
Layer 1
10
71.530912
20
288.067500
11
71.144500
21
288.288000
0
LINE
8
Layer 1
10
71.144500
20
288.288000
11
70.377100
21
288.355000
0
LINE
8
Layer 1
10
70.377100
20
288.355000
11
70.375000
21
288.355000
0
LINE
8
Layer 1
10
70.375000
20
288.355000
11
70.373000
21
288.355000
0
LINE
8
Layer 1
10
70.373000
20
288.355000
11
69.708900
21
288.089000
0
LINE
8
Layer 1
10
69.708900
20
288.089000
11
69.179800
21
287.681000
0
LINE
8
Layer 1
10
69.179800
20
287.681000
11
68.189600
21
286.451000
0
LINE
8
Layer 1
10
68.189600
20
286.451000
11
67.843900
21
285.722000
0
LINE
8
Layer 1
10
67.843900
20
285.722000
11
66.609400
21
284.345000
0
LINE
8
Layer 1
10
66.609400
20
284.345000
11
66.121000
21
283.837000
0
LINE
8
Layer 1
10
66.121000
20
283.837000
11
65.615100
21
283.437000
0
LINE
8
Layer 1
10
65.615100
20
283.437000
11
65.437300
21
283.347000
0
LINE
8
Layer 1
10
65.437300
20
283.347000
11
65.451300
21
283.552000
0
LINE
8
Layer 1
10
65.451300
20
283.552000
11
65.726700
21
284.245000
0
LINE
8
Layer 1
10
65.726700
20
284.245000
11
66.144300
21
284.945000
0
LINE
8
Layer 1
10
66.144300
20
284.945000
11
66.146300
21
284.948000
0
LINE
8
Layer 1
10
66.146300
20
284.948000
11
66.412000
21
285.366000
0
LINE
8
Layer 1
10
66.412000
20
285.366000
11
66.664100
21
285.813000
0
LINE
8
Layer 1
10
66.664100
20
285.813000
11
67.002100
21
286.661000
0
LINE
8
Layer 1
10
67.002100
20
286.661000
11
66.947300
21
287.175000
0
LINE
8
Layer 1
10
66.947300
20
287.175000
11
66.521500
21
287.554000
0
LINE
8
Layer 1
10
66.521500
20
287.554000
11
66.043000
21
287.628000
0
LINE
8
Layer 1
10
66.043000
20
287.628000
11
66.040900
21
287.628000
0
LINE
8
Layer 1
10
66.040900
20
287.628000
11
66.038900
21
287.628000
0
LINE
8
Layer 1
10
66.038900
20
287.628000
11
65.894700
21
287.628000
0
LINE
8
Layer 1
10
65.894700
20
287.628000
11
65.896800
21
287.632000
0
LINE
8
Layer 1
10
65.896800
20
287.632000
11
65.974800
21
287.788000
0
LINE
8
Layer 1
10
65.974800
20
287.788000
11
66.082300
21
288.060000
0
LINE
8
Layer 1
10
66.082300
20
288.060000
11
66.083800
21
288.070000
0
LINE
8
Layer 1
10
66.083800
20
288.070000
11
66.083800
21
288.077000
0
LINE
8
Layer 1
10
66.083800
20
288.077000
11
66.023400
21
288.372000
0
LINE
8
Layer 1
10
66.023400
20
288.372000
11
65.800600
21
288.546000
0
LINE
8
Layer 1
10
65.800600
20
288.546000
11
65.507600
21
288.587000
0
LINE
8
Layer 1
10
65.507600
20
288.587000
11
65.250300
21
288.408000
0
LINE
8
Layer 1
10
65.250300
20
288.408000
11
64.974800
21
288.098000
0
LINE
8
Layer 1
10
64.974800
20
288.098000
11
64.359400
21
287.347000
0
LINE
8
Layer 1
10
64.359400
20
287.347000
11
63.814700
21
286.728000
0
LINE
8
Layer 1
10
63.814700
20
286.728000
11
63.810600
21
286.724000
0
LINE
8
Layer 1
10
63.810600
20
286.724000
11
63.808500
21
286.720000
0
LINE
8
Layer 1
10
63.808500
20
286.720000
11
63.257600
21
286.113000
0
LINE
8
Layer 1
10
63.257600
20
286.113000
11
63.109300
21
285.966000
0
LINE
8
Layer 1
10
63.109300
20
285.966000
11
62.937800
21
285.773000
0
LINE
8
Layer 1
10
62.937800
20
285.773000
11
62.252000
21
284.974000
0
LINE
8
Layer 1
10
62.252000
20
284.974000
11
61.537300
21
284.201000
0
LINE
8
Layer 1
10
61.537300
20
284.201000
11
61.531100
21
284.194000
0
LINE
8
Layer 1
10
61.531100
20
284.194000
11
61.525400
21
284.189000
0
LINE
8
Layer 1
10
61.525400
20
284.189000
11
61.261900
21
283.925000
0
LINE
8
Layer 1
10
61.261900
20
283.925000
11
60.954900
21
283.655000
0
LINE
8
Layer 1
10
60.954900
20
283.655000
11
60.959100
21
283.661000
0
LINE
8
Layer 1
10
60.959100
20
283.661000
11
60.756000
21
283.518000
0
LINE
8
Layer 1
10
60.756000
20
283.518000
11
60.521400
21
283.442000
0
LINE
8
Layer 1
10
60.521400
20
283.442000
11
60.517800
21
283.442000
0
LINE
8
Layer 1
10
60.517800
20
283.442000
11
60.513600
21
283.440000
0
LINE
8
Layer 1
10
60.513600
20
283.440000
11
60.400400
21
283.440000
0
LINE
8
Layer 1
10
60.400400
20
283.440000
11
60.345700
21
283.483000
0
LINE
8
Layer 1
10
60.345700
20
283.483000
11
60.343600
21
283.489000
0
LINE
8
Layer 1
10
60.343600
20
283.489000
11
60.341500
21
283.493000
0
LINE
8
Layer 1
10
60.341500
20
283.493000
11
60.279000
21
283.733000
0
LINE
8
Layer 1
10
60.279000
20
283.733000
11
60.328100
21
284.066000
0
LINE
8
Layer 1
10
60.328100
20
284.066000
11
60.330200
21
284.073000
0
LINE
8
Layer 1
10
60.330200
20
284.073000
11
60.330200
21
284.079000
0
LINE
8
Layer 1
10
60.330200
20
284.079000
11
60.421600
21
284.495000
0
LINE
8
Layer 1
10
60.421600
20
284.495000
11
60.568400
21
284.917000
0
LINE
8
Layer 1
10
60.568400
20
284.917000
11
60.570500
21
284.925000
0
LINE
8
Layer 1
10
60.570500
20
284.925000
11
60.574100
21
284.935000
0
LINE
8
Layer 1
10
60.574100
20
284.935000
11
60.644400
21
285.104000
0
LINE
8
Layer 1
10
60.644400
20
285.104000
11
60.648500
21
285.113000
0
LINE
8
Layer 1
10
60.648500
20
285.113000
11
60.652100
21
285.120000
0
LINE
8
Layer 1
10
60.652100
20
285.120000
11
60.765800
21
285.347000
0
LINE
8
Layer 1
10
60.765800
20
285.347000
11
60.767400
21
285.351000
0
LINE
8
Layer 1
10
60.767400
20
285.351000
11
60.886700
21
285.554000
0
LINE
8
Layer 1
10
60.886700
20
285.554000
11
60.902200
21
285.581000
0
LINE
8
Layer 1
10
60.902200
20
285.581000
11
61.031400
21
285.802000
0
LINE
8
Layer 1
10
61.031400
20
285.802000
11
61.037100
21
285.812000
0
LINE
8
Layer 1
10
61.037100
20
285.812000
11
61.418000
21
286.554000
0
LINE
8
Layer 1
10
61.418000
20
286.554000
11
61.422100
21
286.564000
0
LINE
8
Layer 1
10
61.422100
20
286.564000
11
61.789000
21
287.316000
0
LINE
8
Layer 1
10
61.789000
20
287.316000
11
61.793100
21
287.327000
0
LINE
8
Layer 1
10
61.793100
20
287.327000
11
61.796700
21
287.339000
0
LINE
8
Layer 1
10
61.796700
20
287.339000
11
61.851500
21
287.443000
0
LINE
8
Layer 1
10
61.851500
20
287.443000
11
61.857700
21
287.452000
0
LINE
8
Layer 1
10
61.857700
20
287.452000
11
61.861300
21
287.460000
0
LINE
8
Layer 1
10
61.861300
20
287.460000
11
61.951300
21
287.714000
0
LINE
8
Layer 1
10
61.951300
20
287.714000
11
61.976600
21
288.027000
0
LINE
8
Layer 1
10
61.976600
20
288.027000
11
61.681500
21
288.343000
0
LINE
8
Layer 1
10
61.681500
20
288.343000
11
61.480500
21
288.391000
0
LINE
8
Layer 1
10
61.480500
20
288.391000
11
61.302700
21
288.431000
0
LINE
8
Layer 1
10
61.302700
20
288.431000
11
61.292900
21
288.433000
0
LINE
8
Layer 1
10
61.292900
20
288.433000
11
61.283100
21
288.435000
0
LINE
8
Layer 1
10
61.283100
20
288.435000
11
60.207200
21
288.372000
0
LINE
8
Layer 1
10
60.207200
20
288.372000
11
59.228400
21
288.048000
0
LINE
8
Layer 1
10
59.228400
20
288.048000
11
58.501900
21
287.602000
0
LINE
8
Layer 1
10
58.501900
20
287.602000
11
57.865200
21
287.087000
0
LINE
8
Layer 1
10
57.865200
20
287.087000
11
57.166000
21
286.349000
0
LINE
8
Layer 1
10
57.166000
20
286.349000
11
56.818200
21
285.851000
0
LINE
8
Layer 1
10
56.818200
20
285.851000
11
56.738100
21
285.806000
0
LINE
8
Layer 1
10
56.738100
20
285.806000
11
56.730400
21
285.800000
0
LINE
8
Layer 1
10
56.730400
20
285.800000
11
56.724700
21
285.792000
0
LINE
8
Layer 1
10
56.724700
20
285.792000
11
56.388800
21
285.477000
0
LINE
8
Layer 1
10
56.388800
20
285.477000
11
56.025500
21
285.184000
0
LINE
8
Layer 1
10
56.025500
20
285.184000
11
56.023500
21
285.184000
0
LINE
8
Layer 1
10
56.023500
20
285.184000
11
56.021400
21
285.183000
0
LINE
8
Layer 1
10
56.021400
20
285.183000
11
55.726300
21
284.993000
0
LINE
8
Layer 1
10
55.726300
20
284.993000
11
55.724200
21
284.991000
0
LINE
8
Layer 1
10
55.724200
20
284.991000
11
55.474700
21
284.903000
0
LINE
8
Layer 1
10
55.474700
20
284.903000
11
55.251900
21
284.931000
0
LINE
8
Layer 1
10
55.251900
20
284.931000
11
55.175400
21
285.081000
0
LINE
8
Layer 1
10
55.175400
20
285.081000
11
55.238000
21
285.532000
0
LINE
8
Layer 1
10
55.238000
20
285.532000
11
55.238000
21
285.534000
0
LINE
8
Layer 1
10
55.238000
20
285.534000
11
55.240000
21
285.536000
0
LINE
8
Layer 1
10
55.240000
20
285.536000
11
55.439500
21
286.048000
0
LINE
8
Layer 1
10
55.439500
20
286.048000
11
55.443100
21
286.054000
0
LINE
8
Layer 1
10
55.443100
20
286.054000
11
55.445200
21
286.058000
0
LINE
8
Layer 1
10
55.445200
20
286.058000
11
55.830200
21
286.829000
0
LINE
8
Layer 1
10
55.830200
20
286.829000
11
55.833800
21
286.835000
0
LINE
8
Layer 1
10
55.833800
20
286.835000
11
56.068400
21
287.265000
0
LINE
8
Layer 1
10
56.068400
20
287.265000
11
56.070500
21
287.269000
0
LINE
8
Layer 1
10
56.070500
20
287.269000
11
56.107200
21
287.564000
0
LINE
8
Layer 1
10
56.107200
20
287.564000
11
55.867400
21
287.913000
0
LINE
8
Layer 1
10
55.867400
20
287.913000
11
55.521700
21
287.950000
0
LINE
8
Layer 1
10
55.521700
20
287.950000
11
55.248300
21
287.720000
0
LINE
8
Layer 1
10
55.248300
20
287.720000
11
55.244200
21
287.712000
0
LINE
8
Layer 1
10
55.244200
20
287.712000
11
55.238500
21
287.702000
0
LINE
8
Layer 1
10
55.238500
20
287.702000
11
55.074200
21
287.394000
0
LINE
8
Layer 1
10
55.074200
20
287.394000
11
55.072100
21
287.390000
0
LINE
8
Layer 1
10
55.072100
20
287.390000
11
54.775500
21
286.964000
0
LINE
8
Layer 1
10
54.775500
20
286.964000
11
54.773400
21
286.960000
0
LINE
8
Layer 1
10
54.773400
20
286.960000
11
54.419900
21
286.458000
0
LINE
8
Layer 1
10
54.419900
20
286.458000
11
54.025100
21
285.990000
0
LINE
8
Layer 1
10
54.025100
20
285.990000
11
54.023600
21
285.987000
0
LINE
8
Layer 1
10
54.023600
20
285.987000
11
54.021500
21
285.985000
0
LINE
8
Layer 1
10
54.021500
20
285.985000
11
53.154400
21
285.003000
0
LINE
8
Layer 1
10
53.154400
20
285.003000
11
53.152300
21
285.001000
0
LINE
8
Layer 1
10
53.152300
20
285.001000
11
53.150200
21
284.999000
0
LINE
8
Layer 1
10
53.150200
20
284.999000
11
52.228300
21
284.097000
0
LINE
8
Layer 1
10
52.228300
20
284.097000
11
51.863000
21
283.806000
0
LINE
8
Layer 1
10
51.863000
20
283.806000
11
51.859400
21
283.802000
0
LINE
8
Layer 1
10
51.859400
20
283.802000
11
51.855200
21
283.798000
0
LINE
8
Layer 1
10
51.855200
20
283.798000
11
51.503800
21
283.581000
0
LINE
8
Layer 1
10
51.503800
20
283.581000
11
51.491900
21
283.575000
0
LINE
8
Layer 1
10
51.491900
20
283.575000
11
51.480100
21
283.567000
0
LINE
8
Layer 1
10
51.480100
20
283.567000
11
51.248000
21
283.478000
0
LINE
8
Layer 1
10
51.248000
20
283.478000
11
51.243900
21
283.476000
0
LINE
8
Layer 1
10
51.243900
20
283.476000
11
51.236100
21
283.483000
0
LINE
8
Layer 1
10
51.236100
20
283.483000
11
51.228400
21
283.491000
0
LINE
8
Layer 1
10
51.228400
20
283.491000
11
51.228400
21
283.495000
0
LINE
8
Layer 1
10
51.228400
20
283.495000
11
51.259400
21
283.669000
0
LINE
8
Layer 1
10
51.259400
20
283.669000
11
51.259400
21
283.671000
0
LINE
8
Layer 1
10
51.259400
20
283.671000
11
51.452700
21
284.268000
0
LINE
8
Layer 1
10
51.452700
20
284.268000
11
51.454700
21
284.272000
0
LINE
8
Layer 1
10
51.454700
20
284.272000
11
51.456800
21
284.276000
0
LINE
8
Layer 1
10
51.456800
20
284.276000
11
51.779300
21
285.034000
0
LINE
8
Layer 1
10
51.779300
20
285.034000
11
52.122900
21
285.799000
0
LINE
8
Layer 1
10
52.122900
20
285.799000
11
52.122900
21
285.801000
0
LINE
8
Layer 1
10
52.122900
20
285.801000
11
52.298600
21
286.229000
0
LINE
8
Layer 1
10
52.298600
20
286.229000
11
52.298600
21
286.231000
0
LINE
8
Layer 1
10
52.298600
20
286.231000
11
52.462900
21
286.700000
0
LINE
8
Layer 1
10
52.462900
20
286.700000
11
52.562200
21
287.038000
0
LINE
8
Layer 1
10
52.562200
20
287.038000
11
52.585900
21
287.466000
0
LINE
8
Layer 1
10
52.585900
20
287.466000
11
52.583900
21
287.468000
0
LINE
8
Layer 1
10
52.583900
20
287.468000
11
52.583900
21
287.472000
0
LINE
8
Layer 1
10
52.583900
20
287.472000
11
52.448313
21
287.826125
0
LINE
8
Layer 1
10
52.448313
20
287.826125
11
52.167900
21
288.079000
0
LINE
8
Layer 1
10
52.167900
20
288.079000
11
51.813550
21
288.183000
0
LINE
8
Layer 1
10
51.813550
20
288.183000
11
51.447500
21
288.134000
0
LINE
8
Layer 1
10
51.447500
20
288.134000
11
51.443400
21
288.132000
0
LINE
8
Layer 1
10
51.443400
20
288.132000
11
51.439800
21
288.130000
0
LINE
8
Layer 1
10
51.439800
20
288.130000
11
50.824300
21
287.737000
0
LINE
8
Layer 1
10
50.824300
20
287.737000
11
50.357600
21
287.288000
0
LINE
8
Layer 1
10
50.357600
20
287.288000
11
50.353500
21
287.286000
0
LINE
8
Layer 1
10
50.353500
20
287.286000
11
50.351400
21
287.283000
0
LINE
8
Layer 1
10
50.351400
20
287.283000
11
49.808800
21
286.683000
0
LINE
8
Layer 1
10
49.808800
20
286.683000
11
49.808800
21
286.681000
0
LINE
8
Layer 1
10
49.808800
20
286.681000
11
49.296700
21
286.113000
0
LINE
8
Layer 1
10
49.296700
20
286.113000
11
49.289000
21
286.105000
0
LINE
8
Layer 1
10
49.289000
20
286.105000
11
49.113300
21
285.878000
0
LINE
8
Layer 1
10
49.113300
20
285.878000
11
49.074500
21
285.851000
0
LINE
8
Layer 1
10
49.074500
20
285.851000
11
48.880700
21
285.657000
0
LINE
8
Layer 1
10
48.880700
20
285.657000
11
48.870900
21
285.644000
0
LINE
8
Layer 1
10
48.870900
20
285.644000
11
48.863200
21
285.630000
0
LINE
8
Layer 1
10
48.863200
20
285.630000
11
48.785100
21
285.524000
0
LINE
8
Layer 1
10
48.785100
20
285.524000
11
48.781500
21
285.521000
0
LINE
8
Layer 1
10
48.781500
20
285.521000
11
48.180000
21
284.860000
0
LINE
8
Layer 1
10
48.180000
20
284.860000
11
48.175900
21
284.857000
0
LINE
8
Layer 1
10
48.175900
20
284.857000
11
47.800700
21
284.444000
0
LINE
8
Layer 1
10
47.800700
20
284.444000
11
47.197100
21
283.896000
0
LINE
8
Layer 1
10
47.197100
20
283.896000
11
47.195600
21
283.894000
0
LINE
8
Layer 1
10
47.195600
20
283.894000
11
47.191400
21
283.892000
0
LINE
8
Layer 1
10
47.191400
20
283.892000
11
46.650400
21
283.577000
0
LINE
8
Layer 1
10
46.650400
20
283.577000
11
46.578000
21
283.575000
0
LINE
8
Layer 1
10
46.578000
20
283.575000
11
46.507800
21
283.679000
0
LINE
8
Layer 1
10
46.507800
20
283.679000
11
46.505700
21
283.683000
0
LINE
8
Layer 1
10
46.505700
20
283.683000
11
46.503600
21
283.686000
0
LINE
8
Layer 1
10
46.503600
20
283.686000
11
46.431800
21
284.005000
0
LINE
8
Layer 1
10
46.431800
20
284.005000
11
46.464900
21
284.402000
0
LINE
8
Layer 1
10
46.464900
20
284.402000
11
46.466900
21
284.405000
0
LINE
8
Layer 1
10
46.466900
20
284.405000
11
46.466900
21
284.407000
0
LINE
8
Layer 1
10
46.466900
20
284.407000
11
46.632800
21
285.122000
0
LINE
8
Layer 1
10
46.632800
20
285.122000
11
46.632800
21
285.124000
0
LINE
8
Layer 1
10
46.632800
20
285.124000
11
46.632800
21
285.126000
0
LINE
8
Layer 1
10
46.632800
20
285.126000
11
46.913900
21
285.990000
0
LINE
8
Layer 1
10
46.913900
20
285.990000
11
46.913900
21
285.992000
0
LINE
8
Layer 1
10
46.913900
20
285.992000
11
47.088100
21
286.454000
0
LINE
8
Layer 1
10
47.088100
20
286.454000
11
47.158400
21
286.665000
0
LINE
8
Layer 1
10
47.158400
20
286.665000
11
47.240000
21
286.782000
0
LINE
8
Layer 1
10
47.240000
20
286.782000
11
47.249800
21
286.792000
0
LINE
8
Layer 1
10
47.249800
20
286.792000
11
47.259600
21
286.804000
0
LINE
8
Layer 1
10
47.259600
20
286.804000
11
48.240500
21
288.073000
0
LINE
8
Layer 1
10
48.240500
20
288.073000
11
49.201100
21
289.360000
0
LINE
8
Layer 1
10
49.201100
20
289.360000
11
49.949400
21
290.395000
0
LINE
8
Layer 1
10
49.949400
20
290.395000
11
49.953000
21
290.400000
0
LINE
8
Layer 1
10
49.953000
20
290.400000
11
50.668200
21
291.483000
0
LINE
8
Layer 1
10
50.668200
20
291.483000
11
50.673900
21
291.492000
0
LINE
8
Layer 1
10
50.673900
20
291.492000
11
50.929700
21
291.948000
0
LINE
8
Layer 1
10
50.929700
20
291.948000
11
50.924000
21
291.933000
0
LINE
8
Layer 1
10
50.924000
20
291.933000
11
51.170000
21
292.447000
0
LINE
8
Layer 1
10
51.170000
20
292.447000
11
51.170000
21
292.448000
0
LINE
8
Layer 1
10
51.170000
20
292.448000
11
51.283200
21
293.222000
0
LINE
8
Layer 1
10
51.283200
20
293.222000
11
51.142612
21
293.677375
0
LINE
8
Layer 1
10
51.142612
20
293.677375
11
50.796900
21
293.988000
0
LINE
8
Layer 1
10
50.796900
20
293.988000
11
50.341225
21
294.084500
0
LINE
8
Layer 1
10
50.341225
20
294.084500
11
49.886900
21
293.941000
0
LINE
8
Layer 1
10
49.886900
20
293.941000
11
49.882700
21
293.938000
0
LINE
8
Layer 1
10
49.882700
20
293.938000
11
49.880700
21
293.937000
0
LINE
8
Layer 1
10
49.880700
20
293.937000
11
49.300900
21
293.419000
0
LINE
8
Layer 1
10
49.300900
20
293.419000
11
48.865200
21
292.825000
0
LINE
8
Layer 1
10
48.865200
20
292.825000
11
48.863200
21
292.823000
0
LINE
8
Layer 1
10
48.863200
20
292.823000
11
48.863200
21
292.821000
0
LINE
8
Layer 1
10
48.863200
20
292.821000
11
48.527300
21
292.210000
0
LINE
8
Layer 1
10
48.527300
20
292.210000
11
48.181600
21
291.518000
0
LINE
8
Layer 1
10
48.181600
20
291.518000
11
47.851900
21
290.818000
0
LINE
8
Layer 1
10
47.851900
20
290.818000
11
47.408500
21
289.794000
0
LINE
8
Layer 1
10
47.408500
20
289.794000
11
47.406400
21
289.790000
0
LINE
8
Layer 1
10
47.406400
20
289.790000
11
47.404300
21
289.788000
0
LINE
8
Layer 1
10
47.404300
20
289.788000
11
47.003800
21
288.759000
0
LINE
8
Layer 1
10
47.003800
20
288.759000
11
46.715000
21
288.085000
0
LINE
8
Layer 1
10
46.715000
20
288.085000
11
46.715000
21
288.081000
0
LINE
8
Layer 1
10
46.715000
20
288.081000
11
46.712900
21
288.077000
0
LINE
8
Layer 1
10
46.712900
20
288.077000
11
46.466900
21
287.413000
0
LINE
8
Layer 1
10
46.466900
20
287.413000
11
46.404400
21
287.286000
0
LINE
8
Layer 1
10
46.404400
20
287.286000
11
46.392500
21
287.255000
0
LINE
8
Layer 1
10
46.392500
20
287.255000
11
46.384800
21
287.247000
0
LINE
8
Layer 1
10
46.384800
20
287.247000
11
46.365100
21
287.191000
0
LINE
8
Layer 1
10
46.365100
20
287.191000
11
46.337700
21
287.136000
0
LINE
8
Layer 1
10
46.337700
20
287.136000
11
46.292800
21
287.077000
0
LINE
8
Layer 1
10
46.292800
20
287.077000
11
46.101600
21
286.867000
0
LINE
8
Layer 1
10
46.101600
20
286.867000
11
46.089700
21
286.853000
0
LINE
8
Layer 1
10
46.089700
20
286.853000
11
46.081900
21
286.839000
0
LINE
8
Layer 1
10
46.081900
20
286.839000
11
45.966700
21
286.694000
0
LINE
8
Layer 1
10
45.966700
20
286.694000
11
45.954800
21
286.683000
0
LINE
8
Layer 1
10
45.954800
20
286.683000
11
45.484600
21
286.075000
0
LINE
8
Layer 1
10
45.484600
20
286.075000
11
45.294900
21
285.851000
0
LINE
8
Layer 1
10
45.294900
20
285.851000
11
45.206000
21
285.738000
0
LINE
8
Layer 1
10
45.206000
20
285.738000
11
44.363200
21
284.765000
0
LINE
8
Layer 1
10
44.363200
20
284.765000
11
43.445400
21
283.866000
0
LINE
8
Layer 1
10
43.445400
20
283.866000
11
42.995800
21
283.544000
0
LINE
8
Layer 1
10
42.995800
20
283.544000
11
42.994300
21
283.542000
0
LINE
8
Layer 1
10
42.994300
20
283.542000
11
42.990100
21
283.540000
0
LINE
8
Layer 1
10
42.990100
20
283.540000
11
42.562300
21
283.348000
0
LINE
8
Layer 1
10
42.562300
20
283.348000
11
42.554500
21
283.347000
0
LINE
8
Layer 1
10
42.554500
20
283.347000
11
42.546800
21
283.345000
0
LINE
8
Layer 1
10
42.546800
20
283.345000
11
42.351400
21
283.319000
0
LINE
8
Layer 1
10
42.351400
20
283.319000
11
42.238200
21
283.372000
0
LINE
8
Layer 1
10
42.238200
20
283.372000
11
42.170000
21
283.532000
0
LINE
8
Layer 1
10
42.170000
20
283.532000
11
42.170000
21
283.534000
0
LINE
8
Layer 1
10
42.170000
20
283.534000
11
42.170000
21
283.536000
0
LINE
8
Layer 1
10
42.170000
20
283.536000
11
42.170000
21
284.032000
0
LINE
8
Layer 1
10
42.170000
20
284.032000
11
42.333900
21
284.616000
0
LINE
8
Layer 1
10
42.333900
20
284.616000
11
42.335900
21
284.620000
0
LINE
8
Layer 1
10
42.335900
20
284.620000
11
42.335900
21
284.622000
0
LINE
8
Layer 1
10
42.335900
20
284.622000
11
42.615000
21
285.464000
0
LINE
8
Layer 1
10
42.615000
20
285.464000
11
42.619100
21
285.472000
0
LINE
8
Layer 1
10
42.619100
20
285.472000
11
42.619100
21
285.474000
0
LINE
8
Layer 1
10
42.619100
20
285.474000
11
42.960700
21
286.306000
0
LINE
8
Layer 1
10
42.960700
20
286.306000
11
42.960700
21
286.308000
0
LINE
8
Layer 1
10
42.960700
20
286.308000
11
43.342100
21
287.204000
0
LINE
8
Layer 1
10
43.342100
20
287.204000
11
43.344100
21
287.206000
0
LINE
8
Layer 1
10
43.344100
20
287.206000
11
43.344100
21
287.208000
0
LINE
8
Layer 1
10
43.344100
20
287.208000
11
43.744100
21
288.120000
0
LINE
8
Layer 1
10
43.744100
20
288.120000
11
43.746200
21
288.124000
0
LINE
8
Layer 1
10
43.746200
20
288.124000
11
43.748200
21
288.130000
0
LINE
8
Layer 1
10
43.748200
20
288.130000
11
44.416400
21
289.736000
0
LINE
8
Layer 1
10
44.416400
20
289.736000
11
45.107800
21
291.347000
0
LINE
8
Layer 1
10
45.107800
20
291.347000
11
45.107800
21
291.349000
0
LINE
8
Layer 1
10
45.107800
20
291.349000
11
45.774000
21
292.938000
0
LINE
8
Layer 1
10
45.774000
20
292.938000
11
45.933600
21
293.326000
0
LINE
8
Layer 1
10
45.933600
20
293.326000
11
45.933600
21
293.343000
0
LINE
8
Layer 1
10
45.933600
20
293.343000
11
45.930000
21
293.361000
0
LINE
8
Layer 1
10
45.930000
20
293.361000
11
45.623100
21
293.759000
0
LINE
8
Layer 1
10
45.623100
20
293.759000
11
45.353800
21
293.913000
0
LINE
8
Layer 1
10
45.353800
20
293.913000
11
45.351800
21
293.915000
0
LINE
8
Layer 1
10
45.351800
20
293.915000
11
45.347600
21
293.915000
0
LINE
8
Layer 1
10
45.347600
20
293.915000
11
44.550800
21
294.111000
0
LINE
8
Layer 1
10
44.550800
20
294.111000
11
43.785400
21
294.149000
0
LINE
8
Layer 1
10
43.785400
20
294.149000
11
43.779200
21
294.149000
0
LINE
8
Layer 1
10
43.779200
20
294.149000
11
43.773600
21
294.149000
0
LINE
8
Layer 1
10
43.773600
20
294.149000
11
43.773600
21
294.149000
0
LINE
8
Layer 1
10
22.674100
20
294.093000
11
22.158300
21
293.941000
0
LINE
8
Layer 1
10
22.158300
20
293.941000
11
22.154200
21
293.938000
0
LINE
8
Layer 1
10
22.154200
20
293.938000
11
22.152100
21
293.937000
0
LINE
8
Layer 1
10
22.152100
20
293.937000
11
21.572300
21
293.419000
0
LINE
8
Layer 1
10
21.572300
20
293.419000
11
21.136700
21
292.825000
0
LINE
8
Layer 1
10
21.136700
20
292.825000
11
21.134600
21
292.823000
0
LINE
8
Layer 1
10
21.134600
20
292.823000
11
21.134600
21
292.821000
0
LINE
8
Layer 1
10
21.134600
20
292.821000
11
20.798700
21
292.210000
0
LINE
8
Layer 1
10
20.798700
20
292.210000
11
20.453000
21
291.518000
0
LINE
8
Layer 1
10
20.453000
20
291.518000
11
20.123300
21
290.818000
0
LINE
8
Layer 1
10
20.123300
20
290.818000
11
19.679900
21
289.794000
0
LINE
8
Layer 1
10
19.679900
20
289.794000
11
19.677900
21
289.790000
0
LINE
8
Layer 1
10
19.677900
20
289.790000
11
19.675800
21
289.788000
0
LINE
8
Layer 1
10
19.675800
20
289.788000
11
19.275300
21
288.759000
0
LINE
8
Layer 1
10
19.275300
20
288.759000
11
18.986400
21
288.085000
0
LINE
8
Layer 1
10
18.986400
20
288.085000
11
18.986400
21
288.081000
0
LINE
8
Layer 1
10
18.986400
20
288.081000
11
18.984400
21
288.077000
0
LINE
8
Layer 1
10
18.984400
20
288.077000
11
18.739900
21
287.417000
0
LINE
8
Layer 1
10
18.739900
20
287.417000
11
18.738400
21
287.413000
0
LINE
8
Layer 1
10
18.738400
20
287.413000
11
18.675900
21
287.286000
0
LINE
8
Layer 1
10
18.675900
20
287.286000
11
18.664000
21
287.255000
0
LINE
8
Layer 1
10
18.664000
20
287.255000
11
18.656200
21
287.247000
0
LINE
8
Layer 1
10
18.656200
20
287.247000
11
18.636600
21
287.191000
0
LINE
8
Layer 1
10
18.636600
20
287.191000
11
18.609200
21
287.136000
0
LINE
8
Layer 1
10
18.609200
20
287.136000
11
18.564200
21
287.077000
0
LINE
8
Layer 1
10
18.564200
20
287.077000
11
18.373000
21
286.867000
0
LINE
8
Layer 1
10
18.373000
20
286.867000
11
18.361200
21
286.853000
0
LINE
8
Layer 1
10
18.361200
20
286.853000
11
18.353400
21
286.839000
0
LINE
8
Layer 1
10
18.353400
20
286.839000
11
18.238200
21
286.694000
0
LINE
8
Layer 1
10
18.238200
20
286.694000
11
18.226300
21
286.683000
0
LINE
8
Layer 1
10
18.226300
20
286.683000
11
17.756000
21
286.075000
0
LINE
8
Layer 1
10
17.756000
20
286.075000
11
17.554500
21
285.839000
0
LINE
8
Layer 1
10
17.554500
20
285.839000
11
17.548800
21
285.831000
0
LINE
8
Layer 1
10
17.548800
20
285.831000
11
17.470800
21
285.775000
0
LINE
8
Layer 1
10
17.470800
20
285.775000
11
17.461000
21
285.763000
0
LINE
8
Layer 1
10
17.461000
20
285.763000
11
17.451100
21
285.751000
0
LINE
8
Layer 1
10
17.451100
20
285.751000
11
16.867200
21
285.054000
0
LINE
8
Layer 1
10
16.867200
20
285.054000
11
16.244000
21
284.413000
0
LINE
8
Layer 1
10
16.244000
20
284.413000
11
15.712700
21
283.921000
0
LINE
8
Layer 1
10
15.712700
20
283.921000
11
15.191300
21
283.556000
0
LINE
8
Layer 1
10
15.191300
20
283.556000
11
15.037300
21
283.485000
0
LINE
8
Layer 1
10
15.037300
20
283.485000
11
15.039400
21
283.497000
0
LINE
8
Layer 1
10
15.039400
20
283.497000
11
15.162400
21
284.059000
0
LINE
8
Layer 1
10
15.162400
20
284.059000
11
15.388700
21
284.663000
0
LINE
8
Layer 1
10
15.388700
20
284.663000
11
15.388700
21
284.665000
0
LINE
8
Layer 1
10
15.388700
20
284.665000
11
15.787100
21
285.654000
0
LINE
8
Layer 1
10
15.787100
20
285.654000
11
15.787100
21
285.655000
0
LINE
8
Layer 1
10
15.787100
20
285.655000
11
15.789200
21
285.655000
0
LINE
8
Layer 1
10
15.789200
20
285.655000
11
16.207300
21
286.683000
0
LINE
8
Layer 1
10
16.207300
20
286.683000
11
16.210900
21
286.692000
0
LINE
8
Layer 1
10
16.210900
20
286.692000
11
16.383000
21
287.110000
0
LINE
8
Layer 1
10
16.383000
20
287.110000
11
16.387100
21
287.122000
0
LINE
8
Layer 1
10
16.387100
20
287.122000
11
16.570600
21
287.546000
0
LINE
8
Layer 1
10
16.570600
20
287.546000
11
16.576200
21
287.558000
0
LINE
8
Layer 1
10
16.576200
20
287.558000
11
16.580400
21
287.569000
0
LINE
8
Layer 1
10
16.580400
20
287.569000
11
16.619100
21
287.685000
0
LINE
8
Layer 1
10
16.619100
20
287.685000
11
16.636700
21
287.964000
0
LINE
8
Layer 1
10
16.636700
20
287.964000
11
16.488400
21
288.222000
0
LINE
8
Layer 1
10
16.488400
20
288.222000
11
16.189700
21
288.321000
0
LINE
8
Layer 1
10
16.189700
20
288.321000
11
15.924250
21
288.229625
0
LINE
8
Layer 1
10
15.924250
20
288.229625
11
15.740100
21
288.019000
0
LINE
8
Layer 1
10
15.740100
20
288.019000
11
15.137100
21
287.038000
0
LINE
8
Layer 1
10
15.137100
20
287.038000
11
15.137100
21
287.036000
0
LINE
8
Layer 1
10
15.137100
20
287.036000
11
15.135000
21
287.036000
0
LINE
8
Layer 1
10
15.135000
20
287.036000
11
14.504000
21
286.060000
0
LINE
8
Layer 1
10
14.504000
20
286.060000
11
13.730400
21
285.023000
0
LINE
8
Layer 1
10
13.730400
20
285.023000
11
12.875200
21
284.093000
0
LINE
8
Layer 1
10
12.875200
20
284.093000
11
12.871000
21
284.091000
0
LINE
8
Layer 1
10
12.871000
20
284.091000
11
12.869000
21
284.087000
0
LINE
8
Layer 1
10
12.869000
20
284.087000
11
12.513400
21
283.786000
0
LINE
8
Layer 1
10
12.513400
20
283.786000
11
12.509800
21
283.782000
0
LINE
8
Layer 1
10
12.509800
20
283.782000
11
12.505700
21
283.778000
0
LINE
8
Layer 1
10
12.505700
20
283.778000
11
12.156400
21
283.562000
0
LINE
8
Layer 1
10
12.156400
20
283.562000
11
12.152200
21
283.560000
0
LINE
8
Layer 1
10
12.152200
20
283.560000
11
12.146500
21
283.558000
0
LINE
8
Layer 1
10
12.146500
20
283.558000
11
11.833900
21
283.466000
0
LINE
8
Layer 1
10
11.833900
20
283.466000
11
11.832400
21
283.466000
0
LINE
8
Layer 1
10
11.832400
20
283.466000
11
11.830300
21
283.471000
0
LINE
8
Layer 1
10
11.830300
20
283.471000
11
11.828200
21
283.478000
0
LINE
8
Layer 1
10
11.828200
20
283.478000
11
11.828200
21
283.483000
0
LINE
8
Layer 1
10
11.828200
20
283.483000
11
11.847900
21
283.802000
0
LINE
8
Layer 1
10
11.847900
20
283.802000
11
11.849400
21
283.809000
0
LINE
8
Layer 1
10
11.849400
20
283.809000
11
11.928000
21
284.157000
0
LINE
8
Layer 1
10
11.928000
20
284.157000
11
11.928000
21
284.161000
0
LINE
8
Layer 1
10
11.928000
20
284.161000
11
12.033400
21
284.454000
0
LINE
8
Layer 1
10
12.033400
20
284.454000
11
12.033400
21
284.456000
0
LINE
8
Layer 1
10
12.033400
20
284.456000
11
12.035400
21
284.460000
0
LINE
8
Layer 1
10
12.035400
20
284.460000
11
12.314500
21
285.206000
0
LINE
8
Layer 1
10
12.314500
20
285.206000
11
12.316600
21
285.210000
0
LINE
8
Layer 1
10
12.316600
20
285.210000
11
12.318600
21
285.216000
0
LINE
8
Layer 1
10
12.318600
20
285.216000
11
12.660200
21
285.974000
0
LINE
8
Layer 1
10
12.660200
20
285.974000
11
12.986300
21
286.765000
0
LINE
8
Layer 1
10
12.986300
20
286.765000
11
12.990400
21
286.772000
0
LINE
8
Layer 1
10
12.990400
20
286.772000
11
13.316500
21
287.556000
0
LINE
8
Layer 1
10
13.316500
20
287.556000
11
13.306700
21
287.536000
0
LINE
8
Layer 1
10
13.306700
20
287.536000
11
13.383200
21
287.741000
0
LINE
8
Layer 1
10
13.383200
20
287.741000
11
13.259700
21
288.132000
0
LINE
8
Layer 1
10
13.259700
20
288.132000
11
13.249800
21
288.143000
0
LINE
8
Layer 1
10
13.249800
20
288.143000
11
13.236400
21
288.153000
0
LINE
8
Layer 1
10
13.236400
20
288.153000
11
12.920100
21
288.273000
0
LINE
8
Layer 1
10
12.920100
20
288.273000
11
12.599700
21
288.132000
0
LINE
8
Layer 1
10
12.599700
20
288.132000
11
12.482400
21
287.939000
0
LINE
8
Layer 1
10
12.482400
20
287.939000
11
12.469000
21
287.925000
0
LINE
8
Layer 1
10
12.469000
20
287.925000
11
12.457100
21
287.907000
0
LINE
8
Layer 1
10
12.457100
20
287.907000
11
11.886600
21
287.130000
0
LINE
8
Layer 1
10
11.886600
20
287.130000
11
11.886600
21
287.128000
0
LINE
8
Layer 1
10
11.886600
20
287.128000
11
11.297000
21
286.366000
0
LINE
8
Layer 1
10
11.297000
20
286.366000
11
10.912000
21
285.888000
0
LINE
8
Layer 1
10
10.912000
20
285.888000
11
10.931600
21
285.907000
0
LINE
8
Layer 1
10
10.931600
20
285.907000
11
10.789000
21
285.725000
0
LINE
8
Layer 1
10
10.789000
20
285.725000
11
10.726500
21
285.663000
0
LINE
8
Layer 1
10
10.726500
20
285.663000
11
10.724400
21
285.661000
0
LINE
8
Layer 1
10
10.724400
20
285.661000
11
10.720800
21
285.657000
0
LINE
8
Layer 1
10
10.720800
20
285.657000
11
9.761680
21
284.768000
0
LINE
8
Layer 1
10
9.761680
20
284.768000
11
9.212870
21
284.460000
0
LINE
8
Layer 1
10
9.212870
20
284.460000
11
10.439700
21
287.479000
0
LINE
8
Layer 1
10
10.439700
20
287.479000
11
10.439700
21
287.481000
0
LINE
8
Layer 1
10
10.439700
20
287.481000
11
10.441700
21
287.484000
0
LINE
8
Layer 1
10
10.441700
20
287.484000
11
11.037100
21
289.099000
0
LINE
8
Layer 1
10
11.037100
20
289.099000
11
11.037100
21
289.100000
0
LINE
8
Layer 1
10
11.037100
20
289.100000
11
11.578100
21
290.759000
0
LINE
8
Layer 1
10
11.578100
20
290.759000
11
11.742400
21
291.724000
0
LINE
8
Layer 1
10
11.742400
20
291.724000
11
11.525400
21
292.740000
0
LINE
8
Layer 1
10
11.525400
20
292.740000
11
11.019500
21
293.399000
0
LINE
8
Layer 1
10
11.019500
20
293.399000
11
10.370900
21
293.839000
0
LINE
8
Layer 1
10
10.370900
20
293.839000
11
10.365300
21
293.841000
0
LINE
8
Layer 1
10
10.365300
20
293.841000
11
10.361100
21
293.843000
0
LINE
8
Layer 1
10
10.361100
20
293.843000
11
9.693770
21
294.031750
0
LINE
8
Layer 1
10
9.693770
20
294.031750
11
8.996350
21
294.054000
0
LINE
8
Layer 1
10
8.996350
20
294.054000
11
7.701340
21
293.704000
0
LINE
8
Layer 1
10
7.701340
20
293.704000
11
7.022501
21
293.286375
0
LINE
8
Layer 1
10
7.022501
20
293.286375
11
6.464720
21
292.733000
0
LINE
8
Layer 1
10
6.464720
20
292.733000
11
5.697330
21
291.380000
0
LINE
8
Layer 1
10
5.697330
20
291.380000
11
5.355750
21
289.939000
0
LINE
8
Layer 1
10
5.355750
20
289.939000
11
5.355750
21
289.935000
0
LINE
8
Layer 1
10
5.355750
20
289.935000
11
5.355750
21
289.932000
0
LINE
8
Layer 1
10
5.355750
20
289.932000
11
5.355750
21
288.472000
0
LINE
8
Layer 1
10
5.355750
20
288.472000
11
5.355750
21
288.470000
0
LINE
8
Layer 1
10
5.355750
20
288.470000
11
5.355750
21
288.466000
0
LINE
8
Layer 1
10
5.355750
20
288.466000
11
5.611540
21
287.034000
0
LINE
8
Layer 1
10
5.611540
20
287.034000
11
5.611540
21
287.032000
0
LINE
8
Layer 1
10
5.611540
20
287.032000
11
6.021340
21
285.667000
0
LINE
8
Layer 1
10
6.021340
20
285.667000
11
6.021340
21
285.665000
0
LINE
8
Layer 1
10
6.021340
20
285.665000
11
6.023400
21
285.663000
0
LINE
8
Layer 1
10
6.023400
20
285.663000
11
6.392890
21
284.749000
0
LINE
8
Layer 1
10
6.392890
20
284.749000
11
6.392890
21
284.747000
0
LINE
8
Layer 1
10
6.392890
20
284.747000
11
6.394440
21
284.745000
0
LINE
8
Layer 1
10
6.394440
20
284.745000
11
6.820260
21
283.870000
0
LINE
8
Layer 1
10
6.820260
20
283.870000
11
6.822320
21
283.868000
0
LINE
8
Layer 1
10
6.822320
20
283.868000
11
7.017660
21
283.518000
0
LINE
8
Layer 1
10
7.017660
20
283.518000
11
7.017660
21
283.516000
0
LINE
8
Layer 1
10
7.017660
20
283.516000
11
7.130830
21
283.448000
0
LINE
8
Layer 1
10
7.130830
20
283.448000
11
6.994410
21
283.388000
0
LINE
8
Layer 1
10
6.994410
20
283.388000
11
6.988200
21
283.386000
0
LINE
8
Layer 1
10
6.988200
20
283.386000
11
5.507670
21
282.548000
0
LINE
8
Layer 1
10
5.507670
20
282.548000
11
5.506120
21
282.546000
0
LINE
8
Layer 1
10
5.506120
20
282.546000
11
5.504060
21
282.546000
0
LINE
8
Layer 1
10
5.504060
20
282.546000
11
4.701000
21
281.958000
0
LINE
8
Layer 1
10
4.701000
20
281.958000
11
3.943430
21
281.315000
0
LINE
8
Layer 1
10
3.943430
20
281.315000
11
3.937740
21
281.310000
0
LINE
8
Layer 1
10
3.937740
20
281.310000
11
3.931540
21
281.306000
0
LINE
8
Layer 1
10
3.931540
20
281.306000
11
3.336230
21
280.630000
0
LINE
8
Layer 1
10
3.336230
20
280.630000
11
2.880960
21
279.824000
0
LINE
8
Layer 1
10
2.880960
20
279.824000
11
2.880960
21
279.819000
0
LINE
8
Layer 1
10
2.880960
20
279.819000
11
2.878890
21
279.817000
0
LINE
8
Layer 1
10
2.878890
20
279.817000
11
2.708880
21
279.052000
0
LINE
8
Layer 1
10
2.708880
20
279.052000
11
2.867010
21
278.222000
0
LINE
8
Layer 1
10
2.867010
20
278.222000
11
3.133584
21
277.841375
0
LINE
8
Layer 1
10
3.133584
20
277.841375
11
3.509860
21
277.583000
0
LINE
8
Layer 1
10
3.509860
20
277.583000
11
4.363560
21
277.448000
0
LINE
8
Layer 1
10
4.363560
20
277.448000
11
5.065346
21
277.613875
0
LINE
8
Layer 1
10
5.065346
20
277.613875
11
5.683890
21
277.980000
0
LINE
8
Layer 1
10
5.683890
20
277.980000
11
5.685440
21
277.981000
0
LINE
8
Layer 1
10
5.685440
20
277.981000
11
6.650240
21
278.966000
0
LINE
8
Layer 1
10
6.650240
20
278.966000
11
6.650240
21
278.968000
0
LINE
8
Layer 1
10
6.650240
20
278.968000
11
6.652310
21
278.970000
0
LINE
8
Layer 1
10
6.652310
20
278.970000
11
7.439340
21
280.327000
0
LINE
8
Layer 1
10
7.439340
20
280.327000
11
7.441410
21
280.333000
0
LINE
8
Layer 1
10
7.441410
20
280.333000
11
8.078060
21
281.722000
0
LINE
8
Layer 1
10
8.078060
20
281.722000
11
8.080130
21
281.724000
0
LINE
8
Layer 1
10
8.080130
20
281.724000
11
8.675960
21
283.124000
0
LINE
8
Layer 1
10
8.675960
20
283.124000
11
8.836150
21
283.202000
0
LINE
8
Layer 1
10
8.836150
20
283.202000
11
9.244400
21
283.378000
0
LINE
8
Layer 1
10
9.244400
20
283.378000
11
9.254220
21
283.384000
0
LINE
8
Layer 1
10
9.254220
20
283.384000
11
9.590110
21
283.572000
0
LINE
8
Layer 1
10
9.590110
20
283.572000
11
9.980790
21
283.798000
0
LINE
8
Layer 1
10
9.980790
20
283.798000
11
11.054600
21
284.634000
0
LINE
8
Layer 1
10
11.054600
20
284.634000
11
11.150200
21
284.730000
0
LINE
8
Layer 1
10
11.150200
20
284.730000
11
11.084100
21
284.550000
0
LINE
8
Layer 1
10
11.084100
20
284.550000
11
10.919700
21
283.958000
0
LINE
8
Layer 1
10
10.919700
20
283.958000
11
10.898600
21
283.317000
0
LINE
8
Layer 1
10
10.898600
20
283.317000
11
10.900600
21
283.314000
0
LINE
8
Layer 1
10
10.900600
20
283.314000
11
10.900600
21
283.308000
0
LINE
8
Layer 1
10
10.900600
20
283.308000
11
11.037263
21
282.952250
0
LINE
8
Layer 1
10
11.037263
20
282.952250
11
11.294900
21
282.685000
0
LINE
8
Layer 1
10
11.294900
20
282.685000
11
11.302700
21
282.681000
0
LINE
8
Layer 1
10
11.302700
20
282.681000
11
11.308900
21
282.677000
0
LINE
8
Layer 1
10
11.308900
20
282.677000
11
11.984300
21
282.550000
0
LINE
8
Layer 1
10
11.984300
20
282.550000
11
12.693300
21
282.794000
0
LINE
8
Layer 1
10
12.693300
20
282.794000
11
12.695300
21
282.796000
0
LINE
8
Layer 1
10
12.695300
20
282.796000
11
12.697400
21
282.796000
0
LINE
8
Layer 1
10
12.697400
20
282.796000
11
13.295300
21
283.214000
0
LINE
8
Layer 1
10
13.295300
20
283.214000
11
13.298900
21
283.218000
0
LINE
8
Layer 1
10
13.298900
20
283.218000
11
13.305100
21
283.222000
0
LINE
8
Layer 1
10
13.305100
20
283.222000
11
14.242500
21
284.177000
0
LINE
8
Layer 1
10
14.242500
20
284.177000
11
14.203300
21
284.046000
0
LINE
8
Layer 1
10
14.203300
20
284.046000
11
14.102000
21
283.523000
0
LINE
8
Layer 1
10
14.102000
20
283.523000
11
14.099900
21
283.515000
0
LINE
8
Layer 1
10
14.099900
20
283.515000
11
14.099900
21
283.507000
0
LINE
8
Layer 1
10
14.099900
20
283.507000
11
14.222900
21
282.913000
0
LINE
8
Layer 1
10
14.222900
20
282.913000
11
14.556700
21
282.587000
0
LINE
8
Layer 1
10
14.556700
20
282.587000
11
14.576400
21
282.579000
0
LINE
8
Layer 1
10
14.576400
20
282.579000
11
14.596000
21
282.573000
0
LINE
8
Layer 1
10
14.596000
20
282.573000
11
14.962900
21
282.528000
0
LINE
8
Layer 1
10
14.962900
20
282.528000
11
14.978900
21
282.528000
0
LINE
8
Layer 1
10
14.978900
20
282.528000
11
14.994400
21
282.530000
0
LINE
8
Layer 1
10
14.994400
20
282.530000
11
15.357700
21
282.620000
0
LINE
8
Layer 1
10
15.357700
20
282.620000
11
15.650700
21
282.745000
0
LINE
8
Layer 1
10
15.650700
20
282.745000
11
15.652800
21
282.747000
0
LINE
8
Layer 1
10
15.652800
20
282.747000
11
15.656400
21
282.749000
0
LINE
8
Layer 1
10
15.656400
20
282.749000
11
16.236700
21
283.144000
0
LINE
8
Layer 1
10
16.236700
20
283.144000
11
16.730800
21
283.599000
0
LINE
8
Layer 1
10
16.730800
20
283.599000
11
17.250100
21
284.136000
0
LINE
8
Layer 1
10
17.250100
20
284.136000
11
17.256300
21
284.142000
0
LINE
8
Layer 1
10
17.256300
20
284.142000
11
17.767900
21
284.673000
0
LINE
8
Layer 1
10
17.767900
20
284.673000
11
17.773600
21
284.679000
0
LINE
8
Layer 1
10
17.773600
20
284.679000
11
17.867600
21
284.794000
0
LINE
8
Layer 1
10
17.867600
20
284.794000
11
17.781900
21
283.976000
0
LINE
8
Layer 1
10
17.781900
20
283.976000
11
17.781900
21
283.974000
0
LINE
8
Layer 1
10
17.781900
20
283.974000
11
18.023700
21
283.136000
0
LINE
8
Layer 1
10
18.023700
20
283.136000
11
18.375937
21
282.788750
0
LINE
8
Layer 1
10
18.375937
20
282.788750
11
18.871200
21
282.665000
0
LINE
8
Layer 1
10
18.871200
20
282.665000
11
19.473200
21
282.788000
0
LINE
8
Layer 1
10
19.473200
20
282.788000
11
19.924400
21
283.076000
0
LINE
8
Layer 1
10
19.924400
20
283.076000
11
20.490700
21
283.560000
0
LINE
8
Layer 1
10
20.490700
20
283.560000
11
21.012200
21
284.103000
0
LINE
8
Layer 1
10
21.012200
20
284.103000
11
21.652900
21
284.781000
0
LINE
8
Layer 1
10
21.652900
20
284.781000
11
21.658600
21
284.789000
0
LINE
8
Layer 1
10
21.658600
20
284.789000
11
21.781600
21
284.943000
0
LINE
8
Layer 1
10
21.781600
20
284.943000
11
21.668400
21
284.644000
0
LINE
8
Layer 1
10
21.668400
20
284.644000
11
21.668400
21
284.642000
0
LINE
8
Layer 1
10
21.668400
20
284.642000
11
21.668400
21
284.640000
0
LINE
8
Layer 1
10
21.668400
20
284.640000
11
21.490700
21
284.028000
0
LINE
8
Layer 1
10
21.490700
20
284.028000
11
21.445700
21
283.304000
0
LINE
8
Layer 1
10
21.445700
20
283.304000
11
21.535600
21
282.941000
0
LINE
8
Layer 1
10
21.535600
20
282.941000
11
21.539300
21
282.935000
0
LINE
8
Layer 1
10
21.539300
20
282.935000
11
21.541300
21
282.929000
0
LINE
8
Layer 1
10
21.541300
20
282.929000
11
21.869500
21
282.593000
0
LINE
8
Layer 1
10
21.869500
20
282.593000
11
22.467400
21
282.562000
0
LINE
8
Layer 1
10
22.467400
20
282.562000
11
22.469400
21
282.562000
0
LINE
8
Layer 1
10
22.469400
20
282.562000
11
22.908700
21
282.751000
0
LINE
8
Layer 1
10
22.908700
20
282.751000
11
22.912800
21
282.753000
0
LINE
8
Layer 1
10
22.912800
20
282.753000
11
22.918500
21
282.757000
0
LINE
8
Layer 1
10
22.918500
20
282.757000
11
23.404800
21
283.103000
0
LINE
8
Layer 1
10
23.404800
20
283.103000
11
23.410500
21
283.107000
0
LINE
8
Layer 1
10
23.410500
20
283.107000
11
23.414600
21
283.111000
0
LINE
8
Layer 1
10
23.414600
20
283.111000
11
23.846100
21
283.523000
0
LINE
8
Layer 1
10
23.846100
20
283.523000
11
24.039400
21
283.730000
0
LINE
8
Layer 1
10
24.039400
20
283.730000
11
24.104000
21
283.331000
0
LINE
8
Layer 1
10
24.104000
20
283.331000
11
24.106000
21
283.325000
0
LINE
8
Layer 1
10
24.106000
20
283.325000
11
24.108100
21
283.317000
0
LINE
8
Layer 1
10
24.108100
20
283.317000
11
24.588700
21
282.741000
0
LINE
8
Layer 1
10
24.588700
20
282.741000
11
25.012075
21
282.559500
0
LINE
8
Layer 1
10
25.012075
20
282.559500
11
25.477000
21
282.528000
0
LINE
8
Layer 1
10
25.477000
20
282.528000
11
25.483200
21
282.530000
0
LINE
8
Layer 1
10
25.483200
20
282.530000
11
25.488900
21
282.530000
0
LINE
8
Layer 1
10
25.488900
20
282.530000
11
26.287800
21
282.763000
0
LINE
8
Layer 1
10
26.287800
20
282.763000
11
26.295600
21
282.767000
0
LINE
8
Layer 1
10
26.295600
20
282.767000
11
26.301800
21
282.771000
0
LINE
8
Layer 1
10
26.301800
20
282.771000
11
27.063500
21
283.326000
0
LINE
8
Layer 1
10
27.063500
20
283.326000
11
27.241200
21
283.519000
0
LINE
8
Layer 1
10
27.241200
20
283.519000
11
27.237100
21
283.369000
0
LINE
8
Layer 1
10
27.237100
20
283.369000
11
27.237100
21
283.361000
0
LINE
8
Layer 1
10
27.237100
20
283.361000
11
27.239200
21
283.355000
0
LINE
8
Layer 1
10
27.239200
20
283.355000
11
27.438500
21
282.910125
0
LINE
8
Layer 1
10
27.438500
20
282.910125
11
27.842700
21
282.610000
0
LINE
8
Layer 1
10
27.842700
20
282.610000
11
28.295462
21
282.493250
0
LINE
8
Layer 1
10
28.295462
20
282.493250
11
28.747100
21
282.564000
0
LINE
8
Layer 1
10
28.747100
20
282.564000
11
28.749100
21
282.565000
0
LINE
8
Layer 1
10
28.749100
20
282.565000
11
28.752800
21
282.568000
0
LINE
8
Layer 1
10
28.752800
20
282.568000
11
29.449900
21
282.991000
0
LINE
8
Layer 1
10
29.449900
20
282.991000
11
30.184200
21
283.685000
0
LINE
8
Layer 1
10
30.184200
20
283.685000
11
30.836900
21
284.416000
0
LINE
8
Layer 1
10
30.836900
20
284.416000
11
31.110200
21
284.728000
0
LINE
8
Layer 1
10
31.110200
20
284.728000
11
31.115900
21
284.734000
0
LINE
8
Layer 1
10
31.115900
20
284.734000
11
31.381500
21
285.037000
0
LINE
8
Layer 1
10
31.381500
20
285.037000
11
31.477700
21
285.130000
0
LINE
8
Layer 1
10
31.477700
20
285.130000
11
31.491100
21
285.152000
0
LINE
8
Layer 1
10
31.491100
20
285.152000
11
31.583100
21
285.365000
0
LINE
8
Layer 1
10
31.583100
20
285.365000
11
31.553600
21
285.671000
0
LINE
8
Layer 1
10
31.553600
20
285.671000
11
31.340700
21
285.874000
0
LINE
8
Layer 1
10
31.340700
20
285.874000
11
31.057500
21
285.931000
0
LINE
8
Layer 1
10
31.057500
20
285.931000
11
30.799700
21
285.792000
0
LINE
8
Layer 1
10
30.799700
20
285.792000
11
30.791900
21
285.786000
0
LINE
8
Layer 1
10
30.791900
20
285.786000
11
30.094800
21
284.974000
0
LINE
8
Layer 1
10
30.094800
20
284.974000
11
29.379600
21
284.201000
0
LINE
8
Layer 1
10
29.379600
20
284.201000
11
29.373900
21
284.195000
0
LINE
8
Layer 1
10
29.373900
20
284.195000
11
29.368200
21
284.189000
0
LINE
8
Layer 1
10
29.368200
20
284.189000
11
29.104200
21
283.925000
0
LINE
8
Layer 1
10
29.104200
20
283.925000
11
28.797700
21
283.655000
0
LINE
8
Layer 1
10
28.797700
20
283.655000
11
28.801300
21
283.662000
0
LINE
8
Layer 1
10
28.801300
20
283.662000
11
28.598300
21
283.519000
0
LINE
8
Layer 1
10
28.598300
20
283.519000
11
28.364200
21
283.442000
0
LINE
8
Layer 1
10
28.364200
20
283.442000
11
28.360000
21
283.442000
0
LINE
8
Layer 1
10
28.360000
20
283.442000
11
28.356400
21
283.441000
0
LINE
8
Layer 1
10
28.356400
20
283.441000
11
28.243200
21
283.441000
0
LINE
8
Layer 1
10
28.243200
20
283.441000
11
28.188500
21
283.484000
0
LINE
8
Layer 1
10
28.188500
20
283.484000
11
28.186400
21
283.489000
0
LINE
8
Layer 1
10
28.186400
20
283.489000
11
28.184300
21
283.494000
0
LINE
8
Layer 1
10
28.184300
20
283.494000
11
28.119700
21
283.730000
0
LINE
8
Layer 1
10
28.119700
20
283.730000
11
28.170900
21
284.066000
0
LINE
8
Layer 1
10
28.170900
20
284.066000
11
28.172400
21
284.073000
0
LINE
8
Layer 1
10
28.172400
20
284.073000
11
28.172400
21
284.080000
0
LINE
8
Layer 1
10
28.172400
20
284.080000
11
28.258700
21
284.482000
0
LINE
8
Layer 1
10
28.258700
20
284.482000
11
28.260800
21
284.489000
0
LINE
8
Layer 1
10
28.260800
20
284.489000
11
28.262400
21
284.496000
0
LINE
8
Layer 1
10
28.262400
20
284.496000
11
28.411200
21
284.917000
0
LINE
8
Layer 1
10
28.411200
20
284.917000
11
28.413300
21
284.925000
0
LINE
8
Layer 1
10
28.413300
20
284.925000
11
28.416900
21
284.935000
0
LINE
8
Layer 1
10
28.416900
20
284.935000
11
28.487100
21
285.105000
0
LINE
8
Layer 1
10
28.487100
20
285.105000
11
28.491300
21
285.113000
0
LINE
8
Layer 1
10
28.491300
20
285.113000
11
28.494900
21
285.120000
0
LINE
8
Layer 1
10
28.494900
20
285.120000
11
28.608100
21
285.347000
0
LINE
8
Layer 1
10
28.608100
20
285.347000
11
28.610100
21
285.351000
0
LINE
8
Layer 1
10
28.610100
20
285.351000
11
28.729500
21
285.554000
0
LINE
8
Layer 1
10
28.729500
20
285.554000
11
28.745000
21
285.581000
0
LINE
8
Layer 1
10
28.745000
20
285.581000
11
28.874200
21
285.802000
0
LINE
8
Layer 1
10
28.874200
20
285.802000
11
28.879900
21
285.812000
0
LINE
8
Layer 1
10
28.879900
20
285.812000
11
29.260700
21
286.554000
0
LINE
8
Layer 1
10
29.260700
20
286.554000
11
29.264900
21
286.564000
0
LINE
8
Layer 1
10
29.264900
20
286.564000
11
29.630700
21
287.316000
0
LINE
8
Layer 1
10
29.630700
20
287.316000
11
29.634900
21
287.327000
0
LINE
8
Layer 1
10
29.634900
20
287.327000
11
29.638500
21
287.339000
0
LINE
8
Layer 1
10
29.638500
20
287.339000
11
29.693300
21
287.443000
0
LINE
8
Layer 1
10
29.693300
20
287.443000
11
29.699500
21
287.452000
0
LINE
8
Layer 1
10
29.699500
20
287.452000
11
29.703100
21
287.460000
0
LINE
8
Layer 1
10
29.703100
20
287.460000
11
29.793000
21
287.714000
0
LINE
8
Layer 1
10
29.793000
20
287.714000
11
29.818300
21
288.027000
0
LINE
8
Layer 1
10
29.818300
20
288.027000
11
29.523800
21
288.343000
0
LINE
8
Layer 1
10
29.523800
20
288.343000
11
29.322800
21
288.391000
0
LINE
8
Layer 1
10
29.322800
20
288.391000
11
29.144500
21
288.431000
0
LINE
8
Layer 1
10
29.144500
20
288.431000
11
29.134700
21
288.433000
0
LINE
8
Layer 1
10
29.134700
20
288.433000
11
29.123300
21
288.435000
0
LINE
8
Layer 1
10
29.123300
20
288.435000
11
28.048900
21
288.372000
0
LINE
8
Layer 1
10
28.048900
20
288.372000
11
27.070200
21
288.048000
0
LINE
8
Layer 1
10
27.070200
20
288.048000
11
26.343600
21
287.602000
0
LINE
8
Layer 1
10
26.343600
20
287.602000
11
25.707000
21
287.087000
0
LINE
8
Layer 1
10
25.707000
20
287.087000
11
25.007800
21
286.349000
0
LINE
8
Layer 1
10
25.007800
20
286.349000
11
24.621200
21
285.788000
0
LINE
8
Layer 1
10
24.621200
20
285.788000
11
24.574200
21
285.743000
0
LINE
8
Layer 1
10
24.574200
20
285.743000
11
24.570600
21
285.737000
0
LINE
8
Layer 1
10
24.570600
20
285.737000
11
24.564400
21
285.732000
0
LINE
8
Layer 1
10
24.564400
20
285.732000
11
24.355600
21
285.485000
0
LINE
8
Layer 1
10
24.355600
20
285.485000
11
24.345800
21
285.477000
0
LINE
8
Layer 1
10
24.345800
20
285.477000
11
24.338000
21
285.468000
0
LINE
8
Layer 1
10
24.338000
20
285.468000
11
23.617200
21
284.634000
0
LINE
8
Layer 1
10
23.617200
20
284.634000
11
23.199100
21
284.216000
0
LINE
8
Layer 1
10
23.199100
20
284.216000
11
23.195500
21
284.212000
0
LINE
8
Layer 1
10
23.195500
20
284.212000
11
22.798600
21
283.813000
0
LINE
8
Layer 1
10
22.798600
20
283.813000
11
22.373300
21
283.511000
0
LINE
8
Layer 1
10
22.373300
20
283.511000
11
22.369200
21
283.509000
0
LINE
8
Layer 1
10
22.369200
20
283.509000
11
22.396600
21
283.831000
0
LINE
8
Layer 1
10
22.396600
20
283.831000
11
22.396600
21
283.835000
0
LINE
8
Layer 1
10
22.396600
20
283.835000
11
22.562400
21
284.362000
0
LINE
8
Layer 1
10
22.562400
20
284.362000
11
22.562400
21
284.364000
0
LINE
8
Layer 1
10
22.562400
20
284.364000
11
22.562400
21
284.368000
0
LINE
8
Layer 1
10
22.562400
20
284.368000
11
22.767600
21
284.903000
0
LINE
8
Layer 1
10
22.767600
20
284.903000
11
22.767600
21
284.905000
0
LINE
8
Layer 1
10
22.767600
20
284.905000
11
22.767600
21
284.907000
0
LINE
8
Layer 1
10
22.767600
20
284.907000
11
23.316400
21
286.155000
0
LINE
8
Layer 1
10
23.316400
20
286.155000
11
23.320500
21
286.161000
0
LINE
8
Layer 1
10
23.320500
20
286.161000
11
23.947400
21
287.378000
0
LINE
8
Layer 1
10
23.947400
20
287.378000
11
23.933400
21
287.356000
0
LINE
8
Layer 1
10
23.933400
20
287.356000
11
23.992300
21
287.472000
0
LINE
8
Layer 1
10
23.992300
20
287.472000
11
24.021800
21
287.532000
0
LINE
8
Layer 1
10
24.021800
20
287.532000
11
24.074500
21
287.636000
0
LINE
8
Layer 1
10
24.074500
20
287.636000
11
24.023300
21
288.028000
0
LINE
8
Layer 1
10
24.023300
20
288.028000
11
23.781500
21
288.245000
0
LINE
8
Layer 1
10
23.781500
20
288.245000
11
23.752000
21
288.257000
0
LINE
8
Layer 1
10
23.752000
20
288.257000
11
23.722600
21
288.261000
0
LINE
8
Layer 1
10
23.722600
20
288.261000
11
23.253900
21
288.044000
0
LINE
8
Layer 1
10
23.253900
20
288.044000
11
22.845600
21
287.562000
0
LINE
8
Layer 1
10
22.845600
20
287.562000
11
21.541300
21
286.066000
0
LINE
8
Layer 1
10
21.541300
20
286.066000
11
21.384700
21
285.880000
0
LINE
8
Layer 1
10
21.384700
20
285.880000
11
21.346000
21
285.851000
0
LINE
8
Layer 1
10
21.346000
20
285.851000
11
21.152200
21
285.657000
0
LINE
8
Layer 1
10
21.152200
20
285.657000
11
21.142400
21
285.644000
0
LINE
8
Layer 1
10
21.142400
20
285.644000
11
21.134600
21
285.630000
0
LINE
8
Layer 1
10
21.134600
20
285.630000
11
21.056600
21
285.524000
0
LINE
8
Layer 1
10
21.056600
20
285.524000
11
21.053000
21
285.521000
0
LINE
8
Layer 1
10
21.053000
20
285.521000
11
20.451500
21
284.860000
0
LINE
8
Layer 1
10
20.451500
20
284.860000
11
20.447300
21
284.857000
0
LINE
8
Layer 1
10
20.447300
20
284.857000
11
20.072200
21
284.444000
0
LINE
8
Layer 1
10
20.072200
20
284.444000
11
19.468600
21
283.896000
0
LINE
8
Layer 1
10
19.468600
20
283.896000
11
19.467000
21
283.894000
0
LINE
8
Layer 1
10
19.467000
20
283.894000
11
19.462900
21
283.892000
0
LINE
8
Layer 1
10
19.462900
20
283.892000
11
18.919800
21
283.577000
0
LINE
8
Layer 1
10
18.919800
20
283.577000
11
18.849500
21
283.575000
0
LINE
8
Layer 1
10
18.849500
20
283.575000
11
18.779200
21
283.679000
0
LINE
8
Layer 1
10
18.779200
20
283.679000
11
18.777100
21
283.683000
0
LINE
8
Layer 1
10
18.777100
20
283.683000
11
18.775100
21
283.686000
0
LINE
8
Layer 1
10
18.775100
20
283.686000
11
18.703300
21
284.005000
0
LINE
8
Layer 1
10
18.703300
20
284.005000
11
18.736300
21
284.402000
0
LINE
8
Layer 1
10
18.736300
20
284.402000
11
18.738400
21
284.405000
0
LINE
8
Layer 1
10
18.738400
20
284.405000
11
18.738400
21
284.407000
0
LINE
8
Layer 1
10
18.738400
20
284.407000
11
18.904300
21
285.122000
0
LINE
8
Layer 1
10
18.904300
20
285.122000
11
18.904300
21
285.124000
0
LINE
8
Layer 1
10
18.904300
20
285.124000
11
18.904300
21
285.126000
0
LINE
8
Layer 1
10
18.904300
20
285.126000
11
19.185400
21
285.990000
0
LINE
8
Layer 1
10
19.185400
20
285.990000
11
19.185400
21
285.991000
0
LINE
8
Layer 1
10
19.185400
20
285.991000
11
19.359500
21
286.454000
0
LINE
8
Layer 1
10
19.359500
20
286.454000
11
19.429800
21
286.665000
0
LINE
8
Layer 1
10
19.429800
20
286.665000
11
19.511500
21
286.782000
0
LINE
8
Layer 1
10
19.511500
20
286.782000
11
19.521300
21
286.792000
0
LINE
8
Layer 1
10
19.521300
20
286.792000
11
19.531100
21
286.804000
0
LINE
8
Layer 1
10
19.531100
20
286.804000
11
20.511900
21
288.073000
0
LINE
8
Layer 1
10
20.511900
20
288.073000
11
21.472600
21
289.360000
0
LINE
8
Layer 1
10
21.472600
20
289.360000
11
22.220900
21
290.395000
0
LINE
8
Layer 1
10
22.220900
20
290.395000
11
22.224500
21
290.400000
0
LINE
8
Layer 1
10
22.224500
20
290.400000
11
22.939700
21
291.483000
0
LINE
8
Layer 1
10
22.939700
20
291.483000
11
22.945400
21
291.492000
0
LINE
8
Layer 1
10
22.945400
20
291.492000
11
23.193400
21
291.933000
0
LINE
8
Layer 1
10
23.193400
20
291.933000
11
23.199600
21
291.944000
0
LINE
8
Layer 1
10
23.199600
20
291.944000
11
23.441500
21
292.447000
0
LINE
8
Layer 1
10
23.441500
20
292.447000
11
23.441500
21
292.448000
0
LINE
8
Layer 1
10
23.441500
20
292.448000
11
23.554600
21
293.222000
0
LINE
8
Layer 1
10
23.554600
20
293.222000
11
23.414437
21
293.679125
0
LINE
8
Layer 1
10
23.414437
20
293.679125
11
23.068400
21
293.990000
0
LINE
8
Layer 1
10
23.068400
20
293.990000
11
22.674100
21
294.093000
0
LINE
8
Layer 1
10
22.674100
20
294.093000
11
22.674100
21
294.093000
0
LINE
8
Layer 1
10
43.881000
20
293.210000
11
44.671700
21
293.138000
0
LINE
8
Layer 1
10
44.671700
20
293.138000
11
44.693900
21
293.133000
0
LINE
8
Layer 1
10
44.693900
20
293.133000
11
44.722900
21
293.126000
0
LINE
8
Layer 1
10
44.722900
20
293.126000
11
44.730600
21
293.122000
0
LINE
8
Layer 1
10
44.730600
20
293.122000
11
44.740400
21
293.120000
0
LINE
8
Layer 1
10
44.740400
20
293.120000
11
44.831900
21
293.099000
0
LINE
8
Layer 1
10
44.831900
20
293.099000
11
43.726500
21
290.470000
0
LINE
8
Layer 1
10
43.726500
20
290.470000
11
43.074400
21
288.952000
0
LINE
8
Layer 1
10
43.074400
20
288.952000
11
43.072300
21
288.950000
0
LINE
8
Layer 1
10
43.072300
20
288.950000
11
42.711100
21
288.243000
0
LINE
8
Layer 1
10
42.711100
20
288.243000
11
42.253800
21
287.538000
0
LINE
8
Layer 1
10
42.253800
20
287.538000
11
42.251700
21
287.536000
0
LINE
8
Layer 1
10
42.251700
20
287.536000
11
42.251700
21
287.534000
0
LINE
8
Layer 1
10
42.251700
20
287.534000
11
40.381000
21
285.156000
0
LINE
8
Layer 1
10
40.381000
20
285.156000
11
39.386700
21
284.257000
0
LINE
8
Layer 1
10
39.386700
20
284.257000
11
38.267400
21
283.626000
0
LINE
8
Layer 1
10
38.267400
20
283.626000
11
37.414300
21
283.487000
0
LINE
8
Layer 1
10
37.414300
20
283.487000
11
37.412200
21
283.487000
0
LINE
8
Layer 1
10
37.412200
20
283.487000
11
36.954900
21
283.624000
0
LINE
8
Layer 1
10
36.954900
20
283.624000
11
36.609100
21
283.936000
0
LINE
8
Layer 1
10
36.609100
20
283.936000
11
36.390500
21
284.405000
0
LINE
8
Layer 1
10
36.390500
20
284.405000
11
36.390500
21
284.409000
0
LINE
8
Layer 1
10
36.390500
20
284.409000
11
36.388500
21
284.411000
0
LINE
8
Layer 1
10
36.388500
20
284.411000
11
36.267600
21
284.946000
0
LINE
8
Layer 1
10
36.267600
20
284.946000
11
36.267600
21
284.948000
0
LINE
8
Layer 1
10
36.267600
20
284.948000
11
36.339900
21
286.259000
0
LINE
8
Layer 1
10
36.339900
20
286.259000
11
36.728500
21
287.533000
0
LINE
8
Layer 1
10
36.728500
20
287.533000
11
36.728500
21
287.534000
0
LINE
8
Layer 1
10
36.728500
20
287.534000
11
36.728500
21
287.536000
0
LINE
8
Layer 1
10
36.728500
20
287.536000
11
37.587900
21
289.199000
0
LINE
8
Layer 1
10
37.587900
20
289.199000
11
37.590000
21
289.200000
0
LINE
8
Layer 1
10
37.590000
20
289.200000
11
38.750100
21
290.661000
0
LINE
8
Layer 1
10
38.750100
20
290.661000
11
38.752200
21
290.661000
0
LINE
8
Layer 1
10
38.752200
20
290.661000
11
39.908200
21
291.706000
0
LINE
8
Layer 1
10
39.908200
20
291.706000
11
39.910200
21
291.708000
0
LINE
8
Layer 1
10
39.910200
20
291.708000
11
39.912300
21
291.710000
0
LINE
8
Layer 1
10
39.912300
20
291.710000
11
41.226400
21
292.525000
0
LINE
8
Layer 1
10
41.226400
20
292.525000
11
41.228500
21
292.525000
0
LINE
8
Layer 1
10
41.228500
20
292.525000
11
41.232600
21
292.527000
0
LINE
8
Layer 1
10
41.232600
20
292.527000
11
42.219437
21
292.933000
0
LINE
8
Layer 1
10
42.219437
20
292.933000
11
43.220600
21
293.153000
0
LINE
8
Layer 1
10
43.220600
20
293.153000
11
43.226800
21
293.153000
0
LINE
8
Layer 1
10
43.226800
20
293.153000
11
43.230400
21
293.156000
0
LINE
8
Layer 1
10
43.230400
20
293.156000
11
43.881000
21
293.210000
0
LINE
8
Layer 1
10
43.881000
20
293.210000
11
43.881000
21
293.210000
0
LINE
8
Layer 1
10
9.234580
20
293.138000
11
9.808700
21
293.048000
0
LINE
8
Layer 1
10
9.808700
20
293.048000
11
9.812320
21
293.046000
0
LINE
8
Layer 1
10
9.812320
20
293.046000
11
9.816450
21
293.046000
0
LINE
8
Layer 1
10
9.816450
20
293.046000
11
10.338719
21
292.792000
0
LINE
8
Layer 1
10
10.338719
20
292.792000
11
10.691300
21
292.349000
0
LINE
8
Layer 1
10
10.691300
20
292.349000
11
10.803000
21
291.679000
0
LINE
8
Layer 1
10
10.803000
20
291.679000
11
10.658300
21
290.942000
0
LINE
8
Layer 1
10
10.658300
20
290.942000
11
10.658300
21
290.941000
0
LINE
8
Layer 1
10
10.658300
20
290.941000
11
10.656200
21
290.939000
0
LINE
8
Layer 1
10
10.656200
20
290.939000
11
10.144600
21
289.365000
0
LINE
8
Layer 1
10
10.144600
20
289.365000
11
9.552910
21
287.777000
0
LINE
8
Layer 1
10
9.552910
20
287.777000
11
9.550840
21
287.777000
0
LINE
8
Layer 1
10
9.550840
20
287.777000
11
9.550840
21
287.774000
0
LINE
8
Layer 1
10
9.550840
20
287.774000
11
8.845970
21
285.980000
0
LINE
8
Layer 1
10
8.845970
20
285.980000
11
8.097700
21
284.179000
0
LINE
8
Layer 1
10
8.097700
20
284.179000
11
8.095630
21
284.177000
0
LINE
8
Layer 1
10
8.095630
20
284.177000
11
7.943180
21
283.804000
0
LINE
8
Layer 1
10
7.943180
20
283.804000
11
7.884790
21
283.775000
0
LINE
8
Layer 1
10
7.884790
20
283.775000
11
7.861540
21
283.765000
0
LINE
8
Layer 1
10
7.861540
20
283.765000
11
7.812440
21
284.019000
0
LINE
8
Layer 1
10
7.812440
20
284.019000
11
7.814510
21
284.019000
0
LINE
8
Layer 1
10
7.814510
20
284.019000
11
7.009910
21
285.665000
0
LINE
8
Layer 1
10
7.009910
20
285.665000
11
7.007840
21
285.669000
0
LINE
8
Layer 1
10
7.007840
20
285.669000
11
6.482290
21
287.434000
0
LINE
8
Layer 1
10
6.482290
20
287.434000
11
6.482290
21
287.437000
0
LINE
8
Layer 1
10
6.482290
20
287.437000
11
6.275590
21
288.794000
0
LINE
8
Layer 1
10
6.275590
20
288.794000
11
6.275590
21
288.798000
0
LINE
8
Layer 1
10
6.275590
20
288.798000
11
6.275590
21
288.800000
0
LINE
8
Layer 1
10
6.275590
20
288.800000
11
6.349480
21
290.159000
0
LINE
8
Layer 1
10
6.349480
20
290.159000
11
6.351550
21
290.163000
0
LINE
8
Layer 1
10
6.351550
20
290.163000
11
6.351550
21
290.167000
0
LINE
8
Layer 1
10
6.351550
20
290.167000
11
6.732410
21
291.493000
0
LINE
8
Layer 1
10
6.732410
20
291.493000
11
6.732410
21
291.495000
0
LINE
8
Layer 1
10
6.732410
20
291.495000
11
7.094632
21
292.077125
0
LINE
8
Layer 1
10
7.094632
20
292.077125
11
7.579900
21
292.552000
0
LINE
8
Layer 1
10
7.579900
20
292.552000
11
7.581970
21
292.554000
0
LINE
8
Layer 1
10
7.581970
20
292.554000
11
7.584030
21
292.556000
0
LINE
8
Layer 1
10
7.584030
20
292.556000
11
8.634620
21
293.061000
0
LINE
8
Layer 1
10
8.634620
20
293.061000
11
8.636680
21
293.064000
0
LINE
8
Layer 1
10
8.636680
20
293.064000
11
8.638750
21
293.064000
0
LINE
8
Layer 1
10
8.638750
20
293.064000
11
9.234580
21
293.138000
0
LINE
8
Layer 1
10
9.234580
20
293.138000
11
9.234580
21
293.138000
0
LINE
8
Layer 1
10
22.622900
20
293.128000
11
22.638900
21
292.997000
0
LINE
8
Layer 1
10
22.638900
20
292.997000
11
22.525200
21
292.650000
0
LINE
8
Layer 1
10
22.525200
20
292.650000
11
21.980600
21
291.696000
0
LINE
8
Layer 1
10
21.980600
20
291.696000
11
21.355300
21
290.784000
0
LINE
8
Layer 1
10
21.355300
20
290.784000
11
20.787400
21
290.001000
0
LINE
8
Layer 1
10
20.787400
20
290.001000
11
20.978600
21
290.437000
0
LINE
8
Layer 1
10
20.978600
20
290.437000
11
20.980600
21
290.438000
0
LINE
8
Layer 1
10
20.980600
20
290.438000
11
20.980600
21
290.440000
0
LINE
8
Layer 1
10
20.980600
20
290.440000
11
21.381100
21
291.277000
0
LINE
8
Layer 1
10
21.381100
20
291.277000
11
21.383200
21
291.280000
0
LINE
8
Layer 1
10
21.383200
20
291.280000
11
21.383200
21
291.282000
0
LINE
8
Layer 1
10
21.383200
20
291.282000
11
21.646700
21
291.827000
0
LINE
8
Layer 1
10
21.646700
20
291.827000
11
21.648800
21
291.833000
0
LINE
8
Layer 1
10
21.648800
20
291.833000
11
21.960900
21
292.364000
0
LINE
8
Layer 1
10
21.960900
20
292.364000
11
21.963000
21
292.366000
0
LINE
8
Layer 1
10
21.963000
20
292.366000
11
21.965100
21
292.370000
0
LINE
8
Layer 1
10
21.965100
20
292.370000
11
22.295300
21
292.847000
0
LINE
8
Layer 1
10
22.295300
20
292.847000
11
22.297300
21
292.851000
0
LINE
8
Layer 1
10
22.297300
20
292.851000
11
22.298900
21
292.855000
0
LINE
8
Layer 1
10
22.298900
20
292.855000
11
22.622900
21
293.128000
0
LINE
8
Layer 1
10
22.622900
20
293.128000
11
22.622900
21
293.128000
0
LINE
8
Layer 1
10
50.351400
20
293.128000
11
50.367500
21
292.997000
0
LINE
8
Layer 1
10
50.367500
20
292.997000
11
50.253800
21
292.650000
0
LINE
8
Layer 1
10
50.253800
20
292.650000
11
49.711200
21
291.696000
0
LINE
8
Layer 1
10
49.711200
20
291.696000
11
49.083800
21
290.784000
0
LINE
8
Layer 1
10
49.083800
20
290.784000
11
48.517500
21
290.005000
0
LINE
8
Layer 1
10
48.517500
20
290.005000
11
48.709200
21
290.437000
0
LINE
8
Layer 1
10
48.709200
20
290.437000
11
48.709200
21
290.438000
0
LINE
8
Layer 1
10
48.709200
20
290.438000
11
48.711200
21
290.440000
0
LINE
8
Layer 1
10
48.711200
20
290.440000
11
49.109700
21
291.277000
0
LINE
8
Layer 1
10
49.109700
20
291.277000
11
49.111700
21
291.280000
0
LINE
8
Layer 1
10
49.111700
20
291.280000
11
49.111700
21
291.282000
0
LINE
8
Layer 1
10
49.111700
20
291.282000
11
49.375300
21
291.827000
0
LINE
8
Layer 1
10
49.375300
20
291.827000
11
49.376800
21
291.833000
0
LINE
8
Layer 1
10
49.376800
20
291.833000
11
49.689500
21
292.364000
0
LINE
8
Layer 1
10
49.689500
20
292.364000
11
49.691500
21
292.366000
0
LINE
8
Layer 1
10
49.691500
20
292.366000
11
49.693600
21
292.370000
0
LINE
8
Layer 1
10
49.693600
20
292.370000
11
50.023800
21
292.847000
0
LINE
8
Layer 1
10
50.023800
20
292.847000
11
50.025900
21
292.851000
0
LINE
8
Layer 1
10
50.025900
20
292.851000
11
50.027400
21
292.855000
0
LINE
8
Layer 1
10
50.027400
20
292.855000
11
50.351400
21
293.128000
0
LINE
8
Layer 1
10
50.351400
20
293.128000
11
50.351400
21
293.128000
0
LINE
8
Layer 1
10
24.857400
20
291.657000
11
24.591800
21
291.593000
0
LINE
8
Layer 1
10
24.591800
20
291.593000
11
24.586100
21
291.589000
0
LINE
8
Layer 1
10
24.586100
20
291.589000
11
24.579900
21
291.587000
0
LINE
8
Layer 1
10
24.579900
20
291.587000
11
24.273500
21
291.257000
0
LINE
8
Layer 1
10
24.273500
20
291.257000
11
24.187700
21
290.804000
0
LINE
8
Layer 1
10
24.187700
20
290.804000
11
24.496200
21
290.358000
0
LINE
8
Layer 1
10
24.496200
20
290.358000
11
25.015500
21
290.367000
0
LINE
8
Layer 1
10
25.015500
20
290.367000
11
25.343700
21
290.669000
0
LINE
8
Layer 1
10
25.343700
20
290.669000
11
25.345700
21
290.677000
0
LINE
8
Layer 1
10
25.345700
20
290.677000
11
25.349900
21
290.683000
0
LINE
8
Layer 1
10
25.349900
20
290.683000
11
25.431500
21
291.128000
0
LINE
8
Layer 1
10
25.431500
20
291.128000
11
25.142700
21
291.581000
0
LINE
8
Layer 1
10
25.142700
20
291.581000
11
25.132800
21
291.587000
0
LINE
8
Layer 1
10
25.132800
20
291.587000
11
25.123000
21
291.593000
0
LINE
8
Layer 1
10
25.123000
20
291.593000
11
24.857400
21
291.657000
0
LINE
8
Layer 1
10
24.857400
20
291.657000
11
24.857400
21
291.657000
0
LINE
8
Layer 1
10
15.509600
20
290.337000
11
15.251800
21
290.251000
0
LINE
8
Layer 1
10
15.251800
20
290.251000
11
14.261700
21
289.581000
0
LINE
8
Layer 1
10
14.261700
20
289.581000
11
14.049688
21
289.261000
0
LINE
8
Layer 1
10
14.049688
20
289.261000
11
14.121100
21
288.884000
0
LINE
8
Layer 1
10
14.121100
20
288.884000
11
14.441975
21
288.670875
0
LINE
8
Layer 1
10
14.441975
20
288.670875
11
14.820300
21
288.745000
0
LINE
8
Layer 1
10
14.820300
20
288.745000
11
15.810400
21
289.415000
0
LINE
8
Layer 1
10
15.810400
20
289.415000
11
16.022662
21
289.735375
0
LINE
8
Layer 1
10
16.022662
20
289.735375
11
15.951500
21
290.112000
0
LINE
8
Layer 1
10
15.951500
20
290.112000
11
15.509600
21
290.337000
0
LINE
8
Layer 1
10
15.509600
20
290.337000
11
15.509600
21
290.337000
0
LINE
8
Layer 1
10
28.613200
20
287.507000
11
28.512000
21
287.329000
0
LINE
8
Layer 1
10
28.512000
20
287.329000
11
28.512000
21
287.325000
0
LINE
8
Layer 1
10
28.512000
20
287.325000
11
28.226700
21
286.814000
0
LINE
8
Layer 1
10
28.226700
20
286.814000
11
28.226700
21
286.812000
0
LINE
8
Layer 1
10
28.226700
20
286.812000
11
28.224600
21
286.812000
0
LINE
8
Layer 1
10
28.224600
20
286.812000
11
28.043200
21
286.446000
0
LINE
8
Layer 1
10
28.043200
20
286.446000
11
27.884600
21
286.073000
0
LINE
8
Layer 1
10
27.884600
20
286.073000
11
27.715100
21
285.716000
0
LINE
8
Layer 1
10
27.715100
20
285.716000
11
27.713000
21
285.708000
0
LINE
8
Layer 1
10
27.713000
20
285.708000
11
27.634500
21
285.554000
0
LINE
8
Layer 1
10
27.634500
20
285.554000
11
27.625200
21
285.536000
0
LINE
8
Layer 1
10
27.625200
20
285.536000
11
27.616900
21
285.517000
0
LINE
8
Layer 1
10
27.616900
20
285.517000
11
27.538900
21
285.388000
0
LINE
8
Layer 1
10
27.538900
20
285.388000
11
27.531100
21
285.378000
0
LINE
8
Layer 1
10
27.531100
20
285.378000
11
27.523400
21
285.368000
0
LINE
8
Layer 1
10
27.523400
20
285.368000
11
27.074300
21
284.733000
0
LINE
8
Layer 1
10
27.074300
20
284.733000
11
27.072200
21
284.730000
0
LINE
8
Layer 1
10
27.072200
20
284.730000
11
27.070200
21
284.726000
0
LINE
8
Layer 1
10
27.070200
20
284.726000
11
26.597300
21
284.163000
0
LINE
8
Layer 1
10
26.597300
20
284.163000
11
26.130700
21
283.769000
0
LINE
8
Layer 1
10
26.130700
20
283.769000
11
26.127100
21
283.765000
0
LINE
8
Layer 1
10
26.127100
20
283.765000
11
26.123000
21
283.763000
0
LINE
8
Layer 1
10
26.123000
20
283.763000
11
25.632500
21
283.517000
0
LINE
8
Layer 1
10
25.632500
20
283.517000
11
25.630500
21
283.517000
0
LINE
8
Layer 1
10
25.630500
20
283.517000
11
25.331800
21
283.468000
0
LINE
8
Layer 1
10
25.331800
20
283.468000
11
25.329700
21
283.468000
0
LINE
8
Layer 1
10
25.329700
20
283.468000
11
25.327700
21
283.468000
0
LINE
8
Layer 1
10
25.327700
20
283.468000
11
25.124600
21
283.491000
0
LINE
8
Layer 1
10
25.124600
20
283.491000
11
25.035200
21
283.563000
0
LINE
8
Layer 1
10
25.035200
20
283.563000
11
24.966400
21
283.739000
0
LINE
8
Layer 1
10
24.966400
20
283.739000
11
24.966400
21
283.741000
0
LINE
8
Layer 1
10
24.966400
20
283.741000
11
24.966400
21
284.255000
0
LINE
8
Layer 1
10
24.966400
20
284.255000
11
25.144200
21
284.808000
0
LINE
8
Layer 1
10
25.144200
20
284.808000
11
25.595300
21
285.581000
0
LINE
8
Layer 1
10
25.595300
20
285.581000
11
26.198900
21
286.259000
0
LINE
8
Layer 1
10
26.198900
20
286.259000
11
26.201000
21
286.261000
0
LINE
8
Layer 1
10
26.201000
20
286.261000
11
26.203100
21
286.265000
0
LINE
8
Layer 1
10
26.203100
20
286.265000
11
26.773000
21
286.779000
0
LINE
8
Layer 1
10
26.773000
20
286.779000
11
27.443300
21
287.195000
0
LINE
8
Layer 1
10
27.443300
20
287.195000
11
28.208600
21
287.462000
0
LINE
8
Layer 1
10
28.208600
20
287.462000
11
28.613200
21
287.507000
0
LINE
8
Layer 1
10
28.613200
20
287.507000
11
28.613200
21
287.507000
0
LINE
8
Layer 1
10
60.771500
20
287.507000
11
60.671700
21
287.331000
0
LINE
8
Layer 1
10
60.671700
20
287.331000
11
60.670200
21
287.329000
0
LINE
8
Layer 1
10
60.670200
20
287.329000
11
60.670200
21
287.325000
0
LINE
8
Layer 1
10
60.670200
20
287.325000
11
60.384900
21
286.814000
0
LINE
8
Layer 1
10
60.384900
20
286.814000
11
60.384900
21
286.812000
0
LINE
8
Layer 1
10
60.384900
20
286.812000
11
60.382900
21
286.812000
0
LINE
8
Layer 1
10
60.382900
20
286.812000
11
60.201000
21
286.446000
0
LINE
8
Layer 1
10
60.201000
20
286.446000
11
60.042800
21
286.073000
0
LINE
8
Layer 1
10
60.042800
20
286.073000
11
59.872800
21
285.716000
0
LINE
8
Layer 1
10
59.872800
20
285.716000
11
59.870800
21
285.708000
0
LINE
8
Layer 1
10
59.870800
20
285.708000
11
59.792700
21
285.554000
0
LINE
8
Layer 1
10
59.792700
20
285.554000
11
59.782900
21
285.536000
0
LINE
8
Layer 1
10
59.782900
20
285.536000
11
59.775200
21
285.517000
0
LINE
8
Layer 1
10
59.775200
20
285.517000
11
59.697100
21
285.388000
0
LINE
8
Layer 1
10
59.697100
20
285.388000
11
59.689400
21
285.378000
0
LINE
8
Layer 1
10
59.689400
20
285.378000
11
59.681600
21
285.368000
0
LINE
8
Layer 1
10
59.681600
20
285.368000
11
59.232600
21
284.733000
0
LINE
8
Layer 1
10
59.232600
20
284.733000
11
59.230500
21
284.730000
0
LINE
8
Layer 1
10
59.230500
20
284.730000
11
59.228400
21
284.726000
0
LINE
8
Layer 1
10
59.228400
20
284.726000
11
58.755600
21
284.163000
0
LINE
8
Layer 1
10
58.755600
20
284.163000
11
58.288900
21
283.769000
0
LINE
8
Layer 1
10
58.288900
20
283.769000
11
58.286900
21
283.765000
0
LINE
8
Layer 1
10
58.286900
20
283.765000
11
58.282700
21
283.763000
0
LINE
8
Layer 1
10
58.282700
20
283.763000
11
57.790800
21
283.517000
0
LINE
8
Layer 1
10
57.790800
20
283.517000
11
57.788700
21
283.517000
0
LINE
8
Layer 1
10
57.788700
20
283.517000
11
57.490000
21
283.468000
0
LINE
8
Layer 1
10
57.490000
20
283.468000
11
57.488000
21
283.468000
0
LINE
8
Layer 1
10
57.488000
20
283.468000
11
57.485900
21
283.468000
0
LINE
8
Layer 1
10
57.485900
20
283.468000
11
57.282800
21
283.491000
0
LINE
8
Layer 1
10
57.282800
20
283.491000
11
57.192900
21
283.563000
0
LINE
8
Layer 1
10
57.192900
20
283.563000
11
57.124700
21
283.739000
0
LINE
8
Layer 1
10
57.124700
20
283.739000
11
57.124700
21
283.741000
0
LINE
8
Layer 1
10
57.124700
20
283.741000
11
57.124700
21
284.255000
0
LINE
8
Layer 1
10
57.124700
20
284.255000
11
57.302400
21
284.808000
0
LINE
8
Layer 1
10
57.302400
20
284.808000
11
57.753600
21
285.581000
0
LINE
8
Layer 1
10
57.753600
20
285.581000
11
58.357200
21
286.259000
0
LINE
8
Layer 1
10
58.357200
20
286.259000
11
58.359200
21
286.261000
0
LINE
8
Layer 1
10
58.359200
20
286.261000
11
58.361300
21
286.265000
0
LINE
8
Layer 1
10
58.361300
20
286.265000
11
58.931300
21
286.779000
0
LINE
8
Layer 1
10
58.931300
20
286.779000
11
59.601500
21
287.195000
0
LINE
8
Layer 1
10
59.601500
20
287.195000
11
60.366900
21
287.462000
0
LINE
8
Layer 1
10
60.366900
20
287.462000
11
60.771500
21
287.507000
0
LINE
8
Layer 1
10
60.771500
20
287.507000
11
60.771500
21
287.507000
0
LINE
8
Layer 1
10
70.703200
20
287.450000
11
70.863400
21
287.417000
0
LINE
8
Layer 1
10
70.863400
20
287.417000
11
70.867000
21
287.415000
0
LINE
8
Layer 1
10
70.867000
20
287.415000
11
70.871100
21
287.413000
0
LINE
8
Layer 1
10
70.871100
20
287.413000
11
70.883000
21
287.410000
0
LINE
8
Layer 1
10
70.883000
20
287.410000
11
70.883000
21
287.349000
0
LINE
8
Layer 1
10
70.883000
20
287.349000
11
70.627200
21
286.925000
0
LINE
8
Layer 1
10
70.627200
20
286.925000
11
70.625100
21
286.923000
0
LINE
8
Layer 1
10
70.625100
20
286.923000
11
70.623100
21
286.921000
0
LINE
8
Layer 1
10
70.623100
20
286.921000
11
69.673800
21
286.288000
0
LINE
8
Layer 1
10
69.673800
20
286.288000
11
69.671700
21
286.288000
0
LINE
8
Layer 1
10
69.671700
20
286.288000
11
69.175600
21
286.120000
0
LINE
8
Layer 1
10
69.175600
20
286.120000
11
69.646400
21
286.847000
0
LINE
8
Layer 1
10
69.646400
20
286.847000
11
70.085600
21
287.235000
0
LINE
8
Layer 1
10
70.085600
20
287.235000
11
70.087700
21
287.235000
0
LINE
8
Layer 1
10
70.087700
20
287.235000
11
70.087700
21
287.238000
0
LINE
8
Layer 1
10
70.087700
20
287.238000
11
70.583800
21
287.439000
0
LINE
8
Layer 1
10
70.583800
20
287.439000
11
70.592100
21
287.441000
0
LINE
8
Layer 1
10
70.592100
20
287.441000
11
70.599800
21
287.441000
0
LINE
8
Layer 1
10
70.599800
20
287.441000
11
70.703200
21
287.450000
0
LINE
8
Layer 1
10
70.703200
20
287.450000
11
70.703200
21
287.450000
0
LINE
8
Layer 1
10
73.719000
20
286.351000
11
73.719000
21
286.038000
0
LINE
8
Layer 1
10
73.719000
20
286.038000
11
73.719000
21
286.036000
0
LINE
8
Layer 1
10
73.719000
20
286.036000
11
73.755700
21
285.138000
0
LINE
8
Layer 1
10
73.755700
20
285.138000
11
73.719000
21
284.474000
0
LINE
8
Layer 1
10
73.719000
20
284.474000
11
73.719000
21
284.468000
0
LINE
8
Layer 1
10
73.719000
20
284.468000
11
73.719000
21
284.460000
0
LINE
8
Layer 1
10
73.719000
20
284.460000
11
73.597600
21
283.863000
0
LINE
8
Layer 1
10
73.597600
20
283.863000
11
73.379000
21
283.501000
0
LINE
8
Layer 1
10
73.379000
20
283.501000
11
73.379000
21
283.499000
0
LINE
8
Layer 1
10
73.379000
20
283.499000
11
73.090100
21
283.348000
0
LINE
8
Layer 1
10
73.090100
20
283.348000
11
72.968700
21
283.337000
0
LINE
8
Layer 1
10
72.968700
20
283.337000
11
72.828100
21
283.368000
0
LINE
8
Layer 1
10
72.828100
20
283.368000
11
72.617300
21
283.407000
0
LINE
8
Layer 1
10
72.617300
20
283.407000
11
72.609500
21
283.409000
0
LINE
8
Layer 1
10
72.609500
20
283.409000
11
72.469000
21
283.452000
0
LINE
8
Layer 1
10
72.469000
20
283.452000
11
72.461200
21
283.454000
0
LINE
8
Layer 1
10
72.461200
20
283.454000
11
72.451400
21
283.458000
0
LINE
8
Layer 1
10
72.451400
20
283.458000
11
71.812700
21
283.786000
0
LINE
8
Layer 1
10
71.812700
20
283.786000
11
71.808500
21
283.788000
0
LINE
8
Layer 1
10
71.808500
20
283.788000
11
71.804900
21
283.792000
0
LINE
8
Layer 1
10
71.804900
20
283.792000
11
71.594100
21
283.966000
0
LINE
8
Layer 1
10
71.594100
20
283.966000
11
71.670000
21
284.040000
0
LINE
8
Layer 1
10
71.670000
20
284.040000
11
72.097900
21
284.466000
0
LINE
8
Layer 1
10
72.097900
20
284.466000
11
72.566600
21
284.995000
0
LINE
8
Layer 1
10
72.566600
20
284.995000
11
72.570200
21
284.999000
0
LINE
8
Layer 1
10
72.570200
20
284.999000
11
72.728400
21
285.236000
0
LINE
8
Layer 1
10
72.728400
20
285.236000
11
72.978500
21
285.503000
0
LINE
8
Layer 1
10
72.978500
20
285.503000
11
72.980600
21
285.503000
0
LINE
8
Layer 1
10
72.980600
20
285.503000
11
73.719000
21
286.351000
0
LINE
8
Layer 1
10
73.719000
20
286.351000
11
73.719000
21
286.351000
0
LINE
8
Layer 1
10
7.416080
20
282.528000
11
7.025410
21
281.613000
0
LINE
8
Layer 1
10
7.025410
20
281.613000
11
7.023340
21
281.611000
0
LINE
8
Layer 1
10
7.023340
20
281.611000
11
6.289020
21
280.142000
0
LINE
8
Layer 1
10
6.289020
20
280.142000
11
6.286950
21
280.138000
0
LINE
8
Layer 1
10
6.286950
20
280.138000
11
6.285400
21
280.136000
0
LINE
8
Layer 1
10
6.285400
20
280.136000
11
5.681820
21
279.238000
0
LINE
8
Layer 1
10
5.681820
20
279.238000
11
4.892720
21
278.587000
0
LINE
8
Layer 1
10
4.892720
20
278.587000
11
4.884970
21
278.585000
0
LINE
8
Layer 1
10
4.884970
20
278.585000
11
4.878770
21
278.579000
0
LINE
8
Layer 1
10
4.878770
20
278.579000
11
4.580080
21
278.456000
0
LINE
8
Layer 1
10
4.580080
20
278.456000
11
4.566650
21
278.452000
0
LINE
8
Layer 1
10
4.566650
20
278.452000
11
4.552690
21
278.446000
0
LINE
8
Layer 1
10
4.552690
20
278.446000
11
4.242120
21
278.387000
0
LINE
8
Layer 1
10
4.242120
20
278.387000
11
4.230750
21
278.387000
0
LINE
8
Layer 1
10
4.230750
20
278.387000
11
4.218860
21
278.385000
0
LINE
8
Layer 1
10
4.218860
20
278.385000
11
3.931540
21
278.415000
0
LINE
8
Layer 1
10
3.931540
20
278.415000
11
3.921720
21
278.417000
0
LINE
8
Layer 1
10
3.921720
20
278.417000
11
3.913970
21
278.419000
0
LINE
8
Layer 1
10
3.913970
20
278.419000
11
3.750160
21
278.540000
0
LINE
8
Layer 1
10
3.750160
20
278.540000
11
3.750160
21
278.542000
0
LINE
8
Layer 1
10
3.750160
20
278.542000
11
3.630790
21
278.989000
0
LINE
8
Layer 1
10
3.630790
20
278.989000
11
3.798730
21
279.566000
0
LINE
8
Layer 1
10
3.798730
20
279.566000
11
3.798730
21
279.567000
0
LINE
8
Layer 1
10
3.798730
20
279.567000
11
3.800800
21
279.567000
0
LINE
8
Layer 1
10
3.800800
20
279.567000
11
4.240050
21
280.273000
0
LINE
8
Layer 1
10
4.240050
20
280.273000
11
4.244190
21
280.278000
0
LINE
8
Layer 1
10
4.244190
20
280.278000
11
4.855520
21
280.890000
0
LINE
8
Layer 1
10
4.855520
20
280.890000
11
5.576400
21
281.460000
0
LINE
8
Layer 1
10
5.576400
20
281.460000
11
6.349480
21
281.972000
0
LINE
8
Layer 1
10
6.349480
20
281.972000
11
7.146330
21
282.398000
0
LINE
8
Layer 1
10
7.146330
20
282.398000
11
7.150470
21
282.400000
0
LINE
8
Layer 1
10
7.150470
20
282.400000
11
7.154600
21
282.402000
0
LINE
8
Layer 1
10
7.154600
20
282.402000
11
7.416080
21
282.528000
0
LINE
8
Layer 1
10
7.416080
20
282.528000
11
7.416080
21
282.528000
 0 
ENDSEC
 0 
EOF