999
"DXF R12 Output" (www.mydxf.blogspot.com)
 0 
SECTION
 2 
HEADER
 9 
$ACADVER
 1 
AC1009
 9 
$EXTMIN
 10 
 0 
 20 
 0 
 9 
$EXTMAX
 10 
 8.5 
 20 
 11 
 0 
ENDSEC
 0 
SECTION
 2 
ENTITIES
0
LINE
8
Camada 1
10
1.393550
20
0.043220
11
18.452750
21
0.133020
0
LINE
8
Camada 1
10
18.452750
20
0.133020
11
25.462358
21
6.624807
0
LINE
8
Camada 1
10
25.462358
20
6.624807
11
32.617560
21
13.874989
0
LINE
8
Camada 1
10
32.617560
20
13.874989
11
36.061728
21
17.672141
0
LINE
8
Camada 1
10
36.061728
20
17.672141
11
39.316657
21
21.524086
0
LINE
8
Camada 1
10
39.316657
20
21.524086
11
42.307135
21
25.385891
0
LINE
8
Camada 1
10
42.307135
20
25.385891
11
44.957950
21
29.212620
0
LINE
8
Camada 1
10
44.957950
20
29.212620
11
47.207731
21
33.036934
0
LINE
8
Camada 1
10
47.207731
20
33.036934
11
49.168532
21
37.027969
0
LINE
8
Camada 1
10
49.168532
20
37.027969
11
50.700023
21
41.187954
0
LINE
8
Camada 1
10
50.700023
20
41.187954
11
51.260923
21
43.332000
0
LINE
8
Camada 1
10
51.260923
20
43.332000
11
51.661870
21
45.519120
0
LINE
8
Camada 1
10
51.661870
20
45.519120
11
51.816265
21
47.332131
0
LINE
8
Camada 1
10
51.816265
20
47.332131
11
51.815752
21
49.182019
0
LINE
8
Camada 1
10
51.815752
20
49.182019
11
51.439460
21
52.888620
0
LINE
8
Camada 1
10
51.439460
20
52.888620
11
50.580754
21
57.302745
0
LINE
8
Camada 1
10
50.580754
20
57.302745
11
49.941091
21
59.463801
0
LINE
8
Camada 1
10
49.941091
20
59.463801
11
49.153676
21
61.572856
0
LINE
8
Camada 1
10
49.153676
20
61.572856
11
48.212849
21
63.613913
0
LINE
8
Camada 1
10
48.212849
20
63.613913
11
47.112950
21
65.570974
0
LINE
8
Camada 1
10
47.112950
20
65.570974
11
45.848321
21
67.428042
0
LINE
8
Camada 1
10
45.848321
20
67.428042
11
44.413300
21
69.169120
0
LINE
8
Camada 1
10
44.413300
20
69.169120
11
41.195979
21
72.590935
0
LINE
8
Camada 1
10
41.195979
20
72.590935
11
37.885021
21
75.939675
0
LINE
8
Camada 1
10
37.885021
20
75.939675
11
34.757103
21
79.437088
0
LINE
8
Camada 1
10
34.757103
20
79.437088
11
33.348245
21
81.310842
0
LINE
8
Camada 1
10
33.348245
20
81.310842
11
32.088900
21
83.304920
0
LINE
8
Camada 1
10
32.088900
20
83.304920
11
30.671853
21
85.954777
0
LINE
8
Camada 1
10
30.671853
20
85.954777
11
29.484730
21
88.701279
0
LINE
8
Camada 1
10
29.484730
20
88.701279
11
28.508517
21
91.528083
0
LINE
8
Camada 1
10
28.508517
20
91.528083
11
27.724201
21
94.418845
0
LINE
8
Camada 1
10
27.724201
20
94.418845
11
27.112768
21
97.357223
0
LINE
8
Camada 1
10
27.112768
20
97.357223
11
26.655205
21
100.326873
0
LINE
8
Camada 1
10
26.655205
20
100.326873
11
26.125630
21
106.294620
0
LINE
8
Camada 1
10
26.125630
20
106.294620
11
25.425995
21
125.205646
0
LINE
8
Camada 1
10
25.425995
20
125.205646
11
24.777630
21
144.119920
0
LINE
8
Camada 1
10
24.777630
20
144.119920
11
24.438531
21
153.468580
0
LINE
8
Camada 1
10
24.438531
20
153.468580
11
1.393550
21
0.043220
0
LINE
8
Camada 2
10
24.645000
20
152.717000
11
1.393600
21
0.043000
0
LINE
8
Camada 2
10
1.393600
20
0.043000
11
1.977584
21
0.045000
0
LINE
8
Camada 2
10
1.977584
20
0.045000
11
20.623684
21
0.134800
0
LINE
8
Camada 2
10
20.623684
20
0.134800
11
20.813137
21
0.136800
0
LINE
8
Camada 2
10
20.813137
20
0.136800
11
20.953762
21
0.261800
0
LINE
8
Camada 2
10
20.953762
20
0.261800
11
24.341715
21
3.396491
0
LINE
8
Camada 2
10
24.341715
20
3.396491
11
27.730175
21
6.765937
0
LINE
8
Camada 2
10
27.730175
20
6.765937
11
31.081437
21
10.326046
0
LINE
8
Camada 2
10
31.081437
20
10.326046
11
34.357793
21
14.032730
0
LINE
8
Camada 2
10
34.357793
20
14.032730
11
37.521540
21
17.841897
0
LINE
8
Camada 2
10
37.521540
20
17.841897
11
40.534971
21
21.709458
0
LINE
8
Camada 2
10
40.534971
20
21.709458
11
43.360380
21
25.591322
0
LINE
8
Camada 2
10
43.360380
20
25.591322
11
45.960062
21
29.443400
0
LINE
8
Camada 2
10
45.960062
20
29.443400
11
45.962062
21
29.445400
0
LINE
8
Camada 2
10
45.962062
20
29.445400
11
45.964062
21
29.449400
0
LINE
8
Camada 2
10
45.964062
20
29.449400
11
48.230069
21
33.300633
0
LINE
8
Camada 2
10
48.230069
20
33.300633
11
50.211038
21
37.332363
0
LINE
8
Camada 2
10
50.211038
20
37.332363
11
51.762364
21
41.548086
0
LINE
8
Camada 2
10
51.762364
20
41.548086
11
52.331722
21
43.726038
0
LINE
8
Camada 2
10
52.331722
20
43.726038
11
52.739442
21
45.951300
0
LINE
8
Camada 2
10
52.739442
20
45.951300
11
52.739300
21
45.953600
0
LINE
8
Camada 2
10
52.739300
20
45.953600
11
52.739300
21
45.955600
0
LINE
8
Camada 2
10
52.739300
20
45.955600
11
52.897806
21
47.811995
0
LINE
8
Camada 2
10
52.897806
20
47.811995
11
52.897728
21
49.697489
0
LINE
8
Camada 2
10
52.897728
20
49.697489
11
52.516650
21
53.457550
0
LINE
8
Camada 2
10
52.516650
20
53.457550
11
52.514650
21
53.465550
0
LINE
8
Camada 2
10
52.514650
20
53.465550
11
51.644588
21
57.936361
0
LINE
8
Camada 2
10
51.644588
20
57.936361
11
50.996004
21
60.128061
0
LINE
8
Camada 2
10
50.996004
20
60.128061
11
50.196870
21
62.268999
0
LINE
8
Camada 2
10
50.196870
20
62.268999
11
49.241047
21
64.342955
0
LINE
8
Camada 2
10
49.241047
20
64.342955
11
48.122400
21
66.333712
0
LINE
8
Camada 2
10
48.122400
20
66.333712
11
46.834790
21
68.225050
0
LINE
8
Camada 2
10
46.834790
20
68.225050
11
45.372080
21
70.000750
0
LINE
8
Camada 2
10
45.372080
20
70.000750
11
45.366180
21
70.008750
0
LINE
8
Camada 2
10
45.366180
20
70.008750
11
42.131487
21
73.453076
0
LINE
8
Camada 2
10
42.131487
20
73.453076
11
38.829210
21
76.796378
0
LINE
8
Camada 2
10
38.829210
20
76.796378
11
35.730468
21
80.257590
0
LINE
8
Camada 2
10
35.730468
20
80.257590
11
34.342147
21
82.100831
0
LINE
8
Camada 2
10
34.342147
20
82.100831
11
33.106380
21
84.055650
0
LINE
8
Camada 2
10
33.106380
20
84.055650
11
33.102480
21
84.059650
0
LINE
8
Camada 2
10
33.102480
20
84.059650
11
33.100480
21
84.063650
0
LINE
8
Camada 2
10
33.100480
20
84.063650
11
31.703955
21
86.675723
0
LINE
8
Camada 2
10
31.703955
20
86.675723
11
30.532868
21
89.386522
0
LINE
8
Camada 2
10
30.532868
20
89.386522
11
29.568779
21
92.179956
0
LINE
8
Camada 2
10
29.568779
20
92.179956
11
28.793247
21
95.039934
0
LINE
8
Camada 2
10
28.793247
20
95.039934
11
28.187834
21
97.950363
0
LINE
8
Camada 2
10
28.187834
20
97.950363
11
27.734098
21
100.895153
0
LINE
8
Camada 2
10
27.734098
20
100.895153
11
27.207900
21
106.823450
0
LINE
8
Camada 2
10
27.207900
20
106.823450
11
27.205900
21
106.825450
0
LINE
8
Camada 2
10
27.205900
20
106.825450
11
26.507326
21
125.716554
0
LINE
8
Camada 2
10
26.507326
20
125.716554
11
25.858320
21
144.644850
0
LINE
8
Camada 2
10
25.858320
20
144.644850
11
25.860320
21
144.640850
0
LINE
8
Camada 2
10
25.860320
20
144.640850
11
25.639100
21
152.660140
0
LINE
8
Camada 2
10
25.639100
20
152.660140
11
24.645000
21
152.717000
0
LINE
8
Camada 2
10
24.834453
20
147.250200
11
24.860363
21
144.602010
0
LINE
8
Camada 2
10
24.860363
20
144.602010
11
24.860400
21
144.600000
0
LINE
8
Camada 2
10
24.860400
20
144.600000
11
25.507766
21
125.699999
0
LINE
8
Camada 2
10
25.507766
20
125.699999
11
26.208060
21
106.769900
0
LINE
8
Camada 2
10
26.208060
20
106.769900
11
26.741000
21
100.763329
0
LINE
8
Camada 2
10
26.741000
20
100.763329
11
27.202315
21
97.769203
0
LINE
8
Camada 2
10
27.202315
20
97.769203
11
27.819657
21
94.803281
0
LINE
8
Camada 2
10
27.819657
20
94.803281
11
28.612625
21
91.882137
0
LINE
8
Camada 2
10
28.612625
20
91.882137
11
29.600816
21
89.022343
0
LINE
8
Camada 2
10
29.600816
20
89.022343
11
30.803828
21
86.240473
0
LINE
8
Camada 2
10
30.803828
20
86.240473
11
32.241260
21
83.553100
0
LINE
8
Camada 2
10
32.241260
20
83.553100
11
33.523420
21
81.522186
0
LINE
8
Camada 2
10
33.523420
20
81.522186
11
34.951581
21
79.620081
0
LINE
8
Camada 2
10
34.951581
20
79.620081
11
38.105314
21
76.090272
0
LINE
8
Camada 2
10
38.105314
20
76.090272
11
41.421270
21
72.739628
0
LINE
8
Camada 2
10
41.421270
20
72.739628
11
44.618260
21
69.344100
0
LINE
8
Camada 2
10
44.618260
20
69.344100
11
44.622160
21
69.340100
0
LINE
8
Camada 2
10
44.622160
20
69.340100
11
44.626060
21
69.336100
0
LINE
8
Camada 2
10
44.626060
20
69.336100
11
46.031219
21
67.630823
0
LINE
8
Camada 2
10
46.031219
20
67.630823
11
47.270941
21
65.809414
0
LINE
8
Camada 2
10
47.270941
20
65.809414
11
48.350427
21
63.887627
0
LINE
8
Camada 2
10
48.350427
20
63.887627
11
49.274883
21
61.881215
0
LINE
8
Camada 2
10
49.274883
20
61.881215
11
50.049509
21
59.805933
0
LINE
8
Camada 2
10
50.049509
20
59.805933
11
50.679511
21
57.677534
0
LINE
8
Camada 2
10
50.679511
20
57.677534
11
51.526450
21
53.324400
0
LINE
8
Camada 2
10
51.526450
20
53.324400
11
51.526400
21
53.318200
0
LINE
8
Camada 2
10
51.526400
20
53.318200
11
51.528400
21
53.312200
0
LINE
8
Camada 2
10
51.528400
20
53.312200
11
51.898471
21
49.665151
0
LINE
8
Camada 2
10
51.898471
20
49.665151
11
51.899207
21
47.854146
0
LINE
8
Camada 2
10
51.899207
20
47.854146
11
51.749100
21
46.087590
0
LINE
8
Camada 2
10
51.749100
20
46.087590
11
51.354702
21
43.939180
0
LINE
8
Camada 2
10
51.354702
20
43.939180
11
50.802067
21
41.829558
0
LINE
8
Camada 2
10
50.802067
20
41.829558
11
49.290158
21
37.726236
0
LINE
8
Camada 2
10
49.290158
20
37.726236
11
47.349515
21
33.776742
0
LINE
8
Camada 2
10
47.349515
20
33.776742
11
45.116280
21
29.980190
0
LINE
8
Camada 2
10
45.116280
20
29.980190
11
42.563564
21
26.197376
0
LINE
8
Camada 2
10
42.563564
20
26.197376
11
39.783804
21
22.375587
0
LINE
8
Camada 2
10
39.783804
20
22.375587
11
36.814131
21
18.559575
0
LINE
8
Camada 2
10
36.814131
20
18.559575
11
33.691676
21
14.794093
0
LINE
8
Camada 2
10
33.691676
20
14.794093
11
30.453572
21
11.123891
0
LINE
8
Camada 2
10
30.453572
20
11.123891
11
27.136950
21
7.593722
0
LINE
8
Camada 2
10
27.136950
20
7.593722
11
23.778942
21
4.248338
0
LINE
8
Camada 2
10
23.778942
20
4.248338
11
20.416680
21
1.132490
0
LINE
8
Camada 2
10
20.416680
20
1.132490
11
2.555780
21
1.048490
0
LINE
8
Camada 2
10
2.555780
20
1.048490
11
24.834453
21
147.250200
0
LINE
8
Camada 3
10
26.990200
20
152.717000
11
25.990200
21
152.677900
0
LINE
8
Camada 3
10
25.990200
20
152.677900
11
27.574180
21
108.633000
0
LINE
8
Camada 3
10
27.574180
20
108.633000
11
28.057643
21
101.790890
0
LINE
8
Camada 3
10
28.057643
20
101.790890
11
28.976241
21
95.983794
0
LINE
8
Camada 3
10
28.976241
20
95.983794
11
30.268508
21
91.081038
0
LINE
8
Camada 3
10
30.268508
20
91.081038
11
31.872978
21
86.951950
0
LINE
8
Camada 3
10
31.872978
20
86.951950
11
33.728186
21
83.465855
0
LINE
8
Camada 3
10
33.728186
20
83.465855
11
35.772666
21
80.492081
0
LINE
8
Camada 3
10
35.772666
20
80.492081
11
37.944953
21
77.899954
0
LINE
8
Camada 3
10
37.944953
20
77.899954
11
40.183580
21
75.558800
0
LINE
8
Camada 3
10
40.183580
20
75.558800
11
44.605788
21
71.104797
0
LINE
8
Camada 3
10
44.605788
20
71.104797
11
46.673849
21
68.718873
0
LINE
8
Camada 3
10
46.673849
20
68.718873
11
48.572990
21
66.042736
0
LINE
8
Camada 3
10
48.572990
20
66.042736
11
50.248042
21
62.938189
0
LINE
8
Camada 3
10
50.248042
20
62.938189
11
51.643837
21
59.267032
0
LINE
8
Camada 3
10
51.643837
20
59.267032
11
52.705206
21
54.891069
0
LINE
8
Camada 3
10
52.705206
20
54.891069
11
53.376980
21
49.672100
0
LINE
8
Camada 3
10
53.376980
20
49.672100
11
53.431651
21
47.741903
0
LINE
8
Camada 3
10
53.431651
20
47.741903
11
53.296213
21
45.770186
0
LINE
8
Camada 3
10
53.296213
20
45.770186
11
52.982893
21
43.763787
0
LINE
8
Camada 3
10
52.982893
20
43.763787
11
52.503916
21
41.729548
0
LINE
8
Camada 3
10
52.503916
20
41.729548
11
51.097894
21
37.604909
0
LINE
8
Camada 3
10
51.097894
20
37.604909
11
49.175956
21
33.450988
0
LINE
8
Camada 3
10
49.175956
20
33.450988
11
46.835909
21
29.322505
0
LINE
8
Camada 3
10
46.835909
20
29.322505
11
44.175559
21
25.274183
0
LINE
8
Camada 3
10
44.175559
20
25.274183
11
41.292713
21
21.360741
0
LINE
8
Camada 3
10
41.292713
20
21.360741
11
38.285180
21
17.636900
0
LINE
8
Camada 3
10
38.285180
20
17.636900
11
32.395273
21
11.065423
0
LINE
8
Camada 3
10
32.395273
20
11.065423
11
27.220073
21
5.865724
0
LINE
8
Camada 3
10
27.220073
20
5.865724
11
23.506131
21
2.416312
0
LINE
8
Camada 3
10
23.506131
20
2.416312
11
22.000000
21
1.095700
0
LINE
8
Camada 3
10
22.000000
20
1.095700
11
0.000000
21
1.000000
0
LINE
8
Camada 3
10
0.000000
20
1.000000
11
0.003900
21
0.000000
0
LINE
8
Camada 3
10
0.003900
20
0.000000
11
22.378900
21
0.095700
0
LINE
8
Camada 3
10
22.378900
20
0.095700
11
22.517571
21
0.212890
0
LINE
8
Camada 3
10
22.517571
20
0.212890
11
23.952794
21
1.470133
0
LINE
8
Camada 3
10
23.952794
20
1.470133
11
27.722441
21
4.963814
0
LINE
8
Camada 3
10
27.722441
20
4.963814
11
33.022478
21
10.276857
0
LINE
8
Camada 3
10
33.022478
20
10.276857
11
35.995132
21
13.485305
0
LINE
8
Camada 3
10
35.995132
20
13.485305
11
39.048871
21
16.992190
0
LINE
8
Camada 3
10
39.048871
20
16.992190
11
42.086235
21
20.745459
0
LINE
8
Camada 3
10
42.086235
20
20.745459
11
45.008373
21
24.694951
0
LINE
8
Camada 3
10
45.008373
20
24.694951
11
47.712634
21
28.791368
0
LINE
8
Camada 3
10
47.712634
20
28.791368
11
50.096370
21
32.985416
0
LINE
8
Camada 3
10
50.096370
20
32.985416
11
52.056931
21
37.227798
0
LINE
8
Camada 3
10
52.056931
20
37.227798
11
53.491667
21
41.469219
0
LINE
8
Camada 3
10
53.491667
20
41.469219
11
53.979774
21
43.574163
0
LINE
8
Camada 3
10
53.979774
20
43.574163
11
54.297931
21
45.660381
0
LINE
8
Camada 3
10
54.297931
20
45.660381
11
54.433307
21
47.721711
0
LINE
8
Camada 3
10
54.433307
20
47.721711
11
54.373071
21
49.751990
0
LINE
8
Camada 3
10
54.373071
20
49.751990
11
53.681240
21
55.070812
0
LINE
8
Camada 3
10
53.681240
20
55.070812
11
52.579833
21
59.555744
0
LINE
8
Camada 3
10
52.579833
20
59.555744
11
51.131748
21
63.337324
0
LINE
8
Camada 3
10
51.131748
20
63.337324
11
49.399884
21
66.546086
0
LINE
8
Camada 3
10
49.399884
20
66.546086
11
47.447139
21
69.312569
0
LINE
8
Camada 3
10
47.447139
20
69.312569
11
45.336410
21
71.767308
0
LINE
8
Camada 3
10
45.336410
20
71.767308
11
40.892600
21
76.263700
0
LINE
8
Camada 3
10
40.892600
20
76.263700
11
38.680140
21
78.569810
0
LINE
8
Camada 3
10
38.680140
20
78.569810
11
36.546723
21
81.098170
0
LINE
8
Camada 3
10
36.546723
20
81.098170
11
34.548924
21
83.986823
0
LINE
8
Camada 3
10
34.548924
20
83.986823
11
32.743313
21
87.373812
0
LINE
8
Camada 3
10
32.743313
20
87.373812
11
31.186462
21
91.397181
0
LINE
8
Camada 3
10
31.186462
20
91.397181
11
29.934945
21
96.194973
0
LINE
8
Camada 3
10
29.934945
20
96.194973
11
29.045334
21
101.905232
0
LINE
8
Camada 3
10
29.045334
20
101.905232
11
28.574200
21
108.666000
0
LINE
8
Camada 3
10
28.574200
20
108.666000
11
26.990200
21
152.717000
0
LINE
8
Camada 3
10
26.990200
20
152.717000
11
26.990200
21
152.717000
 0 
ENDSEC
 0 
EOF