999
"DXF R12 Output" (www.mydxf.blogspot.com)
 0 
SECTION
 2 
HEADER
 9 
$ACADVER
 1 
AC1009
 9 
$EXTMIN
 10 
 0 
 20 
 0 
 9 
$EXTMAX
 10 
 8.5 
 20 
 11 
 0 
ENDSEC
 0 
SECTION
 2 
ENTITIES
0
LINE
8
Camada 2
10
0.000000
20
141.075000
11
0.000000
21
0.000040
0
LINE
8
Camada 2
10
0.000000
20
0.000040
11
51.624800
21
0.000040
0
LINE
8
Camada 2
10
51.624800
20
0.000040
11
55.019301
21
2.874566
0
LINE
8
Camada 2
10
55.019301
20
2.874566
11
58.215336
21
5.967224
0
LINE
8
Camada 2
10
58.215336
20
5.967224
11
61.196456
21
9.265098
0
LINE
8
Camada 2
10
61.196456
20
9.265098
11
63.946213
21
12.755275
0
LINE
8
Camada 2
10
63.946213
20
12.755275
11
66.448154
21
16.424838
0
LINE
8
Camada 2
10
66.448154
20
16.424838
11
68.685833
21
20.260874
0
LINE
8
Camada 2
10
68.685833
20
20.260874
11
70.642798
21
24.250466
0
LINE
8
Camada 2
10
70.642798
20
24.250466
11
72.302600
21
28.380700
0
LINE
8
Camada 2
10
72.302600
20
28.380700
11
73.792175
21
33.203775
0
LINE
8
Camada 2
10
73.792175
20
33.203775
11
74.908100
21
38.140400
0
LINE
8
Camada 2
10
74.908100
20
38.140400
11
75.551559
21
42.338286
0
LINE
8
Camada 2
10
75.551559
20
42.338286
11
75.924902
21
46.571842
0
LINE
8
Camada 2
10
75.924902
20
46.571842
11
76.026840
21
50.823406
0
LINE
8
Camada 2
10
76.026840
20
50.823406
11
75.856088
21
55.075312
0
LINE
8
Camada 2
10
75.856088
20
55.075312
11
75.411355
21
59.309899
0
LINE
8
Camada 2
10
75.411355
20
59.309899
11
74.691355
21
63.509502
0
LINE
8
Camada 2
10
74.691355
20
63.509502
11
73.694799
21
67.656456
0
LINE
8
Camada 2
10
73.694799
20
67.656456
11
72.420400
21
71.733100
0
LINE
8
Camada 2
10
72.420400
20
71.733100
11
70.419494
21
76.680989
0
LINE
8
Camada 2
10
70.419494
20
76.680989
11
67.929625
21
81.397738
0
LINE
8
Camada 2
10
67.929625
20
81.397738
11
65.002094
21
85.859542
0
LINE
8
Camada 2
10
65.002094
20
85.859542
11
61.688200
21
90.042600
0
LINE
8
Camada 2
10
61.688200
20
90.042600
11
58.587116
21
93.533773
0
LINE
8
Camada 2
10
58.587116
20
93.533773
11
55.376100
21
96.922337
0
LINE
8
Camada 2
10
55.376100
20
96.922337
11
48.985100
21
103.757000
0
LINE
8
Camada 2
10
48.985100
20
103.757000
11
46.893450
21
106.474734
0
LINE
8
Camada 2
10
46.893450
20
106.474734
11
45.138325
21
109.432375
0
LINE
8
Camada 2
10
45.138325
20
109.432375
11
44.437104
21
110.995037
0
LINE
8
Camada 2
10
44.437104
20
110.995037
11
43.880188
21
112.610328
0
LINE
8
Camada 2
10
43.880188
20
112.610328
11
43.487634
21
114.275799
0
LINE
8
Camada 2
10
43.487634
20
114.275799
11
43.279500
21
115.989000
0
LINE
8
Camada 2
10
43.279500
20
115.989000
11
43.115470
21
119.344734
0
LINE
8
Camada 2
10
43.115470
20
119.344734
11
43.135762
21
122.704875
0
LINE
8
Camada 2
10
43.135762
20
122.704875
11
43.194998
21
126.066328
0
LINE
8
Camada 2
10
43.194998
20
126.066328
11
43.147800
21
129.426000
0
LINE
8
Camada 2
10
43.147800
20
129.426000
11
43.136400
21
141.075000
0
LINE
8
Camada 2
10
43.136400
20
141.075000
11
0.000000
21
141.075000
0
LINE
8
Camada 2
10
0.000000
20
141.075000
11
0.000000
21
141.075000
0
LINE
8
Camada 3
10
38.162800
20
0.000000
11
39.472273
21
0.674676
0
LINE
8
Camada 3
10
39.472273
20
0.674676
11
42.924519
21
2.760034
0
LINE
8
Camada 3
10
42.924519
20
2.760034
11
45.230976
21
4.360468
0
LINE
8
Camada 3
10
45.230976
20
4.360468
11
47.805280
21
6.348069
0
LINE
8
Camada 3
10
47.805280
20
6.348069
11
50.558149
21
8.734339
0
LINE
8
Camada 3
10
50.558149
20
8.734339
11
53.400300
21
11.530775
0
LINE
8
Camada 3
10
53.400300
20
11.530775
11
56.242451
21
14.748878
0
LINE
8
Camada 3
10
56.242451
20
14.748878
11
58.995320
21
18.400146
0
LINE
8
Camada 3
10
58.995320
20
18.400146
11
61.569624
21
22.496080
0
LINE
8
Camada 3
10
61.569624
20
22.496080
11
63.876081
21
27.048178
0
LINE
8
Camada 3
10
63.876081
20
27.048178
11
65.825410
21
32.067940
0
LINE
8
Camada 3
10
65.825410
20
32.067940
11
66.638250
21
34.756788
0
LINE
8
Camada 3
10
66.638250
20
34.756788
11
67.328327
21
37.566864
0
LINE
8
Camada 3
10
67.328327
20
37.566864
11
67.884481
21
40.499606
0
LINE
8
Camada 3
10
67.884481
20
40.499606
11
68.295551
21
43.556451
0
LINE
8
Camada 3
10
68.295551
20
43.556451
11
68.550378
21
46.738837
0
LINE
8
Camada 3
10
68.550378
20
46.738837
11
68.637800
21
50.048200
0
LINE
8
Camada 3
10
68.637800
20
50.048200
11
68.543365
21
53.755617
0
LINE
8
Camada 3
10
68.543365
20
53.755617
11
68.268095
21
57.243931
0
LINE
8
Camada 3
10
68.268095
20
57.243931
11
67.824048
21
60.524718
0
LINE
8
Camada 3
10
67.824048
20
60.524718
11
67.223277
21
63.609558
0
LINE
8
Camada 3
10
67.223277
20
63.609558
11
66.477840
21
66.510026
0
LINE
8
Camada 3
10
66.477840
20
66.510026
11
65.599791
21
69.237702
0
LINE
8
Camada 3
10
65.599791
20
69.237702
11
64.601186
21
71.804163
0
LINE
8
Camada 3
10
64.601186
20
71.804163
11
63.494081
21
74.220986
0
LINE
8
Camada 3
10
63.494081
20
74.220986
11
61.002592
21
78.652030
0
LINE
8
Camada 3
10
61.002592
20
78.652030
11
58.221770
21
82.623456
0
LINE
8
Camada 3
10
58.221770
20
82.623456
11
55.248057
21
86.227884
0
LINE
8
Camada 3
10
55.248057
20
86.227884
11
52.177900
21
89.557937
0
LINE
8
Camada 3
10
52.177900
20
89.557937
11
46.134030
21
95.765402
0
LINE
8
Camada 3
10
46.134030
20
95.765402
11
43.353208
21
98.828056
0
LINE
8
Camada 3
10
43.353208
20
98.828056
11
40.861719
21
101.986820
0
LINE
8
Camada 3
10
40.861719
20
101.986820
11
38.756009
21
105.334315
0
LINE
8
Camada 3
10
38.756009
20
105.334315
11
37.877960
21
107.107781
0
LINE
8
Camada 3
10
37.877960
20
107.107781
11
37.132523
21
108.963163
0
LINE
8
Camada 3
10
37.132523
20
108.963163
11
36.531752
21
110.912038
0
LINE
8
Camada 3
10
36.531752
20
110.912038
11
36.087705
21
112.965984
0
LINE
8
Camada 3
10
36.087705
20
112.965984
11
35.812435
21
115.136579
0
LINE
8
Camada 3
10
35.812435
20
115.136579
11
35.718000
21
117.435400
0
LINE
8
Camada 3
10
35.718000
20
117.435400
11
35.718000
21
141.075000
0
LINE
8
Camada 3
10
35.718000
20
141.075000
11
0.000000
21
141.075000
0
LINE
8
Camada 3
10
0.000000
20
141.075000
11
0.000000
21
0.000000
0
LINE
8
Camada 3
10
0.000000
20
0.000000
11
38.162800
21
0.000000
 0 
ENDSEC
 0 
EOF