999
"DXF R12 Output" (www.mydxf.blogspot.com)
 0 
SECTION
 2 
HEADER
 9 
$ACADVER
 1 
AC1009
 9 
$EXTMIN
 10 
 0 
 20 
 0 
 9 
$EXTMAX
 10 
 8.5 
 20 
 11 
 0 
ENDSEC
 0 
SECTION
 2 
ENTITIES
0
LINE
8
Camada 2
10
14.435600
20
294.340000
11
13.476501
21
294.008279
0
LINE
8
Camada 2
10
13.476501
20
294.008279
11
12.759618
21
293.320195
0
LINE
8
Camada 2
10
12.759618
20
293.320195
11
12.241451
21
292.428461
0
LINE
8
Camada 2
10
12.241451
20
292.428461
11
11.878500
21
291.485790
0
LINE
8
Camada 2
10
11.878500
20
291.485790
11
11.286960
21
290.050330
0
LINE
8
Camada 2
10
11.286960
20
290.050330
11
10.623090
21
288.652500
0
LINE
8
Camada 2
10
10.623090
20
288.652500
11
10.234462
21
288.579832
0
LINE
8
Camada 2
10
10.234462
20
288.579832
11
10.054361
21
288.677767
0
LINE
8
Camada 2
10
10.054361
20
288.677767
11
10.222011
21
289.256339
0
LINE
8
Camada 2
10
10.222011
20
289.256339
11
10.572207
21
290.361192
0
LINE
8
Camada 2
10
10.572207
20
290.361192
11
10.622604
21
291.528501
0
LINE
8
Camada 2
10
10.622604
20
291.528501
11
10.302061
21
292.619285
0
LINE
8
Camada 2
10
10.302061
20
292.619285
11
9.539442
21
293.494559
0
LINE
8
Camada 2
10
9.539442
20
293.494559
11
8.833373
21
293.898442
0
LINE
8
Camada 2
10
8.833373
20
293.898442
11
8.068058
21
294.133396
0
LINE
8
Camada 2
10
8.068058
20
294.133396
11
7.268811
21
294.210774
0
LINE
8
Camada 2
10
7.268811
20
294.210774
11
6.460951
21
294.141929
0
LINE
8
Camada 2
10
6.460951
20
294.141929
11
4.920652
21
293.610977
0
LINE
8
Camada 2
10
4.920652
20
293.610977
11
3.649692
21
292.631360
0
LINE
8
Camada 2
10
3.649692
20
292.631360
11
3.049627
21
291.700395
0
LINE
8
Camada 2
10
3.049627
20
291.700395
11
2.849068
21
290.604006
0
LINE
8
Camada 2
10
2.849068
20
290.604006
11
3.102717
21
289.550504
0
LINE
8
Camada 2
10
3.102717
20
289.550504
11
3.416965
21
289.104933
0
LINE
8
Camada 2
10
3.416965
20
289.104933
11
3.865279
21
288.748200
0
LINE
8
Camada 2
10
3.865279
20
288.748200
11
4.144503
21
288.585321
0
LINE
8
Camada 2
10
4.144503
20
288.585321
11
4.503477
21
288.501297
0
LINE
8
Camada 2
10
4.503477
20
288.501297
11
4.756644
21
288.386352
0
LINE
8
Camada 2
10
4.756644
20
288.386352
11
4.718447
21
288.130708
0
LINE
8
Camada 2
10
4.718447
20
288.130708
11
3.325429
21
284.806818
0
LINE
8
Camada 2
10
3.325429
20
284.806818
11
2.121137
21
281.420078
0
LINE
8
Camada 2
10
2.121137
20
281.420078
11
2.204904
21
280.713911
0
LINE
8
Camada 2
10
2.204904
20
280.713911
11
2.520263
21
280.110231
0
LINE
8
Camada 2
10
2.520263
20
280.110231
11
3.011995
21
279.630112
0
LINE
8
Camada 2
10
3.011995
20
279.630112
11
3.624884
21
279.294625
0
LINE
8
Camada 2
10
3.624884
20
279.294625
11
4.303711
21
279.124845
0
LINE
8
Camada 2
10
4.303711
20
279.124845
11
4.993257
21
279.141843
0
LINE
8
Camada 2
10
4.993257
20
279.141843
11
5.638305
21
279.366693
0
LINE
8
Camada 2
10
5.638305
20
279.366693
11
6.183637
21
279.820468
0
LINE
8
Camada 2
10
6.183637
20
279.820468
11
6.744834
21
280.803742
0
LINE
8
Camada 2
10
6.744834
20
280.803742
11
7.176696
21
281.852066
0
LINE
8
Camada 2
10
7.176696
20
281.852066
11
8.076217
21
283.933748
0
LINE
8
Camada 2
10
8.076217
20
283.933748
11
8.718341
21
283.971550
0
LINE
8
Camada 2
10
8.718341
20
283.971550
11
8.866404
21
283.825311
0
LINE
8
Camada 2
10
8.866404
20
283.825311
11
8.750046
21
283.482577
0
LINE
8
Camada 2
10
8.750046
20
283.482577
11
8.603966
21
282.305292
0
LINE
8
Camada 2
10
8.603966
20
282.305292
11
8.789325
21
281.122990
0
LINE
8
Camada 2
10
8.789325
20
281.122990
11
9.339690
21
280.095641
0
LINE
8
Camada 2
10
9.339690
20
280.095641
11
10.288626
21
279.383217
0
LINE
8
Camada 2
10
10.288626
20
279.383217
11
11.110234
21
279.137851
0
LINE
8
Camada 2
10
11.110234
20
279.137851
11
11.965252
21
279.120359
0
LINE
8
Camada 2
10
11.965252
20
279.120359
11
12.808737
21
279.293803
0
LINE
8
Camada 2
10
12.808737
20
279.293803
11
13.595746
21
279.621247
0
LINE
8
Camada 2
10
13.595746
20
279.621247
11
14.654773
21
279.187037
0
LINE
8
Camada 2
10
14.654773
20
279.187037
11
15.791591
21
279.111475
0
LINE
8
Camada 2
10
15.791591
20
279.111475
11
16.916912
21
279.350370
0
LINE
8
Camada 2
10
16.916912
20
279.350370
11
17.941446
21
279.859529
0
LINE
8
Camada 2
10
17.941446
20
279.859529
11
18.752793
21
279.366016
0
LINE
8
Camada 2
10
18.752793
20
279.366016
11
19.679671
21
279.169867
0
LINE
8
Camada 2
10
19.679671
20
279.169867
11
20.630502
21
279.254584
0
LINE
8
Camada 2
10
20.630502
20
279.254584
11
21.513706
21
279.603669
0
LINE
8
Camada 2
10
21.513706
20
279.603669
11
22.647522
21
279.150591
0
LINE
8
Camada 2
10
22.647522
20
279.150591
11
23.860372
21
279.131879
0
LINE
8
Camada 2
10
23.860372
20
279.131879
11
25.047349
21
279.455508
0
LINE
8
Camada 2
10
25.047349
20
279.455508
11
26.103546
21
280.029450
0
LINE
8
Camada 2
10
26.103546
20
280.029450
11
26.483292
21
279.613910
0
LINE
8
Camada 2
10
26.483292
20
279.613910
11
26.948128
21
279.324261
0
LINE
8
Camada 2
10
26.948128
20
279.324261
11
28.021144
21
279.109564
0
LINE
8
Camada 2
10
28.021144
20
279.109564
11
29.098742
21
279.359205
0
LINE
8
Camada 2
10
29.098742
20
279.359205
11
29.957066
21
280.047030
0
LINE
8
Camada 2
10
29.957066
20
280.047030
11
30.720233
21
279.434024
0
LINE
8
Camada 2
10
30.720233
20
279.434024
11
31.649755
21
279.144484
0
LINE
8
Camada 2
10
31.649755
20
279.144484
11
32.636252
21
279.156803
0
LINE
8
Camada 2
10
32.636252
20
279.156803
11
33.570346
21
279.449373
0
LINE
8
Camada 2
10
33.570346
20
279.449373
11
34.337775
21
279.124681
0
LINE
8
Camada 2
10
34.337775
20
279.124681
11
35.162456
21
279.033391
0
LINE
8
Camada 2
10
35.162456
20
279.033391
11
36.779326
21
279.336092
0
LINE
8
Camada 2
10
36.779326
20
279.336092
11
38.016006
21
279.013920
0
LINE
8
Camada 2
10
38.016006
20
279.013920
11
39.264971
21
279.203002
0
LINE
8
Camada 2
10
39.264971
20
279.203002
11
40.403131
21
279.800147
0
LINE
8
Camada 2
10
40.403131
20
279.800147
11
41.307396
21
280.702162
0
LINE
8
Camada 2
10
41.307396
20
280.702162
11
42.761415
21
282.349322
0
LINE
8
Camada 2
10
42.761415
20
282.349322
11
43.229347
21
283.314798
0
LINE
8
Camada 2
10
43.229347
20
283.314798
11
43.279326
21
284.394682
0
LINE
8
Camada 2
10
43.279326
20
284.394682
11
43.031588
21
284.972457
0
LINE
8
Camada 2
10
43.031588
20
284.972457
11
42.633423
21
285.456567
0
LINE
8
Camada 2
10
42.633423
20
285.456567
11
41.544946
21
286.070462
0
LINE
8
Camada 2
10
41.544946
20
286.070462
11
41.423884
21
287.017819
0
LINE
8
Camada 2
10
41.423884
20
287.017819
11
40.940703
21
287.827586
0
LINE
8
Camada 2
10
40.940703
20
287.827586
11
40.188353
21
288.397951
0
LINE
8
Camada 2
10
40.188353
20
288.397951
11
39.259786
21
288.627102
0
LINE
8
Camada 2
10
39.259786
20
288.627102
11
38.056786
21
288.654260
0
LINE
8
Camada 2
10
38.056786
20
288.654260
11
36.885962
21
288.395817
0
LINE
8
Camada 2
10
36.885962
20
288.395817
11
35.782910
21
287.905362
0
LINE
8
Camada 2
10
35.782910
20
287.905362
11
34.783226
21
287.236482
0
LINE
8
Camada 2
10
34.783226
20
287.236482
11
33.944229
21
288.069058
0
LINE
8
Camada 2
10
33.944229
20
288.069058
11
32.843683
21
288.474805
0
LINE
8
Camada 2
10
32.843683
20
288.474805
11
31.655292
21
288.461098
0
LINE
8
Camada 2
10
31.655292
20
288.461098
11
30.552756
21
288.035310
0
LINE
8
Camada 2
10
30.552756
20
288.035310
11
29.726156
21
288.350012
0
LINE
8
Camada 2
10
29.726156
20
288.350012
11
28.840640
21
288.378244
0
LINE
8
Camada 2
10
28.840640
20
288.378244
11
27.970362
21
288.160791
0
LINE
8
Camada 2
10
27.970362
20
288.160791
11
27.189476
21
287.738435
0
LINE
8
Camada 2
10
27.189476
20
287.738435
11
26.281690
21
288.324194
0
LINE
8
Camada 2
10
26.281690
20
288.324194
11
25.296896
21
288.603669
0
LINE
8
Camada 2
10
25.296896
20
288.603669
11
25.902901
21
289.643348
0
LINE
8
Camada 2
10
25.902901
20
289.643348
11
26.295435
21
290.800819
0
LINE
8
Camada 2
10
26.295435
20
290.800819
11
26.333720
21
291.983737
0
LINE
8
Camada 2
10
26.333720
20
291.983737
11
25.876975
21
293.099759
0
LINE
8
Camada 2
10
25.876975
20
293.099759
11
25.122097
21
293.856979
0
LINE
8
Camada 2
10
25.122097
20
293.856979
11
24.143841
21
294.262564
0
LINE
8
Camada 2
10
24.143841
20
294.262564
11
23.089972
21
294.273335
0
LINE
8
Camada 2
10
23.089972
20
294.273335
11
22.108255
21
293.846112
0
LINE
8
Camada 2
10
22.108255
20
293.846112
11
20.999111
21
292.872444
0
LINE
8
Camada 2
10
20.999111
20
292.872444
11
20.186483
21
291.646591
0
LINE
8
Camada 2
10
20.186483
20
291.646591
11
18.941615
21
288.946662
0
LINE
8
Camada 2
10
18.941615
20
288.946662
11
18.678780
21
288.364422
0
LINE
8
Camada 2
10
18.678780
20
288.364422
11
18.470368
21
288.273787
0
LINE
8
Camada 2
10
18.470368
20
288.273787
11
18.152368
21
288.429840
0
LINE
8
Camada 2
10
18.152368
20
288.429840
11
16.851484
21
288.592978
0
LINE
8
Camada 2
10
16.851484
20
288.592978
11
15.578148
21
288.273590
0
LINE
8
Camada 2
10
15.578148
20
288.273590
11
16.403121
21
290.205431
0
LINE
8
Camada 2
10
16.403121
20
290.205431
11
16.754641
21
291.191400
0
LINE
8
Camada 2
10
16.754641
20
291.191400
11
16.970728
21
292.207180
0
LINE
8
Camada 2
10
16.970728
20
292.207180
11
16.711977
21
293.087385
0
LINE
8
Camada 2
10
16.711977
20
293.087385
11
16.139760
21
293.797051
0
LINE
8
Camada 2
10
16.139760
20
293.797051
11
15.349237
21
294.244984
0
LINE
8
Camada 2
10
15.349237
20
294.244984
11
14.435568
21
294.339990
0
LINE
8
Camada 2
10
14.435568
20
294.339990
11
14.435600
21
294.340000
0
LINE
8
Layer 2
10
5.198550
20
293.559000
11
5.027156
21
292.696469
0
LINE
8
Layer 2
10
5.027156
20
292.696469
11
4.538692
21
291.965212
0
LINE
8
Layer 2
10
4.538692
20
291.965212
11
3.807543
21
291.476585
0
LINE
8
Layer 2
10
3.807543
20
291.476585
11
2.945050
21
291.305000
0
LINE
8
Layer 2
10
2.945050
20
291.305000
11
2.082557
21
291.476585
0
LINE
8
Layer 2
10
2.082557
20
291.476585
11
1.351407
21
291.965211
0
LINE
8
Layer 2
10
1.351407
20
291.965211
11
0.862943
21
292.696469
0
LINE
8
Layer 2
10
0.862943
20
292.696469
11
0.691549
21
293.559000
0
LINE
8
Layer 2
10
0.691549
20
293.559000
11
0.868784
21
294.436004
0
LINE
8
Layer 2
10
0.868784
20
294.436004
11
1.351761
21
295.152142
0
LINE
8
Layer 2
10
1.351761
20
295.152142
11
2.068007
21
295.634960
0
LINE
8
Layer 2
10
2.068007
20
295.634960
11
2.945050
21
295.812000
0
LINE
8
Layer 2
10
2.945050
20
295.812000
11
3.822093
21
295.634959
0
LINE
8
Layer 2
10
3.822093
20
295.634959
11
4.538338
21
295.152142
0
LINE
8
Layer 2
10
4.538338
20
295.152142
11
5.021315
21
294.436003
0
LINE
8
Layer 2
10
5.021315
20
294.436003
11
5.198550
21
293.559000
0
LINE
8
Layer 2
10
5.198550
20
293.559000
11
5.198550
21
293.559000
0
LINE
8
Layer 2
10
4.182500
20
293.571000
11
4.082548
21
293.076254
0
LINE
8
Layer 2
10
4.082548
20
293.076254
11
3.810106
21
292.672252
0
LINE
8
Layer 2
10
3.810106
20
292.672252
11
3.406062
21
292.399874
0
LINE
8
Layer 2
10
3.406062
20
292.399874
11
2.911300
21
292.300000
0
LINE
8
Layer 2
10
2.911300
20
292.300000
11
2.416542
21
292.399877
0
LINE
8
Layer 2
10
2.416542
20
292.399877
11
2.012500
21
292.672256
0
LINE
8
Layer 2
10
2.012500
20
292.672256
11
1.740061
21
293.076256
0
LINE
8
Layer 2
10
1.740061
20
293.076256
11
1.640110
21
293.571000
0
LINE
8
Layer 2
10
1.640110
20
293.571000
11
1.740061
21
294.065744
0
LINE
8
Layer 2
10
1.740061
20
294.065744
11
2.012500
21
294.469744
0
LINE
8
Layer 2
10
2.012500
20
294.469744
11
2.416542
21
294.742123
0
LINE
8
Layer 2
10
2.416542
20
294.742123
11
2.911300
21
294.842000
0
LINE
8
Layer 2
10
2.911300
20
294.842000
11
3.406062
21
294.742126
0
LINE
8
Layer 2
10
3.406062
20
294.742126
11
3.810106
21
294.469748
0
LINE
8
Layer 2
10
3.810106
20
294.469748
11
4.082548
21
294.065746
0
LINE
8
Layer 2
10
4.082548
20
294.065746
11
4.182500
21
293.571000
0
LINE
8
Layer 2
10
4.182500
20
293.571000
11
4.182500
21
293.571000
0
LINE
8
Layer 1
10
14.658200
20
292.547000
11
14.503903
21
292.521609
0
LINE
8
Layer 1
10
14.503903
20
292.521609
11
14.150388
21
292.213015
0
LINE
8
Layer 1
10
14.150388
20
292.213015
11
14.142588
21
292.195437
0
LINE
8
Layer 1
10
14.142588
20
292.195437
11
13.625000
21
290.986000
0
LINE
8
Layer 1
10
13.625000
20
290.986000
11
13.623000
21
290.982090
0
LINE
8
Layer 1
10
13.623000
20
290.982090
11
13.242141
21
290.064121
0
LINE
8
Layer 1
10
13.242141
20
290.064121
11
12.455031
21
288.226231
0
LINE
8
Layer 1
10
12.455031
20
288.226231
11
12.246047
21
287.747715
0
LINE
8
Layer 1
10
12.246047
20
287.747715
11
12.240147
21
287.735996
0
LINE
8
Layer 1
10
12.240147
20
287.735996
11
12.022389
21
287.359195
0
LINE
8
Layer 1
10
12.022389
20
287.359195
11
11.712804
21
287.110996
0
LINE
8
Layer 1
10
11.712804
20
287.110996
11
11.708904
21
287.109046
0
LINE
8
Layer 1
10
11.708904
20
287.109046
11
10.689374
21
286.821937
0
LINE
8
Layer 1
10
10.689374
20
286.821937
11
9.554604
21
286.821937
0
LINE
8
Layer 1
10
9.554604
20
286.821937
11
9.550700
21
286.822000
0
LINE
8
Layer 1
10
9.550700
20
286.822000
11
8.773356
21
286.841530
0
LINE
8
Layer 1
10
8.773356
20
286.841530
11
7.994059
21
286.802470
0
LINE
8
Layer 1
10
7.994059
20
286.802470
11
7.265543
21
286.700908
0
LINE
8
Layer 1
10
7.265543
20
286.700908
11
7.212809
21
286.683328
0
LINE
8
Layer 1
10
7.212809
20
286.683328
11
7.662110
21
287.775000
0
LINE
8
Layer 1
10
7.662110
20
287.775000
11
7.662110
21
287.771000
0
LINE
8
Layer 1
10
7.662110
20
287.771000
11
8.367190
21
289.529000
0
LINE
8
Layer 1
10
8.367190
20
289.529000
11
8.373050
21
289.542672
0
LINE
8
Layer 1
10
8.373050
20
289.542672
11
8.781250
21
290.588000
0
LINE
8
Layer 1
10
8.781250
20
290.588000
11
8.849610
21
291.375000
0
LINE
8
Layer 1
10
8.849610
20
291.375000
11
8.703041
21
291.787125
0
LINE
8
Layer 1
10
8.703041
20
291.787125
11
8.402340
21
292.113000
0
LINE
8
Layer 1
10
8.402340
20
292.113000
11
8.396480
21
292.116910
0
LINE
8
Layer 1
10
8.396480
20
292.116910
11
7.958580
21
292.331739
0
LINE
8
Layer 1
10
7.958580
20
292.331739
11
7.468750
21
292.404000
0
LINE
8
Layer 1
10
7.468750
20
292.404000
11
6.615234
21
292.300484
0
LINE
8
Layer 1
10
6.615234
20
292.300484
11
5.821586
21
292.035905
0
LINE
8
Layer 1
10
5.821586
20
292.035905
11
5.121094
21
291.583687
0
LINE
8
Layer 1
10
5.121094
20
291.583687
11
5.101563
21
291.564156
0
LINE
8
Layer 1
10
5.101563
20
291.564156
11
4.669920
21
290.850000
0
LINE
8
Layer 1
10
4.669920
20
290.850000
11
4.726560
21
290.389000
0
LINE
8
Layer 1
10
4.726560
20
290.389000
11
5.033200
21
290.178000
0
LINE
8
Layer 1
10
5.033200
20
290.178000
11
5.339841
21
290.178000
0
LINE
8
Layer 1
10
5.339841
20
290.178000
11
5.404294
21
290.201437
0
LINE
8
Layer 1
10
5.404294
20
290.201437
11
5.667970
21
290.582000
0
LINE
8
Layer 1
10
5.667970
20
290.582000
11
5.660160
21
290.552703
0
LINE
8
Layer 1
10
5.660160
20
290.552703
11
5.910160
21
290.847625
0
LINE
8
Layer 1
10
5.910160
20
290.847625
11
5.943363
21
290.873016
0
LINE
8
Layer 1
10
5.943363
20
290.873016
11
6.572270
21
291.195000
0
LINE
8
Layer 1
10
6.572270
20
291.195000
11
6.597661
21
291.202810
0
LINE
8
Layer 1
10
6.597661
20
291.202810
11
6.982427
21
291.302419
0
LINE
8
Layer 1
10
6.982427
20
291.302419
11
7.001958
21
291.306329
0
LINE
8
Layer 1
10
7.001958
20
291.306329
11
7.386724
21
291.339532
0
LINE
8
Layer 1
10
7.386724
20
291.339532
11
7.412115
21
291.337582
0
LINE
8
Layer 1
10
7.412115
20
291.337582
11
7.669927
21
291.306332
0
LINE
8
Layer 1
10
7.669927
20
291.306332
11
7.804693
21
291.237973
0
LINE
8
Layer 1
10
7.804693
20
291.237973
11
7.832037
21
291.183286
0
LINE
8
Layer 1
10
7.832037
20
291.183286
11
7.820318
21
291.044614
0
LINE
8
Layer 1
10
7.820318
20
291.044614
11
7.738287
21
290.814145
0
LINE
8
Layer 1
10
7.738287
20
290.814145
11
7.632818
21
290.540707
0
LINE
8
Layer 1
10
7.632818
20
290.540707
11
6.640620
21
288.045000
0
LINE
8
Layer 1
10
6.640620
20
288.045000
11
5.666020
21
285.709000
0
LINE
8
Layer 1
10
5.666020
20
285.709000
11
4.707030
21
283.389000
0
LINE
8
Layer 1
10
4.707030
20
283.389000
11
4.017577
21
281.742520
0
LINE
8
Layer 1
10
4.017577
20
281.742520
11
3.992186
21
281.621426
0
LINE
8
Layer 1
10
3.992186
20
281.621426
11
3.988276
21
281.646816
0
LINE
8
Layer 1
10
3.988276
20
281.646816
11
3.978506
21
281.621426
0
LINE
8
Layer 1
10
3.978506
20
281.621426
11
3.988276
21
281.193691
0
LINE
8
Layer 1
10
3.988276
20
281.193691
11
4.240229
21
280.939785
0
LINE
8
Layer 1
10
4.240229
20
280.939785
11
4.304682
21
280.916345
0
LINE
8
Layer 1
10
4.304682
20
280.916345
11
4.611323
21
280.916345
0
LINE
8
Layer 1
10
4.611323
20
280.916345
11
4.650386
21
280.930015
0
LINE
8
Layer 1
10
4.650386
20
280.930015
11
4.958980
21
281.236655
0
LINE
8
Layer 1
10
4.958980
20
281.236655
11
5.128902
21
281.633139
0
LINE
8
Layer 1
10
5.128902
20
281.633139
11
5.130852
21
281.637039
0
LINE
8
Layer 1
10
5.130852
20
281.637039
11
5.878899
21
283.457349
0
LINE
8
Layer 1
10
5.878899
20
283.457349
11
5.878899
21
283.461249
0
LINE
8
Layer 1
10
5.878899
20
283.461249
11
6.109368
21
284.035467
0
LINE
8
Layer 1
10
6.109368
20
284.035467
11
6.271477
21
284.433905
0
LINE
8
Layer 1
10
6.271477
20
284.433905
11
6.273427
21
284.437805
0
LINE
8
Layer 1
10
6.273427
20
284.437805
11
6.281237
21
284.457335
0
LINE
8
Layer 1
10
6.281237
20
284.457335
11
6.449206
21
284.810851
0
LINE
8
Layer 1
10
6.449206
20
284.810851
11
6.453116
21
284.822571
0
LINE
8
Layer 1
10
6.453116
20
284.822571
11
6.603507
21
285.135071
0
LINE
8
Layer 1
10
6.603507
20
285.135071
11
6.953116
21
285.472961
0
LINE
8
Layer 1
10
6.953116
20
285.472961
11
7.445304
21
285.670227
0
LINE
8
Layer 1
10
7.445304
20
285.670227
11
8.042960
21
285.758117
0
LINE
8
Layer 1
10
8.042960
20
285.758117
11
8.677726
21
285.777647
0
LINE
8
Layer 1
10
8.677726
20
285.777647
11
9.505851
21
285.758117
0
LINE
8
Layer 1
10
9.505851
20
285.758117
11
9.521476
21
285.758117
0
LINE
8
Layer 1
10
9.521476
20
285.758117
11
10.398430
21
285.777647
0
LINE
8
Layer 1
10
10.398430
20
285.777647
11
11.271476
21
285.857727
0
LINE
8
Layer 1
10
11.271476
20
285.857727
11
11.490226
21
285.929997
0
LINE
8
Layer 1
10
11.490226
20
285.929997
11
11.361320
21
285.613590
0
LINE
8
Layer 1
10
11.361320
20
285.613590
11
11.357420
21
285.603790
0
LINE
8
Layer 1
10
11.357420
20
285.603790
11
11.011717
21
284.660430
0
LINE
8
Layer 1
10
11.011717
20
284.660430
11
10.720701
21
283.824493
0
LINE
8
Layer 1
10
10.720701
20
283.824493
11
10.720700
21
283.830000
0
LINE
8
Layer 1
10
10.720700
20
283.830000
11
10.499997
21
282.962813
0
LINE
8
Layer 1
10
10.499997
20
282.962813
11
10.398435
21
282.349531
0
LINE
8
Layer 1
10
10.398435
20
282.349531
11
10.396435
21
282.330001
0
LINE
8
Layer 1
10
10.396435
20
282.330001
11
10.490185
21
281.617111
0
LINE
8
Layer 1
10
10.490185
20
281.617111
11
10.496085
21
281.605391
0
LINE
8
Layer 1
10
10.496085
20
281.605391
11
10.925772
21
281.070234
0
LINE
8
Layer 1
10
10.925772
20
281.070234
11
10.943352
21
281.060434
0
LINE
8
Layer 1
10
10.943352
20
281.060434
11
11.546868
21
280.911996
0
LINE
8
Layer 1
10
11.546868
20
280.911996
11
12.244134
21
281.005746
0
LINE
8
Layer 1
10
12.244134
20
281.005746
11
12.246134
21
281.007746
0
LINE
8
Layer 1
10
12.246134
20
281.007746
11
12.830118
21
281.296809
0
LINE
8
Layer 1
10
12.830118
20
281.296809
11
12.832118
21
281.296809
0
LINE
8
Layer 1
10
12.832118
20
281.296809
11
13.433681
21
281.757746
0
LINE
8
Layer 1
10
13.433681
20
281.757746
11
13.953212
21
282.238215
0
LINE
8
Layer 1
10
13.953212
20
282.238215
11
14.050872
21
281.738215
0
LINE
8
Layer 1
10
14.050872
20
281.738215
11
14.511810
21
281.160090
0
LINE
8
Layer 1
10
14.511810
20
281.160090
11
14.535250
21
281.144460
0
LINE
8
Layer 1
10
14.535250
20
281.144460
11
15.214938
21
280.908132
0
LINE
8
Layer 1
10
15.214938
20
280.908132
11
15.216938
21
280.908132
0
LINE
8
Layer 1
10
15.216938
20
280.908132
11
15.933403
21
280.936685
0
LINE
8
Layer 1
10
15.933403
20
280.936685
11
16.613418
21
281.193288
0
LINE
8
Layer 1
10
16.613418
20
281.193288
11
16.617318
21
281.195288
0
LINE
8
Layer 1
10
16.617318
20
281.195288
11
17.716800
21
281.938000
0
LINE
8
Layer 1
10
17.716800
20
281.938000
11
17.728520
21
281.947800
0
LINE
8
Layer 1
10
17.728520
20
281.947800
11
18.160160
21
282.359909
0
LINE
8
Layer 1
10
18.160160
20
282.359909
11
18.582035
21
282.781784
0
LINE
8
Layer 1
10
18.582035
20
282.781784
11
18.593755
21
282.795454
0
LINE
8
Layer 1
10
18.593755
20
282.795454
11
18.724614
21
282.943891
0
LINE
8
Layer 1
10
18.724614
20
282.943891
11
18.662114
21
282.336470
0
LINE
8
Layer 1
10
18.662114
20
282.336470
11
18.662114
21
282.334470
0
LINE
8
Layer 1
10
18.662114
20
282.334470
11
18.912114
21
281.469236
0
LINE
8
Layer 1
10
18.912114
20
281.469236
11
19.285069
21
281.102086
0
LINE
8
Layer 1
10
19.285069
20
281.102086
11
19.804693
21
280.967283
0
LINE
8
Layer 1
10
19.804693
20
280.967283
11
20.449224
21
281.098142
0
LINE
8
Layer 1
10
20.449224
20
281.098142
11
20.902349
21
281.389158
0
LINE
8
Layer 1
10
20.902349
20
281.389158
11
20.904349
21
281.389158
0
LINE
8
Layer 1
10
20.904349
20
281.389158
11
21.476614
21
281.879392
0
LINE
8
Layer 1
10
21.476614
20
281.879392
11
21.832083
21
282.248533
0
LINE
8
Layer 1
10
21.832083
20
282.248533
11
21.931693
21
281.738767
0
LINE
8
Layer 1
10
21.931693
20
281.738767
11
22.392630
21
281.160642
0
LINE
8
Layer 1
10
22.392630
20
281.160642
11
22.416070
21
281.145012
0
LINE
8
Layer 1
10
22.416070
20
281.145012
11
23.097710
21
280.908684
0
LINE
8
Layer 1
10
23.097710
20
280.908684
11
23.099710
21
280.908684
0
LINE
8
Layer 1
10
23.099710
20
280.908684
11
23.815308
21
280.937323
0
LINE
8
Layer 1
10
23.815308
20
280.937323
11
24.494240
21
281.193840
0
LINE
8
Layer 1
10
24.494240
20
281.193840
11
24.498140
21
281.195840
0
LINE
8
Layer 1
10
24.498140
20
281.195840
11
25.597750
21
281.938028
0
LINE
8
Layer 1
10
25.597750
20
281.938028
11
25.609470
21
281.947828
0
LINE
8
Layer 1
10
25.609470
20
281.947828
11
26.041111
21
282.359937
0
LINE
8
Layer 1
10
26.041111
20
282.359937
11
26.462986
21
282.781812
0
LINE
8
Layer 1
10
26.462986
20
282.781812
11
26.474706
21
282.795482
0
LINE
8
Layer 1
10
26.474706
20
282.795482
11
26.935500
21
283.312000
0
LINE
8
Layer 1
10
26.935500
20
283.312000
11
26.947220
21
283.323720
0
LINE
8
Layer 1
10
26.947220
20
283.323720
11
27.042920
21
283.458485
0
LINE
8
Layer 1
10
27.042920
20
283.458485
11
27.164013
21
283.581532
0
LINE
8
Layer 1
10
27.164013
20
283.581532
11
27.441357
21
283.952626
0
LINE
8
Layer 1
10
27.441357
20
283.952626
11
27.449157
21
283.962426
0
LINE
8
Layer 1
10
27.449157
20
283.962426
11
27.451157
21
283.964426
0
LINE
8
Layer 1
10
27.451157
20
283.964426
11
27.984360
21
284.589426
0
LINE
8
Layer 1
10
27.984360
20
284.589426
11
27.990260
21
284.595326
0
LINE
8
Layer 1
10
27.990260
20
284.595326
11
27.992260
21
284.597326
0
LINE
8
Layer 1
10
27.992260
20
284.597326
11
28.591869
21
285.179358
0
LINE
8
Layer 1
10
28.591869
20
285.179358
11
28.597769
21
285.183258
0
LINE
8
Layer 1
10
28.597769
20
285.183258
11
29.035269
21
285.521148
0
LINE
8
Layer 1
10
29.035269
20
285.521148
11
29.078239
21
285.532868
0
LINE
8
Layer 1
10
29.078239
20
285.532868
11
29.074339
21
285.493808
0
LINE
8
Layer 1
10
29.074339
20
285.493808
11
29.027469
21
285.091464
0
LINE
8
Layer 1
10
29.027469
20
285.091464
11
29.025469
21
285.087564
0
LINE
8
Layer 1
10
29.025469
20
285.087564
11
28.845781
21
284.491861
0
LINE
8
Layer 1
10
28.845781
20
284.491861
11
28.849681
21
284.497761
0
LINE
8
Layer 1
10
28.849681
20
284.497761
11
28.619213
21
283.921589
0
LINE
8
Layer 1
10
28.619213
20
283.921589
11
28.168041
21
282.950886
0
LINE
8
Layer 1
10
28.168041
20
282.950886
11
28.166041
21
282.944986
0
LINE
8
Layer 1
10
28.166041
20
282.944986
11
27.689478
21
281.972330
0
LINE
8
Layer 1
10
27.689478
20
281.972330
11
27.683578
21
281.958660
0
LINE
8
Layer 1
10
27.683578
20
281.958660
11
27.535140
21
281.626629
0
LINE
8
Layer 1
10
27.535140
20
281.626629
11
27.496080
21
281.218426
0
LINE
8
Layer 1
10
27.496080
20
281.218426
11
27.794908
21
280.929364
0
LINE
8
Layer 1
10
27.794908
20
280.929364
11
28.218736
21
280.929364
0
LINE
8
Layer 1
10
28.218736
20
280.929364
11
28.511705
21
281.189129
0
LINE
8
Layer 1
10
28.511705
20
281.189129
11
28.714830
21
281.532879
0
LINE
8
Layer 1
10
28.714830
20
281.532879
11
28.703110
21
281.507489
0
LINE
8
Layer 1
10
28.703110
20
281.507489
11
28.886704
21
281.819989
0
LINE
8
Layer 1
10
28.886704
20
281.819989
11
28.892604
21
281.831709
0
LINE
8
Layer 1
10
28.892604
20
281.831709
11
29.515651
21
282.851239
0
LINE
8
Layer 1
10
29.515651
20
282.851239
11
29.517651
21
282.855139
0
LINE
8
Layer 1
10
29.517651
20
282.855139
11
30.195385
21
283.853186
0
LINE
8
Layer 1
10
30.195385
20
283.853186
11
30.961011
21
284.784826
0
LINE
8
Layer 1
10
30.961011
20
284.784826
11
30.964911
21
284.788726
0
LINE
8
Layer 1
10
30.964911
20
284.788726
11
31.849676
21
285.485992
0
LINE
8
Layer 1
10
31.849676
20
285.485992
11
31.867256
21
285.495792
0
LINE
8
Layer 1
10
31.867256
20
285.495792
11
32.017646
21
285.562202
0
LINE
8
Layer 1
10
32.017646
20
285.562202
11
32.058666
21
285.579782
0
LINE
8
Layer 1
10
32.058666
20
285.579782
11
32.199291
21
285.626652
0
LINE
8
Layer 1
10
32.199291
20
285.626652
11
32.263741
21
285.646182
0
LINE
8
Layer 1
10
32.263741
20
285.646182
11
32.371163
21
285.659852
0
LINE
8
Layer 1
10
32.371163
20
285.659852
11
32.359443
21
285.534852
0
LINE
8
Layer 1
10
32.359443
20
285.534852
11
32.359443
21
285.530952
0
LINE
8
Layer 1
10
32.359443
20
285.530952
11
32.166084
21
284.900093
0
LINE
8
Layer 1
10
32.166084
20
284.900093
11
32.162184
21
284.892293
0
LINE
8
Layer 1
10
32.162184
20
284.892293
11
31.826247
21
284.070027
0
LINE
8
Layer 1
10
31.826247
20
284.070027
11
31.824247
21
284.064127
0
LINE
8
Layer 1
10
31.824247
20
284.064127
11
31.476590
21
283.236002
0
LINE
8
Layer 1
10
31.476590
20
283.236002
11
31.304716
21
282.810221
0
LINE
8
Layer 1
10
31.304716
20
282.810221
11
31.171903
21
282.351236
0
LINE
8
Layer 1
10
31.171903
20
282.351236
11
31.171903
21
282.347336
0
LINE
8
Layer 1
10
31.171903
20
282.347336
11
31.109403
21
282.005539
0
LINE
8
Layer 1
10
31.109403
20
282.005539
11
31.109403
21
282.003539
0
LINE
8
Layer 1
10
31.109403
20
282.003539
11
31.109403
21
282.001539
0
LINE
8
Layer 1
10
31.109403
20
282.001539
11
31.136743
21
281.583570
0
LINE
8
Layer 1
10
31.136743
20
281.583570
11
31.136743
21
281.579670
0
LINE
8
Layer 1
10
31.136743
20
281.579670
11
31.381660
21
281.154928
0
LINE
8
Layer 1
10
31.381660
20
281.154928
11
31.806665
21
280.929280
0
LINE
8
Layer 1
10
31.806665
20
280.929280
11
31.824245
21
280.925380
0
LINE
8
Layer 1
10
31.824245
20
280.925380
11
32.587917
21
280.995690
0
LINE
8
Layer 1
10
32.587917
20
280.995690
11
32.597700
21
281.000000
0
LINE
8
Layer 1
10
32.597700
20
281.000000
11
33.388716
21
281.462891
0
LINE
8
Layer 1
10
33.388716
20
281.462891
11
33.869185
21
281.896484
0
LINE
8
Layer 1
10
33.869185
20
281.896484
11
33.904345
21
281.675781
0
LINE
8
Layer 1
10
33.904345
20
281.675781
11
33.912145
21
281.660151
0
LINE
8
Layer 1
10
33.912145
20
281.660151
11
34.416052
21
281.052729
0
LINE
8
Layer 1
10
34.416052
20
281.052729
11
34.857279
21
280.863608
0
LINE
8
Layer 1
10
34.857279
20
280.863608
11
35.341833
21
280.830073
0
LINE
8
Layer 1
10
35.341833
20
280.830073
11
35.357463
21
280.832073
0
LINE
8
Layer 1
10
35.357463
20
280.832073
11
36.173869
21
281.068401
0
LINE
8
Layer 1
10
36.173869
20
281.068401
11
36.191449
21
281.078201
0
LINE
8
Layer 1
10
36.191449
20
281.078201
11
36.966840
21
281.644607
0
LINE
8
Layer 1
10
36.966840
20
281.644607
11
37.035200
21
281.720777
0
LINE
8
Layer 1
10
37.035200
20
281.720777
11
37.037200
21
281.709057
0
LINE
8
Layer 1
10
37.037200
20
281.709057
11
37.249622
21
281.237132
0
LINE
8
Layer 1
10
37.249622
20
281.237132
11
37.673919
21
280.918042
0
LINE
8
Layer 1
10
37.673919
20
280.918042
11
37.675919
21
280.918042
0
LINE
8
Layer 1
10
37.675919
20
280.918042
11
38.151736
21
280.795001
0
LINE
8
Layer 1
10
38.151736
20
280.795001
11
38.629044
21
280.869212
0
LINE
8
Layer 1
10
38.629044
20
280.869212
11
38.636844
21
280.873112
0
LINE
8
Layer 1
10
38.636844
20
280.873112
11
39.351687
21
281.308659
0
LINE
8
Layer 1
10
39.351687
20
281.308659
11
40.089969
21
282.005924
0
LINE
8
Layer 1
10
40.089969
20
282.005924
11
40.742313
21
282.734440
0
LINE
8
Layer 1
10
40.742313
20
282.734440
11
40.744313
21
282.738340
0
LINE
8
Layer 1
10
40.744313
20
282.738340
11
41.011891
21
283.044981
0
LINE
8
Layer 1
10
41.011891
20
283.044981
11
41.023611
21
283.058651
0
LINE
8
Layer 1
10
41.023611
20
283.058651
11
41.287282
21
283.355526
0
LINE
8
Layer 1
10
41.287282
20
283.355526
11
41.289282
21
283.357526
0
LINE
8
Layer 1
10
41.289282
20
283.357526
11
41.365452
21
283.435656
0
LINE
8
Layer 1
10
41.365452
20
283.435656
11
41.402562
21
283.480576
0
LINE
8
Layer 1
10
41.402562
20
283.480576
11
41.502172
21
283.711045
0
LINE
8
Layer 1
10
41.502172
20
283.711045
11
41.468972
21
284.060654
0
LINE
8
Layer 1
10
41.468972
20
284.060654
11
41.230691
21
284.291123
0
LINE
8
Layer 1
10
41.230691
20
284.291123
11
40.910378
21
284.355573
0
LINE
8
Layer 1
10
40.910378
20
284.355573
11
40.615456
21
284.201276
0
LINE
8
Layer 1
10
40.615456
20
284.201276
11
40.599826
21
284.183696
0
LINE
8
Layer 1
10
40.599826
20
284.183696
11
39.908420
21
283.377055
0
LINE
8
Layer 1
10
39.908420
20
283.377055
11
39.195529
21
282.609477
0
LINE
8
Layer 1
10
39.195529
20
282.609477
11
39.181859
21
282.593847
0
LINE
8
Layer 1
10
39.181859
20
282.593847
11
38.924046
21
282.334081
0
LINE
8
Layer 1
10
38.924046
20
282.334081
11
38.623265
21
282.072363
0
LINE
8
Layer 1
10
38.623265
20
282.072363
11
38.431859
21
281.941503
0
LINE
8
Layer 1
10
38.431859
20
281.941503
11
38.209202
21
281.865333
0
LINE
8
Layer 1
10
38.209202
20
281.865333
11
38.199402
21
281.863333
0
LINE
8
Layer 1
10
38.199402
20
281.863333
11
38.121272
21
281.863333
0
LINE
8
Layer 1
10
38.121272
20
281.863333
11
38.103692
21
281.877003
0
LINE
8
Layer 1
10
38.103692
20
281.877003
11
38.097792
21
281.888723
0
LINE
8
Layer 1
10
38.097792
20
281.888723
11
38.043102
21
282.093801
0
LINE
8
Layer 1
10
38.043102
20
282.093801
11
38.091932
21
282.416067
0
LINE
8
Layer 1
10
38.091932
20
282.416067
11
38.095832
21
282.433647
0
LINE
8
Layer 1
10
38.095832
20
282.433647
11
38.179812
21
282.826225
0
LINE
8
Layer 1
10
38.179812
20
282.826225
11
38.179800
21
282.828000
0
LINE
8
Layer 1
10
38.179800
20
282.828000
11
38.328237
21
283.257687
0
LINE
8
Layer 1
10
38.328237
20
283.257687
11
38.336037
21
283.279177
0
LINE
8
Layer 1
10
38.336037
20
283.279177
11
38.398537
21
283.435427
0
LINE
8
Layer 1
10
38.398537
20
283.435427
11
38.410257
21
283.454957
0
LINE
8
Layer 1
10
38.410257
20
283.454957
11
38.525492
21
283.685426
0
LINE
8
Layer 1
10
38.525492
20
283.685426
11
38.640726
21
283.882691
0
LINE
8
Layer 1
10
38.640726
20
283.882691
11
38.660256
21
283.915891
0
LINE
8
Layer 1
10
38.660256
20
283.915891
11
38.789162
21
284.136594
0
LINE
8
Layer 1
10
38.789162
20
284.136594
11
38.795062
21
284.146394
0
LINE
8
Layer 1
10
38.795062
20
284.146394
11
39.173968
21
284.890535
0
LINE
8
Layer 1
10
39.173968
20
284.890535
11
39.177868
21
284.896435
0
LINE
8
Layer 1
10
39.177868
20
284.896435
11
39.548962
21
285.652295
0
LINE
8
Layer 1
10
39.548962
20
285.652295
11
39.560682
21
285.681595
0
LINE
8
Layer 1
10
39.560682
20
285.681595
11
39.607552
21
285.775345
0
LINE
8
Layer 1
10
39.607552
20
285.775345
11
39.619272
21
285.796825
0
LINE
8
Layer 1
10
39.619272
20
285.796825
11
39.714972
21
286.060497
0
LINE
8
Layer 1
10
39.714972
20
286.060497
11
39.738412
21
286.404247
0
LINE
8
Layer 1
10
39.738412
20
286.404247
11
39.406381
21
286.763622
0
LINE
8
Layer 1
10
39.406381
20
286.763622
11
39.129037
21
286.822212
0
LINE
8
Layer 1
10
39.129037
20
286.822212
11
39.205207
21
286.812412
0
LINE
8
Layer 1
10
39.205207
20
286.812412
11
39.017707
21
286.855382
0
LINE
8
Layer 1
10
39.017707
20
286.855382
11
38.992317
21
286.859282
0
LINE
8
Layer 1
10
38.992317
20
286.859282
11
37.892707
21
286.796782
0
LINE
8
Layer 1
10
37.892707
20
286.796782
11
36.904426
21
286.466704
0
LINE
8
Layer 1
10
36.904426
20
286.466704
11
36.158332
21
286.011626
0
LINE
8
Layer 1
10
36.158332
20
286.011626
11
35.525520
21
285.496001
0
LINE
8
Layer 1
10
35.525520
20
285.496001
11
34.826301
21
284.755766
0
LINE
8
Layer 1
10
34.826301
20
284.755766
11
34.463020
21
284.240141
0
LINE
8
Layer 1
10
34.463020
20
284.240141
11
34.439580
21
284.218661
0
LINE
8
Layer 1
10
34.439580
20
284.218661
11
34.414190
21
284.191321
0
LINE
8
Layer 1
10
34.414190
20
284.191321
11
33.947394
21
283.568274
0
LINE
8
Layer 1
10
33.947394
20
283.568274
11
33.484503
21
282.994056
0
LINE
8
Layer 1
10
33.484503
20
282.994056
11
33.004034
21
282.496009
0
LINE
8
Layer 1
10
33.004034
20
282.496009
11
33.002034
21
282.494009
0
LINE
8
Layer 1
10
33.002034
20
282.494009
11
32.500081
21
282.117056
0
LINE
8
Layer 1
10
32.500081
20
282.117056
11
32.492281
21
282.111156
0
LINE
8
Layer 1
10
32.492281
20
282.111156
11
32.351655
21
282.042796
0
LINE
8
Layer 1
10
32.351655
20
282.042796
11
32.158296
21
281.974436
0
LINE
8
Layer 1
10
32.158296
20
281.974436
11
32.162196
21
282.033026
0
LINE
8
Layer 1
10
32.162196
20
282.033026
11
32.257896
21
282.320135
0
LINE
8
Layer 1
10
32.257896
20
282.320135
11
32.257896
21
282.324035
0
LINE
8
Layer 1
10
32.257896
20
282.324035
11
32.377037
21
282.663878
0
LINE
8
Layer 1
10
32.377037
20
282.663878
11
32.380937
21
282.675598
0
LINE
8
Layer 1
10
32.380937
20
282.675598
11
32.533281
21
283.058411
0
LINE
8
Layer 1
10
32.533281
20
283.058411
11
32.531281
21
283.048611
0
LINE
8
Layer 1
10
32.531281
20
283.048611
11
32.914093
21
283.907986
0
LINE
8
Layer 1
10
32.914093
20
283.907986
11
32.916093
21
283.911886
0
LINE
8
Layer 1
10
32.916093
20
283.911886
11
33.269608
21
284.837668
0
LINE
8
Layer 1
10
33.269608
20
284.837668
11
33.273508
21
284.851338
0
LINE
8
Layer 1
10
33.273508
20
284.851338
11
33.349678
21
285.156026
0
LINE
8
Layer 1
10
33.349678
20
285.156026
11
33.416088
21
285.587667
0
LINE
8
Layer 1
10
33.416088
20
285.587667
11
33.361398
21
286.060323
0
LINE
8
Layer 1
10
33.361398
20
286.060323
11
33.080148
21
286.478292
0
LINE
8
Layer 1
10
33.080148
20
286.478292
11
33.072348
21
286.486092
0
LINE
8
Layer 1
10
33.072348
20
286.486092
11
32.630346
21
286.696594
0
LINE
8
Layer 1
10
32.630346
20
286.696594
11
32.128988
21
286.702889
0
LINE
8
Layer 1
10
32.128988
20
286.702889
11
32.126988
21
286.702889
0
LINE
8
Layer 1
10
32.126988
20
286.702889
11
31.384801
21
286.439217
0
LINE
8
Layer 1
10
31.384801
20
286.439217
11
30.619176
21
285.900155
0
LINE
8
Layer 1
10
30.619176
20
285.900155
11
30.136754
21
285.417733
0
LINE
8
Layer 1
10
30.136754
20
285.417733
11
30.140654
21
285.454843
0
LINE
8
Layer 1
10
30.140654
20
285.454843
11
30.093784
21
285.888437
0
LINE
8
Layer 1
10
30.093784
20
285.888437
11
30.087884
21
285.913827
0
LINE
8
Layer 1
10
30.087884
20
285.913827
11
29.894156
21
286.276253
0
LINE
8
Layer 1
10
29.894156
20
286.276253
11
29.576165
21
286.525156
0
LINE
8
Layer 1
10
29.576165
20
286.525156
11
28.822259
21
286.556406
0
LINE
8
Layer 1
10
28.822259
20
286.556406
11
28.263665
21
286.263437
0
LINE
8
Layer 1
10
28.263665
20
286.263437
11
27.814446
21
285.896249
0
LINE
8
Layer 1
10
27.814446
20
285.896249
11
27.353509
21
285.437265
0
LINE
8
Layer 1
10
27.353509
20
285.437265
11
26.933587
21
284.995859
0
LINE
8
Layer 1
10
26.933587
20
284.995859
11
26.919917
21
284.978279
0
LINE
8
Layer 1
10
26.919917
20
284.978279
11
26.343800
21
284.250000
0
LINE
8
Layer 1
10
26.343800
20
284.250000
11
26.322320
21
284.218750
0
LINE
8
Layer 1
10
26.322320
20
284.218750
11
26.246150
21
284.152340
0
LINE
8
Layer 1
10
26.246150
20
284.152340
11
25.904353
21
283.736324
0
LINE
8
Layer 1
10
25.904353
20
283.736324
11
25.587947
21
283.382808
0
LINE
8
Layer 1
10
25.587947
20
283.382808
11
25.585947
21
283.380808
0
LINE
8
Layer 1
10
25.585947
20
283.380808
11
25.287118
21
283.081980
0
LINE
8
Layer 1
10
25.287118
20
283.081980
11
25.281218
21
283.076080
0
LINE
8
Layer 1
10
25.281218
20
283.076080
11
24.703093
21
282.572174
0
LINE
8
Layer 1
10
24.703093
20
282.572174
11
24.119109
21
282.183502
0
LINE
8
Layer 1
10
24.119109
20
282.183502
11
23.658171
21
281.997955
0
LINE
8
Layer 1
10
23.658171
20
281.997955
11
23.257780
21
281.968655
0
LINE
8
Layer 1
10
23.257780
20
281.968655
11
23.212860
21
281.972555
0
LINE
8
Layer 1
10
23.212860
20
281.972555
11
22.957000
21
282.081930
0
LINE
8
Layer 1
10
22.957000
20
282.081930
11
22.884730
21
282.226461
0
LINE
8
Layer 1
10
22.884730
20
282.226461
11
22.837860
21
282.497946
0
LINE
8
Layer 1
10
22.837860
20
282.497946
11
22.958953
21
283.249899
0
LINE
8
Layer 1
10
22.958953
20
283.249899
11
23.132781
21
283.292869
0
LINE
8
Layer 1
10
23.132781
20
283.292869
11
23.158171
21
283.298769
0
LINE
8
Layer 1
10
23.158171
20
283.298769
11
23.339812
21
283.345639
0
LINE
8
Layer 1
10
23.339812
20
283.345639
11
23.386682
21
283.357359
0
LINE
8
Layer 1
10
23.386682
20
283.357359
11
23.613244
21
283.433529
0
LINE
8
Layer 1
10
23.613244
20
283.433529
11
24.341760
21
283.689388
0
LINE
8
Layer 1
10
24.341760
20
283.689388
11
24.355430
21
283.695288
0
LINE
8
Layer 1
10
24.355430
20
283.695288
11
25.070273
21
284.082007
0
LINE
8
Layer 1
10
25.070273
20
284.082007
11
25.080073
21
284.087907
0
LINE
8
Layer 1
10
25.080073
20
284.087907
11
25.480464
21
284.408219
0
LINE
8
Layer 1
10
25.480464
20
284.408219
11
25.482464
21
284.410219
0
LINE
8
Layer 1
10
25.482464
20
284.410219
11
25.884808
21
284.857485
0
LINE
8
Layer 1
10
25.884808
20
284.857485
11
26.156292
21
285.375063
0
LINE
8
Layer 1
10
26.156292
20
285.375063
11
26.160192
21
286.060610
0
LINE
8
Layer 1
10
26.160192
20
286.060610
11
26.156292
21
286.074280
0
LINE
8
Layer 1
10
26.156292
20
286.074280
11
25.901155
21
286.474532
0
LINE
8
Layer 1
10
25.901155
20
286.474532
11
25.490276
21
286.710999
0
LINE
8
Layer 1
10
25.490276
20
286.710999
11
24.691448
21
286.779359
0
LINE
8
Layer 1
10
24.691448
20
286.779359
11
24.689448
21
286.779359
0
LINE
8
Layer 1
10
24.689448
20
286.779359
11
24.003901
21
286.503968
0
LINE
8
Layer 1
10
24.003901
20
286.503968
11
23.464839
21
286.091859
0
LINE
8
Layer 1
10
23.464839
20
286.091859
11
22.462889
21
284.843809
0
LINE
8
Layer 1
10
22.462889
20
284.843809
11
22.130857
21
284.148497
0
LINE
8
Layer 1
10
22.130857
20
284.148497
11
22.048827
21
284.060607
0
LINE
8
Layer 1
10
22.048827
20
284.060607
11
22.025387
21
284.025447
0
LINE
8
Layer 1
10
22.025387
20
284.025447
11
21.957027
21
283.931697
0
LINE
8
Layer 1
10
21.957027
20
283.931697
11
21.947227
21
283.921897
0
LINE
8
Layer 1
10
21.947227
20
283.921897
11
21.351523
21
283.269553
0
LINE
8
Layer 1
10
21.351523
20
283.269553
11
21.341723
21
283.257833
0
LINE
8
Layer 1
10
21.341723
20
283.257833
11
20.970629
21
282.849630
0
LINE
8
Layer 1
10
20.970629
20
282.849630
11
20.374926
21
282.308615
0
LINE
8
Layer 1
10
20.374926
20
282.308615
11
20.367126
21
282.302715
0
LINE
8
Layer 1
10
20.367126
20
282.302715
11
19.841735
21
281.998028
0
LINE
8
Layer 1
10
19.841735
20
281.998028
11
19.839735
21
281.996028
0
LINE
8
Layer 1
10
19.839735
20
281.996028
11
19.824105
21
281.994028
0
LINE
8
Layer 1
10
19.824105
20
281.994028
11
19.781135
21
282.066288
0
LINE
8
Layer 1
10
19.781135
20
282.066288
11
19.777235
21
282.076088
0
LINE
8
Layer 1
10
19.777235
20
282.076088
11
19.708875
21
282.369057
0
LINE
8
Layer 1
10
19.708875
20
282.369057
11
19.742075
21
282.753822
0
LINE
8
Layer 1
10
19.742075
20
282.753822
11
19.744075
21
282.761622
0
LINE
8
Layer 1
10
19.744075
20
282.761622
11
19.906184
21
283.468653
0
LINE
8
Layer 1
10
19.906184
20
283.468653
11
19.908184
21
283.472553
0
LINE
8
Layer 1
10
19.908184
20
283.472553
11
20.187481
21
284.329975
0
LINE
8
Layer 1
10
20.187481
20
284.329975
11
20.361309
21
284.790913
0
LINE
8
Layer 1
10
20.361309
20
284.790913
11
20.365209
21
284.802633
0
LINE
8
Layer 1
10
20.365209
20
284.802633
11
20.431619
21
285.003805
0
LINE
8
Layer 1
10
20.431619
20
285.003805
11
20.499979
21
285.101465
0
LINE
8
Layer 1
10
20.499979
20
285.101465
11
20.525369
21
285.128805
0
LINE
8
Layer 1
10
20.525369
20
285.128805
11
21.503884
21
286.398335
0
LINE
8
Layer 1
10
21.503884
20
286.398335
11
22.466775
21
287.687395
0
LINE
8
Layer 1
10
22.466775
20
287.687395
11
22.464700
21
287.687000
0
LINE
8
Layer 1
10
22.464700
20
287.687000
11
23.212900
21
288.723000
0
LINE
8
Layer 1
10
23.212900
20
288.723000
11
23.937500
21
289.814000
0
LINE
8
Layer 1
10
23.937500
20
289.814000
11
23.941400
21
289.819860
0
LINE
8
Layer 1
10
23.941400
20
289.819860
11
24.191400
21
290.263219
0
LINE
8
Layer 1
10
24.191400
20
290.263219
11
24.191400
21
290.266000
0
LINE
8
Layer 1
10
24.191400
20
290.266000
11
24.441400
21
290.787484
0
LINE
8
Layer 1
10
24.441400
20
290.787484
11
24.560500
21
291.590000
0
LINE
8
Layer 1
10
24.560500
20
291.590000
11
24.409600
21
292.073000
0
LINE
8
Layer 1
10
24.409600
20
292.073000
11
24.043000
21
292.406000
0
LINE
8
Layer 1
10
24.043000
20
292.406000
11
23.555262
21
292.509000
0
LINE
8
Layer 1
10
23.555262
20
292.509000
11
23.070300
21
292.357000
0
LINE
8
Layer 1
10
23.070300
20
292.357000
11
23.062500
21
292.353090
0
LINE
8
Layer 1
10
23.062500
20
292.353090
11
22.470703
21
291.823793
0
LINE
8
Layer 1
10
22.470703
20
291.823793
11
22.466803
21
291.819883
0
LINE
8
Layer 1
10
22.466803
20
291.819883
11
22.027350
21
291.220274
0
LINE
8
Layer 1
10
22.027350
20
291.220274
11
22.025350
21
291.214414
0
LINE
8
Layer 1
10
22.025350
20
291.214414
11
21.687500
21
290.602000
0
LINE
8
Layer 1
10
21.687500
20
290.602000
11
21.341797
21
289.912547
0
LINE
8
Layer 1
10
21.341797
20
289.912547
11
21.009766
21
289.207469
0
LINE
8
Layer 1
10
21.009766
20
289.207469
11
20.564453
21
288.182079
0
LINE
8
Layer 1
10
20.564453
20
288.182079
11
20.560553
21
288.174269
0
LINE
8
Layer 1
10
20.560553
20
288.174269
11
20.162115
21
287.146929
0
LINE
8
Layer 1
10
20.162115
20
287.146929
11
19.873053
21
286.471148
0
LINE
8
Layer 1
10
19.873053
20
286.471148
11
19.869153
21
286.461348
0
LINE
8
Layer 1
10
19.869153
20
286.461348
11
19.623059
21
285.799238
0
LINE
8
Layer 1
10
19.623059
20
285.799238
11
19.560559
21
285.670332
0
LINE
8
Layer 1
10
19.560559
20
285.670332
11
19.552759
21
285.625412
0
LINE
8
Layer 1
10
19.552759
20
285.625412
11
19.521509
21
285.574632
0
LINE
8
Layer 1
10
19.521509
20
285.574632
11
19.501979
21
285.535572
0
LINE
8
Layer 1
10
19.501979
20
285.535572
11
19.464869
21
285.484792
0
LINE
8
Layer 1
10
19.464869
20
285.484792
11
19.267603
21
285.267995
0
LINE
8
Layer 1
10
19.267603
20
285.267995
11
19.244163
21
285.232835
0
LINE
8
Layer 1
10
19.244163
20
285.232835
11
19.138694
21
285.101975
0
LINE
8
Layer 1
10
19.138694
20
285.101975
11
19.113304
21
285.072675
0
LINE
8
Layer 1
10
19.113304
20
285.072675
11
18.652367
21
284.478925
0
LINE
8
Layer 1
10
18.652367
20
284.478925
11
18.460961
21
284.250409
0
LINE
8
Layer 1
10
18.460961
20
284.250409
11
18.496121
21
284.279709
0
LINE
8
Layer 1
10
18.496121
20
284.279709
11
18.365261
21
284.152756
0
LINE
8
Layer 1
10
18.365261
20
284.152756
11
18.023465
21
283.736740
0
LINE
8
Layer 1
10
18.023465
20
283.736740
11
17.707058
21
283.383224
0
LINE
8
Layer 1
10
17.707058
20
283.383224
11
17.705058
21
283.381224
0
LINE
8
Layer 1
10
17.705058
20
283.381224
11
17.406230
21
283.082396
0
LINE
8
Layer 1
10
17.406230
20
283.082396
11
17.400330
21
283.076496
0
LINE
8
Layer 1
10
17.400330
20
283.076496
11
16.822205
21
282.572590
0
LINE
8
Layer 1
10
16.822205
20
282.572590
11
16.238220
21
282.183918
0
LINE
8
Layer 1
10
16.238220
20
282.183918
11
15.777283
21
281.998371
0
LINE
8
Layer 1
10
15.777283
20
281.998371
11
15.376892
21
281.969071
0
LINE
8
Layer 1
10
15.376892
20
281.969071
11
15.331972
21
281.972971
0
LINE
8
Layer 1
10
15.331972
20
281.972971
11
15.074160
21
282.082346
0
LINE
8
Layer 1
10
15.074160
20
282.082346
11
15.003850
21
282.226877
0
LINE
8
Layer 1
10
15.003850
20
282.226877
11
14.955020
21
282.500315
0
LINE
8
Layer 1
10
14.955020
20
282.500315
11
15.078067
21
283.250315
0
LINE
8
Layer 1
10
15.078067
20
283.250315
11
15.251895
21
283.293285
0
LINE
8
Layer 1
10
15.251895
20
283.293285
11
15.277285
21
283.299185
0
LINE
8
Layer 1
10
15.277285
20
283.299185
11
15.458925
21
283.346055
0
LINE
8
Layer 1
10
15.458925
20
283.346055
11
15.505795
21
283.357775
0
LINE
8
Layer 1
10
15.505795
20
283.357775
11
15.732358
21
283.433945
0
LINE
8
Layer 1
10
15.732358
20
283.433945
11
16.460874
21
283.689804
0
LINE
8
Layer 1
10
16.460874
20
283.689804
11
16.474544
21
283.695704
0
LINE
8
Layer 1
10
16.474544
20
283.695704
11
17.189388
21
284.082423
0
LINE
8
Layer 1
10
17.189388
20
284.082423
11
17.199188
21
284.088323
0
LINE
8
Layer 1
10
17.199188
20
284.088323
11
17.599578
21
284.408635
0
LINE
8
Layer 1
10
17.599578
20
284.408635
11
17.601578
21
284.410635
0
LINE
8
Layer 1
10
17.601578
20
284.410635
11
18.003922
21
284.857901
0
LINE
8
Layer 1
10
18.003922
20
284.857901
11
18.275407
21
285.375479
0
LINE
8
Layer 1
10
18.275407
20
285.375479
11
18.279307
21
286.061026
0
LINE
8
Layer 1
10
18.279307
20
286.061026
11
18.275407
21
286.074696
0
LINE
8
Layer 1
10
18.275407
20
286.074696
11
18.020272
21
286.474954
0
LINE
8
Layer 1
10
18.020272
20
286.474954
11
17.609391
21
286.711415
0
LINE
8
Layer 1
10
17.609391
20
286.711415
11
16.810563
21
286.779775
0
LINE
8
Layer 1
10
16.810563
20
286.779775
11
16.808563
21
286.779775
0
LINE
8
Layer 1
10
16.808563
20
286.779775
11
16.121063
21
286.504384
0
LINE
8
Layer 1
10
16.121063
20
286.504384
11
15.582000
21
286.092275
0
LINE
8
Layer 1
10
15.582000
20
286.092275
11
14.580050
21
284.844225
0
LINE
8
Layer 1
10
14.580050
20
284.844225
11
14.222628
21
284.086413
0
LINE
8
Layer 1
10
14.222628
20
284.086413
11
13.490206
21
283.270006
0
LINE
8
Layer 1
10
13.490206
20
283.270006
11
12.658175
21
282.475084
0
LINE
8
Layer 1
10
12.658175
20
282.475084
11
12.179660
21
282.139147
0
LINE
8
Layer 1
10
12.179660
20
282.139147
11
12.171860
21
282.133247
0
LINE
8
Layer 1
10
12.171860
20
282.133247
11
11.708969
21
281.947701
0
LINE
8
Layer 1
10
11.708969
20
281.947701
11
11.507797
21
281.963331
0
LINE
8
Layer 1
10
11.507797
20
281.963331
11
11.455067
21
282.043411
0
LINE
8
Layer 1
10
11.455067
20
282.043411
11
11.439437
21
282.437942
0
LINE
8
Layer 1
10
11.439437
20
282.437942
11
11.439437
21
282.439942
0
LINE
8
Layer 1
10
11.439437
20
282.439942
11
11.548812
21
282.922364
0
LINE
8
Layer 1
10
11.548812
20
282.922364
11
11.550812
21
282.932164
0
LINE
8
Layer 1
10
11.550812
20
282.932164
11
11.753937
21
283.611851
0
LINE
8
Layer 1
10
11.753937
20
283.611851
11
12.019562
21
284.332554
0
LINE
8
Layer 1
10
12.019562
20
284.332554
11
12.439484
21
285.459504
0
LINE
8
Layer 1
10
12.439484
20
285.459504
11
12.894562
21
286.557164
0
LINE
8
Layer 1
10
12.894562
20
286.557164
11
12.896562
21
286.563064
0
LINE
8
Layer 1
10
12.896562
20
286.563064
11
14.199302
21
289.650954
0
LINE
8
Layer 1
10
14.199302
20
289.650954
11
14.545005
21
290.471266
0
LINE
8
Layer 1
10
14.545005
20
290.471266
11
14.945395
21
291.369704
0
LINE
8
Layer 1
10
14.945395
20
291.369704
11
14.947395
21
291.375564
0
LINE
8
Layer 1
10
14.947395
20
291.375564
11
15.093800
21
291.721000
0
LINE
8
Layer 1
10
15.093800
20
291.721000
11
15.093800
21
291.723000
0
LINE
8
Layer 1
10
15.093800
20
291.723000
11
15.150440
21
291.941750
0
LINE
8
Layer 1
10
15.150440
20
291.941750
11
15.064500
21
292.336281
0
LINE
8
Layer 1
10
15.064500
20
292.336281
11
15.054700
21
292.348000
0
LINE
8
Layer 1
10
15.054700
20
292.348000
11
14.658200
21
292.547000
0
LINE
8
Layer 1
10
14.658200
20
292.547000
11
14.658200
21
292.547000
0
LINE
8
Layer 1
10
23.521480
20
291.373170
11
23.412105
21
291.043092
0
LINE
8
Layer 1
10
23.412105
20
291.043092
11
22.873043
21
290.091920
0
LINE
8
Layer 1
10
22.873043
20
290.091920
11
22.249996
21
289.183717
0
LINE
8
Layer 1
10
22.249996
20
289.183717
11
22.033199
21
288.886842
0
LINE
8
Layer 1
10
22.033199
20
288.886842
11
22.378902
21
289.611451
0
LINE
8
Layer 1
10
22.378902
20
289.611451
11
22.382802
21
289.619261
0
LINE
8
Layer 1
10
22.382802
20
289.619261
11
22.644521
21
290.162230
0
LINE
8
Layer 1
10
22.644521
20
290.162230
11
22.648421
21
290.168090
0
LINE
8
Layer 1
10
22.648421
20
290.168090
11
22.957014
21
290.695434
0
LINE
8
Layer 1
10
22.957014
20
290.695434
11
22.960914
21
290.699344
0
LINE
8
Layer 1
10
22.960914
20
290.699344
11
23.287085
21
291.173953
0
LINE
8
Layer 1
10
23.287085
20
291.173953
11
23.292985
21
291.181763
0
LINE
8
Layer 1
10
23.292985
20
291.181763
11
23.521500
21
291.373169
0
LINE
8
Layer 1
10
23.521500
20
291.373169
11
23.521480
21
291.373170
0
LINE
8
Layer 1
10
38.359380
20
285.795050
11
38.316410
21
285.718880
0
LINE
8
Layer 1
10
38.316410
20
285.718880
11
38.033207
21
285.207161
0
LINE
8
Layer 1
10
38.033207
20
285.207161
11
38.031207
21
285.205161
0
LINE
8
Layer 1
10
38.031207
20
285.205161
11
37.845660
21
284.836021
0
LINE
8
Layer 1
10
37.845660
20
284.836021
11
37.689410
21
284.459067
0
LINE
8
Layer 1
10
37.689410
20
284.459067
11
37.695310
21
284.476647
0
LINE
8
Layer 1
10
37.695310
20
284.476647
11
37.523436
21
284.113366
0
LINE
8
Layer 1
10
37.523436
20
284.113366
11
37.517536
21
284.095786
0
LINE
8
Layer 1
10
37.517536
20
284.095786
11
37.441366
21
283.947349
0
LINE
8
Layer 1
10
37.441366
20
283.947349
11
37.419886
21
283.902429
0
LINE
8
Layer 1
10
37.419886
20
283.902429
11
37.349576
21
283.791101
0
LINE
8
Layer 1
10
37.349576
20
283.791101
11
37.331996
21
283.765711
0
LINE
8
Layer 1
10
37.331996
20
283.765711
11
36.886684
21
283.132898
0
LINE
8
Layer 1
10
36.886684
20
283.132898
11
36.878884
21
283.123098
0
LINE
8
Layer 1
10
36.878884
20
283.123098
11
36.415994
21
282.570363
0
LINE
8
Layer 1
10
36.415994
20
282.570363
11
35.955056
21
282.181692
0
LINE
8
Layer 1
10
35.955056
20
282.181692
11
35.947256
21
282.175792
0
LINE
8
Layer 1
10
35.947256
20
282.175792
11
35.480459
21
281.941417
0
LINE
8
Layer 1
10
35.480459
20
281.941417
11
35.185537
21
281.892587
0
LINE
8
Layer 1
10
35.185537
20
281.892587
11
35.181637
21
281.892587
0
LINE
8
Layer 1
10
35.181637
20
281.892587
11
35.007808
21
281.914067
0
LINE
8
Layer 1
10
35.007808
20
281.914067
11
34.949218
21
281.958987
0
LINE
8
Layer 1
10
34.949218
20
281.958987
11
34.886718
21
282.123050
0
LINE
8
Layer 1
10
34.886718
20
282.123050
11
34.888718
21
282.603519
0
LINE
8
Layer 1
10
34.888718
20
282.603519
11
35.062546
21
283.144534
0
LINE
8
Layer 1
10
35.062546
20
283.144534
11
35.062500
21
283.146000
0
LINE
8
Layer 1
10
35.062500
20
283.146000
11
35.505859
21
283.907719
0
LINE
8
Layer 1
10
35.505859
20
283.907719
11
36.103516
21
284.577641
0
LINE
8
Layer 1
10
36.103516
20
284.577641
11
36.109416
21
284.583541
0
LINE
8
Layer 1
10
36.109416
20
284.583541
11
36.671916
21
285.093307
0
LINE
8
Layer 1
10
36.671916
20
285.093307
11
36.675816
21
285.095307
0
LINE
8
Layer 1
10
36.675816
20
285.095307
11
36.679716
21
285.099207
0
LINE
8
Layer 1
10
36.679716
20
285.099207
11
37.332059
21
285.501551
0
LINE
8
Layer 1
10
37.332059
20
285.501551
11
38.084012
21
285.765223
0
LINE
8
Layer 1
10
38.084012
20
285.765223
11
38.359403
21
285.794523
0
LINE
8
Layer 1
10
38.359403
20
285.794523
11
38.359380
21
285.795050
0
LINE
8
Layer 1
10
17.146500
20
285.750000
11
17.267594
21
285.726560
0
LINE
8
Layer 1
10
17.267594
20
285.726560
11
17.029313
21
285.332029
0
LINE
8
Layer 1
10
17.029313
20
285.332029
11
17.023413
21
285.328129
0
LINE
8
Layer 1
10
17.023413
20
285.328129
11
16.095678
21
284.708988
0
LINE
8
Layer 1
10
16.095678
20
284.708988
11
16.091778
21
284.706988
0
LINE
8
Layer 1
10
16.091778
20
284.706988
11
15.767559
21
284.597613
0
LINE
8
Layer 1
10
15.767559
20
284.597613
11
16.136700
21
285.167926
0
LINE
8
Layer 1
10
16.136700
20
285.167926
11
16.138700
21
285.169926
0
LINE
8
Layer 1
10
16.138700
20
285.169926
11
16.568387
21
285.546879
0
LINE
8
Layer 1
10
16.568387
20
285.546879
11
16.572287
21
285.548879
0
LINE
8
Layer 1
10
16.572287
20
285.548879
11
17.037130
21
285.740285
0
LINE
8
Layer 1
10
17.037130
20
285.740285
11
17.056660
21
285.744185
0
LINE
8
Layer 1
10
17.056660
20
285.744185
11
17.146500
21
285.750085
0
LINE
8
Layer 1
10
17.146500
20
285.750085
11
17.146500
21
285.750000
0
LINE
8
Layer 1
10
25.029310
20
285.750000
11
25.150404
21
285.726560
0
LINE
8
Layer 1
10
25.150404
20
285.726560
11
24.910169
21
285.332029
0
LINE
8
Layer 1
10
24.910169
20
285.332029
11
24.904269
21
285.328129
0
LINE
8
Layer 1
10
24.904269
20
285.328129
11
23.976534
21
284.708988
0
LINE
8
Layer 1
10
23.976534
20
284.708988
11
23.972634
21
284.706988
0
LINE
8
Layer 1
10
23.972634
20
284.706988
11
23.650369
21
284.597613
0
LINE
8
Layer 1
10
23.650369
20
284.597613
11
24.019509
21
285.167926
0
LINE
8
Layer 1
10
24.019509
20
285.167926
11
24.021509
21
285.169926
0
LINE
8
Layer 1
10
24.021509
20
285.169926
11
24.449244
21
285.546879
0
LINE
8
Layer 1
10
24.449244
20
285.546879
11
24.453144
21
285.548879
0
LINE
8
Layer 1
10
24.453144
20
285.548879
11
24.917988
21
285.740285
0
LINE
8
Layer 1
10
24.917988
20
285.740285
11
24.937518
21
285.744185
0
LINE
8
Layer 1
10
24.937518
20
285.744185
11
25.029318
21
285.750085
0
LINE
8
Layer 1
10
25.029318
20
285.750085
11
25.029310
21
285.750000
0
LINE
8
Layer 1
10
15.126970
20
283.480470
11
15.103530
21
283.384770
0
LINE
8
Layer 1
10
15.103530
20
283.384770
11
15.126970
21
283.480470
0
LINE
8
Layer 1
10
15.126970
20
283.480470
11
15.126970
21
283.480470
 0 
ENDSEC
 0 
EOF