999
"DXF R12 Output" (www.mydxf.blogspot.com)
 0 
SECTION
 2 
HEADER
 9 
$ACADVER
 1 
AC1009
 9 
$EXTMIN
 10 
 0 
 20 
 0 
 9 
$EXTMAX
 10 
 8.5 
 20 
 11 
 0 
ENDSEC
 0 
SECTION
 2 
ENTITIES
0
LINE
8
Camada 2
10
21.335000
20
296.999000
11
20.171959
21
296.659438
0
LINE
8
Camada 2
10
20.171959
20
296.659438
11
19.247550
21
295.904750
0
LINE
8
Camada 2
10
19.247550
20
295.904750
11
18.527366
21
294.903688
0
LINE
8
Camada 2
10
18.527366
20
294.903688
11
17.977000
21
293.825000
0
LINE
8
Camada 2
10
17.977000
20
293.825000
11
17.168675
21
292.055875
0
LINE
8
Camada 2
10
17.168675
20
292.055875
11
16.446300
21
290.271000
0
LINE
8
Camada 2
10
16.446300
20
290.271000
11
15.939350
21
290.825875
0
LINE
8
Camada 2
10
15.939350
20
290.825875
11
15.280300
21
291.200000
0
LINE
8
Camada 2
10
15.280300
20
291.200000
11
14.360288
21
292.128750
0
LINE
8
Camada 2
10
14.360288
20
292.128750
11
13.264700
21
292.876000
0
LINE
8
Camada 2
10
13.264700
20
292.876000
11
12.421188
21
292.973875
0
LINE
8
Camada 2
10
12.421188
20
292.973875
11
11.631900
21
292.654000
0
LINE
8
Camada 2
10
11.631900
20
292.654000
11
11.728643
21
293.359523
0
LINE
8
Camada 2
10
11.728643
20
293.359523
11
11.661656
21
294.049625
0
LINE
8
Camada 2
10
11.661656
20
294.049625
11
11.109897
21
295.311750
0
LINE
8
Camada 2
10
11.109897
20
295.311750
11
10.123435
21
296.296750
0
LINE
8
Camada 2
10
10.123435
20
296.296750
11
8.849080
21
296.861000
0
LINE
8
Camada 2
10
8.849080
20
296.861000
11
7.975165
21
296.980241
0
LINE
8
Camada 2
10
7.975165
20
296.980241
11
7.110819
21
296.917114
0
LINE
8
Camada 2
10
7.110819
20
296.917114
11
6.275445
21
296.689854
0
LINE
8
Camada 2
10
6.275445
20
296.689854
11
5.488445
21
296.316697
0
LINE
8
Camada 2
10
5.488445
20
296.316697
11
4.137181
21
295.205630
0
LINE
8
Camada 2
10
4.137181
20
295.205630
11
3.212250
21
293.729790
0
LINE
8
Camada 2
10
3.212250
20
293.729790
11
2.869670
21
292.720957
0
LINE
8
Camada 2
10
2.869670
20
292.720957
11
2.682794
21
291.685864
0
LINE
8
Camada 2
10
2.682794
20
291.685864
11
2.712660
21
289.580410
0
LINE
8
Camada 2
10
2.712660
20
289.580410
11
3.174861
21
287.500448
0
LINE
8
Camada 2
10
3.174861
20
287.500448
11
3.942413
21
285.533000
0
LINE
8
Camada 2
10
3.942413
20
285.533000
11
2.593215
21
284.642541
0
LINE
8
Camada 2
10
2.593215
20
284.642541
11
1.371751
21
283.547881
0
LINE
8
Camada 2
10
1.371751
20
283.547881
11
0.451243
21
282.232400
0
LINE
8
Camada 2
10
0.451243
20
282.232400
11
0.157979
21
281.486659
0
LINE
8
Camada 2
10
0.157979
20
281.486659
11
0.004913
21
280.679480
0
LINE
8
Camada 2
10
0.004913
20
280.679480
11
0.190274
21
279.511325
0
LINE
8
Camada 2
10
0.190274
20
279.511325
11
0.818206
21
278.509727
0
LINE
8
Camada 2
10
0.818206
20
278.509727
11
1.775624
21
277.844472
0
LINE
8
Camada 2
10
1.775624
20
277.844472
11
2.342551
21
277.691029
0
LINE
8
Camada 2
10
2.342551
20
277.691029
11
2.949443
21
277.685340
0
LINE
8
Camada 2
10
2.949443
20
277.685340
11
3.730315
21
277.800303
0
LINE
8
Camada 2
10
3.730315
20
277.800303
11
4.445918
21
278.066250
0
LINE
8
Camada 2
10
4.445918
20
278.066250
11
5.683917
21
278.958087
0
LINE
8
Camada 2
10
5.683917
20
278.958087
11
6.668638
21
280.174844
0
LINE
8
Camada 2
10
6.668638
20
280.174844
11
7.405283
21
281.530510
0
LINE
8
Camada 2
10
7.405283
20
281.530510
11
7.905229
21
282.723567
0
LINE
8
Camada 2
10
7.905229
20
282.723567
11
8.176626
21
283.300959
0
LINE
8
Camada 2
10
8.176626
20
283.300959
11
8.565453
21
283.798620
0
LINE
8
Camada 2
10
8.565453
20
283.798620
11
9.285515
21
283.096970
0
LINE
8
Camada 2
10
9.285515
20
283.096970
11
10.236663
21
282.789843
0
LINE
8
Camada 2
10
10.236663
20
282.789843
11
11.248201
21
282.864546
0
LINE
8
Camada 2
10
11.248201
20
282.864546
11
12.149433
21
283.308386
0
LINE
8
Camada 2
10
12.149433
20
283.308386
11
13.014207
21
282.825087
0
LINE
8
Camada 2
10
13.014207
20
282.825087
11
13.986754
21
282.803635
0
LINE
8
Camada 2
10
13.986754
20
282.803635
11
14.941521
21
283.133679
0
LINE
8
Camada 2
10
14.941521
20
283.133679
11
15.752953
21
283.704870
0
LINE
8
Camada 2
10
15.752953
20
283.704870
11
16.527800
21
283.121541
0
LINE
8
Camada 2
10
16.527800
20
283.121541
11
17.462016
21
282.895719
0
LINE
8
Camada 2
10
17.462016
20
282.895719
11
18.421095
21
283.020274
0
LINE
8
Camada 2
10
18.421095
20
283.020274
11
19.270533
21
283.488073
0
LINE
8
Camada 2
10
19.270533
20
283.488073
11
19.941889
21
282.954082
0
LINE
8
Camada 2
10
19.941889
20
282.954082
11
20.771571
21
282.759380
0
LINE
8
Camada 2
10
20.771571
20
282.759380
11
21.629541
21
282.877266
0
LINE
8
Camada 2
10
21.629541
20
282.877266
11
22.385763
21
283.281042
0
LINE
8
Camada 2
10
22.385763
20
283.281042
11
23.130783
21
282.901049
0
LINE
8
Camada 2
10
23.130783
20
282.901049
11
23.953689
21
282.770239
0
LINE
8
Camada 2
10
23.953689
20
282.770239
11
24.789994
21
282.862115
0
LINE
8
Camada 2
10
24.789994
20
282.862115
11
25.575213
21
283.150183
0
LINE
8
Camada 2
10
25.575213
20
283.150183
11
26.614731
21
282.755153
0
LINE
8
Camada 2
10
26.614731
20
282.755153
11
27.706173
21
282.852700
0
LINE
8
Camada 2
10
27.706173
20
282.852700
11
28.723455
21
283.333961
0
LINE
8
Camada 2
10
28.723455
20
283.333961
11
29.540493
21
284.090072
0
LINE
8
Camada 2
10
29.540493
20
284.090072
11
30.684303
21
285.297092
0
LINE
8
Camada 2
10
30.684303
20
285.297092
11
31.192172
21
285.947358
0
LINE
8
Camada 2
10
31.192172
20
285.947358
11
31.534193
21
286.691202
0
LINE
8
Camada 2
10
31.534193
20
286.691202
11
31.504644
21
287.498835
0
LINE
8
Camada 2
10
31.504644
20
287.498835
11
31.125274
21
288.212025
0
LINE
8
Camada 2
10
31.125274
20
288.212025
11
30.489441
21
288.698003
0
LINE
8
Camada 2
10
30.489441
20
288.698003
11
29.690500
21
288.824000
0
LINE
8
Camada 2
10
29.690500
20
288.824000
11
29.800309
21
289.614750
0
LINE
8
Camada 2
10
29.800309
20
289.614750
11
29.559850
21
290.353000
0
LINE
8
Camada 2
10
29.559850
20
290.353000
11
29.039491
21
290.934500
0
LINE
8
Camada 2
10
29.039491
20
290.934500
11
28.309600
21
291.255000
0
LINE
8
Camada 2
10
28.309600
20
291.255000
11
27.152091
21
291.355031
0
LINE
8
Camada 2
10
27.152091
20
291.355031
11
26.006450
21
291.148500
0
LINE
8
Camada 2
10
26.006450
20
291.148500
11
24.922534
21
290.698969
0
LINE
8
Camada 2
10
24.922534
20
290.698969
11
23.950200
21
290.070000
0
LINE
8
Camada 2
10
23.950200
20
290.070000
11
23.707975
21
290.492750
0
LINE
8
Camada 2
10
23.707975
20
290.492750
11
24.120200
21
290.650000
0
LINE
8
Camada 2
10
24.120200
20
290.650000
11
24.612694
21
290.925623
0
LINE
8
Camada 2
10
24.612694
20
290.925623
11
24.989486
21
291.326484
0
LINE
8
Camada 2
10
24.989486
20
291.326484
11
25.374412
21
292.355375
0
LINE
8
Camada 2
10
25.374412
20
292.355375
11
25.231883
21
293.439578
0
LINE
8
Camada 2
10
25.231883
20
293.439578
11
24.949354
21
293.909580
0
LINE
8
Camada 2
10
24.949354
20
293.909580
11
24.518800
21
294.282000
0
LINE
8
Camada 2
10
24.518800
20
294.282000
11
24.269027
21
294.445203
0
LINE
8
Camada 2
10
24.269027
20
294.445203
11
23.942013
21
294.495625
0
LINE
8
Camada 2
10
23.942013
20
294.495625
11
23.661142
21
294.557484
0
LINE
8
Camada 2
10
23.661142
20
294.557484
11
23.549800
21
294.755000
0
LINE
8
Camada 2
10
23.549800
20
294.755000
11
23.359198
21
295.602031
0
LINE
8
Camada 2
10
23.359198
20
295.602031
11
22.883513
21
296.326250
0
LINE
8
Camada 2
10
22.883513
20
296.326250
11
22.187270
21
296.825844
0
LINE
8
Camada 2
10
22.187270
20
296.825844
11
21.335000
21
296.999000
0
LINE
8
Camada 2
10
21.335000
20
296.999000
11
21.335000
21
296.999000
0
LINE
8
Camada 2
10
8.018590
20
293.349000
11
8.081377
21
293.098122
0
LINE
8
Camada 2
10
8.081377
20
293.098122
11
7.995187
21
292.796598
0
LINE
8
Camada 2
10
7.995187
20
292.796598
11
7.789138
21
292.181270
0
LINE
8
Camada 2
10
7.789138
20
292.181270
11
6.545938
21
288.800180
0
LINE
8
Camada 2
10
6.545938
20
288.800180
11
6.318337
21
289.877887
0
LINE
8
Camada 2
10
6.318337
20
289.877887
11
6.257346
21
290.997666
0
LINE
8
Camada 2
10
6.257346
20
290.997666
11
6.453933
21
292.074367
0
LINE
8
Camada 2
10
6.453933
20
292.074367
11
6.999063
21
293.022840
0
LINE
8
Camada 2
10
6.999063
20
293.022840
11
7.475675
21
293.293028
0
LINE
8
Camada 2
10
7.475675
20
293.293028
11
8.018593
21
293.349012
0
LINE
8
Camada 2
10
8.018593
20
293.349012
11
8.018590
21
293.349000
0
LINE
8
Camada 2
10
21.958000
20
291.169000
11
21.958000
21
291.169000
0
LINE
8
Camada 2
10
21.958000
20
291.169000
11
21.958000
21
291.169000
0
LINE
8
Layer 1
10
21.313400
20
295.410000
11
20.931500
21
295.295000
0
LINE
8
Layer 1
10
20.931500
20
295.295000
11
20.413700
21
294.834000
0
LINE
8
Layer 1
10
20.413700
20
294.834000
11
19.991500
21
294.259000
0
LINE
8
Layer 1
10
19.991500
20
294.259000
11
19.666000
21
293.665000
0
LINE
8
Layer 1
10
19.666000
20
293.665000
11
19.320800
21
292.974000
0
LINE
8
Layer 1
10
19.320800
20
292.974000
11
18.994700
21
292.284000
0
LINE
8
Layer 1
10
18.994700
20
292.284000
11
18.553400
21
291.268000
0
LINE
8
Layer 1
10
18.553400
20
291.268000
11
18.150800
21
290.232000
0
LINE
8
Layer 1
10
18.150800
20
290.232000
11
17.863000
21
289.561000
0
LINE
8
Layer 1
10
17.863000
20
289.561000
11
17.613900
21
288.890000
0
LINE
8
Layer 1
10
17.613900
20
288.890000
11
17.556600
21
288.775000
0
LINE
8
Layer 1
10
17.556600
20
288.775000
11
17.517800
21
288.679000
0
LINE
8
Layer 1
10
17.517800
20
288.679000
11
17.460400
21
288.564000
0
LINE
8
Layer 1
10
17.460400
20
288.564000
11
17.384000
21
288.468000
0
LINE
8
Layer 1
10
17.384000
20
288.468000
11
17.211400
21
288.277000
0
LINE
8
Layer 1
10
17.211400
20
288.277000
11
17.057900
21
288.084000
0
LINE
8
Layer 1
10
17.057900
20
288.084000
11
16.597400
21
287.490000
0
LINE
8
Layer 1
10
16.597400
20
287.490000
11
16.386600
21
287.241000
0
LINE
8
Layer 1
10
16.386600
20
287.241000
11
16.370600
21
287.223000
0
LINE
8
Layer 1
10
16.370600
20
287.223000
11
16.291000
21
287.164000
0
LINE
8
Layer 1
10
16.291000
20
287.164000
11
15.696200
21
286.454000
0
LINE
8
Layer 1
10
15.696200
20
286.454000
11
15.063700
21
285.803000
0
LINE
8
Layer 1
10
15.063700
20
285.803000
11
14.526800
21
285.304000
0
LINE
8
Layer 1
10
14.526800
20
285.304000
11
13.951100
21
284.901000
0
LINE
8
Layer 1
10
13.951100
20
284.901000
11
13.740200
21
284.805000
0
LINE
8
Layer 1
10
13.740200
20
284.805000
11
13.605900
21
284.767000
0
LINE
8
Layer 1
10
13.605900
20
284.767000
11
13.472000
21
284.786000
0
LINE
8
Layer 1
10
13.472000
20
284.786000
11
13.414200
21
284.921000
0
LINE
8
Layer 1
10
13.414200
20
284.921000
11
13.433300
21
285.093000
0
LINE
8
Layer 1
10
13.433300
20
285.093000
11
13.567600
21
285.707000
0
LINE
8
Layer 1
10
13.567600
20
285.707000
11
13.798100
21
286.321000
0
LINE
8
Layer 1
10
13.798100
20
286.321000
11
14.200700
21
287.317000
0
LINE
8
Layer 1
10
14.200700
20
287.317000
11
14.622400
21
288.353000
0
LINE
8
Layer 1
10
14.622400
20
288.353000
11
14.795000
21
288.775000
0
LINE
8
Layer 1
10
14.795000
20
288.775000
11
14.986700
21
289.216000
0
LINE
8
Layer 1
10
14.986700
20
289.216000
11
15.024900
21
289.331000
0
LINE
8
Layer 1
10
15.024900
20
289.331000
11
15.044600
21
289.465000
0
LINE
8
Layer 1
10
15.044600
20
289.465000
11
14.833200
21
289.638000
0
LINE
8
Layer 1
10
14.833200
20
289.638000
11
14.603200
21
289.465000
0
LINE
8
Layer 1
10
14.603200
20
289.465000
11
13.989800
21
288.468000
0
LINE
8
Layer 1
10
13.989800
20
288.468000
11
13.356800
21
287.490000
0
LINE
8
Layer 1
10
13.356800
20
287.490000
11
12.570800
21
286.435000
0
LINE
8
Layer 1
10
12.570800
20
286.435000
11
11.688700
21
285.477000
0
LINE
8
Layer 1
10
11.688700
20
285.477000
11
11.304700
21
285.151000
0
LINE
8
Layer 1
10
11.304700
20
285.151000
11
10.902200
21
284.902000
0
LINE
8
Layer 1
10
10.902200
20
284.902000
11
10.518700
21
284.786000
0
LINE
8
Layer 1
10
10.518700
20
284.786000
11
10.331675
21
284.815250
0
LINE
8
Layer 1
10
10.331675
20
284.815250
11
10.230900
21
284.978000
0
LINE
8
Layer 1
10
10.230900
20
284.978000
11
10.250500
21
285.438000
0
LINE
8
Layer 1
10
10.250500
20
285.438000
11
10.327000
21
285.783000
0
LINE
8
Layer 1
10
10.327000
20
285.783000
11
10.442300
21
286.109000
0
LINE
8
Layer 1
10
10.442300
20
286.109000
11
10.729600
21
286.877000
0
LINE
8
Layer 1
10
10.729600
20
286.877000
11
11.074800
21
287.643000
0
LINE
8
Layer 1
10
11.074800
20
287.643000
11
11.400900
21
288.429000
0
LINE
8
Layer 1
10
11.400900
20
288.429000
11
11.726900
21
289.216000
0
LINE
8
Layer 1
10
11.726900
20
289.216000
11
11.784300
21
289.369000
0
LINE
8
Layer 1
10
11.784300
20
289.369000
11
11.726900
21
289.523000
0
LINE
8
Layer 1
10
11.726900
20
289.523000
11
11.420000
21
289.523000
0
LINE
8
Layer 1
10
11.420000
20
289.523000
11
11.362600
21
289.427000
0
LINE
8
Layer 1
10
11.362600
20
289.427000
11
11.304700
21
289.331000
0
LINE
8
Layer 1
10
11.304700
20
289.331000
11
10.729600
21
288.545000
0
LINE
8
Layer 1
10
10.729600
20
288.545000
11
10.135300
21
287.778000
0
LINE
8
Layer 1
10
10.135300
20
287.778000
11
9.751860
21
287.298000
0
LINE
8
Layer 1
10
9.751860
20
287.298000
11
9.607680
21
287.115000
0
LINE
8
Layer 1
10
9.607680
20
287.115000
11
9.560140
21
287.068000
0
LINE
8
Layer 1
10
9.560140
20
287.068000
11
8.543660
21
286.128000
0
LINE
8
Layer 1
10
8.543660
20
286.128000
11
7.354590
21
285.458000
0
LINE
8
Layer 1
10
7.354590
20
285.458000
11
8.850620
21
289.139000
0
LINE
8
Layer 1
10
8.850620
20
289.139000
11
9.444900
21
290.750000
0
LINE
8
Layer 1
10
9.444900
20
290.750000
11
9.981820
21
292.399000
0
LINE
8
Layer 1
10
9.981820
20
292.399000
11
10.135300
21
293.300000
0
LINE
8
Layer 1
10
10.135300
20
293.300000
11
9.943580
21
294.202000
0
LINE
8
Layer 1
10
9.943580
20
294.202000
11
9.502260
21
294.777000
0
LINE
8
Layer 1
10
9.502260
20
294.777000
11
8.907980
21
295.179000
0
LINE
8
Layer 1
10
8.907980
20
295.179000
11
8.299150
21
295.352375
0
LINE
8
Layer 1
10
8.299150
20
295.352375
11
7.661550
21
295.372000
0
LINE
8
Layer 1
10
7.661550
20
295.372000
11
6.453350
21
295.046000
0
LINE
8
Layer 1
10
6.453350
20
295.046000
11
5.820666
21
294.657250
0
LINE
8
Layer 1
10
5.820666
20
294.657250
11
5.303040
21
294.144000
0
LINE
8
Layer 1
10
5.303040
20
294.144000
11
4.574400
21
292.859000
0
LINE
8
Layer 1
10
4.574400
20
292.859000
11
4.248320
21
291.479000
0
LINE
8
Layer 1
10
4.248320
20
291.479000
11
4.248320
21
290.060000
0
LINE
8
Layer 1
10
4.248320
20
290.060000
11
4.497400
21
288.660000
0
LINE
8
Layer 1
10
4.497400
20
288.660000
11
4.899960
21
287.317000
0
LINE
8
Layer 1
10
4.899960
20
287.317000
11
5.264280
21
286.416000
0
LINE
8
Layer 1
10
5.264280
20
286.416000
11
5.686470
21
285.553000
0
LINE
8
Layer 1
10
5.686470
20
285.553000
11
5.878190
21
285.208000
0
LINE
8
Layer 1
10
5.878190
20
285.208000
11
6.089030
21
285.074000
0
LINE
8
Layer 1
10
6.089030
20
285.074000
11
6.280750
21
285.246000
0
LINE
8
Layer 1
10
6.280750
20
285.246000
11
6.242510
21
285.458000
0
LINE
8
Layer 1
10
6.242510
20
285.458000
11
5.417760
21
287.145000
0
LINE
8
Layer 1
10
5.417760
20
287.145000
11
4.880840
21
288.947000
0
LINE
8
Layer 1
10
4.880840
20
288.947000
11
4.670000
21
290.347000
0
LINE
8
Layer 1
10
4.670000
20
290.347000
11
4.747000
21
291.766000
0
LINE
8
Layer 1
10
4.747000
20
291.766000
11
5.149560
21
293.166000
0
LINE
8
Layer 1
10
5.149560
20
293.166000
11
5.542621
21
293.798875
0
LINE
8
Layer 1
10
5.542621
20
293.798875
11
6.069910
21
294.317000
0
LINE
8
Layer 1
10
6.069910
20
294.317000
11
7.220230
21
294.873000
0
LINE
8
Layer 1
10
7.220230
20
294.873000
11
7.881974
21
294.954625
0
LINE
8
Layer 1
10
7.881974
20
294.954625
11
8.524540
21
294.854000
0
LINE
8
Layer 1
10
8.524540
20
294.854000
11
9.138220
21
294.551750
0
LINE
8
Layer 1
10
9.138220
20
294.551750
11
9.560140
21
294.029000
0
LINE
8
Layer 1
10
9.560140
20
294.029000
11
9.693980
21
293.223000
0
LINE
8
Layer 1
10
9.693980
20
293.223000
11
9.541020
21
292.437000
0
LINE
8
Layer 1
10
9.541020
20
292.437000
11
9.023220
21
290.846000
0
LINE
8
Layer 1
10
9.023220
20
290.846000
11
8.428430
21
289.254000
0
LINE
8
Layer 1
10
8.428430
20
289.254000
11
7.718910
21
287.452000
0
LINE
8
Layer 1
10
7.718910
20
287.452000
11
6.971150
21
285.649000
0
LINE
8
Layer 1
10
6.971150
20
285.649000
11
6.798550
21
285.227000
0
LINE
8
Layer 1
10
6.798550
20
285.227000
11
6.625950
21
285.112000
0
LINE
8
Layer 1
10
6.625950
20
285.112000
11
6.434230
21
285.035000
0
LINE
8
Layer 1
10
6.434230
20
285.035000
11
5.743840
21
284.729000
0
LINE
8
Layer 1
10
5.743840
20
284.729000
11
4.286560
21
283.904000
0
LINE
8
Layer 1
10
4.286560
20
283.904000
11
3.500560
21
283.329000
0
LINE
8
Layer 1
10
3.500560
20
283.329000
11
2.752290
21
282.696000
0
LINE
8
Layer 1
10
2.752290
20
282.696000
11
2.177130
21
282.044000
0
LINE
8
Layer 1
10
2.177130
20
282.044000
11
1.755450
21
281.296000
0
LINE
8
Layer 1
10
1.755450
20
281.296000
11
1.601970
21
280.606000
0
LINE
8
Layer 1
10
1.601970
20
280.606000
11
1.736330
21
279.896000
0
LINE
8
Layer 1
10
1.736330
20
279.896000
11
2.254130
21
279.378000
0
LINE
8
Layer 1
10
2.254130
20
279.378000
11
2.982760
21
279.264000
0
LINE
8
Layer 1
10
2.982760
20
279.264000
11
3.615395
21
279.412000
0
LINE
8
Layer 1
10
3.615395
20
279.412000
11
4.171320
21
279.743000
0
LINE
8
Layer 1
10
4.171320
20
279.743000
11
5.091680
21
280.683000
0
LINE
8
Layer 1
10
5.091680
20
280.683000
11
5.859070
21
282.006000
0
LINE
8
Layer 1
10
5.859070
20
282.006000
11
6.491590
21
283.386000
0
LINE
8
Layer 1
10
6.491590
20
283.386000
11
7.105510
21
284.825000
0
LINE
8
Layer 1
10
7.105510
20
284.825000
11
7.220230
21
284.921000
0
LINE
8
Layer 1
10
7.220230
20
284.921000
11
7.373710
21
284.997000
0
LINE
8
Layer 1
10
7.373710
20
284.997000
11
7.776790
21
285.170000
0
LINE
8
Layer 1
10
7.776790
20
285.170000
11
8.121980
21
285.361000
0
LINE
8
Layer 1
10
8.121980
20
285.361000
11
8.486300
21
285.572000
0
LINE
8
Layer 1
10
8.486300
20
285.572000
11
9.521380
21
286.378000
0
LINE
8
Layer 1
10
9.521380
20
286.378000
11
9.636620
21
286.493000
0
LINE
8
Layer 1
10
9.636620
20
286.493000
11
9.751860
21
286.627000
0
LINE
8
Layer 1
10
9.751860
20
286.627000
11
9.866580
21
286.761000
0
LINE
8
Layer 1
10
9.866580
20
286.761000
11
9.952880
21
286.887000
0
LINE
8
Layer 1
10
9.952880
20
286.887000
11
10.154400
21
287.107000
0
LINE
8
Layer 1
10
10.154400
20
287.107000
11
10.614900
21
287.701000
0
LINE
8
Layer 1
10
10.614900
20
287.701000
11
10.269700
21
286.857000
0
LINE
8
Layer 1
10
10.269700
20
286.857000
11
9.962700
21
286.033000
0
LINE
8
Layer 1
10
9.962700
20
286.033000
11
9.809220
21
285.477000
0
LINE
8
Layer 1
10
9.809220
20
285.477000
11
9.790100
21
284.921000
0
LINE
8
Layer 1
10
9.790100
20
284.921000
11
10.077900
21
284.460000
0
LINE
8
Layer 1
10
10.077900
20
284.460000
11
10.595200
21
284.364000
0
LINE
8
Layer 1
10
10.595200
20
284.364000
11
11.209100
21
284.575000
0
LINE
8
Layer 1
10
11.209100
20
284.575000
11
11.784300
21
284.978000
0
LINE
8
Layer 1
10
11.784300
20
284.978000
11
12.800800
21
286.014000
0
LINE
8
Layer 1
10
12.800800
20
286.014000
11
13.682900
21
287.183000
0
LINE
8
Layer 1
10
13.682900
20
287.183000
11
13.337700
21
286.378000
0
LINE
8
Layer 1
10
13.337700
20
286.378000
11
13.088600
21
285.553000
0
LINE
8
Layer 1
10
13.088600
20
285.553000
11
12.992500
21
285.054000
0
LINE
8
Layer 1
10
12.992500
20
285.054000
11
13.088600
21
284.595000
0
LINE
8
Layer 1
10
13.088600
20
284.595000
11
13.299400
21
284.384000
0
LINE
8
Layer 1
10
13.299400
20
284.384000
11
13.605900
21
284.345000
0
LINE
8
Layer 1
10
13.605900
20
284.345000
11
13.912800
21
284.422000
0
LINE
8
Layer 1
10
13.912800
20
284.422000
11
14.181600
21
284.537000
0
LINE
8
Layer 1
10
14.181600
20
284.537000
11
14.718500
21
284.902000
0
LINE
8
Layer 1
10
14.718500
20
284.902000
11
15.197500
21
285.342000
0
LINE
8
Layer 1
10
15.197500
20
285.342000
11
15.715300
21
285.879000
0
LINE
8
Layer 1
10
15.715300
20
285.879000
11
16.233100
21
286.416000
0
LINE
8
Layer 1
10
16.233100
20
286.416000
11
16.405700
21
286.627000
0
LINE
8
Layer 1
10
16.405700
20
286.627000
11
16.597400
21
286.838000
0
LINE
8
Layer 1
10
16.597400
20
286.838000
11
16.607300
21
286.852000
0
LINE
8
Layer 1
10
16.607300
20
286.852000
11
16.693600
21
286.915000
0
LINE
8
Layer 1
10
16.693600
20
286.915000
11
16.866200
21
287.145000
0
LINE
8
Layer 1
10
16.866200
20
287.145000
11
17.057900
21
287.375000
0
LINE
8
Layer 1
10
17.057900
20
287.375000
11
16.770000
21
286.474000
0
LINE
8
Layer 1
10
16.770000
20
286.474000
11
16.674400
21
285.553000
0
LINE
8
Layer 1
10
16.674400
20
285.553000
11
16.885300
21
284.825000
0
LINE
8
Layer 1
10
16.885300
20
284.825000
11
17.139225
21
284.565375
0
LINE
8
Layer 1
10
17.139225
20
284.565375
11
17.517800
21
284.479000
0
LINE
8
Layer 1
10
17.517800
20
284.479000
11
17.997400
21
284.575000
0
LINE
8
Layer 1
10
17.997400
20
284.575000
11
18.419500
21
284.844000
0
LINE
8
Layer 1
10
18.419500
20
284.844000
11
18.956500
21
285.304000
0
LINE
8
Layer 1
10
18.956500
20
285.304000
11
19.473700
21
285.841000
0
LINE
8
Layer 1
10
19.473700
20
285.841000
11
20.106800
21
286.512000
0
LINE
8
Layer 1
10
20.106800
20
286.512000
11
20.260300
21
286.704000
0
LINE
8
Layer 1
10
20.260300
20
286.704000
11
20.298500
21
286.750000
0
LINE
8
Layer 1
10
20.298500
20
286.750000
11
20.413700
21
286.838000
0
LINE
8
Layer 1
10
20.413700
20
286.838000
11
21.276700
21
287.854000
0
LINE
8
Layer 1
10
21.276700
20
287.854000
11
20.873700
21
286.991000
0
LINE
8
Layer 1
10
20.873700
20
286.991000
11
20.548100
21
286.128000
0
LINE
8
Layer 1
10
20.548100
20
286.128000
11
20.375500
21
285.534000
0
LINE
8
Layer 1
10
20.375500
20
285.534000
11
20.336700
21
284.902000
0
LINE
8
Layer 1
10
20.336700
20
284.902000
11
20.413700
21
284.595000
0
LINE
8
Layer 1
10
20.413700
20
284.595000
11
20.624600
21
284.384000
0
LINE
8
Layer 1
10
20.624600
20
284.384000
11
21.027100
21
284.364000
0
LINE
8
Layer 1
10
21.027100
20
284.364000
11
21.430200
21
284.537000
0
LINE
8
Layer 1
10
21.430200
20
284.537000
11
21.890100
21
284.863000
0
LINE
8
Layer 1
10
21.890100
20
284.863000
11
22.311800
21
285.266000
0
LINE
8
Layer 1
10
22.311800
20
285.266000
11
22.829600
21
285.822000
0
LINE
8
Layer 1
10
22.829600
20
285.822000
11
22.931900
21
285.940000
0
LINE
8
Layer 1
10
22.931900
20
285.940000
11
22.887500
21
285.572000
0
LINE
8
Layer 1
10
22.887500
20
285.572000
11
22.983100
21
284.978000
0
LINE
8
Layer 1
10
22.983100
20
284.978000
11
23.366500
21
284.518000
0
LINE
8
Layer 1
10
23.366500
20
284.518000
11
24.095700
21
284.345000
0
LINE
8
Layer 1
10
24.095700
20
284.345000
11
24.824300
21
284.556000
0
LINE
8
Layer 1
10
24.824300
20
284.556000
11
25.533800
21
285.074000
0
LINE
8
Layer 1
10
25.533800
20
285.074000
11
26.147200
21
285.745000
0
LINE
8
Layer 1
10
26.147200
20
285.745000
11
26.128100
21
284.959000
0
LINE
8
Layer 1
10
26.128100
20
284.959000
11
26.272062
21
284.628125
0
LINE
8
Layer 1
10
26.272062
20
284.628125
11
26.588600
21
284.403000
0
LINE
8
Layer 1
10
26.588600
20
284.403000
11
26.948150
21
284.307125
0
LINE
8
Layer 1
10
26.948150
20
284.307125
11
27.298100
21
284.365000
0
LINE
8
Layer 1
10
27.298100
20
284.365000
11
27.930600
21
284.748000
0
LINE
8
Layer 1
10
27.930600
20
284.748000
11
28.640100
21
285.419000
0
LINE
8
Layer 1
10
28.640100
20
285.419000
11
29.292300
21
286.148000
0
LINE
8
Layer 1
10
29.292300
20
286.148000
11
29.560500
21
286.454000
0
LINE
8
Layer 1
10
29.560500
20
286.454000
11
29.848300
21
286.780000
0
LINE
8
Layer 1
10
29.848300
20
286.780000
11
29.924800
21
286.857000
0
LINE
8
Layer 1
10
29.924800
20
286.857000
11
29.982700
21
286.991000
0
LINE
8
Layer 1
10
29.982700
20
286.991000
11
29.867400
21
287.222000
0
LINE
8
Layer 1
10
29.867400
20
287.222000
11
29.618300
21
287.183000
0
LINE
8
Layer 1
10
29.618300
20
287.183000
11
28.927900
21
286.378000
0
LINE
8
Layer 1
10
28.927900
20
286.378000
11
28.199300
21
285.591000
0
LINE
8
Layer 1
10
28.199300
20
285.591000
11
27.911500
21
285.304000
0
LINE
8
Layer 1
10
27.911500
20
285.304000
11
27.604500
21
285.035000
0
LINE
8
Layer 1
10
27.604500
20
285.035000
11
27.355400
21
284.863000
0
LINE
8
Layer 1
10
27.355400
20
284.863000
11
27.067600
21
284.767000
0
LINE
8
Layer 1
10
27.067600
20
284.767000
11
26.799400
21
284.767000
0
LINE
8
Layer 1
10
26.799400
20
284.767000
11
26.607700
21
284.940000
0
LINE
8
Layer 1
10
26.607700
20
284.940000
11
26.511600
21
285.304000
0
LINE
8
Layer 1
10
26.511600
20
285.304000
11
26.568900
21
285.688000
0
LINE
8
Layer 1
10
26.568900
20
285.688000
11
26.665000
21
286.128000
0
LINE
8
Layer 1
10
26.665000
20
286.128000
11
26.818500
21
286.570000
0
LINE
8
Layer 1
10
26.818500
20
286.570000
11
26.914100
21
286.800000
0
LINE
8
Layer 1
10
26.914100
20
286.800000
11
27.029400
21
287.030000
0
LINE
8
Layer 1
10
27.029400
20
287.030000
11
27.163700
21
287.260000
0
LINE
8
Layer 1
10
27.163700
20
287.260000
11
27.298100
21
287.490000
0
LINE
8
Layer 1
10
27.298100
20
287.490000
11
27.681500
21
288.238000
0
LINE
8
Layer 1
10
27.681500
20
288.238000
11
28.045800
21
288.986000
0
LINE
8
Layer 1
10
28.045800
20
288.986000
11
28.122300
21
289.139000
0
LINE
8
Layer 1
10
28.122300
20
289.139000
11
28.199300
21
289.350000
0
LINE
8
Layer 1
10
28.199300
20
289.350000
11
28.218400
21
289.542000
0
LINE
8
Layer 1
10
28.218400
20
289.542000
11
28.084100
21
289.676000
0
LINE
8
Layer 1
10
28.084100
20
289.676000
11
27.911500
21
289.715000
0
LINE
8
Layer 1
10
27.911500
20
289.715000
11
27.738900
21
289.753000
0
LINE
8
Layer 1
10
27.738900
20
289.753000
11
26.741500
21
289.696000
0
LINE
8
Layer 1
10
26.741500
20
289.696000
11
25.821200
21
289.389000
0
LINE
8
Layer 1
10
25.821200
20
289.389000
11
25.130800
21
288.966000
0
LINE
8
Layer 1
10
25.130800
20
288.966000
11
24.517400
21
288.468000
0
LINE
8
Layer 1
10
24.517400
20
288.468000
11
23.846100
21
287.759000
0
LINE
8
Layer 1
10
23.846100
20
287.759000
11
23.452300
21
287.190000
0
LINE
8
Layer 1
10
23.452300
20
287.190000
11
23.405300
21
287.145000
0
LINE
8
Layer 1
10
23.405300
20
287.145000
11
23.174800
21
286.877000
0
LINE
8
Layer 1
10
23.174800
20
286.877000
11
22.446200
21
286.033000
0
LINE
8
Layer 1
10
22.446200
20
286.033000
11
22.024500
21
285.611000
0
LINE
8
Layer 1
10
22.024500
20
285.611000
11
21.602300
21
285.189000
0
LINE
8
Layer 1
10
21.602300
20
285.189000
11
21.142400
21
284.863000
0
LINE
8
Layer 1
10
21.142400
20
284.863000
11
20.988900
21
284.786000
0
LINE
8
Layer 1
10
20.988900
20
284.786000
11
20.835400
21
284.767000
0
LINE
8
Layer 1
10
20.835400
20
284.767000
11
20.758900
21
284.863000
0
LINE
8
Layer 1
10
20.758900
20
284.863000
11
20.758900
21
284.997000
0
LINE
8
Layer 1
10
20.758900
20
284.997000
11
20.797200
21
285.458000
0
LINE
8
Layer 1
10
20.797200
20
285.458000
11
20.969800
21
286.014000
0
LINE
8
Layer 1
10
20.969800
20
286.014000
11
21.180600
21
286.570000
0
LINE
8
Layer 1
10
21.180600
20
286.570000
11
21.736700
21
287.835000
0
LINE
8
Layer 1
10
21.736700
20
287.835000
11
22.369700
21
289.062000
0
LINE
8
Layer 1
10
22.369700
20
289.062000
11
22.427100
21
289.178000
0
LINE
8
Layer 1
10
22.427100
20
289.178000
11
22.484400
21
289.292000
0
LINE
8
Layer 1
10
22.484400
20
289.292000
11
22.465300
21
289.465000
0
LINE
8
Layer 1
10
22.465300
20
289.465000
11
22.331500
21
289.580000
0
LINE
8
Layer 1
10
22.331500
20
289.580000
11
22.101000
21
289.465000
0
LINE
8
Layer 1
10
22.101000
20
289.465000
11
21.679300
21
288.966000
0
LINE
8
Layer 1
10
21.679300
20
288.966000
11
20.375500
21
287.471000
0
LINE
8
Layer 1
10
20.375500
20
287.471000
11
20.201400
21
287.262000
0
LINE
8
Layer 1
10
20.201400
20
287.262000
11
20.145000
21
287.222000
0
LINE
8
Layer 1
10
20.145000
20
287.222000
11
19.991500
21
287.068000
0
LINE
8
Layer 1
10
19.991500
20
287.068000
11
19.876800
21
286.915000
0
LINE
8
Layer 1
10
19.876800
20
286.915000
11
19.282000
21
286.263000
0
LINE
8
Layer 1
10
19.282000
20
286.263000
11
18.898600
21
285.841000
0
LINE
8
Layer 1
10
18.898600
20
285.841000
11
18.266100
21
285.266000
0
LINE
8
Layer 1
10
18.266100
20
285.266000
11
17.633000
21
284.902000
0
LINE
8
Layer 1
10
17.633000
20
284.902000
11
17.369475
21
284.925250
0
LINE
8
Layer 1
10
17.369475
20
284.925250
11
17.192200
21
285.151000
0
LINE
8
Layer 1
10
17.192200
20
285.151000
11
17.096100
21
285.572000
0
LINE
8
Layer 1
10
17.096100
20
285.572000
11
17.134400
21
286.014000
0
LINE
8
Layer 1
10
17.134400
20
286.014000
11
17.307000
21
286.761000
0
LINE
8
Layer 1
10
17.307000
20
286.761000
11
17.594800
21
287.643000
0
LINE
8
Layer 1
10
17.594800
20
287.643000
11
17.767400
21
288.104000
0
LINE
8
Layer 1
10
17.767400
20
288.104000
11
17.843900
21
288.334000
0
LINE
8
Layer 1
10
17.843900
20
288.334000
11
17.978200
21
288.526000
0
LINE
8
Layer 1
10
17.978200
20
288.526000
11
18.956500
21
289.791000
0
LINE
8
Layer 1
10
18.956500
20
289.791000
11
19.915100
21
291.076000
0
LINE
8
Layer 1
10
19.915100
20
291.076000
11
20.662800
21
292.111000
0
LINE
8
Layer 1
10
20.662800
20
292.111000
11
21.372300
21
293.185000
0
LINE
8
Layer 1
10
21.372300
20
293.185000
11
21.621900
21
293.627000
0
LINE
8
Layer 1
10
21.621900
20
293.627000
11
21.851900
21
294.106000
0
LINE
8
Layer 1
10
21.851900
20
294.106000
11
21.947500
21
294.777000
0
LINE
8
Layer 1
10
21.947500
20
294.777000
11
21.851588
21
295.117250
0
LINE
8
Layer 1
10
21.851588
20
295.117250
11
21.602300
21
295.333000
0
LINE
8
Layer 1
10
21.602300
20
295.333000
11
21.313400
21
295.410000
0
LINE
8
Layer 1
10
21.313400
20
295.410000
11
21.313400
21
295.410000
0
LINE
8
Layer 1
10
21.334100
20
294.969000
11
21.449300
21
294.911000
0
LINE
8
Layer 1
10
21.449300
20
294.911000
11
21.525800
21
294.509000
0
LINE
8
Layer 1
10
21.525800
20
294.509000
11
21.391500
21
294.106000
0
LINE
8
Layer 1
10
21.391500
20
294.106000
11
20.835400
21
293.128000
0
LINE
8
Layer 1
10
20.835400
20
293.128000
11
20.202900
21
292.208000
0
LINE
8
Layer 1
10
20.202900
20
292.208000
11
19.339900
21
291.018000
0
LINE
8
Layer 1
10
19.339900
20
291.018000
11
18.457800
21
289.848000
0
LINE
8
Layer 1
10
18.457800
20
289.848000
11
19.032900
21
291.287000
0
LINE
8
Layer 1
10
19.032900
20
291.287000
11
19.397300
21
292.111000
0
LINE
8
Layer 1
10
19.397300
20
292.111000
11
19.799800
21
292.955000
0
LINE
8
Layer 1
10
19.799800
20
292.955000
11
20.068500
21
293.511000
0
LINE
8
Layer 1
10
20.068500
20
293.511000
11
20.394600
21
294.067000
0
LINE
8
Layer 1
10
20.394600
20
294.067000
11
20.739800
21
294.566000
0
LINE
8
Layer 1
10
20.739800
20
294.566000
11
21.199700
21
294.949000
0
LINE
8
Layer 1
10
21.199700
20
294.949000
11
21.334100
21
294.969000
0
LINE
8
Layer 1
10
21.334100
20
294.969000
11
21.334100
21
294.969000
0
LINE
8
Layer 1
10
23.500900
20
292.974000
11
23.347400
21
292.936000
0
LINE
8
Layer 1
10
23.347400
20
292.936000
11
23.136600
21
292.706000
0
LINE
8
Layer 1
10
23.136600
20
292.706000
11
23.079200
21
292.399000
0
LINE
8
Layer 1
10
23.079200
20
292.399000
11
23.251800
21
292.150000
0
LINE
8
Layer 1
10
23.251800
20
292.150000
11
23.539100
21
292.150000
0
LINE
8
Layer 1
10
23.539100
20
292.150000
11
23.769600
21
292.361000
0
LINE
8
Layer 1
10
23.769600
20
292.361000
11
23.827000
21
292.667000
0
LINE
8
Layer 1
10
23.827000
20
292.667000
11
23.654400
21
292.936000
0
LINE
8
Layer 1
10
23.654400
20
292.936000
11
23.500900
21
292.974000
0
LINE
8
Layer 1
10
23.500900
20
292.974000
11
23.500900
21
292.974000
0
LINE
8
Layer 1
10
12.611100
20
291.388000
11
12.512900
21
291.364000
0
LINE
8
Layer 1
10
12.512900
20
291.364000
11
12.417300
21
291.134000
0
LINE
8
Layer 1
10
12.417300
20
291.134000
11
12.493800
21
290.999000
0
LINE
8
Layer 1
10
12.493800
20
290.999000
11
12.551700
21
290.961000
0
LINE
8
Layer 1
10
12.551700
20
290.961000
11
12.781600
21
290.769000
0
LINE
8
Layer 1
10
12.781600
20
290.769000
11
13.030700
21
290.597000
0
LINE
8
Layer 1
10
13.030700
20
290.597000
11
13.280300
21
290.366000
0
LINE
8
Layer 1
10
13.280300
20
290.366000
11
13.548500
21
290.175000
0
LINE
8
Layer 1
10
13.548500
20
290.175000
11
13.663800
21
290.098000
0
LINE
8
Layer 1
10
13.663800
20
290.098000
11
13.874600
21
290.060000
0
LINE
8
Layer 1
10
13.874600
20
290.060000
11
14.009000
21
290.252000
0
LINE
8
Layer 1
10
14.009000
20
290.252000
11
13.932000
21
290.424000
0
LINE
8
Layer 1
10
13.932000
20
290.424000
11
13.893700
21
290.462000
0
LINE
8
Layer 1
10
13.893700
20
290.462000
11
13.798100
21
290.520000
0
LINE
8
Layer 1
10
13.798100
20
290.520000
11
13.702000
21
290.597000
0
LINE
8
Layer 1
10
13.702000
20
290.597000
11
13.126800
21
291.057000
0
LINE
8
Layer 1
10
13.126800
20
291.057000
11
12.762500
21
291.345000
0
LINE
8
Layer 1
10
12.762500
20
291.345000
11
12.611100
21
291.388000
0
LINE
8
Layer 1
10
12.611100
20
291.388000
11
12.611100
21
291.388000
0
LINE
8
Layer 1
10
27.350800
20
289.333000
11
27.681500
21
289.312000
0
LINE
8
Layer 1
10
27.681500
20
289.312000
11
27.374600
21
288.775000
0
LINE
8
Layer 1
10
27.374600
20
288.775000
11
27.086700
21
288.257000
0
LINE
8
Layer 1
10
27.086700
20
288.257000
11
26.914100
21
287.912000
0
LINE
8
Layer 1
10
26.914100
20
287.912000
11
26.761200
21
287.547000
0
LINE
8
Layer 1
10
26.761200
20
287.547000
11
26.588600
21
287.183000
0
LINE
8
Layer 1
10
26.588600
20
287.183000
11
26.492400
21
286.991000
0
LINE
8
Layer 1
10
26.492400
20
286.991000
11
26.377200
21
286.800000
0
LINE
8
Layer 1
10
26.377200
20
286.800000
11
25.917300
21
286.148000
0
LINE
8
Layer 1
10
25.917300
20
286.148000
11
25.418600
21
285.553000
0
LINE
8
Layer 1
10
25.418600
20
285.553000
11
24.919900
21
285.131000
0
LINE
8
Layer 1
10
24.919900
20
285.131000
11
24.344800
21
284.844000
0
LINE
8
Layer 1
10
24.344800
20
284.844000
11
23.999600
21
284.786000
0
LINE
8
Layer 1
10
23.999600
20
284.786000
11
23.673500
21
284.825000
0
LINE
8
Layer 1
10
23.673500
20
284.825000
11
23.462700
21
284.997000
0
LINE
8
Layer 1
10
23.462700
20
284.997000
11
23.366500
21
285.246000
0
LINE
8
Layer 1
10
23.366500
20
285.246000
11
23.366500
21
285.879000
0
LINE
8
Layer 1
10
23.366500
20
285.879000
11
23.558800
21
286.474000
0
LINE
8
Layer 1
10
23.558800
20
286.474000
11
24.037800
21
287.298000
0
LINE
8
Layer 1
10
24.037800
20
287.298000
11
24.670800
21
288.008000
0
LINE
8
Layer 1
10
24.670800
20
288.008000
11
25.265100
21
288.545000
0
LINE
8
Layer 1
10
25.265100
20
288.545000
11
25.974600
21
288.986000
0
LINE
8
Layer 1
10
25.974600
20
288.986000
11
26.799400
21
289.273000
0
LINE
8
Layer 1
10
26.799400
20
289.273000
11
27.350800
21
289.333000
0
LINE
8
Layer 1
10
27.350800
20
289.333000
11
27.350800
21
289.333000
0
LINE
8
Layer 1
10
6.549470
20
284.614000
11
5.897310
21
283.079000
0
LINE
8
Layer 1
10
5.897310
20
283.079000
11
5.149560
21
281.584000
0
LINE
8
Layer 1
10
5.149560
20
281.584000
11
4.516520
21
280.644000
0
LINE
8
Layer 1
10
4.516520
20
280.644000
11
3.653520
21
279.935000
0
LINE
8
Layer 1
10
3.653520
20
279.935000
11
3.289200
21
279.781000
0
LINE
8
Layer 1
10
3.289200
20
279.781000
11
2.886650
21
279.704000
0
LINE
8
Layer 1
10
2.886650
20
279.704000
11
2.503210
21
279.743000
0
LINE
8
Layer 1
10
2.503210
20
279.743000
11
2.196250
21
279.954000
0
LINE
8
Layer 1
10
2.196250
20
279.954000
11
2.023650
21
280.587000
0
LINE
8
Layer 1
10
2.023650
20
280.587000
11
2.215370
21
281.239000
0
LINE
8
Layer 1
10
2.215370
20
281.239000
11
2.694930
21
282.006000
0
LINE
8
Layer 1
10
2.694930
20
282.006000
11
3.327960
21
282.639000
0
LINE
8
Layer 1
10
3.327960
20
282.639000
11
4.075720
21
283.233000
0
LINE
8
Layer 1
10
4.075720
20
283.233000
11
4.861720
21
283.751000
0
LINE
8
Layer 1
10
4.861720
20
283.751000
11
5.686470
21
284.192000
0
LINE
8
Layer 1
10
5.686470
20
284.192000
11
6.549470
21
284.614000
0
LINE
8
Layer 1
10
6.549470
20
284.614000
11
6.549470
21
284.614000
0
LINE
8
Layer 2
10
4.065940
20
294.658000
11
3.929845
21
293.984579
0
LINE
8
Layer 2
10
3.929845
20
293.984579
11
3.558983
21
293.434682
0
LINE
8
Layer 2
10
3.558983
20
293.434682
11
3.009001
21
293.063943
0
LINE
8
Layer 2
10
3.009001
20
293.063943
11
2.335550
21
292.928000
0
LINE
8
Layer 2
10
2.335550
20
292.928000
11
1.662100
21
293.063944
0
LINE
8
Layer 2
10
1.662100
20
293.063944
11
1.112120
21
293.434683
0
LINE
8
Layer 2
10
1.112120
20
293.434683
11
0.741258
21
293.984580
0
LINE
8
Layer 2
10
0.741258
20
293.984580
11
0.605164
21
294.658000
0
LINE
8
Layer 2
10
0.605164
20
294.658000
11
0.741258
21
295.331420
0
LINE
8
Layer 2
10
0.741258
20
295.331420
11
1.112120
21
295.881317
0
LINE
8
Layer 2
10
1.112120
20
295.881317
11
1.662100
21
296.252056
0
LINE
8
Layer 2
10
1.662100
20
296.252056
11
2.335550
21
296.388000
0
LINE
8
Layer 2
10
2.335550
20
296.388000
11
3.009001
21
296.252057
0
LINE
8
Layer 2
10
3.009001
20
296.252057
11
3.558983
21
295.881318
0
LINE
8
Layer 2
10
3.558983
20
295.881318
11
3.929845
21
295.331421
0
LINE
8
Layer 2
10
3.929845
20
295.331421
11
4.065940
21
294.658000
0
LINE
8
Layer 2
10
4.065940
20
294.658000
11
4.065940
21
294.658000
0
LINE
8
Layer 2
10
3.285740
20
294.667000
11
3.209003
21
294.287091
0
LINE
8
Layer 2
10
3.209003
20
294.287091
11
2.999810
21
293.976859
0
LINE
8
Layer 2
10
2.999810
20
293.976859
11
2.689557
21
293.767698
0
LINE
8
Layer 2
10
2.689557
20
293.767698
11
2.309640
21
293.691000
0
LINE
8
Layer 2
10
2.309640
20
293.691000
11
1.929720
21
293.767695
0
LINE
8
Layer 2
10
1.929720
20
293.767695
11
1.619464
21
293.976856
0
LINE
8
Layer 2
10
1.619464
20
293.976856
11
1.410268
21
294.287089
0
LINE
8
Layer 2
10
1.410268
20
294.287089
11
1.333530
21
294.667000
0
LINE
8
Layer 2
10
1.333530
20
294.667000
11
1.619110
21
295.357791
0
LINE
8
Layer 2
10
1.619110
20
295.357791
11
2.309640
21
295.644000
0
LINE
8
Layer 2
10
2.309640
20
295.644000
11
3.000164
21
295.357787
0
LINE
8
Layer 2
10
3.000164
20
295.357787
11
3.285740
21
294.667000
0
LINE
8
Layer 2
10
3.285740
20
294.667000
11
3.285740
21
294.667000
 0 
ENDSEC
 0 
EOF