999
"DXF R12 Output" (www.mydxf.blogspot.com)
 0 
SECTION
 2 
HEADER
 9 
$ACADVER
 1 
AC1009
 9 
$EXTMIN
 10 
 0 
 20 
 0 
 9 
$EXTMAX
 10 
 8.5 
 20 
 11 
 0 
ENDSEC
 0 
SECTION
 2 
ENTITIES
0
LINE
8
Layer 1
10
12.318900
20
296.986000
11
11.359801
21
296.654279
0
LINE
8
Layer 1
10
11.359801
20
296.654279
11
10.642919
21
295.966195
0
LINE
8
Layer 1
10
10.642919
20
295.966195
11
10.124755
21
295.074461
0
LINE
8
Layer 1
10
10.124755
20
295.074461
11
9.761810
21
294.131790
0
LINE
8
Layer 1
10
9.761810
20
294.131790
11
9.170271
21
292.696330
0
LINE
8
Layer 1
10
9.170271
20
292.696330
11
8.506400
21
291.298500
0
LINE
8
Layer 1
10
8.506400
20
291.298500
11
8.117773
21
291.225832
0
LINE
8
Layer 1
10
8.117773
20
291.225832
11
7.937671
21
291.323767
0
LINE
8
Layer 1
10
7.937671
20
291.323767
11
8.105321
21
291.902339
0
LINE
8
Layer 1
10
8.105321
20
291.902339
11
8.455517
21
293.007192
0
LINE
8
Layer 1
10
8.455517
20
293.007192
11
8.505914
21
294.174502
0
LINE
8
Layer 1
10
8.505914
20
294.174502
11
8.185372
21
295.265285
0
LINE
8
Layer 1
10
8.185372
20
295.265285
11
7.422753
21
296.140559
0
LINE
8
Layer 1
10
7.422753
20
296.140559
11
6.716684
21
296.544442
0
LINE
8
Layer 1
10
6.716684
20
296.544442
11
5.951369
21
296.779396
0
LINE
8
Layer 1
10
5.951369
20
296.779396
11
5.152122
21
296.856774
0
LINE
8
Layer 1
10
5.152122
20
296.856774
11
4.344262
21
296.787929
0
LINE
8
Layer 1
10
4.344262
20
296.787929
11
2.803963
21
296.256977
0
LINE
8
Layer 1
10
2.803963
20
296.256977
11
1.533003
21
295.277360
0
LINE
8
Layer 1
10
1.533003
20
295.277360
11
0.932938
21
294.346395
0
LINE
8
Layer 1
10
0.932938
20
294.346395
11
0.732379
21
293.250006
0
LINE
8
Layer 1
10
0.732379
20
293.250006
11
0.986028
21
292.196504
0
LINE
8
Layer 1
10
0.986028
20
292.196504
11
1.300276
21
291.750933
0
LINE
8
Layer 1
10
1.300276
20
291.750933
11
1.748590
21
291.394200
0
LINE
8
Layer 1
10
1.748590
20
291.394200
11
2.027814
21
291.231321
0
LINE
8
Layer 1
10
2.027814
20
291.231321
11
2.386788
21
291.147298
0
LINE
8
Layer 1
10
2.386788
20
291.147298
11
2.639955
21
291.032352
0
LINE
8
Layer 1
10
2.639955
20
291.032352
11
2.601758
21
290.776708
0
LINE
8
Layer 1
10
2.601758
20
290.776708
11
1.208740
21
287.452822
0
LINE
8
Layer 1
10
1.208740
20
287.452822
11
0.004448
21
284.066078
0
LINE
8
Layer 1
10
0.004448
20
284.066078
11
0.088215
21
283.359911
0
LINE
8
Layer 1
10
0.088215
20
283.359911
11
0.403574
21
282.756233
0
LINE
8
Layer 1
10
0.403574
20
282.756233
11
0.895306
21
282.276115
0
LINE
8
Layer 1
10
0.895306
20
282.276115
11
1.508195
21
281.940629
0
LINE
8
Layer 1
10
1.508195
20
281.940629
11
2.187022
21
281.770849
0
LINE
8
Layer 1
10
2.187022
20
281.770849
11
2.876568
21
281.787848
0
LINE
8
Layer 1
10
2.876568
20
281.787848
11
3.521616
21
282.012696
0
LINE
8
Layer 1
10
3.521616
20
282.012696
11
4.066948
21
282.466468
0
LINE
8
Layer 1
10
4.066948
20
282.466468
11
4.628145
21
283.449742
0
LINE
8
Layer 1
10
4.628145
20
283.449742
11
5.060007
21
284.498066
0
LINE
8
Layer 1
10
5.060007
20
284.498066
11
5.959528
21
286.579748
0
LINE
8
Layer 1
10
5.959528
20
286.579748
11
6.601652
21
286.617550
0
LINE
8
Layer 1
10
6.601652
20
286.617550
11
6.749715
21
286.471311
0
LINE
8
Layer 1
10
6.749715
20
286.471311
11
6.633357
21
286.128577
0
LINE
8
Layer 1
10
6.633357
20
286.128577
11
6.487277
21
284.951292
0
LINE
8
Layer 1
10
6.487277
20
284.951292
11
6.672636
21
283.768989
0
LINE
8
Layer 1
10
6.672636
20
283.768989
11
7.223001
21
282.741641
0
LINE
8
Layer 1
10
7.223001
20
282.741641
11
8.171937
21
282.029217
0
LINE
8
Layer 1
10
8.171937
20
282.029217
11
8.993545
21
281.783851
0
LINE
8
Layer 1
10
8.993545
20
281.783851
11
9.848563
21
281.766359
0
LINE
8
Layer 1
10
9.848563
20
281.766359
11
10.692048
21
281.939803
0
LINE
8
Layer 1
10
10.692048
20
281.939803
11
11.479057
21
282.267247
0
LINE
8
Layer 1
10
11.479057
20
282.267247
11
12.538084
21
281.833037
0
LINE
8
Layer 1
10
12.538084
20
281.833037
11
13.674902
21
281.757475
0
LINE
8
Layer 1
10
13.674902
20
281.757475
11
14.800223
21
281.996370
0
LINE
8
Layer 1
10
14.800223
20
281.996370
11
15.824757
21
282.505529
0
LINE
8
Layer 1
10
15.824757
20
282.505529
11
16.636104
21
282.012016
0
LINE
8
Layer 1
10
16.636104
20
282.012016
11
17.562983
21
281.815867
0
LINE
8
Layer 1
10
17.562983
20
281.815867
11
18.513817
21
281.900584
0
LINE
8
Layer 1
10
18.513817
20
281.900584
11
19.397027
21
282.249669
0
LINE
8
Layer 1
10
19.397027
20
282.249669
11
20.530843
21
281.796591
0
LINE
8
Layer 1
10
20.530843
20
281.796591
11
21.743693
21
281.777879
0
LINE
8
Layer 1
10
21.743693
20
281.777879
11
22.930670
21
282.101508
0
LINE
8
Layer 1
10
22.930670
20
282.101508
11
23.986867
21
282.675450
0
LINE
8
Layer 1
10
23.986867
20
282.675450
11
24.366613
21
282.259910
0
LINE
8
Layer 1
10
24.366613
20
282.259910
11
24.831449
21
281.970261
0
LINE
8
Layer 1
10
24.831449
20
281.970261
11
25.904465
21
281.755564
0
LINE
8
Layer 1
10
25.904465
20
281.755564
11
26.982063
21
282.005205
0
LINE
8
Layer 1
10
26.982063
20
282.005205
11
27.840387
21
282.693030
0
LINE
8
Layer 1
10
27.840387
20
282.693030
11
28.603554
21
282.080024
0
LINE
8
Layer 1
10
28.603554
20
282.080024
11
29.533076
21
281.790484
0
LINE
8
Layer 1
10
29.533076
20
281.790484
11
30.519573
21
281.802803
0
LINE
8
Layer 1
10
30.519573
20
281.802803
11
31.453667
21
282.095373
0
LINE
8
Layer 1
10
31.453667
20
282.095373
11
32.221096
21
281.770681
0
LINE
8
Layer 1
10
32.221096
20
281.770681
11
33.045777
21
281.679391
0
LINE
8
Layer 1
10
33.045777
20
281.679391
11
34.662647
21
281.982092
0
LINE
8
Layer 1
10
34.662647
20
281.982092
11
35.899327
21
281.659920
0
LINE
8
Layer 1
10
35.899327
20
281.659920
11
37.148292
21
281.849002
0
LINE
8
Layer 1
10
37.148292
20
281.849002
11
38.286452
21
282.446147
0
LINE
8
Layer 1
10
38.286452
20
282.446147
11
39.190717
21
283.348162
0
LINE
8
Layer 1
10
39.190717
20
283.348162
11
40.644736
21
284.995322
0
LINE
8
Layer 1
10
40.644736
20
284.995322
11
41.112668
21
285.960798
0
LINE
8
Layer 1
10
41.112668
20
285.960798
11
41.162647
21
287.040682
0
LINE
8
Layer 1
10
41.162647
20
287.040682
11
40.914909
21
287.618456
0
LINE
8
Layer 1
10
40.914909
20
287.618456
11
40.516744
21
288.102567
0
LINE
8
Layer 1
10
40.516744
20
288.102567
11
39.428267
21
288.716462
0
LINE
8
Layer 1
10
39.428267
20
288.716462
11
39.307205
21
289.663819
0
LINE
8
Layer 1
10
39.307205
20
289.663819
11
38.824023
21
290.473586
0
LINE
8
Layer 1
10
38.824023
20
290.473586
11
38.071674
21
291.043951
0
LINE
8
Layer 1
10
38.071674
20
291.043951
11
37.143107
21
291.273102
0
LINE
8
Layer 1
10
37.143107
20
291.273102
11
35.940107
21
291.300260
0
LINE
8
Layer 1
10
35.940107
20
291.300260
11
34.769283
21
291.041817
0
LINE
8
Layer 1
10
34.769283
20
291.041817
11
33.666231
21
290.551362
0
LINE
8
Layer 1
10
33.666231
20
290.551362
11
32.666547
21
289.882482
0
LINE
8
Layer 1
10
32.666547
20
289.882482
11
31.827550
21
290.715058
0
LINE
8
Layer 1
10
31.827550
20
290.715058
11
30.727004
21
291.120805
0
LINE
8
Layer 1
10
30.727004
20
291.120805
11
29.538613
21
291.107099
0
LINE
8
Layer 1
10
29.538613
20
291.107099
11
28.436077
21
290.681310
0
LINE
8
Layer 1
10
28.436077
20
290.681310
11
27.609477
21
290.996012
0
LINE
8
Layer 1
10
27.609477
20
290.996012
11
26.723961
21
291.024244
0
LINE
8
Layer 1
10
26.723961
20
291.024244
11
25.853683
21
290.806791
0
LINE
8
Layer 1
10
25.853683
20
290.806791
11
25.072797
21
290.384435
0
LINE
8
Layer 1
10
25.072797
20
290.384435
11
24.165011
21
290.970194
0
LINE
8
Layer 1
10
24.165011
20
290.970194
11
23.180217
21
291.249669
0
LINE
8
Layer 1
10
23.180217
20
291.249669
11
23.786220
21
292.289348
0
LINE
8
Layer 1
10
23.786220
20
292.289348
11
24.178752
21
293.446819
0
LINE
8
Layer 1
10
24.178752
20
293.446819
11
24.217036
21
294.629737
0
LINE
8
Layer 1
10
24.217036
20
294.629737
11
23.760296
21
295.745759
0
LINE
8
Layer 1
10
23.760296
20
295.745759
11
23.005418
21
296.502979
0
LINE
8
Layer 1
10
23.005418
20
296.502979
11
22.027162
21
296.908564
0
LINE
8
Layer 1
10
22.027162
20
296.908564
11
20.973293
21
296.919335
0
LINE
8
Layer 1
10
20.973293
20
296.919335
11
19.991576
21
296.492112
0
LINE
8
Layer 1
10
19.991576
20
296.492112
11
18.882432
21
295.518444
0
LINE
8
Layer 1
10
18.882432
20
295.518444
11
18.069803
21
294.292591
0
LINE
8
Layer 1
10
18.069803
20
294.292591
11
16.824936
21
291.592662
0
LINE
8
Layer 1
10
16.824936
20
291.592662
11
16.562101
21
291.010422
0
LINE
8
Layer 1
10
16.562101
20
291.010422
11
16.353689
21
290.919787
0
LINE
8
Layer 1
10
16.353689
20
290.919787
11
16.035689
21
291.075840
0
LINE
8
Layer 1
10
16.035689
20
291.075840
11
14.734805
21
291.238978
0
LINE
8
Layer 1
10
14.734805
20
291.238978
11
13.461469
21
290.919590
0
LINE
8
Layer 1
10
13.461469
20
290.919590
11
14.286442
21
292.851431
0
LINE
8
Layer 1
10
14.286442
20
292.851431
11
14.637962
21
293.837400
0
LINE
8
Layer 1
10
14.637962
20
293.837400
11
14.854049
21
294.853180
0
LINE
8
Layer 1
10
14.854049
20
294.853180
11
14.595298
21
295.733385
0
LINE
8
Layer 1
10
14.595298
20
295.733385
11
14.023081
21
296.443051
0
LINE
8
Layer 1
10
14.023081
20
296.443051
11
13.232558
21
296.890984
0
LINE
8
Layer 1
10
13.232558
20
296.890984
11
12.318889
21
296.985990
0
LINE
8
Layer 1
10
12.318889
20
296.985990
11
12.318900
21
296.986000
0
LINE
8
Layer 1
10
23.667500
20
279.289000
11
22.504469
21
278.949367
0
LINE
8
Layer 1
10
22.504469
20
278.949367
11
21.580061
21
278.194674
0
LINE
8
Layer 1
10
21.580061
20
278.194674
11
20.859873
21
277.193659
0
LINE
8
Layer 1
10
20.859873
20
277.193659
11
20.309500
21
276.115060
0
LINE
8
Layer 1
10
20.309500
20
276.115060
11
19.501171
21
274.345581
0
LINE
8
Layer 1
10
19.501171
20
274.345581
11
18.778830
21
272.560480
0
LINE
8
Layer 1
10
18.778830
20
272.560480
11
18.271854
21
273.115274
0
LINE
8
Layer 1
10
18.271854
20
273.115274
11
17.612810
21
273.490168
0
LINE
8
Layer 1
10
17.612810
20
273.490168
11
16.692806
21
274.418648
0
LINE
8
Layer 1
10
16.692806
20
274.418648
11
15.597190
21
275.165948
0
LINE
8
Layer 1
10
15.597190
20
275.165948
11
14.753674
21
275.263517
0
LINE
8
Layer 1
10
14.753674
20
275.263517
11
13.964380
21
274.943292
0
LINE
8
Layer 1
10
13.964380
20
274.943292
11
14.061123
21
275.648891
0
LINE
8
Layer 1
10
14.061123
20
275.648891
11
13.994139
21
276.339056
0
LINE
8
Layer 1
10
13.994139
20
276.339056
11
13.442391
21
277.601248
0
LINE
8
Layer 1
10
13.442391
20
277.601248
11
12.455940
21
278.586190
0
LINE
8
Layer 1
10
12.455940
20
278.586190
11
11.181590
21
279.150202
0
LINE
8
Layer 1
10
11.181590
20
279.150202
11
10.307675
21
279.269443
0
LINE
8
Layer 1
10
10.307675
20
279.269443
11
9.443329
21
279.206316
0
LINE
8
Layer 1
10
9.443329
20
279.206316
11
8.607955
21
278.979056
0
LINE
8
Layer 1
10
8.607955
20
278.979056
11
7.820955
21
278.605899
0
LINE
8
Layer 1
10
7.820955
20
278.605899
11
6.469691
21
277.494832
0
LINE
8
Layer 1
10
6.469691
20
277.494832
11
5.544760
21
276.018992
0
LINE
8
Layer 1
10
5.544760
20
276.018992
11
5.202180
21
275.010159
0
LINE
8
Layer 1
10
5.202180
20
275.010159
11
5.015304
21
273.975066
0
LINE
8
Layer 1
10
5.015304
20
273.975066
11
5.045170
21
271.869612
0
LINE
8
Layer 1
10
5.045170
20
271.869612
11
5.507371
21
269.789650
0
LINE
8
Layer 1
10
5.507371
20
269.789650
11
6.274923
21
267.822202
0
LINE
8
Layer 1
10
6.274923
20
267.822202
11
4.925725
21
266.931744
0
LINE
8
Layer 1
10
4.925725
20
266.931744
11
3.704260
21
265.837084
0
LINE
8
Layer 1
10
3.704260
20
265.837084
11
2.783753
21
264.521607
0
LINE
8
Layer 1
10
2.783753
20
264.521607
11
2.490489
21
263.775868
0
LINE
8
Layer 1
10
2.490489
20
263.775868
11
2.337423
21
262.968692
0
LINE
8
Layer 1
10
2.337423
20
262.968692
11
2.522784
21
261.800537
0
LINE
8
Layer 1
10
2.522784
20
261.800537
11
3.150715
21
260.798939
0
LINE
8
Layer 1
10
3.150715
20
260.798939
11
4.108134
21
260.133684
0
LINE
8
Layer 1
10
4.108134
20
260.133684
11
4.675061
21
259.980241
0
LINE
8
Layer 1
10
4.675061
20
259.980241
11
5.281953
21
259.974552
0
LINE
8
Layer 1
10
5.281953
20
259.974552
11
6.062825
21
260.089515
0
LINE
8
Layer 1
10
6.062825
20
260.089515
11
6.778428
21
260.355462
0
LINE
8
Layer 1
10
6.778428
20
260.355462
11
8.016427
21
261.247299
0
LINE
8
Layer 1
10
8.016427
20
261.247299
11
9.001148
21
262.464056
0
LINE
8
Layer 1
10
9.001148
20
262.464056
11
9.737793
21
263.819722
0
LINE
8
Layer 1
10
9.737793
20
263.819722
11
10.237739
21
265.012779
0
LINE
8
Layer 1
10
10.237739
20
265.012779
11
10.509136
21
265.590171
0
LINE
8
Layer 1
10
10.509136
20
265.590171
11
10.897963
21
266.087832
0
LINE
8
Layer 1
10
10.897963
20
266.087832
11
11.618025
21
265.386182
0
LINE
8
Layer 1
10
11.618025
20
265.386182
11
12.569173
21
265.079055
0
LINE
8
Layer 1
10
12.569173
20
265.079055
11
13.580711
21
265.153758
0
LINE
8
Layer 1
10
13.580711
20
265.153758
11
14.481943
21
265.597598
0
LINE
8
Layer 1
10
14.481943
20
265.597598
11
15.346717
21
265.114299
0
LINE
8
Layer 1
10
15.346717
20
265.114299
11
16.319264
21
265.092847
0
LINE
8
Layer 1
10
16.319264
20
265.092847
11
17.274031
21
265.422891
0
LINE
8
Layer 1
10
17.274031
20
265.422891
11
18.085463
21
265.994082
0
LINE
8
Layer 1
10
18.085463
20
265.994082
11
18.860310
21
265.410753
0
LINE
8
Layer 1
10
18.860310
20
265.410753
11
19.794526
21
265.184931
0
LINE
8
Layer 1
10
19.794526
20
265.184931
11
20.753605
21
265.309486
0
LINE
8
Layer 1
10
20.753605
20
265.309486
11
21.603043
21
265.777285
0
LINE
8
Layer 1
10
21.603043
20
265.777285
11
22.274399
21
265.243294
0
LINE
8
Layer 1
10
22.274399
20
265.243294
11
23.104081
21
265.048592
0
LINE
8
Layer 1
10
23.104081
20
265.048592
11
23.962051
21
265.166478
0
LINE
8
Layer 1
10
23.962051
20
265.166478
11
24.718273
21
265.570254
0
LINE
8
Layer 1
10
24.718273
20
265.570254
11
25.463293
21
265.190261
0
LINE
8
Layer 1
10
25.463293
20
265.190261
11
26.286199
21
265.059450
0
LINE
8
Layer 1
10
26.286199
20
265.059450
11
27.122504
21
265.151327
0
LINE
8
Layer 1
10
27.122504
20
265.151327
11
27.907723
21
265.439395
0
LINE
8
Layer 1
10
27.907723
20
265.439395
11
28.947241
21
265.044365
0
LINE
8
Layer 1
10
28.947241
20
265.044365
11
30.038683
21
265.141912
0
LINE
8
Layer 1
10
30.038683
20
265.141912
11
31.055965
21
265.623173
0
LINE
8
Layer 1
10
31.055965
20
265.623173
11
31.873003
21
266.379284
0
LINE
8
Layer 1
10
31.873003
20
266.379284
11
33.016813
21
267.586304
0
LINE
8
Layer 1
10
33.016813
20
267.586304
11
33.524682
21
268.236570
0
LINE
8
Layer 1
10
33.524682
20
268.236570
11
33.866703
21
268.980414
0
LINE
8
Layer 1
10
33.866703
20
268.980414
11
33.837126
21
269.788164
0
LINE
8
Layer 1
10
33.837126
20
269.788164
11
33.457754
21
270.501450
0
LINE
8
Layer 1
10
33.457754
20
270.501450
11
32.821919
21
270.987421
0
LINE
8
Layer 1
10
32.821919
20
270.987421
11
32.022953
21
271.113224
0
LINE
8
Layer 1
10
32.022953
20
271.113224
11
32.132783
21
271.904073
0
LINE
8
Layer 1
10
32.132783
20
271.904073
11
31.892327
21
272.642405
0
LINE
8
Layer 1
10
31.892327
20
272.642405
11
31.371969
21
273.224057
0
LINE
8
Layer 1
10
31.371969
20
273.224057
11
30.642093
21
273.544864
0
LINE
8
Layer 1
10
30.642093
20
273.544864
11
29.484594
21
273.644587
0
LINE
8
Layer 1
10
29.484594
20
273.644587
11
28.338949
21
273.438007
0
LINE
8
Layer 1
10
28.338949
20
273.438007
11
27.255032
21
272.988468
0
LINE
8
Layer 1
10
27.255032
20
272.988468
11
26.282713
21
272.359314
0
LINE
8
Layer 1
10
26.282713
20
272.359314
11
26.040440
21
272.782325
0
LINE
8
Layer 1
10
26.040440
20
272.782325
11
26.452635
21
272.939392
0
LINE
8
Layer 1
10
26.452635
20
272.939392
11
26.945142
21
273.215106
0
LINE
8
Layer 1
10
26.945142
20
273.215106
11
27.321946
21
273.616032
0
LINE
8
Layer 1
10
27.321946
20
273.616032
11
27.706893
21
274.645018
0
LINE
8
Layer 1
10
27.706893
20
274.645018
11
27.564360
21
275.729357
0
LINE
8
Layer 1
10
27.564360
20
275.729357
11
27.281817
21
276.199472
0
LINE
8
Layer 1
10
27.281817
20
276.199472
11
26.851236
21
276.572052
0
LINE
8
Layer 1
10
26.851236
20
276.572052
11
26.601514
21
276.734890
0
LINE
8
Layer 1
10
26.601514
20
276.734890
11
26.274527
21
276.785139
0
LINE
8
Layer 1
10
26.274527
20
276.785139
11
25.993666
21
276.847046
0
LINE
8
Layer 1
10
25.993666
20
276.847046
11
25.882322
21
277.044861
0
LINE
8
Layer 1
10
25.882322
20
277.044861
11
25.691675
21
277.891782
0
LINE
8
Layer 1
10
25.691675
20
277.891782
11
25.215969
21
278.616061
0
LINE
8
Layer 1
10
25.215969
20
278.616061
11
24.519730
21
279.115775
0
LINE
8
Layer 1
10
24.519730
20
279.115775
11
23.667482
21
279.289001
0
LINE
8
Layer 1
10
23.667482
20
279.289001
11
23.667500
21
279.289000
0
LINE
8
Layer 1
10
10.351100
20
275.638610
11
10.413887
21
275.387732
0
LINE
8
Layer 1
10
10.413887
20
275.387732
11
10.327697
21
275.086208
0
LINE
8
Layer 1
10
10.327697
20
275.086208
11
10.121648
21
274.470880
0
LINE
8
Layer 1
10
10.121648
20
274.470880
11
8.878448
21
271.089780
0
LINE
8
Layer 1
10
8.878448
20
271.089780
11
8.650847
21
272.167488
0
LINE
8
Layer 1
10
8.650847
20
272.167488
11
8.589857
21
273.287270
0
LINE
8
Layer 1
10
8.589857
20
273.287270
11
8.786443
21
274.363972
0
LINE
8
Layer 1
10
8.786443
20
274.363972
11
9.331573
21
275.312440
0
LINE
8
Layer 1
10
9.331573
20
275.312440
11
9.808185
21
275.582628
0
LINE
8
Layer 1
10
9.808185
20
275.582628
11
10.351103
21
275.638612
0
LINE
8
Layer 1
10
10.351103
20
275.638612
11
10.351100
21
275.638610
0
LINE
8
Layer 1
10
24.290600
20
273.458920
11
24.290600
21
273.458920
0
LINE
8
Layer 1
10
24.290600
20
273.458920
11
24.290600
21
273.458920
 0 
ENDSEC
 0 
EOF