999
"DXF R12 Output" (www.mydxf.blogspot.com)
 0 
SECTION
 2 
HEADER
 9 
$ACADVER
 1 
AC1009
 9 
$EXTMIN
 10 
 0 
 20 
 0 
 9 
$EXTMAX
 10 
 8.5 
 20 
 11 
 0 
ENDSEC
 0 
SECTION
 2 
ENTITIES
0
LINE
8
Camada 1
10
7.363810
20
0.100650
11
8.025215
21
2.831850
0
LINE
8
Camada 1
10
8.025215
20
2.831850
11
9.458974
21
9.505050
0
LINE
8
Camada 1
10
9.458974
20
9.505050
11
10.207461
21
13.607212
0
LINE
8
Camada 1
10
10.207461
20
13.607212
11
10.839406
21
17.839650
0
LINE
8
Camada 1
10
10.839406
20
17.839650
11
11.251599
21
21.917288
0
LINE
8
Camada 1
10
11.251599
20
21.917288
11
11.340830
21
25.555050
0
LINE
8
Camada 1
10
11.340830
20
25.555050
11
10.957658
21
28.699888
0
LINE
8
Camada 1
10
10.957658
20
28.699888
11
10.123921
21
31.501717
0
LINE
8
Camada 1
10
10.123921
20
31.501717
11
8.993318
21
33.979910
0
LINE
8
Camada 1
10
8.993318
20
33.979910
11
7.719549
21
36.153838
0
LINE
8
Camada 1
10
7.719549
20
36.153838
11
5.357307
21
39.666389
0
LINE
8
Camada 1
10
5.357307
20
39.666389
11
4.576233
21
41.043757
0
LINE
8
Camada 1
10
4.576233
20
41.043757
11
4.266790
21
42.194350
0
LINE
8
Camada 1
10
4.266790
20
42.194350
11
4.421541
21
43.498721
0
LINE
8
Camada 1
10
4.421541
20
43.498721
11
4.876846
21
44.722893
0
LINE
8
Camada 1
10
4.876846
20
44.722893
11
6.285039
21
47.125622
0
LINE
8
Camada 1
10
6.285039
20
47.125622
11
7.035886
21
48.401667
0
LINE
8
Camada 1
10
7.035886
20
48.401667
11
7.683207
21
49.792490
0
LINE
8
Camada 1
10
7.683207
20
49.792490
11
8.125982
21
51.346837
0
LINE
8
Camada 1
10
8.125982
20
51.346837
11
8.263190
21
53.113450
0
LINE
8
Camada 1
10
8.263190
20
53.113450
11
8.080325
21
54.978527
0
LINE
8
Camada 1
10
8.080325
20
54.978527
11
7.637345
21
56.761542
0
LINE
8
Camada 1
10
7.637345
20
56.761542
11
6.944924
21
58.411139
0
LINE
8
Camada 1
10
6.944924
20
58.411139
11
6.013739
21
59.875966
0
LINE
8
Camada 1
10
6.013739
20
59.875966
11
4.854466
21
61.104669
0
LINE
8
Camada 1
10
4.854466
20
61.104669
11
3.477779
21
62.045895
0
LINE
8
Camada 1
10
3.477779
20
62.045895
11
1.894355
21
62.648290
0
LINE
8
Camada 1
10
1.894355
20
62.648290
11
0.114870
21
62.860500
0
LINE
8
Camada 1
10
0.114870
20
62.860500
11
0.074430
21
26.614175
0
LINE
8
Camada 1
10
0.074430
20
26.614175
11
0.114870
21
0.100600
0
LINE
8
Camada 1
10
0.114870
20
0.100600
11
7.363810
21
0.100600
0
LINE
8
Camada 1
10
7.363810
20
0.100600
11
7.363810
21
0.100650
 0 
ENDSEC
 0 
EOF