999
"DXF R12 Output" (www.mydxf.blogspot.com)
 0 
SECTION
 2 
HEADER
 9 
$ACADVER
 1 
AC1009
 9 
$EXTMIN
 10 
 0 
 20 
 0 
 9 
$EXTMAX
 10 
 8.5 
 20 
 11 
 0 
ENDSEC
 0 
SECTION
 2 
ENTITIES
0
LINE
8
Camada 1
10
0.000000
20
90.000000
11
-0.193754
21
0.000000
0
LINE
8
Camada 1
10
-0.193754
20
0.000000
11
-8.085740
21
0.000000
0
LINE
8
Camada 1
10
-8.085740
20
0.000000
11
-9.451127
21
3.530408
0
LINE
8
Camada 1
10
-9.451127
20
3.530408
11
-10.841380
21
7.511996
0
LINE
8
Camada 1
10
-10.841380
20
7.511996
11
-12.422025
21
12.587687
0
LINE
8
Camada 1
10
-12.422025
20
12.587687
11
-13.982075
21
18.469868
0
LINE
8
Camada 1
10
-13.982075
20
18.469868
11
-15.310543
21
24.870923
0
LINE
8
Camada 1
10
-15.310543
20
24.870923
11
-16.196444
21
31.503239
0
LINE
8
Camada 1
10
-16.196444
20
31.503239
11
-16.407498
21
34.816240
0
LINE
8
Camada 1
10
-16.407498
20
34.816240
11
-16.428790
21
38.079200
0
LINE
8
Camada 1
10
-16.428790
20
38.079200
11
-16.231579
21
41.204807
0
LINE
8
Camada 1
10
-16.231579
20
41.204807
11
-15.825057
21
44.132703
0
LINE
8
Camada 1
10
-15.825057
20
44.132703
11
-15.239750
21
46.867369
0
LINE
8
Camada 1
10
-15.239750
20
46.867369
11
-14.506189
21
49.413289
0
LINE
8
Camada 1
10
-14.506189
20
49.413289
11
-13.654900
21
51.774944
0
LINE
8
Camada 1
10
-13.654900
20
51.774944
11
-12.716413
21
53.956815
0
LINE
8
Camada 1
10
-12.716413
20
53.956815
11
-10.699958
21
57.799138
0
LINE
8
Camada 1
10
-10.699958
20
57.799138
11
-8.701051
21
60.976111
0
LINE
8
Camada 1
10
-8.701051
20
60.976111
11
-6.963919
21
63.523592
0
LINE
8
Camada 1
10
-6.963919
20
63.523592
11
-5.732789
21
65.477437
0
LINE
8
Camada 1
10
-5.732789
20
65.477437
11
-5.383297
21
66.242950
0
LINE
8
Camada 1
10
-5.383297
20
66.242950
11
-5.251890
21
66.873500
0
LINE
8
Camada 1
10
-5.251890
20
66.873500
11
-5.402423
21
68.001898
0
LINE
8
Camada 1
10
-5.402423
20
68.001898
11
-5.842976
21
69.128606
0
LINE
8
Camada 1
10
-5.842976
20
69.128606
11
-7.235551
21
71.375546
0
LINE
8
Camada 1
10
-7.235551
20
71.375546
11
-8.712441
21
73.611500
0
LINE
8
Camada 1
10
-8.712441
20
73.611500
11
-9.258387
21
74.724477
0
LINE
8
Camada 1
10
-9.258387
20
74.724477
11
-9.556470
21
75.833650
0
LINE
8
Camada 1
10
-9.556470
20
75.833650
11
-9.925397
21
78.087261
0
LINE
8
Camada 1
10
-9.925397
20
78.087261
11
-9.879446
21
80.451724
0
LINE
8
Camada 1
10
-9.879446
20
80.451724
11
-9.402701
21
82.802639
0
LINE
8
Camada 1
10
-9.402701
20
82.802639
11
-8.479245
21
85.015606
0
LINE
8
Camada 1
10
-8.479245
20
85.015606
11
-7.093163
21
86.966226
0
LINE
8
Camada 1
10
-7.093163
20
86.966226
11
-6.221663
21
87.804280
0
LINE
8
Camada 1
10
-6.221663
20
87.804280
11
-5.228539
21
88.530098
0
LINE
8
Camada 1
10
-5.228539
20
88.530098
11
-4.111800
21
89.128128
0
LINE
8
Camada 1
10
-4.111800
20
89.128128
11
-2.869456
21
89.582822
0
LINE
8
Camada 1
10
-2.869456
20
89.582822
11
-1.499520
21
89.878630
0
LINE
8
Camada 1
10
-1.499520
20
89.878630
11
0.000000
21
90.000000
0
LINE
8
Camada 1
10
0.000000
20
90.000000
11
0.000000
21
90.000000
 0 
ENDSEC
 0 
EOF