999
"DXF R12 Output" (www.mydxf.blogspot.com)
 0 
SECTION
 2 
HEADER
 9 
$ACADVER
 1 
AC1009
 9 
$EXTMIN
 10 
 0 
 20 
 0 
 9 
$EXTMAX
 10 
 8.5 
 20 
 11 
 0 
ENDSEC
 0 
SECTION
 2 
ENTITIES
0
LINE
8
Camada 1
10
0.000000
20
0.000000
11
-6.571070
21
0.124510
0
LINE
8
Camada 1
10
-6.571070
20
0.124510
11
-7.621719
21
2.720332
0
LINE
8
Camada 1
10
-7.621719
20
2.720332
11
-8.691441
21
5.715440
0
LINE
8
Camada 1
10
-8.691441
20
5.715440
11
-9.907571
21
9.620085
0
LINE
8
Camada 1
10
-9.907571
20
9.620085
11
-11.107718
21
14.267821
0
LINE
8
Camada 1
10
-11.107718
20
14.267821
11
-12.129488
21
19.492201
0
LINE
8
Camada 1
10
-12.129488
20
19.492201
11
-12.810490
21
25.126779
0
LINE
8
Camada 1
10
-12.810490
20
25.126779
11
-12.972455
21
28.045878
0
LINE
8
Camada 1
10
-12.972455
20
28.045878
11
-12.988330
21
31.005110
0
LINE
8
Camada 1
10
-12.988330
20
31.005110
11
-12.838159
21
33.841678
0
LINE
8
Camada 1
10
-12.838159
20
33.841678
11
-12.530862
21
36.418195
0
LINE
8
Camada 1
10
-12.530862
20
36.418195
11
-12.089455
21
38.751967
0
LINE
8
Camada 1
10
-12.089455
20
38.751967
11
-11.536957
21
40.860299
0
LINE
8
Camada 1
10
-11.536957
20
40.860299
11
-10.190757
21
44.469868
0
LINE
8
Camada 1
10
-10.190757
20
44.469868
11
-8.676400
21
47.385348
0
LINE
8
Camada 1
10
-8.676400
20
47.385348
11
-5.879777
21
51.687827
0
LINE
8
Camada 1
10
-5.879777
20
51.687827
11
-4.965792
21
53.351720
0
LINE
8
Camada 1
10
-4.965792
20
53.351720
11
-4.710442
21
54.122400
0
LINE
8
Camada 1
10
-4.710442
20
54.122400
11
-4.620210
21
54.875310
0
LINE
8
Camada 1
10
-4.620210
20
54.875310
11
-4.799687
21
56.217811
0
LINE
8
Camada 1
10
-4.799687
20
56.217811
11
-5.272852
21
57.333920
0
LINE
8
Camada 1
10
-5.272852
20
57.333920
11
-6.708665
21
59.413917
0
LINE
8
Camada 1
10
-6.708665
20
59.413917
11
-7.475520
21
60.641283
0
LINE
8
Camada 1
10
-7.475520
20
60.641283
11
-8.144478
21
62.169211
0
LINE
8
Camada 1
10
-8.144478
20
62.169211
11
-8.617643
21
64.129440
0
LINE
8
Camada 1
10
-8.617643
20
64.129440
11
-8.797120
21
66.653710
0
LINE
8
Camada 1
10
-8.797120
20
66.653710
11
-8.564572
21
69.230640
0
LINE
8
Camada 1
10
-8.564572
20
69.230640
11
-7.921266
21
71.335833
0
LINE
8
Camada 1
10
-7.921266
20
71.335833
11
-6.948711
21
73.003244
0
LINE
8
Camada 1
10
-6.948711
20
73.003244
11
-5.728415
21
74.266830
0
LINE
8
Camada 1
10
-5.728415
20
74.266830
11
-4.341888
21
75.160546
0
LINE
8
Camada 1
10
-4.341888
20
75.160546
11
-2.870637
21
75.718347
0
LINE
8
Camada 1
10
-2.870637
20
75.718347
11
-1.396171
21
75.974190
0
LINE
8
Camada 1
10
-1.396171
20
75.974190
11
0.000000
21
75.962030
0
LINE
8
Camada 1
10
0.000000
20
75.962030
11
0.000000
21
-0.000170
0
LINE
8
Camada 1
10
0.000000
20
-0.000170
11
0.000000
21
0.000000
 0 
ENDSEC
 0 
EOF