999
"DXF R12 Output" (www.mydxf.blogspot.com)
 0 
SECTION
 2 
HEADER
 9 
$ACADVER
 1 
AC1009
 9 
$EXTMIN
 10 
 0 
 20 
 0 
 9 
$EXTMAX
 10 
 8.5 
 20 
 11 
 0 
ENDSEC
 0 
SECTION
 2 
ENTITIES
0
LINE
8
Camada 1
10
18.301700
20
0.218060
11
19.919835
21
4.249833
0
LINE
8
Camada 1
10
19.919835
20
4.249833
11
21.533592
21
8.725396
0
LINE
8
Camada 1
10
21.533592
20
8.725396
11
23.320331
21
14.339272
0
LINE
8
Camada 1
10
23.320331
20
14.339272
11
25.007445
21
20.715360
0
LINE
8
Camada 1
10
25.007445
20
20.715360
11
26.322324
21
27.477555
0
LINE
8
Camada 1
10
26.322324
20
27.477555
11
26.754986
21
30.885912
0
LINE
8
Camada 1
10
26.754986
20
30.885912
11
26.992362
21
34.249756
0
LINE
8
Camada 1
10
26.992362
20
34.249756
11
27.000375
21
37.522077
0
LINE
8
Camada 1
10
27.000375
20
37.522077
11
26.744950
21
40.655860
0
LINE
8
Camada 1
10
26.744950
20
40.655860
11
26.261059
21
43.596776
0
LINE
8
Camada 1
10
26.261059
20
43.596776
11
25.622423
21
46.332773
0
LINE
8
Camada 1
10
25.622423
20
46.332773
11
24.853027
21
48.880275
0
LINE
8
Camada 1
10
24.853027
20
48.880275
11
23.976859
21
51.255707
0
LINE
8
Camada 1
10
23.976859
20
51.255707
11
22.000154
21
55.556060
0
LINE
8
Camada 1
10
22.000154
20
55.556060
11
19.884206
21
59.365232
0
LINE
8
Camada 1
10
19.884206
20
59.365232
11
17.820910
21
62.814623
0
LINE
8
Camada 1
10
17.820910
20
62.814623
11
16.002163
21
66.035632
0
LINE
8
Camada 1
10
16.002163
20
66.035632
11
14.619861
21
69.159658
0
LINE
8
Camada 1
10
14.619861
20
69.159658
11
14.152344
21
70.726364
0
LINE
8
Camada 1
10
14.152344
20
70.726364
11
13.865900
21
72.318100
0
LINE
8
Camada 1
10
13.865900
20
72.318100
11
13.774715
21
73.821690
0
LINE
8
Camada 1
10
13.774715
20
73.821690
11
13.843657
21
75.334937
0
LINE
8
Camada 1
10
13.843657
20
75.334937
11
14.421125
21
78.358864
0
LINE
8
Camada 1
10
14.421125
20
78.358864
11
15.516713
21
81.326809
0
LINE
8
Camada 1
10
15.516713
20
81.326809
11
17.048830
21
84.175700
0
LINE
8
Camada 1
10
17.048830
20
84.175700
11
19.239715
21
87.316821
0
LINE
8
Camada 1
10
19.239715
20
87.316821
11
21.371009
21
90.082804
0
LINE
8
Camada 1
10
21.371009
20
90.082804
11
22.970213
21
92.431185
0
LINE
8
Camada 1
10
22.970213
20
92.431185
11
23.422626
21
93.435505
0
LINE
8
Camada 1
10
23.422626
20
93.435505
11
23.564830
21
94.319500
0
LINE
8
Camada 1
10
23.564830
20
94.319500
11
23.352312
21
95.309677
0
LINE
8
Camada 1
10
23.352312
20
95.309677
11
22.826660
21
96.194879
0
LINE
8
Camada 1
10
22.826660
20
96.194879
11
22.031230
21
96.987598
0
LINE
8
Camada 1
10
22.031230
20
96.987598
11
21.009381
21
97.700324
0
LINE
8
Camada 1
10
21.009381
20
97.700324
11
18.459856
21
98.935765
0
LINE
8
Camada 1
10
18.459856
20
98.935765
11
15.524947
21
100.001130
0
LINE
8
Camada 1
10
15.524947
20
100.001130
11
12.551518
21
100.996347
0
LINE
8
Camada 1
10
12.551518
20
100.996347
11
9.886430
21
102.021346
0
LINE
8
Camada 1
10
9.886430
20
102.021346
11
8.777909
21
102.576240
0
LINE
8
Camada 1
10
8.777909
20
102.576240
11
7.876547
21
103.176054
0
LINE
8
Camada 1
10
7.876547
20
103.176054
11
7.225701
21
103.833277
0
LINE
8
Camada 1
10
7.225701
20
103.833277
11
6.868730
21
104.560400
0
LINE
8
Camada 1
10
6.868730
20
104.560400
11
6.799789
21
105.517153
0
LINE
8
Camada 1
10
6.799789
20
105.517153
11
7.037703
21
106.525583
0
LINE
8
Camada 1
10
7.037703
20
106.525583
11
7.531433
21
107.606358
0
LINE
8
Camada 1
10
7.531433
20
107.606358
11
8.229940
21
108.780146
0
LINE
8
Camada 1
10
8.229940
20
108.780146
11
10.037132
21
111.489437
0
LINE
8
Camada 1
10
10.037132
20
111.489437
11
12.050970
21
114.818800
0
LINE
8
Camada 1
10
12.050970
20
114.818800
11
13.181393
21
117.124289
0
LINE
8
Camada 1
10
13.181393
20
117.124289
11
13.974606
21
119.419655
0
LINE
8
Camada 1
10
13.974606
20
119.419655
11
14.449053
21
121.685919
0
LINE
8
Camada 1
10
14.449053
20
121.685919
11
14.623173
21
123.904103
0
LINE
8
Camada 1
10
14.623173
20
123.904103
11
14.515410
21
126.055229
0
LINE
8
Camada 1
10
14.515410
20
126.055229
11
14.144205
21
128.120318
0
LINE
8
Camada 1
10
14.144205
20
128.120318
11
13.527999
21
130.080393
0
LINE
8
Camada 1
10
13.527999
20
130.080393
11
12.685234
21
131.916475
0
LINE
8
Camada 1
10
12.685234
20
131.916475
11
11.634352
21
133.609586
0
LINE
8
Camada 1
10
11.634352
20
133.609586
11
10.393794
21
135.140747
0
LINE
8
Camada 1
10
10.393794
20
135.140747
11
8.982003
21
136.490981
0
LINE
8
Camada 1
10
8.982003
20
136.490981
11
7.417420
21
137.641309
0
LINE
8
Camada 1
10
7.417420
20
137.641309
11
5.718486
21
138.572754
0
LINE
8
Camada 1
10
5.718486
20
138.572754
11
3.903644
21
139.266336
0
LINE
8
Camada 1
10
3.903644
20
139.266336
11
1.991335
21
139.703077
0
LINE
8
Camada 1
10
1.991335
20
139.703077
11
0.000000
21
139.864000
0
LINE
8
Camada 1
10
0.000000
20
139.864000
11
0.000000
21
0.000000
0
LINE
8
Camada 1
10
0.000000
20
0.000000
11
18.301700
21
0.218060
 0 
ENDSEC
 0 
EOF